<svg class="marks" width="675" height="555" viewBox="0 0 675 555" version="1.1" xmlns="http://www.w3.org/2000/svg" xmlns:xlink="http://www.w3.org/1999/xlink"><rect width="675" height="555" style="fill: white;"></rect><g transform="translate(55,69)"><g class="mark-group role-frame root" role="graphics-object" aria-roledescription="group mark container"><g transform="translate(0,0)"><path class="background" aria-hidden="true" d="M0.5,0.5h600v450h-600Z" style="fill: none; stroke: #ddd; stroke-opacity: 0;"></path><g><g class="mark-group role-axis" role="graphics-symbol" aria-roledescription="axis" aria-label="Y-axis for a linear scale with values from -500,000 to 50,000"><g transform="translate(0.5,0.5)"><path class="background" aria-hidden="true" d="M0,0h0v0h0Z" style="pointer-events: none; fill: none;"></path><g><g class="mark-rule role-axis-grid" style="pointer-events: none;"><line transform="translate(0,41)" x2="600" y2="0" style="fill: none; stroke: #ddd; stroke-opacity: 1; stroke-width: 1; opacity: 1;"></line><line transform="translate(0,123)" x2="600" y2="0" style="fill: none; stroke: #ddd; stroke-opacity: 1; stroke-width: 1; opacity: 1;"></line><line transform="translate(0,205)" x2="600" y2="0" style="fill: none; stroke: #ddd; stroke-opacity: 1; stroke-width: 1; opacity: 1;"></line><line transform="translate(0,286)" x2="600" y2="0" style="fill: none; stroke: #ddd; stroke-opacity: 1; stroke-width: 1; opacity: 1;"></line><line transform="translate(0,368)" x2="600" y2="0" style="fill: none; stroke: #ddd; stroke-opacity: 1; stroke-width: 1; opacity: 1;"></line></g></g><path class="foreground" aria-hidden="true" d="" style="pointer-events: none; display: none; fill: none;"></path></g></g><g class="mark-group role-axis" role="graphics-symbol" aria-roledescription="axis" aria-label="X-axis for a discrete scale with 29 values: 1990, 1991, 1992, 1993, 1994, ending with 2017"><g transform="translate(0.5,450.5)"><path class="background" aria-hidden="true" d="M0,0h0v0h0Z" style="pointer-events: none; fill: none;"></path><g><g class="mark-text role-axis-label" style="pointer-events: none;"><text text-anchor="middle" transform="translate(10.344827586206861,27)" style="font-family: Calibri; font-size: 22px; fill: #000; fill-opacity: 0.8; opacity: 1;">1990</text><text text-anchor="middle" transform="translate(217.2413793103448,27)" style="font-family: Calibri; font-size: 22px; fill: #000; fill-opacity: 0.8; opacity: 1;">2000</text><text text-anchor="middle" transform="translate(424.13793103448273,27)" style="font-family: Calibri; font-size: 22px; fill: #000; fill-opacity: 0.8; opacity: 1;">2010</text><text text-anchor="middle" transform="translate(589.6551724137931,27)" style="font-family: Calibri; font-size: 22px; fill: #000; fill-opacity: 0.8; opacity: 1;">2017</text></g><g class="mark-rule role-axis-domain" style="pointer-events: none;"><line transform="translate(0,0)" x2="600" y2="0" style="fill: none; stroke: #888; stroke-width: 1; opacity: 1;"></line></g></g><path class="foreground" aria-hidden="true" d="" style="pointer-events: none; display: none; fill: none;"></path></g></g><g class="mark-group role-axis" role="graphics-symbol" aria-roledescription="axis" aria-label="Y-axis titled 'Every year since 1990 more Californians moved out than residents' for a linear scale with values from -500k to 50k"><g transform="translate(0.5,0.5)"><path class="background" aria-hidden="true" d="M0,0h0v0h0Z" style="pointer-events: none; fill: none;"></path><g><g class="mark-text role-axis-label" style="pointer-events: none;"><text text-anchor="start" transform="translate(-50,47.90909090909092)" style="font-family: Calibri; font-size: 22px; fill: #000; fill-opacity: 0.8; opacity: 1;">0k</text><text text-anchor="start" transform="translate(-50,129.72727272727272)" style="font-family: Calibri; font-size: 22px; fill: #000; fill-opacity: 0.8; opacity: 1;">-100k</text><text text-anchor="start" transform="translate(-50,211.54545454545456)" style="font-family: Calibri; font-size: 22px; fill: #000; fill-opacity: 0.8; opacity: 1;">-200k</text><text text-anchor="start" transform="translate(-50,293.3636363636364)" style="font-family: Calibri; font-size: 22px; fill: #000; fill-opacity: 0.8; opacity: 1;">-300k</text><text text-anchor="start" transform="translate(-50,375.18181818181813)" style="font-family: Calibri; font-size: 22px; fill: #000; fill-opacity: 0.8; opacity: 1;">-400k</text></g><g class="mark-rule role-axis-domain" style="pointer-events: none;"><line transform="translate(0,450)" x2="0" y2="-450" style="fill: none; stroke: #888; stroke-width: 0; opacity: 1;"></line></g><g class="mark-text role-axis-title" style="pointer-events: none;"><text text-anchor="start" transform="translate(-50,-10)" style="font-family: Calibri; font-size: 24px; font-weight: normal; fill: #000; fill-opacity: 0.8; opacity: 1;">Every year since 1990 more Californians moved out than residents</text></g></g><path class="foreground" aria-hidden="true" d="" style="pointer-events: none; display: none; fill: none;"></path></g></g><g class="mark-area role-mark layer_0_marks" role="graphics-symbol" aria-roledescription="area mark container"><path d="M10.344827586206861,182.26636363636365L13.793103448275827,188.66181818181818C17.241379310344794,195.05727272727276,24.137931034482722,207.84818181818184,31.034482758620655,239.30781818181822C37.931034482758584,270.76745454545454,44.82758620689651,320.8958181818182,51.72413793103445,353.95472727272727C58.620689655172384,387.01363636363635,65.5172413793103,403.0030909090909,72.41379310344824,402.54545454545456C79.31034482758618,402.0878181818182,86.20689655172411,385.1830909090909,93.10344827586204,361.20599999999996C99.99999999999996,337.2289090909091,106.89655172413791,306.1794545454545,113.79310344827583,273.69218181818184C120.68965517241377,241.20490909090907,127.58620689655169,207.2798181818182,134.48275862068962,181.46972727272728C141.37931034482756,155.65963636363637,148.2758620689655,137.96454545454546,155.17241379310343,128.28218181818184C162.06896551724137,118.59981818181821,168.96551724137927,116.93018181818184,175.8620689655172,115.83859090909094C182.75862068965512,114.74700000000001,189.65517241379305,114.23345454545456,196.55172413793102,108.86222727272728C203.44827586206893,103.491,210.34482758620686,93.2620909090909,217.2413793103448,98.71922727272727C224.1379310344827,104.17636363636363,231.03448275862067,125.31954545454543,237.9310344827586,134.22954545454544C244.8275862068965,143.13954545454544,251.72413793103445,139.81636363636363,258.6206896551724,144.9670909090909C265.5172413793103,150.1178181818182,272.4137931034482,163.74245454545454,279.31034482758616,184.66363636363636C286.2068965517241,205.58481818181818,293.10344827586204,233.80254545454545,299.99999999999994,254.35745454545454C306.8965517241379,274.91236363636364,313.7931034482759,287.8044545454545,320.6896551724138,288.68454545454546C327.5862068965517,289.56463636363634,334.4827586206896,278.4327272727273,341.3793103448275,255.26086363636364C348.2758620689655,232.08899999999997,355.17241379310343,196.8771818181818,362.0689655172414,171.66518181818182C368.96551724137925,146.4531818181818,375.8620689655172,131.24099999999999,382.7586206896551,118.40127272727273C389.655172413793,105.56154545454545,396.551724137931,95.09427272727272,403.4482758620689,87.73868181818182C410.3448275862069,80.38309090909091,417.2413793103448,76.13918181818183,424.1379310344828,71.11868181818183C431.03448275862064,66.09818181818183,437.9310344827586,60.30109090909091,444.8275862068965,62.45836363636365C451.7241379310344,64.61563636363637,458.6206896551724,74.72727272727273,465.5172413793103,82.06336363636363C472.4137931034483,89.39945454545455,479.3103448275862,93.96,486.2068965517242,94.00336363636364C493.10344827586204,94.0467272727273,500,89.57290909090909,506.8965517241379,95.33822727272728C513.7931034482758,101.10354545454545,520.6896551724138,117.10800000000002,527.5862068965517,141.14509090909092C534.4827586206897,165.18218181818182,541.3793103448276,197.2519090909091,551.7241379310344,208.78159090909094C562.0689655172414,220.31127272727272,575.8620689655172,211.30090909090907,582.7586206896552,206.79572727272728L589.6551724137931,202.29054545454542L589.6551724137931,40.90909090909091L582.7586206896552,40.90909090909091C575.8620689655172,40.90909090909091,562.0689655172414,40.90909090909091,551.7241379310344,40.90909090909091C541.3793103448276,40.909090909090914,534.4827586206897,40.909090909090914,527.5862068965517,40.909090909090914C520.6896551724138,40.90909090909092,513.7931034482758,40.90909090909092,506.8965517241379,40.90909090909093C500,40.90909090909092,493.10344827586204,40.90909090909092,486.2068965517241,40.90909090909093C479.3103448275862,40.90909090909092,472.4137931034483,40.90909090909092,465.5172413793104,40.90909090909093C458.6206896551724,40.90909090909092,451.7241379310344,40.90909090909092,444.8275862068965,40.90909090909093C437.9310344827586,40.90909090909092,431.03448275862064,40.90909090909092,424.13793103448273,40.90909090909093C417.2413793103448,40.90909090909092,410.3448275862069,40.90909090909092,403.448275862069,40.90909090909093C396.551724137931,40.90909090909092,389.655172413793,40.90909090909092,382.7586206896551,40.90909090909093C375.8620689655172,40.90909090909092,368.96551724137925,40.90909090909092,362.06896551724134,40.90909090909093C355.17241379310343,40.90909090909093,348.2758620689655,40.90909090909093,341.3793103448276,40.909090909090935C334.4827586206896,40.909090909090935,327.5862068965517,40.909090909090935,320.6896551724138,40.909090909090935C313.7931034482759,40.909090909090935,306.8965517241379,40.909090909090935,300,40.909090909090935C293.10344827586204,40.909090909090935,286.2068965517241,40.909090909090935,279.31034482758616,40.909090909090935C272.4137931034482,40.90909090909093,265.5172413793103,40.90909090909093,258.6206896551724,40.90909090909093C251.72413793103445,40.90909090909092,244.8275862068965,40.90909090909092,237.9310344827586,40.90909090909093C231.03448275862067,40.90909090909092,224.1379310344827,40.90909090909092,217.24137931034477,40.90909090909093C210.34482758620686,40.90909090909092,203.44827586206893,40.90909090909092,196.55172413793102,40.90909090909093C189.65517241379305,40.90909090909092,182.75862068965512,40.90909090909092,175.8620689655172,40.90909090909093C168.96551724137927,40.90909090909092,162.06896551724137,40.90909090909092,155.17241379310343,40.90909090909092C148.2758620689655,40.909090909090914,141.37931034482756,40.909090909090914,134.48275862068962,40.909090909090914C127.58620689655169,40.909090909090914,120.68965517241377,40.90909090909093,113.79310344827582,40.90909090909093C106.89655172413791,40.909090909090935,99.99999999999996,40.909090909090935,93.10344827586204,40.909090909090935C86.20689655172411,40.909090909090935,79.31034482758618,40.909090909090935,72.41379310344824,40.909090909090935C65.5172413793103,40.909090909090935,58.620689655172384,40.909090909090935,51.72413793103445,40.90909090909093C44.82758620689651,40.90909090909093,37.931034482758584,40.909090909090914,31.034482758620655,40.909090909090914C24.137931034482722,40.90909090909091,17.241379310344794,40.90909090909091,13.793103448275827,40.90909090909091L10.344827586206861,40.90909090909091Z" style="fill: lightgray; opacity: 0.3;"></path></g><g class="mark-line role-mark layer_1_marks" role="graphics-symbol" aria-roledescription="line mark container"><path d="M10.344827586206861,182.26636363636365L13.793103448275827,188.66181818181818C17.241379310344794,195.05727272727276,24.137931034482722,207.84818181818184,31.034482758620655,239.30781818181822C37.931034482758584,270.76745454545454,44.82758620689651,320.8958181818182,51.72413793103445,353.95472727272727C58.620689655172384,387.01363636363635,65.5172413793103,403.0030909090909,72.41379310344824,402.54545454545456C79.31034482758618,402.0878181818182,86.20689655172411,385.1830909090909,93.10344827586204,361.20599999999996C99.99999999999996,337.2289090909091,106.89655172413791,306.1794545454545,113.79310344827583,273.69218181818184C120.68965517241377,241.20490909090907,127.58620689655169,207.2798181818182,134.48275862068962,181.46972727272728C141.37931034482756,155.65963636363637,148.2758620689655,137.96454545454546,155.17241379310343,128.28218181818184C162.06896551724137,118.59981818181821,168.96551724137927,116.93018181818184,175.8620689655172,115.83859090909094C182.75862068965512,114.74700000000001,189.65517241379305,114.23345454545456,196.55172413793102,108.86222727272728C203.44827586206893,103.491,210.34482758620686,93.2620909090909,217.2413793103448,98.71922727272727C224.1379310344827,104.17636363636363,231.03448275862067,125.31954545454543,237.9310344827586,134.22954545454544C244.8275862068965,143.13954545454544,251.72413793103445,139.81636363636363,258.6206896551724,144.9670909090909C265.5172413793103,150.1178181818182,272.4137931034482,163.74245454545454,279.31034482758616,184.66363636363636C286.2068965517241,205.58481818181818,293.10344827586204,233.80254545454545,299.99999999999994,254.35745454545454C306.8965517241379,274.91236363636364,313.7931034482759,287.8044545454545,320.6896551724138,288.68454545454546C327.5862068965517,289.56463636363634,334.4827586206896,278.4327272727273,341.3793103448275,255.26086363636364C348.2758620689655,232.08899999999997,355.17241379310343,196.8771818181818,362.0689655172414,171.66518181818182C368.96551724137925,146.4531818181818,375.8620689655172,131.24099999999999,382.7586206896551,118.40127272727273C389.655172413793,105.56154545454545,396.551724137931,95.09427272727272,403.4482758620689,87.73868181818182C410.3448275862069,80.38309090909091,417.2413793103448,76.13918181818183,424.1379310344828,71.11868181818183C431.03448275862064,66.09818181818183,437.9310344827586,60.30109090909091,444.8275862068965,62.45836363636365C451.7241379310344,64.61563636363637,458.6206896551724,74.72727272727273,465.5172413793103,82.06336363636363C472.4137931034483,89.39945454545455,479.3103448275862,93.96,486.2068965517242,94.00336363636364C493.10344827586204,94.0467272727273,500,89.57290909090909,506.8965517241379,95.33822727272728C513.7931034482758,101.10354545454545,520.6896551724138,117.10800000000002,527.5862068965517,141.14509090909092C534.4827586206897,165.18218181818182,541.3793103448276,197.2519090909091,551.7241379310344,208.78159090909094C562.0689655172414,220.31127272727272,575.8620689655172,211.30090909090907,582.7586206896552,206.79572727272728L589.6551724137931,202.29054545454542" style="fill: none; stroke: #006aac; stroke-width: 5; stroke-linecap: round;"></path></g><g class="mark-text role-mark layer_2_marks" role="graphics-object" aria-roledescription="text mark container"><text text-anchor="middle" transform="translate(72.41379310344824,432.45454545454544)" style="font-family: calibri; font-size: 22px; font-weight: bold; fill: black; opacity: 0.8;">'93 low</text><text text-anchor="middle" transform="translate(320.6896551724138,322)" style="font-family: calibri; font-size: 22px; font-weight: bold; fill: black; opacity: 0.8;">'05 low</text><text text-anchor="middle" transform="translate(568.9655172413793,244.2727272727273)" style="font-family: calibri; font-size: 22px; font-weight: bold; fill: black; opacity: 0.8;">Next low?</text></g><g class="mark-text role-mark layer_3_marks" role="graphics-object" aria-roledescription="text mark container"><text text-anchor="middle" transform="translate(87.10344827586204,15.181818181818185)" style="font-family: calibri; font-size: 24px; fill: black; opacity: 0.9;">from other states moved in.</text></g><g class="mark-group role-title"><g transform="translate(-50,-64)"><path class="background" aria-hidden="true" d="M0,0h0v0h0Z" style="pointer-events: none; fill: none;"></path><g><g class="mark-text role-title-text" role="graphics-symbol" aria-roledescription="title" aria-label="Title text 'California Net Domestic Migration'" style="pointer-events: none;"><text text-anchor="start" transform="translate(0,24)" style="font-family: Calibri; font-size: 30px; font-weight: normal; fill: #000; opacity: 1;">California Net Domestic Migration</text></g></g><path class="foreground" aria-hidden="true" d="" style="pointer-events: none; display: none; fill: none;"></path></g></g></g><path class="foreground" aria-hidden="true" d="" style="display: none; fill: none;"></path></g></g></g></svg>