<svg class="marks" width="680" height="650" viewBox="0 0 680 650" version="1.1" xmlns="http://www.w3.org/2000/svg" xmlns:xlink="http://www.w3.org/1999/xlink"><rect width="680" height="650" style="fill: white;"></rect><g transform="translate(55,114)"><g class="mark-group role-frame root" role="graphics-object" aria-roledescription="group mark container"><g transform="translate(0,0)"><path class="background" aria-hidden="true" d="M0.5,0.5h600v500h-600Z" style="fill: none; stroke: #ddd; stroke-opacity: 0;"></path><g><g class="mark-group role-axis" role="graphics-symbol" aria-roledescription="axis" aria-label="Y-axis for a linear scale with values from -400,000 to 0"><g transform="translate(0.5,0.5)"><path class="background" aria-hidden="true" d="M0,0h0v0h0Z" style="pointer-events: none; fill: none;"></path><g><g class="mark-rule role-axis-grid" style="pointer-events: none;"><line transform="translate(0,0)" x2="600" y2="0" style="fill: none; stroke: #ddd; stroke-opacity: 1; stroke-width: 1; opacity: 1;"></line><line transform="translate(0,125)" x2="600" y2="0" style="fill: none; stroke: #ddd; stroke-opacity: 1; stroke-width: 1; opacity: 1;"></line><line transform="translate(0,250)" x2="600" y2="0" style="fill: none; stroke: #ddd; stroke-opacity: 1; stroke-width: 1; opacity: 1;"></line><line transform="translate(0,375)" x2="600" y2="0" style="fill: none; stroke: #ddd; stroke-opacity: 1; stroke-width: 1; opacity: 1;"></line></g></g><path class="foreground" aria-hidden="true" d="" style="pointer-events: none; display: none; fill: none;"></path></g></g><g class="mark-group role-axis" role="graphics-symbol" aria-roledescription="axis" aria-label="X-axis for a discrete scale with 29 values: 1990, 1991, 1992, 1993, 1994, ending with 2017"><g transform="translate(0.5,500.5)"><path class="background" aria-hidden="true" d="M0,0h0v0h0Z" style="pointer-events: none; fill: none;"></path><g><g class="mark-text role-axis-label" style="pointer-events: none;"><text text-anchor="middle" transform="translate(10.344827586206861,27)" style="font-family: Calibri; font-size: 22px; fill: #000; fill-opacity: 0.8; opacity: 1;">1990</text><text text-anchor="middle" transform="translate(217.2413793103448,27)" style="font-family: Calibri; font-size: 22px; fill: #000; fill-opacity: 0.8; opacity: 1;">2000</text><text text-anchor="middle" transform="translate(424.13793103448273,27)" style="font-family: Calibri; font-size: 22px; fill: #000; fill-opacity: 0.8; opacity: 1;">2010</text><text text-anchor="middle" transform="translate(589.6551724137931,27)" style="font-family: Calibri; font-size: 22px; fill: #000; fill-opacity: 0.8; opacity: 1;">2017</text></g><g class="mark-rule role-axis-domain" style="pointer-events: none;"><line transform="translate(0,0)" x2="600" y2="0" style="fill: none; stroke: #888; stroke-width: 1; opacity: 1;"></line></g></g><path class="foreground" aria-hidden="true" d="" style="pointer-events: none; display: none; fill: none;"></path></g></g><g class="mark-group role-axis" role="graphics-symbol" aria-roledescription="axis" aria-label="Y-axis titled 'Every year since 1990 more Californians moved out than residents' for a linear scale with values from -400k to 0k"><g transform="translate(0.5,0.5)"><path class="background" aria-hidden="true" d="M0,0h0v0h0Z" style="pointer-events: none; fill: none;"></path><g><g class="mark-text role-axis-label" style="pointer-events: none;"><text text-anchor="start" transform="translate(-50,7)" style="font-family: Calibri; font-size: 22px; fill: #000; fill-opacity: 0.8; opacity: 1;">0k</text><text text-anchor="start" transform="translate(-50,132)" style="font-family: Calibri; font-size: 22px; fill: #000; fill-opacity: 0.8; opacity: 1;">-100k</text><text text-anchor="start" transform="translate(-50,257)" style="font-family: Calibri; font-size: 22px; fill: #000; fill-opacity: 0.8; opacity: 1;">-200k</text><text text-anchor="start" transform="translate(-50,382)" style="font-family: Calibri; font-size: 22px; fill: #000; fill-opacity: 0.8; opacity: 1;">-300k</text></g><g class="mark-rule role-axis-domain" style="pointer-events: none;"><line transform="translate(0,500)" x2="0" y2="-500" style="fill: none; stroke: #888; stroke-width: 0; opacity: 1;"></line></g><g class="mark-text role-axis-title" style="pointer-events: none;"><text text-anchor="start" transform="translate(-50,-55)" style="font-family: Calibri; font-size: 24px; font-weight: normal; fill: #000; fill-opacity: 0.8; opacity: 1;">Every year since 1990 more Californians moved out than residents</text></g></g><path class="foreground" aria-hidden="true" d="" style="pointer-events: none; display: none; fill: none;"></path></g></g><g class="mark-area role-mark layer_0_marks" role="graphics-symbol" aria-roledescription="area mark container"><path d="M10.344827586206861,168.1275L13.793103448275827,175.54270833333337C17.241379310344794,182.95791666666665,24.137931034482722,197.78833333333333,31.034482758620655,233.34062500000005C37.931034482758584,268.8929166666667,44.82758620689651,325.1670833333333,51.72413793103445,360.3222916666667C58.620689655172384,395.47749999999996,65.5172413793103,409.51375,72.41379310344824,405.4070833333333C79.31034482758618,401.30041666666665,86.20689655172411,379.0508333333333,93.10344827586204,351.11020833333333C99.99999999999996,323.1695833333333,106.89655172413791,289.53791666666666,113.79310344827583,254.14374999999998C120.68965517241377,218.74958333333333,127.58620689655169,181.59291666666664,134.48275862068962,153.52083333333334C141.37931034482756,125.44875000000002,148.2758620689655,106.46125000000002,155.17241379310343,96.33125000000001C162.06896551724137,86.20125000000002,168.96551724137927,84.92875,175.8620689655172,84.22583333333333C182.75862068965512,83.52291666666666,189.65517241379305,83.3895833333333,196.55172413793102,77.47749999999999C203.44827586206893,71.56541666666666,210.34482758620686,59.87458333333334,217.2413793103448,66.13958333333335C224.1379310344827,72.40458333333335,231.03448275862067,96.62541666666665,237.9310344827586,106.90374999999999C244.8275862068965,117.18208333333331,251.72413793103445,113.51791666666664,258.6206896551724,119.36958333333332C265.5172413793103,125.22124999999998,272.4137931034482,140.58875,279.31034482758616,164.18604166666668C286.2068965517241,187.78333333333333,293.10344827586204,219.61041666666665,299.99999999999994,242.501875C306.8965517241379,265.3933333333334,313.7931034482759,279.3491666666667,320.6896551724138,280.1547916666667C327.5862068965517,280.96041666666673,334.4827586206896,268.61583333333334,341.3793103448275,243.158125C348.2758620689655,217.70041666666668,355.17241379310343,179.12958333333336,362.0689655172414,151.223125C368.96551724137925,123.31666666666666,375.8620689655172,106.07458333333334,382.7586206896551,91.21479166666666C389.655172413793,76.35499999999999,396.551724137931,63.8775,403.4482758620689,55.153333333333336C410.3448275862069,46.42916666666667,417.2413793103448,41.458333333333336,424.1379310344828,35.66125C431.03448275862064,29.864166666666673,437.9310344827586,23.24083333333334,444.8275862068965,26.03833333333334C451.7241379310344,28.83583333333334,458.6206896551724,41.05416666666667,465.5172413793103,49.86479166666667C472.4137931034483,58.67541666666667,479.3103448275862,64.07833333333333,486.2068965517242,64.13374999999999C493.10344827586204,64.18916666666667,500,58.89708333333334,506.8965517241379,65.79979166666666C513.7931034482758,72.7025,520.6896551724138,91.8,527.5862068965517,119.96354166666664C534.4827586206897,148.1270833333333,541.3793103448276,185.35666666666665,551.7241379310344,198.78979166666662C562.0689655172414,212.22291666666663,575.8620689655172,201.8595833333333,582.7586206896552,196.67791666666665L589.6551724137931,191.49624999999997L589.6551724137931,0L582.7586206896552,0C575.8620689655172,0,562.0689655172414,0,551.7241379310344,0C541.3793103448276,0,534.4827586206897,0,527.5862068965517,0C520.6896551724138,0,513.7931034482758,0,506.8965517241379,0C500,0,493.10344827586204,0,486.2068965517241,0C479.3103448275862,0,472.4137931034483,0,465.5172413793104,0C458.6206896551724,0,451.7241379310344,0,444.8275862068965,0C437.9310344827586,0,431.03448275862064,0,424.13793103448273,0C417.2413793103448,0,410.3448275862069,0,403.448275862069,0C396.551724137931,0,389.655172413793,0,382.7586206896551,0C375.8620689655172,0,368.96551724137925,0,362.06896551724134,0C355.17241379310343,0,348.2758620689655,0,341.3793103448276,0C334.4827586206896,0,327.5862068965517,0,320.6896551724138,0C313.7931034482759,0,306.8965517241379,0,300,0C293.10344827586204,0,286.2068965517241,0,279.31034482758616,0C272.4137931034482,0,265.5172413793103,0,258.6206896551724,0C251.72413793103445,0,244.8275862068965,0,237.9310344827586,0C231.03448275862067,0,224.1379310344827,0,217.24137931034477,0C210.34482758620686,0,203.44827586206893,0,196.55172413793102,0C189.65517241379305,0,182.75862068965512,0,175.8620689655172,0C168.96551724137927,0,162.06896551724137,0,155.17241379310343,0C148.2758620689655,0,141.37931034482756,0,134.48275862068962,0C127.58620689655169,0,120.68965517241377,0,113.79310344827582,0C106.89655172413791,0,99.99999999999996,0,93.10344827586204,0C86.20689655172411,0,79.31034482758618,0,72.41379310344824,0C65.5172413793103,0,58.620689655172384,0,51.72413793103445,0C44.82758620689651,0,37.931034482758584,0,31.034482758620655,0C24.137931034482722,0,17.241379310344794,0,13.793103448275827,0L10.344827586206861,0Z" style="fill: lightgray; opacity: 0.3;"></path></g><g class="mark-line role-mark layer_1_marks" role="graphics-symbol" aria-roledescription="line mark container"><path d="M10.344827586206861,168.1275L13.793103448275827,175.54270833333337C17.241379310344794,182.95791666666665,24.137931034482722,197.78833333333333,31.034482758620655,233.34062500000005C37.931034482758584,268.8929166666667,44.82758620689651,325.1670833333333,51.72413793103445,360.3222916666667C58.620689655172384,395.47749999999996,65.5172413793103,409.51375,72.41379310344824,405.4070833333333C79.31034482758618,401.30041666666665,86.20689655172411,379.0508333333333,93.10344827586204,351.11020833333333C99.99999999999996,323.1695833333333,106.89655172413791,289.53791666666666,113.79310344827583,254.14374999999998C120.68965517241377,218.74958333333333,127.58620689655169,181.59291666666664,134.48275862068962,153.52083333333334C141.37931034482756,125.44875000000002,148.2758620689655,106.46125000000002,155.17241379310343,96.33125000000001C162.06896551724137,86.20125000000002,168.96551724137927,84.92875,175.8620689655172,84.22583333333333C182.75862068965512,83.52291666666666,189.65517241379305,83.3895833333333,196.55172413793102,77.47749999999999C203.44827586206893,71.56541666666666,210.34482758620686,59.87458333333334,217.2413793103448,66.13958333333335C224.1379310344827,72.40458333333335,231.03448275862067,96.62541666666665,237.9310344827586,106.90374999999999C244.8275862068965,117.18208333333331,251.72413793103445,113.51791666666664,258.6206896551724,119.36958333333332C265.5172413793103,125.22124999999998,272.4137931034482,140.58875,279.31034482758616,164.18604166666668C286.2068965517241,187.78333333333333,293.10344827586204,219.61041666666665,299.99999999999994,242.501875C306.8965517241379,265.3933333333334,313.7931034482759,279.3491666666667,320.6896551724138,280.1547916666667C327.5862068965517,280.96041666666673,334.4827586206896,268.61583333333334,341.3793103448275,243.158125C348.2758620689655,217.70041666666668,355.17241379310343,179.12958333333336,362.0689655172414,151.223125C368.96551724137925,123.31666666666666,375.8620689655172,106.07458333333334,382.7586206896551,91.21479166666666C389.655172413793,76.35499999999999,396.551724137931,63.8775,403.4482758620689,55.153333333333336C410.3448275862069,46.42916666666667,417.2413793103448,41.458333333333336,424.1379310344828,35.66125C431.03448275862064,29.864166666666673,437.9310344827586,23.24083333333334,444.8275862068965,26.03833333333334C451.7241379310344,28.83583333333334,458.6206896551724,41.05416666666667,465.5172413793103,49.86479166666667C472.4137931034483,58.67541666666667,479.3103448275862,64.07833333333333,486.2068965517242,64.13374999999999C493.10344827586204,64.18916666666667,500,58.89708333333334,506.8965517241379,65.79979166666666C513.7931034482758,72.7025,520.6896551724138,91.8,527.5862068965517,119.96354166666664C534.4827586206897,148.1270833333333,541.3793103448276,185.35666666666665,551.7241379310344,198.78979166666662C562.0689655172414,212.22291666666663,575.8620689655172,201.8595833333333,582.7586206896552,196.67791666666665L589.6551724137931,191.49624999999997" style="fill: none; stroke: #006aac; stroke-width: 5; stroke-linecap: round;"></path></g><g class="mark-text role-mark layer_2_marks" role="graphics-object" aria-roledescription="text mark container"><text text-anchor="middle" transform="translate(72.41379310344824,444.5)" style="font-family: calibri; font-size: 22px; font-weight: bold; fill: black; opacity: 0.8;">'93 peak</text><text text-anchor="middle" transform="translate(320.6896551724138,319.5)" style="font-family: calibri; font-size: 22px; font-weight: bold; fill: black; opacity: 0.8;">'05 peak</text><text text-anchor="middle" transform="translate(568.9655172413793,244.5)" style="font-family: calibri; font-size: 22px; font-weight: bold; fill: black; opacity: 0.8;">Next Peak?</text></g><g class="mark-text role-mark layer_3_marks" role="graphics-object" aria-roledescription="text mark container"><text text-anchor="middle" transform="translate(87.10344827586204,-30.49999999999998)" style="font-family: calibri; font-size: 24px; fill: black; opacity: 0.9;">from other states moved in.</text></g><g class="mark-group role-title"><g transform="translate(-50,-109)"><path class="background" aria-hidden="true" d="M0,0h0v0h0Z" style="pointer-events: none; fill: none;"></path><g><g class="mark-text role-title-text" role="graphics-symbol" aria-roledescription="title" aria-label="Title text 'California Net Domestic Migration'" style="pointer-events: none;"><text text-anchor="start" transform="translate(0,24)" style="font-family: Calibri; font-size: 30px; font-weight: normal; fill: #000; opacity: 1;">California Net Domestic Migration</text></g></g><path class="foreground" aria-hidden="true" d="" style="pointer-events: none; display: none; fill: none;"></path></g></g></g><path class="foreground" aria-hidden="true" d="" style="display: none; fill: none;"></path></g></g></g></svg>