<svg class="marks" width="656" height="517" viewBox="0 0 656 517" version="1.1" xmlns="http://www.w3.org/2000/svg" xmlns:xlink="http://www.w3.org/1999/xlink"><rect width="656" height="517" style="fill: white;"></rect><g transform="translate(45,86)"><g class="mark-group role-frame root"><g transform="translate(0,0)"><path class="background" d="M0.5,0.5h600v400h-600Z" style="fill: none; stroke: #ddd; stroke-opacity: 0;"></path><g><g class="mark-group role-axis"><g transform="translate(0.5,0.5)"><path class="background" d="M0,0h0v0h0Z" style="pointer-events: none; fill: none;"></path><g><g class="mark-rule role-axis-grid" style="pointer-events: none;"><line transform="translate(0,0)" x2="600" y2="0" style="fill: none; stroke: #ddd; stroke-opacity: 1; stroke-width: 1; opacity: 1;"></line><line transform="translate(0,80)" x2="600" y2="0" style="fill: none; stroke: #ddd; stroke-opacity: 1; stroke-width: 1; opacity: 1;"></line><line transform="translate(0,160)" x2="600" y2="0" style="fill: none; stroke: #ddd; stroke-opacity: 1; stroke-width: 1; opacity: 1;"></line><line transform="translate(0,240)" x2="600" y2="0" style="fill: none; stroke: #ddd; stroke-opacity: 1; stroke-width: 1; opacity: 1;"></line><line transform="translate(0,320)" x2="600" y2="0" style="fill: none; stroke: #ddd; stroke-opacity: 1; stroke-width: 1; opacity: 1;"></line></g></g><path class="foreground" d="" style="pointer-events: none; display: none; fill: none;"></path></g></g><g class="mark-group role-axis"><g transform="translate(0.5,400.5)"><path class="background" d="M0,0h0v0h0Z" style="pointer-events: none; fill: none;"></path><g><g class="mark-text role-axis-label" style="pointer-events: none;"><text text-anchor="middle" transform="translate(10.344827586206861,23)" style="font-family: Calibri; font-size: 16px; fill: #000; fill-opacity: 0.8; opacity: 1;">1990</text><text text-anchor="middle" transform="translate(217.2413793103448,23)" style="font-family: Calibri; font-size: 16px; fill: #000; fill-opacity: 0.8; opacity: 1;">2000</text><text text-anchor="middle" transform="translate(424.13793103448273,23)" style="font-family: Calibri; font-size: 16px; fill: #000; fill-opacity: 0.8; opacity: 1;">2010</text><text text-anchor="middle" transform="translate(589.6551724137931,23)" style="font-family: Calibri; font-size: 16px; fill: #000; fill-opacity: 0.8; opacity: 1;">2017</text></g><g class="mark-rule role-axis-domain" style="pointer-events: none;"><line transform="translate(0,0)" x2="600" y2="0" style="fill: none; stroke: #888; stroke-width: 1; opacity: 1;"></line></g></g><path class="foreground" d="" style="pointer-events: none; display: none; fill: none;"></path></g></g><g class="mark-group role-axis"><g transform="translate(0.5,0.5)"><path class="background" d="M0,0h0v0h0Z" style="pointer-events: none; fill: none;"></path><g><g class="mark-text role-axis-label" style="pointer-events: none;"><text text-anchor="start" transform="translate(-40,5)" style="font-family: Calibri; font-size: 16px; fill: #000; fill-opacity: 0.8; opacity: 1;">0k</text><text text-anchor="start" transform="translate(-40,84.99999999999999)" style="font-family: Calibri; font-size: 16px; fill: #000; fill-opacity: 0.8; opacity: 1;">-100k</text><text text-anchor="start" transform="translate(-40,165)" style="font-family: Calibri; font-size: 16px; fill: #000; fill-opacity: 0.8; opacity: 1;">-200k</text><text text-anchor="start" transform="translate(-40,245)" style="font-family: Calibri; font-size: 16px; fill: #000; fill-opacity: 0.8; opacity: 1;">-300k</text><text text-anchor="start" transform="translate(-40,325)" style="font-family: Calibri; font-size: 16px; fill: #000; fill-opacity: 0.8; opacity: 1;">-400k</text></g><g class="mark-rule role-axis-domain" style="pointer-events: none;"><line transform="translate(0,400)" x2="0" y2="-400" style="fill: none; stroke: #888; stroke-width: 0; opacity: 1;"></line></g><g class="mark-text role-axis-title" style="pointer-events: none;"><text text-anchor="start" transform="translate(-40,-33)" style="font-family: Calibri; font-size: 16px; font-weight: normal; fill: #000; fill-opacity: 0.8; opacity: 1;">Every year more Californians moved out than residents from other states moved in</text></g></g><path class="foreground" d="" style="pointer-events: none; display: none; fill: none;"></path></g></g><g class="mark-line role-mark layer_0_marks"><path d="M10.344827586206861,123.65279999999998L13.793103448275827,128.76946666666666C17.241379310344794,133.8861333333333,24.137931034482722,144.11946666666665,31.034482758620655,176.5456C37.931034482758584,208.9717333333333,44.82758620689651,263.59066666666666,51.72413793103445,299.4757333333333C58.620689655172384,335.3608,65.5172413793103,352.512,72.41379310344824,350.08573333333334C79.31034482758618,347.6594666666667,86.20689655172411,325.65573333333333,93.10344827586204,299.23493333333334C99.99999999999996,272.81413333333336,106.89655172413791,241.97626666666667,113.79310344827583,207.94359999999998C120.68965517241377,173.91093333333333,127.58620689655169,136.68346666666665,134.48275862068962,109.33826666666666C141.37931034482756,81.99306666666666,148.2758620689655,64.53013333333332,155.17241379310343,55.22893333333334C162.06896551724137,45.92773333333334,168.96551724137927,44.788266666666686,175.8620689655172,43.69826666666668C182.75862068965512,42.60826666666669,189.65517241379305,41.567733333333344,196.55172413793102,34.82600000000001C203.44827586206893,28.084266666666675,210.34482758620686,15.641333333333336,217.2413793103448,23.122933333333336C224.1379310344827,30.604533333333336,231.03448275862067,58.01066666666667,237.9310344827586,70.71213333333334C244.8275862068965,83.4136,251.72413793103445,81.4104,258.6206896551724,86.29626666666667C265.5172413793103,91.18213333333334,272.4137931034482,102.95706666666668,279.31034482758616,123.0632C286.2068965517241,143.16933333333336,293.10344827586204,171.60666666666668,299.99999999999994,190.94986666666668C306.8965517241379,210.2930666666667,313.7931034482759,220.54213333333334,320.6896551724138,220.05133333333333C327.5862068965517,219.56053333333332,334.4827586206896,208.32986666666667,341.3793103448275,185.35786666666664C348.2758620689655,162.38586666666666,355.17241379310343,127.67253333333333,362.0689655172414,103.80599999999998C368.96551724137925,79.93946666666666,375.8620689655172,66.91973333333334,382.7586206896551,59.76453333333334C389.655172413793,52.609333333333346,396.551724137931,51.31866666666667,403.4482758620689,48.49586666666667C410.3448275862069,45.67306666666667,417.2413793103448,41.31813333333334,424.1379310344828,35.892800000000015C431.03448275862064,30.467466666666677,437.9310344827586,23.971733333333344,444.8275862068965,25.71933333333334C451.7241379310344,27.466933333333333,458.6206896551724,37.45786666666667,465.5172413793103,44.52733333333333C472.4137931034483,51.5968,479.3103448275862,55.7448,486.2068965517242,55.23666666666666C493.10344827586204,54.728533333333324,500,49.56426666666666,506.8965517241379,55.758C513.7931034482758,61.95173333333333,520.6896551724138,79.50346666666667,527.5862068965517,104.73373333333332C534.4827586206897,129.964,541.3793103448276,162.87279999999998,551.7241379310344,174.9753333333333C562.0689655172414,187.07786666666664,575.8620689655172,178.37413333333333,582.7586206896552,174.02226666666664L589.6551724137931,169.6704" style="fill: none; stroke: #ffc417; stroke-width: 5; stroke-linecap: round;"></path></g><g class="mark-area role-mark layer_1_marks"><path d="M10.344827586206861,123.65279999999998L13.793103448275827,128.76946666666666C17.241379310344794,133.8861333333333,24.137931034482722,144.11946666666665,31.034482758620655,176.5456C37.931034482758584,208.9717333333333,44.82758620689651,263.59066666666666,51.72413793103445,299.4757333333333C58.620689655172384,335.3608,65.5172413793103,352.512,72.41379310344824,350.08573333333334C79.31034482758618,347.6594666666667,86.20689655172411,325.65573333333333,93.10344827586204,299.23493333333334C99.99999999999996,272.81413333333336,106.89655172413791,241.97626666666667,113.79310344827583,207.94359999999998C120.68965517241377,173.91093333333333,127.58620689655169,136.68346666666665,134.48275862068962,109.33826666666666C141.37931034482756,81.99306666666666,148.2758620689655,64.53013333333332,155.17241379310343,55.22893333333334C162.06896551724137,45.92773333333334,168.96551724137927,44.788266666666686,175.8620689655172,43.69826666666668C182.75862068965512,42.60826666666669,189.65517241379305,41.567733333333344,196.55172413793102,34.82600000000001C203.44827586206893,28.084266666666675,210.34482758620686,15.641333333333336,217.2413793103448,23.122933333333336C224.1379310344827,30.604533333333336,231.03448275862067,58.01066666666667,237.9310344827586,70.71213333333334C244.8275862068965,83.4136,251.72413793103445,81.4104,258.6206896551724,86.29626666666667C265.5172413793103,91.18213333333334,272.4137931034482,102.95706666666668,279.31034482758616,123.0632C286.2068965517241,143.16933333333336,293.10344827586204,171.60666666666668,299.99999999999994,190.94986666666668C306.8965517241379,210.2930666666667,313.7931034482759,220.54213333333334,320.6896551724138,220.05133333333333C327.5862068965517,219.56053333333332,334.4827586206896,208.32986666666667,341.3793103448275,185.35786666666664C348.2758620689655,162.38586666666666,355.17241379310343,127.67253333333333,362.0689655172414,103.80599999999998C368.96551724137925,79.93946666666666,375.8620689655172,66.91973333333334,382.7586206896551,59.76453333333334C389.655172413793,52.609333333333346,396.551724137931,51.31866666666667,403.4482758620689,48.49586666666667C410.3448275862069,45.67306666666667,417.2413793103448,41.31813333333334,424.1379310344828,35.892800000000015C431.03448275862064,30.467466666666677,437.9310344827586,23.971733333333344,444.8275862068965,25.71933333333334C451.7241379310344,27.466933333333333,458.6206896551724,37.45786666666667,465.5172413793103,44.52733333333333C472.4137931034483,51.5968,479.3103448275862,55.7448,486.2068965517242,55.23666666666666C493.10344827586204,54.728533333333324,500,49.56426666666666,506.8965517241379,55.758C513.7931034482758,61.95173333333333,520.6896551724138,79.50346666666667,527.5862068965517,104.73373333333332C534.4827586206897,129.964,541.3793103448276,162.87279999999998,551.7241379310344,174.9753333333333C562.0689655172414,187.07786666666664,575.8620689655172,178.37413333333333,582.7586206896552,174.02226666666664L589.6551724137931,169.6704L589.6551724137931,0L582.7586206896552,0C575.8620689655172,0,562.0689655172414,0,551.7241379310344,0C541.3793103448276,0,534.4827586206897,0,527.5862068965517,0C520.6896551724138,0,513.7931034482758,0,506.8965517241379,0C500,0,493.10344827586204,0,486.2068965517241,0C479.3103448275862,0,472.4137931034483,0,465.5172413793104,0C458.6206896551724,0,451.7241379310344,0,444.8275862068965,0C437.9310344827586,0,431.03448275862064,0,424.13793103448273,0C417.2413793103448,0,410.3448275862069,0,403.448275862069,0C396.551724137931,0,389.655172413793,0,382.7586206896551,0C375.8620689655172,0,368.96551724137925,0,362.06896551724134,0C355.17241379310343,0,348.2758620689655,0,341.3793103448276,0C334.4827586206896,0,327.5862068965517,0,320.6896551724138,0C313.7931034482759,0,306.8965517241379,0,300,0C293.10344827586204,0,286.2068965517241,0,279.31034482758616,0C272.4137931034482,0,265.5172413793103,0,258.6206896551724,0C251.72413793103445,0,244.8275862068965,0,237.9310344827586,0C231.03448275862067,0,224.1379310344827,0,217.24137931034477,0C210.34482758620686,0,203.44827586206893,0,196.55172413793102,0C189.65517241379305,0,182.75862068965512,0,175.8620689655172,0C168.96551724137927,0,162.06896551724137,0,155.17241379310343,0C148.2758620689655,0,141.37931034482756,0,134.48275862068962,0C127.58620689655169,0,120.68965517241377,0,113.79310344827582,0C106.89655172413791,0,99.99999999999996,0,93.10344827586204,0C86.20689655172411,0,79.31034482758618,0,72.41379310344824,0C65.5172413793103,0,58.620689655172384,0,51.72413793103445,0C44.82758620689651,0,37.931034482758584,0,31.034482758620655,0C24.137931034482722,0,17.241379310344794,0,13.793103448275827,0L10.344827586206861,0Z" style="fill: lightgray; opacity: 0.3;"></path></g><g class="mark-text role-mark layer_2_marks"><text text-anchor="middle" transform="translate(72.41379310344824,377)" style="font-family: calibri; font-size: 16px; fill: black; opacity: 0.8;">1993 peak</text><text text-anchor="middle" transform="translate(320.6896551724138,257)" style="font-family: calibri; font-size: 16px; fill: black; opacity: 0.8;">2005 peak</text><text text-anchor="middle" transform="translate(568.9655172413793,213)" style="font-family: calibri; font-size: 16px; fill: black; opacity: 0.8;">Next Peak?</text></g><g class="mark-group role-title"><g transform="translate(-40,-81)"><path class="background" d="M0,0h0v0h0Z" style="pointer-events: none; fill: none;"></path><g><g class="mark-text role-title-text" style="pointer-events: none;"><text text-anchor="start" transform="translate(0,24)" style="font-family: Calibri; font-size: 30px; font-weight: normal; fill: #000; opacity: 1;">California Net Domestic Migration</text></g></g><path class="foreground" d="" style="pointer-events: none; display: none; fill: none;"></path></g></g></g><path class="foreground" d="" style="display: none; fill: none;"></path></g></g></g></svg>