<svg class="marks" width="661" height="575" viewBox="0 0 661 575" version="1.1" xmlns="http://www.w3.org/2000/svg" xmlns:xlink="http://www.w3.org/1999/xlink"><rect width="661" height="575" style="fill: white;"></rect><g transform="translate(46,40)"><g class="mark-group role-frame root" role="graphics-object" aria-roledescription="group mark container"><g transform="translate(0,0)"><path class="background" aria-hidden="true" d="M0.5,0.5h600v500h-600Z" style="fill: none; stroke: #ddd; stroke-opacity: 0;"></path><g><g class="mark-group role-axis" role="graphics-symbol" aria-roledescription="axis" aria-label="Y-axis for a linear scale with values from 0 to 1,200,000"><g transform="translate(0.5,0.5)"><path class="background" aria-hidden="true" d="M0,0h0v0h0Z" style="pointer-events: none; fill: none;"></path><g><g class="mark-rule role-axis-grid" style="pointer-events: none;"><line transform="translate(0,417)" x2="600" y2="0" style="fill: none; stroke: #ddd; stroke-opacity: 1; stroke-width: 1; opacity: 1;"></line><line transform="translate(0,333)" x2="600" y2="0" style="fill: none; stroke: #ddd; stroke-opacity: 1; stroke-width: 1; opacity: 1;"></line><line transform="translate(0,250)" x2="600" y2="0" style="fill: none; stroke: #ddd; stroke-opacity: 1; stroke-width: 1; opacity: 1;"></line><line transform="translate(0,167)" x2="600" y2="0" style="fill: none; stroke: #ddd; stroke-opacity: 1; stroke-width: 1; opacity: 1;"></line></g></g><path class="foreground" aria-hidden="true" d="" style="pointer-events: none; display: none; fill: none;"></path></g></g><g class="mark-group role-axis" role="graphics-symbol" aria-roledescription="axis" aria-label="X-axis for a discrete scale with 28 values: 1991, 1992, 1993, 1994, 1995, ending with 2018"><g transform="translate(0.5,500.5)"><path class="background" aria-hidden="true" d="M0,0h0v0h0Z" style="pointer-events: none; fill: none;"></path><g><g class="mark-text role-axis-label" style="pointer-events: none;"><text text-anchor="middle" transform="translate(203.57142857142856,26)" style="font-family: Calibri; font-size: 20px; fill: #000; fill-opacity: 0; opacity: 1;">2000</text><text text-anchor="middle" transform="translate(417.85714285714283,26)" style="font-family: Calibri; font-size: 20px; fill: #000; fill-opacity: 0; opacity: 1;">2010</text><text text-anchor="middle" transform="translate(589.2857142857142,26)" style="font-family: Calibri; font-size: 20px; fill: #000; fill-opacity: 0; opacity: 1;">2018</text></g><g class="mark-rule role-axis-domain" style="pointer-events: none;"><line transform="translate(0,0)" x2="600" y2="0" style="fill: none; stroke: #888; stroke-width: 1; opacity: 1;"></line></g></g><path class="foreground" aria-hidden="true" d="" style="pointer-events: none; display: none; fill: none;"></path></g></g><g class="mark-group role-axis" role="graphics-symbol" aria-roledescription="axis" aria-label="Y-axis titled 'migration trends have consistently maintained an' for a linear scale with values from 0 to 1,200,000"><g transform="translate(0.5,0.5)"><path class="background" aria-hidden="true" d="M0,0h0v0h0Z" style="pointer-events: none; fill: none;"></path><g><g class="mark-text role-axis-label" style="pointer-events: none;"><text text-anchor="start" transform="translate(-35,422.6666666666667)" style="font-family: Calibri; font-size: 20px; fill: #000; fill-opacity: 0; opacity: 1;">200,000</text><text text-anchor="start" transform="translate(-35,339.33333333333337)" style="font-family: Calibri; font-size: 20px; fill: #000; fill-opacity: 0; opacity: 1;">400,000</text><text text-anchor="start" transform="translate(-35,256)" style="font-family: Calibri; font-size: 20px; fill: #000; fill-opacity: 0; opacity: 1;">600,000</text><text text-anchor="start" transform="translate(-35,172.66666666666669)" style="font-family: Calibri; font-size: 20px; fill: #000; fill-opacity: 0; opacity: 1;">800,000</text></g><g class="mark-rule role-axis-domain" style="pointer-events: none;"><line transform="translate(0,500)" x2="0" y2="-500" style="fill: none; stroke: #888; stroke-width: 0; opacity: 1;"></line></g><g class="mark-text role-axis-title" style="pointer-events: none;"><text text-anchor="start" transform="translate(150,23.5)" style="font-family: Calibri; font-size: 22px; font-weight: normal; fill: #000; fill-opacity: 0.8; opacity: 1;">migration trends have consistently maintained an</text></g></g><path class="foreground" aria-hidden="true" d="" style="pointer-events: none; display: none; fill: none;"></path></g></g><g class="mark-area role-mark layer_0_marks" role="graphics-symbol" aria-roledescription="area mark container"><path d="M10.714285714285722,289.68625000000003L14.285714285714294,291.90784722222224C17.857142857142865,294.12944444444446,25.00000000000001,298.5726388888889,32.14285714285715,305.4057638888889C39.2857142857143,312.2388888888889,46.42857142857144,321.46194444444444,53.57142857142858,327.4251388888889C60.71428571428572,333.3883333333333,67.85714285714286,336.0916666666667,75,336.5390277777778C82.14285714285715,336.98638888888894,89.28571428571429,335.17777777777775,96.42857142857143,333.39472222222224C103.57142857142857,331.6116666666667,110.71428571428572,329.8541666666667,117.85714285714285,325.9066666666667C125,321.9591666666667,132.14285714285714,315.82166666666666,139.2857142857143,310.9925694444445C146.42857142857142,306.16347222222225,153.57142857142858,302.6427777777778,160.7142857142857,301.03854166666673C167.85714285714286,299.43430555555557,175,299.7465277777778,182.1428571428571,298.9361805555556C189.2857142857143,298.12583333333333,196.42857142857142,296.1929166666667,203.57142857142856,293.51770833333336C210.7142857142857,290.8425,217.85714285714286,287.425,224.99999999999997,289.07937499999997C232.14285714285714,290.73375,239.2857142857143,297.46,246.42857142857144,301.39104166666664C253.57142857142856,305.3220833333333,260.7142857142857,306.4579166666667,267.85714285714283,307.604375C275,308.75083333333333,282.1428571428571,309.9079166666667,289.2857142857143,310.78034722222225C296.4285714285714,311.6527777777778,303.5714285714286,312.2405555555556,310.7142857142857,307.31250000000006C317.85714285714283,302.38444444444445,325,291.9405555555556,332.1428571428571,288.9929861111111C339.2857142857143,286.04541666666665,346.4285714285714,290.5941666666667,353.5714285714286,294.450625C360.7142857142857,298.30708333333337,367.85714285714283,301.47125,375,303.6584722222222C382.1428571428571,305.84569444444446,389.2857142857142,307.0559722222222,396.4285714285714,308.6464583333333C403.5714285714285,310.2369444444444,410.7142857142857,312.2076388888889,417.85714285714283,311.54020833333334C425,310.8727777777778,432.1428571428571,307.5672222222222,439.2857142857143,304.09555555555556C446.4285714285714,300.62388888888887,453.5714285714285,296.9861111111111,460.7142857142856,295.6747222222222C467.85714285714283,294.3633333333333,475,295.37833333333333,482.1428571428571,293.8282638888889C489.2857142857142,292.2781944444444,496.4285714285714,288.16305555555556,503.5714285714286,286.29284722222224C510.7142857142857,284.4226388888889,517.8571428571428,284.7973611111111,525,284.9657638888889C532.1428571428571,285.13416666666666,539.2857142857142,285.09625,546.4285714285714,284.44291666666663C553.5714285714286,283.78958333333327,560.7142857142857,282.5208333333333,567.8571428571429,283.464375C575,284.4079166666667,582.1428571428571,287.56375,585.7142857142857,289.1416666666667L589.2857142857142,290.7195833333334L589.2857142857142,211.80624999999998L585.7142857142857,213.8251388888889C582.1428571428571,215.84402777777777,575,219.8818055555556,567.8571428571428,222.22729166666667C560.7142857142857,224.5727777777778,553.5714285714286,225.22597222222225,546.4285714285714,226.52506944444448C539.2857142857142,227.82416666666668,532.1428571428571,229.76916666666668,525,234.21569444444447C517.8571428571428,238.66222222222223,510.7142857142857,245.61027777777778,503.5714285714286,249.88069444444443C496.4285714285714,254.15111111111113,489.2857142857142,255.74388888888885,482.1428571428571,257.57409722222224C475,259.40430555555554,467.85714285714283,261.47194444444443,460.7142857142857,262.84986111111107C453.5714285714285,264.22777777777776,446.4285714285714,264.9159722222222,439.2857142857142,264.3840277777777C432.1428571428571,263.85208333333327,425,262.09999999999997,417.8571428571429,263.2084027777778C410.7142857142857,264.3168055555555,403.5714285714285,268.28569444444446,396.4285714285714,267.55687499999993C389.2857142857142,266.8280555555555,382.1428571428571,261.40152777777774,375,252.96875C367.85714285714283,244.5359722222222,360.7142857142857,233.09694444444446,353.5714285714286,221.91527777777776C346.4285714285714,210.73361111111112,339.2857142857143,199.8093055555556,332.1428571428571,196.30958333333334C325,192.8098611111111,317.85714285714283,196.73472222222222,310.7142857142857,206.09444444444443C303.5714285714286,215.45416666666665,296.4285714285714,230.24874999999997,289.2857142857143,240.32027777777776C282.1428571428571,250.39180555555558,275,255.74027777777778,267.85714285714283,257.07104166666664C260.7142857142857,258.40180555555554,253.57142857142856,255.71486111111116,246.42857142857142,256.13506944444447C239.2857142857143,256.5552777777778,232.14285714285714,260.0826388888889,225,261.08048611111116C217.85714285714286,262.0783333333333,210.7142857142857,260.5466666666667,203.57142857142856,260.7190277777778C196.42857142857142,260.8913888888889,189.2857142857143,262.7677777777778,182.14285714285714,263.28055555555557C175,263.79333333333335,167.85714285714286,262.9425,160.7142857142857,260.25840277777775C153.57142857142858,257.57430555555555,146.42857142857142,253.05694444444444,139.2857142857143,246.00215277777775C132.14285714285714,238.94736111111112,125,229.35513888888886,117.85714285714288,218.3190972222222C110.71428571428572,207.28305555555553,103.57142857142857,194.80319444444444,96.42857142857143,184.75805555555553C89.28571428571429,174.71291666666664,82.14285714285715,167.1025,75,164.9165972222222C67.85714285714286,162.73069444444442,60.71428571428572,165.96930555555556,53.571428571428584,174.88847222222225C46.42857142857144,183.80763888888887,39.2857142857143,198.4073611111111,32.14285714285715,206.62472222222223C25.00000000000001,214.84208333333333,17.857142857142865,216.67708333333334,14.285714285714294,217.5945833333333L10.714285714285722,218.51208333333332Z" style="fill: #e5e8ef; opacity: 0.25;"></path></g><g class="mark-line role-mark layer_1_marks" role="graphics-symbol" aria-roledescription="line mark container"><path d="M10.714285714285722,218.51208333333332L14.285714285714294,217.59458333333336C17.857142857142865,216.67708333333334,25.00000000000001,214.84208333333333,32.14285714285715,206.62472222222223C39.2857142857143,198.4073611111111,46.42857142857144,183.80763888888887,53.57142857142858,174.88847222222225C60.71428571428572,165.96930555555556,67.85714285714286,162.73069444444442,75,164.9165972222222C82.14285714285715,167.1025,89.28571428571429,174.71291666666664,96.42857142857143,184.75805555555553C103.57142857142857,194.80319444444444,110.71428571428572,207.28305555555553,117.85714285714285,218.3190972222222C125,229.35513888888886,132.14285714285714,238.94736111111112,139.2857142857143,246.00215277777775C146.42857142857142,253.05694444444444,153.57142857142858,257.57430555555555,160.7142857142857,260.2584027777778C167.85714285714286,262.9425,175,263.79333333333335,182.1428571428571,263.28055555555557C189.2857142857143,262.7677777777778,196.42857142857142,260.8913888888889,203.57142857142856,260.71902777777774C210.7142857142857,260.5466666666667,217.85714285714286,262.0783333333333,224.99999999999997,261.0804861111111C232.14285714285714,260.0826388888889,239.2857142857143,256.5552777777778,246.42857142857144,256.13506944444447C253.57142857142856,255.71486111111116,260.7142857142857,258.40180555555554,267.85714285714283,257.07104166666664C275,255.74027777777778,282.1428571428571,250.39180555555558,289.2857142857143,240.32027777777776C296.4285714285714,230.24874999999997,303.5714285714286,215.45416666666665,310.7142857142857,206.09444444444443C317.85714285714283,196.73472222222222,325,192.8098611111111,332.1428571428571,196.30958333333334C339.2857142857143,199.8093055555556,346.4285714285714,210.73361111111112,353.5714285714286,221.91527777777776C360.7142857142857,233.09694444444446,367.85714285714283,244.5359722222222,375,252.96875C382.1428571428571,261.40152777777774,389.2857142857142,266.8280555555555,396.4285714285714,267.55687499999993C403.5714285714285,268.28569444444446,410.7142857142857,264.3168055555555,417.85714285714283,263.2084027777778C425,262.09999999999997,432.1428571428571,263.85208333333327,439.2857142857143,264.3840277777777C446.4285714285714,264.9159722222222,453.5714285714285,264.22777777777776,460.7142857142856,262.84986111111107C467.85714285714283,261.47194444444443,475,259.40430555555554,482.1428571428571,257.57409722222224C489.2857142857142,255.74388888888885,496.4285714285714,254.15111111111113,503.5714285714286,249.88069444444443C510.7142857142857,245.61027777777778,517.8571428571428,238.66222222222223,525,234.21569444444444C532.1428571428571,229.76916666666668,539.2857142857142,227.82416666666668,546.4285714285714,226.52506944444448C553.5714285714286,225.22597222222225,560.7142857142857,224.5727777777778,567.8571428571429,222.22729166666667C575,219.8818055555556,582.1428571428571,215.84402777777777,585.7142857142857,213.8251388888889L589.2857142857142,211.80624999999998" style="fill: none; stroke: #ffc417; stroke-width: 5; stroke-linecap: round;"></path></g><g class="mark-line role-mark layer_2_marks" role="graphics-symbol" aria-roledescription="line mark container"><path d="M10.714285714285722,289.68625000000003L14.285714285714294,291.90784722222224C17.857142857142865,294.12944444444446,25.00000000000001,298.5726388888889,32.14285714285715,305.4057638888889C39.2857142857143,312.2388888888889,46.42857142857144,321.46194444444444,53.57142857142858,327.4251388888889C60.71428571428572,333.3883333333333,67.85714285714286,336.0916666666667,75,336.5390277777778C82.14285714285715,336.98638888888894,89.28571428571429,335.17777777777775,96.42857142857143,333.39472222222224C103.57142857142857,331.6116666666667,110.71428571428572,329.8541666666667,117.85714285714285,325.9066666666667C125,321.9591666666667,132.14285714285714,315.82166666666666,139.2857142857143,310.9925694444445C146.42857142857142,306.16347222222225,153.57142857142858,302.6427777777778,160.7142857142857,301.03854166666673C167.85714285714286,299.43430555555557,175,299.7465277777778,182.1428571428571,298.9361805555556C189.2857142857143,298.12583333333333,196.42857142857142,296.1929166666667,203.57142857142856,293.51770833333336C210.7142857142857,290.8425,217.85714285714286,287.425,224.99999999999997,289.07937499999997C232.14285714285714,290.73375,239.2857142857143,297.46,246.42857142857144,301.39104166666664C253.57142857142856,305.3220833333333,260.7142857142857,306.4579166666667,267.85714285714283,307.604375C275,308.75083333333333,282.1428571428571,309.9079166666667,289.2857142857143,310.78034722222225C296.4285714285714,311.6527777777778,303.5714285714286,312.2405555555556,310.7142857142857,307.31250000000006C317.85714285714283,302.38444444444445,325,291.9405555555556,332.1428571428571,288.9929861111111C339.2857142857143,286.04541666666665,346.4285714285714,290.5941666666667,353.5714285714286,294.450625C360.7142857142857,298.30708333333337,367.85714285714283,301.47125,375,303.6584722222222C382.1428571428571,305.84569444444446,389.2857142857142,307.0559722222222,396.4285714285714,308.6464583333333C403.5714285714285,310.2369444444444,410.7142857142857,312.2076388888889,417.85714285714283,311.54020833333334C425,310.8727777777778,432.1428571428571,307.5672222222222,439.2857142857143,304.09555555555556C446.4285714285714,300.62388888888887,453.5714285714285,296.9861111111111,460.7142857142856,295.6747222222222C467.85714285714283,294.3633333333333,475,295.37833333333333,482.1428571428571,293.8282638888889C489.2857142857142,292.2781944444444,496.4285714285714,288.16305555555556,503.5714285714286,286.29284722222224C510.7142857142857,284.4226388888889,517.8571428571428,284.7973611111111,525,284.9657638888889C532.1428571428571,285.13416666666666,539.2857142857142,285.09625,546.4285714285714,284.44291666666663C553.5714285714286,283.78958333333327,560.7142857142857,282.5208333333333,567.8571428571429,283.464375C575,284.4079166666667,582.1428571428571,287.56375,585.7142857142857,289.1416666666667L589.2857142857142,290.7195833333334" style="fill: none; stroke: #8ac3ff; stroke-width: 5; stroke-linecap: round;"></path></g><g class="mark-text role-mark layer_3_marks" role="graphics-object" aria-roledescription="text mark container"><text text-anchor="middle" transform="translate(121.85714285714286,48.666666666666686)" style="font-family: calibri; font-size: 22px; fill: black; opacity: 0.9;">inverse relationship from 1991-2018</text></g><g class="mark-text role-mark layer_4_marks" role="graphics-object" aria-roledescription="text mark container"><text text-anchor="middle" transform="translate(-4.285714285714278,89.33333333333331)" style="font-family: calibri; font-size: 20px; fill: black; opacity: 0.8;">1 million</text></g><g class="mark-text role-mark layer_5_marks" role="graphics-object" aria-roledescription="text mark container"><text text-anchor="middle" transform="translate(-3.2857142857142776,110.16666666666669)" style="font-family: calibri; font-size: 20px; fill: black; opacity: 0.8;">migrants</text></g><g class="mark-text role-mark layer_6_marks" role="graphics-object" aria-roledescription="text mark container"><text text-anchor="middle" transform="translate(302.2857142857143,82.33333333333331)" style="font-family: sans-serif; font-size: 11.5px; font-weight: bold; fill: black; opacity: 0.09;">__________________________________________________________________________________________</text></g><g class="mark-text role-mark layer_7_marks" role="graphics-object" aria-roledescription="text mark container"><text text-anchor="middle" transform="translate(93.42857142857143,526)" style="font-family: calibri; font-size: 20px; fill: black; opacity: 0.8;">'95</text><text text-anchor="middle" transform="translate(200.57142857142856,526)" style="font-family: calibri; font-size: 20px; fill: black; opacity: 0.8;">'00</text><text text-anchor="middle" transform="translate(307.7142857142857,526)" style="font-family: calibri; font-size: 20px; fill: black; opacity: 0.8;">'05</text><text text-anchor="middle" transform="translate(414.85714285714283,526)" style="font-family: calibri; font-size: 20px; fill: black; opacity: 0.8;">'10</text><text text-anchor="middle" transform="translate(522,526)" style="font-family: calibri; font-size: 20px; fill: black; opacity: 0.8;">'15</text></g><g class="mark-text role-mark layer_8_marks" role="graphics-object" aria-roledescription="text mark container"><text text-anchor="middle" transform="translate(-17.285714285714278,422.6666666666667)" style="font-family: calibri; font-size: 20px; fill: black; opacity: 0.8;">200k</text><text text-anchor="middle" transform="translate(-17.285714285714278,339.33333333333337)" style="font-family: calibri; font-size: 20px; fill: black; opacity: 0.8;">400k</text><text text-anchor="middle" transform="translate(-17.285714285714278,256)" style="font-family: calibri; font-size: 20px; fill: black; opacity: 0.8;">600k</text><text text-anchor="middle" transform="translate(-17.285714285714278,172.66666666666669)" style="font-family: calibri; font-size: 20px; fill: black; opacity: 0.8;">800k</text></g><g class="mark-text role-mark layer_9_marks" role="graphics-object" aria-roledescription="text mark container"><text text-anchor="middle" transform="translate(-9.285714285714278,23.666666666666664)" style="font-family: calibri; font-size: 22px; fill: #8ac3ff;">Inward</text></g><g class="mark-text role-mark layer_10_marks" role="graphics-object" aria-roledescription="text mark container"><text text-anchor="middle" transform="translate(44.14285714285715,23.666666666666664)" style="font-family: calibri; font-size: 22px; fill: black; opacity: 0.8;">and</text></g><g class="mark-text role-mark layer_11_marks" role="graphics-object" aria-roledescription="text mark container"><text text-anchor="middle" transform="translate(105,23.666666666666664)" style="font-family: calibri; font-size: 22px; fill: #ffc417;">outward</text></g><g class="mark-group role-title"><g transform="translate(-40.23395647321428,-35)"><path class="background" aria-hidden="true" d="M0,0h0v0h0Z" style="pointer-events: none; fill: none;"></path><g><g class="mark-text role-title-text" role="graphics-symbol" aria-roledescription="title" aria-label="Title text 'California Domestic Migration Trends'" style="pointer-events: none;"><text text-anchor="start" transform="translate(0,24)" style="font-family: Calibri; font-size: 30px; font-weight: normal; fill: #000; opacity: 1;">California Domestic Migration Trends</text></g></g><path class="foreground" aria-hidden="true" d="" style="pointer-events: none; display: none; fill: none;"></path></g></g></g><path class="foreground" aria-hidden="true" d="" style="display: none; fill: none;"></path></g></g></g></svg>