<svg class="marks" width="661" height="597" viewBox="0 0 661 597" version="1.1" xmlns="http://www.w3.org/2000/svg" xmlns:xlink="http://www.w3.org/1999/xlink"><rect width="661" height="597" style="fill: white;"></rect><g transform="translate(46,62)"><g class="mark-group role-frame root" role="graphics-object" aria-roledescription="group mark container"><g transform="translate(0,0)"><path class="background" aria-hidden="true" d="M0.5,0.5h600v500h-600Z" style="fill: none; stroke: #ddd; stroke-opacity: 0;"></path><g><g class="mark-group role-axis" role="graphics-symbol" aria-roledescription="axis" aria-label="Y-axis for a linear scale with values from 0 to 900,000"><g transform="translate(0.5,0.5)"><path class="background" aria-hidden="true" d="M0,0h0v0h0Z" style="pointer-events: none; fill: none;"></path><g><g class="mark-rule role-axis-grid" style="pointer-events: none;"><line transform="translate(0,389)" x2="600" y2="0" style="fill: none; stroke: #ddd; stroke-opacity: 1; stroke-width: 1; opacity: 1;"></line><line transform="translate(0,278)" x2="600" y2="0" style="fill: none; stroke: #ddd; stroke-opacity: 1; stroke-width: 1; opacity: 1;"></line><line transform="translate(0,167)" x2="600" y2="0" style="fill: none; stroke: #ddd; stroke-opacity: 1; stroke-width: 1; opacity: 1;"></line></g></g><path class="foreground" aria-hidden="true" d="" style="pointer-events: none; display: none; fill: none;"></path></g></g><g class="mark-group role-axis" role="graphics-symbol" aria-roledescription="axis" aria-label="X-axis for a discrete scale with 29 values: 1990, 1991, 1992, 1993, 1994, ending with 2017"><g transform="translate(0.5,500.5)"><path class="background" aria-hidden="true" d="M0,0h0v0h0Z" style="pointer-events: none; fill: none;"></path><g><g class="mark-text role-axis-label" style="pointer-events: none;"><text text-anchor="middle" transform="translate(9.844827586206897,26)" style="font-family: Calibri; font-size: 20px; fill: #000; fill-opacity: 0.8; opacity: 1;">1990</text><text text-anchor="middle" transform="translate(216.74137931034483,26)" style="font-family: Calibri; font-size: 20px; fill: #000; fill-opacity: 0.8; opacity: 1;">2000</text><text text-anchor="middle" transform="translate(444.32758620689657,26)" style="font-family: Calibri; font-size: 20px; fill: #000; fill-opacity: 0.8; opacity: 1;">2010</text><text text-anchor="middle" transform="translate(589.1551724137931,26)" style="font-family: Calibri; font-size: 20px; fill: #000; fill-opacity: 0.8; opacity: 1;">2017</text></g><g class="mark-rule role-axis-domain" style="pointer-events: none;"><line transform="translate(0,0)" x2="600" y2="0" style="fill: none; stroke: #888; stroke-width: 1; opacity: 1;"></line></g></g><path class="foreground" aria-hidden="true" d="" style="pointer-events: none; display: none; fill: none;"></path></g></g><g class="mark-group role-axis" role="graphics-symbol" aria-roledescription="axis" aria-label="Y-axis titled 'migration trends were characterized by an inverse' for a linear scale with values from 0k to 900k"><g transform="translate(0.5,0.5)"><path class="background" aria-hidden="true" d="M0,0h0v0h0Z" style="pointer-events: none; fill: none;"></path><g><g class="mark-text role-axis-label" style="pointer-events: none;"><text text-anchor="start" transform="translate(-40,394.8888888888889)" style="font-family: Calibri; font-size: 20px; fill: #000; fill-opacity: 0.8; opacity: 1;">200k</text><text text-anchor="start" transform="translate(-40,283.77777777777777)" style="font-family: Calibri; font-size: 20px; fill: #000; fill-opacity: 0.8; opacity: 1;">400k</text><text text-anchor="start" transform="translate(-40,172.66666666666669)" style="font-family: Calibri; font-size: 20px; fill: #000; fill-opacity: 0.8; opacity: 1;">600k</text></g><g class="mark-rule role-axis-domain" style="pointer-events: none;"><line transform="translate(0,500)" x2="0" y2="-500" style="fill: none; stroke: #888; stroke-width: 0; opacity: 1;"></line></g><g class="mark-text role-axis-title" style="pointer-events: none;"><text text-anchor="start" transform="translate(145,-4)" style="font-family: Calibri; font-size: 22px; font-weight: normal; fill: #000; fill-opacity: 0.8; opacity: 1;">migration trends were characterized by an inverse</text></g></g><path class="foreground" aria-hidden="true" d="" style="pointer-events: none; display: none; fill: none;"></path></g></g><g class="mark-area role-mark layer_0_marks" role="graphics-symbol" aria-roledescription="area mark container"><path d="M10.344827586206897,279.1977777777778L13.793103448275863,281.5301851851852C17.24137931034483,283.8625925925926,24.13793103448276,288.5274074074074,31.034482758620687,295.7012962962963C37.931034482758626,302.87518518518516,44.82758620689655,312.5581481481481,51.724137931034484,318.8187037037037C58.62068965517242,325.07925925925923,65.51724137931035,327.91740740740744,72.41379310344827,328.38712962962967C79.3103448275862,328.8568518518519,86.20689655172414,326.95814814814815,93.10344827586205,325.0862037037037C100,323.2142592592593,106.89655172413795,321.3690740740741,113.79310344827587,317.2247222222223C120.6896551724138,313.0803703703704,127.58620689655173,306.6368518518519,134.48275862068965,301.56694444444446C141.3793103448276,296.49703703703705,148.27586206896552,292.80074074074076,155.17241379310346,291.11648148148146C162.0689655172414,289.4322222222222,168.9655172413793,289.76,175.86206896551724,288.9092592592593C182.75862068965515,288.0585185185185,189.6551724137931,286.0292592592593,196.55172413793102,283.2206481481482C203.44827586206895,280.4120370370371,210.3448275862069,276.82407407407413,217.2413793103448,278.5609259259259C224.13793103448276,280.2977777777778,231.0344827586207,287.3594444444445,237.9310344827586,291.4864814814815C244.8275862068966,295.61351851851856,251.7241379310345,296.805925925926,258.62068965517244,298.0095370370371C265.5172413793104,299.2131481481482,272.4137931034483,300.427962962963,279.3103448275862,301.5477777777778C286.2068965517242,302.6675925925926,293.1034482758621,303.6924074074074,300.00000000000006,303.44768518518515C306.89655172413796,303.2029629629629,313.7931034482759,301.68870370370365,320.68965517241384,301.1339814814815C327.5862068965518,300.57925925925923,334.4827586206897,300.98407407407404,341.3793103448276,298.3398148148148C348.2758620689656,295.6955555555556,355.1724137931035,290.0022222222222,365.5172413793104,287.67027777777776C375.86206896551727,285.3383333333333,389.6551724137932,286.36777777777775,400,288.4493518518519C410.344827586207,290.5309259259259,417.2413793103449,293.66462962962964,424.1379310344828,293.56981481481483C431.0344827586207,293.475,437.9310344827586,290.1516666666667,444.8275862068965,281.8702777777778C451.7241379310345,273.5888888888889,458.6206896551725,260.3494444444445,465.5172413793104,252.97314814814817C472.41379310344837,245.59685185185185,479.3103448275863,244.0837037037037,486.2068965517242,246.19416666666666C493.1034482758621,248.3046296296296,500,254.03870370370365,506.89655172413796,267.06611111111107C513.7931034482759,280.09351851851847,520.6896551724138,300.41425925925927,527.5862068965517,300.4111111111111C534.4827586206897,300.407962962963,541.3793103448276,280.08092592592595,548.2758620689655,258.09055555555557C555.1724137931034,236.10018518518518,562.0689655172414,212.44648148148147,568.9655172413793,212.6860185185185C575.8620689655172,212.92555555555555,582.7586206896552,237.0583333333333,586.2068965517241,249.12472222222223L589.6551724137931,261.1911111111111L589.6551724137931,176.0816666666667L586.2068965517242,161.71231481481485C582.7586206896552,147.34296296296299,575.8620689655172,118.60425925925927,568.9655172413793,124.335C562.0689655172414,130.06574074074072,555.1724137931034,170.26592592592593,548.2758620689655,204.77342592592595C541.3793103448276,239.28092592592597,534.4827586206897,268.0957407407407,527.5862068965517,271.16675925925927C520.6896551724138,274.2377777777778,513.7931034482759,251.56499999999997,506.89655172413796,238.5622222222222C500,225.55944444444444,493.1034482758621,222.22666666666666,486.2068965517242,224.03203703703704C479.3103448275863,225.83740740740743,472.41379310344837,232.7809259259259,465.5172413793104,241.40055555555557C458.6206896551725,250.02018518518517,451.7241379310345,260.3159259259259,444.82758620689657,266.02083333333337C437.9310344827586,271.7257407407408,431.0344827586207,272.8398148148148,424.1379310344828,269.05722222222226C417.2413793103449,265.27462962962966,410.344827586207,256.5953703703704,400,247.90944444444446C389.6551724137932,239.22351851851855,375.86206896551727,230.53092592592597,365.5172413793104,220.46000000000004C355.1724137931035,210.3890740740741,348.2758620689656,198.9398148148148,341.3793103448276,190.26953703703703C334.4827586206897,181.59925925925927,327.5862068965518,175.70796296296294,320.68965517241384,176.62074074074076C313.7931034482759,177.5335185185185,306.89655172413796,185.2503703703704,300.00000000000006,195.66907407407408C293.1034482758621,206.08777777777777,286.2068965517242,219.20833333333334,279.3103448275862,228.57620370370367C272.4137931034483,237.94407407407402,265.5172413793104,243.55925925925922,258.62068965517244,244.95638888888888C251.7241379310345,246.3535185185185,244.8275862068966,243.53259259259258,237.93103448275863,243.97370370370368C231.0344827586207,244.4148148148148,224.13793103448276,248.11796296296293,217.2413793103448,249.16555555555556C210.3448275862069,250.21314814814812,203.44827586206895,248.60518518518518,196.55172413793102,248.78620370370368C189.6551724137931,248.9672222222222,182.75862068965515,250.93722222222223,175.86206896551724,251.4755555555556C168.9655172413793,252.0138888888889,162.0689655172414,251.12055555555557,155.17241379310346,248.30259259259262C148.27586206896552,245.4846296296296,141.3793103448276,240.74203703703702,134.48275862068965,233.33546296296296C127.58620689655173,225.92888888888888,120.6896551724138,215.85833333333335,113.79310344827587,204.27194444444447C106.89655172413795,192.68555555555557,100,179.58333333333337,93.10344827586208,169.03722222222225C86.20689655172414,158.4911111111111,79.3103448275862,150.5011111111111,72.41379310344828,148.2062037037037C65.51724137931035,145.91129629629629,58.62068965517242,149.31148148148148,51.724137931034484,158.675462962963C44.82758620689655,168.03944444444448,37.931034482758626,183.36722222222224,31.034482758620687,191.9943518518519C24.13793103448276,200.6214814814815,17.24137931034483,202.54796296296297,13.793103448275863,203.51120370370373L10.344827586206897,204.47444444444446Z" style="fill: lightgray; opacity: 0.15;"></path></g><g class="mark-line role-mark layer_1_marks" role="graphics-symbol" aria-roledescription="line mark container"><path d="M10.344827586206897,204.47444444444446L13.793103448275863,203.5112037037037C17.24137931034483,202.54796296296297,24.13793103448276,200.6214814814815,31.034482758620687,191.9943518518519C37.931034482758626,183.36722222222224,44.82758620689655,168.03944444444448,51.724137931034484,158.675462962963C58.62068965517242,149.31148148148148,65.51724137931035,145.91129629629629,72.41379310344827,148.20620370370372C79.3103448275862,150.5011111111111,86.20689655172414,158.4911111111111,93.10344827586205,169.03722222222225C100,179.58333333333337,106.89655172413795,192.68555555555557,113.79310344827587,204.27194444444444C120.6896551724138,215.85833333333335,127.58620689655173,225.92888888888888,134.48275862068965,233.33546296296296C141.3793103448276,240.74203703703702,148.27586206896552,245.4846296296296,155.17241379310346,248.30259259259256C162.0689655172414,251.12055555555557,168.9655172413793,252.0138888888889,175.86206896551724,251.4755555555556C182.75862068965515,250.93722222222223,189.6551724137931,248.9672222222222,196.55172413793102,248.7862037037037C203.44827586206895,248.60518518518518,210.3448275862069,250.21314814814812,217.2413793103448,249.16555555555553C224.13793103448276,248.11796296296293,231.0344827586207,244.4148148148148,237.9310344827586,243.97370370370368C244.8275862068966,243.53259259259258,251.7241379310345,246.3535185185185,258.62068965517244,244.95638888888888C265.5172413793104,243.55925925925922,272.4137931034483,237.94407407407402,279.3103448275862,228.57620370370367C286.2068965517242,219.20833333333334,293.1034482758621,206.08777777777777,300.00000000000006,195.66907407407408C306.89655172413796,185.2503703703704,313.7931034482759,177.5335185185185,320.68965517241384,176.62074074074076C327.5862068965518,175.70796296296294,334.4827586206897,181.59925925925927,341.3793103448276,190.26953703703703C348.2758620689656,198.9398148148148,355.1724137931035,210.3890740740741,365.5172413793104,220.46000000000004C375.86206896551727,230.53092592592597,389.6551724137932,239.22351851851855,400,247.90944444444446C410.344827586207,256.5953703703704,417.2413793103449,265.27462962962966,424.1379310344828,269.05722222222226C431.0344827586207,272.8398148148148,437.9310344827586,271.7257407407408,444.8275862068965,266.02083333333337C451.7241379310345,260.3159259259259,458.6206896551725,250.02018518518517,465.5172413793104,241.40055555555554C472.41379310344837,232.7809259259259,479.3103448275863,225.83740740740743,486.2068965517242,224.03203703703704C493.1034482758621,222.22666666666666,500,225.55944444444444,506.89655172413796,238.56222222222223C513.7931034482759,251.56499999999997,520.6896551724138,274.2377777777778,527.5862068965517,271.16675925925927C534.4827586206897,268.0957407407407,541.3793103448276,239.28092592592597,548.2758620689655,204.77342592592595C555.1724137931034,170.26592592592593,562.0689655172414,130.06574074074072,568.9655172413793,124.335C575.8620689655172,118.60425925925927,582.7586206896552,147.34296296296299,586.2068965517241,161.71231481481485L589.6551724137931,176.0816666666667" style="fill: none; stroke: #ffc417; stroke-width: 5; stroke-linecap: round;"></path></g><g class="mark-line role-mark layer_2_marks" role="graphics-symbol" aria-roledescription="line mark container"><path d="M10.344827586206897,279.1977777777778L13.793103448275863,281.5301851851852C17.24137931034483,283.8625925925926,24.13793103448276,288.5274074074074,31.034482758620687,295.7012962962963C37.931034482758626,302.87518518518516,44.82758620689655,312.5581481481481,51.724137931034484,318.8187037037037C58.62068965517242,325.07925925925923,65.51724137931035,327.91740740740744,72.41379310344827,328.38712962962967C79.3103448275862,328.8568518518519,86.20689655172414,326.95814814814815,93.10344827586205,325.0862037037037C100,323.2142592592593,106.89655172413795,321.3690740740741,113.79310344827587,317.2247222222223C120.6896551724138,313.0803703703704,127.58620689655173,306.6368518518519,134.48275862068965,301.56694444444446C141.3793103448276,296.49703703703705,148.27586206896552,292.80074074074076,155.17241379310346,291.11648148148146C162.0689655172414,289.4322222222222,168.9655172413793,289.76,175.86206896551724,288.9092592592593C182.75862068965515,288.0585185185185,189.6551724137931,286.0292592592593,196.55172413793102,283.2206481481482C203.44827586206895,280.4120370370371,210.3448275862069,276.82407407407413,217.2413793103448,278.5609259259259C224.13793103448276,280.2977777777778,231.0344827586207,287.3594444444445,237.9310344827586,291.4864814814815C244.8275862068966,295.61351851851856,251.7241379310345,296.805925925926,258.62068965517244,298.0095370370371C265.5172413793104,299.2131481481482,272.4137931034483,300.427962962963,279.3103448275862,301.5477777777778C286.2068965517242,302.6675925925926,293.1034482758621,303.6924074074074,300.00000000000006,303.44768518518515C306.89655172413796,303.2029629629629,313.7931034482759,301.68870370370365,320.68965517241384,301.1339814814815C327.5862068965518,300.57925925925923,334.4827586206897,300.98407407407404,341.3793103448276,298.3398148148148C348.2758620689656,295.6955555555556,355.1724137931035,290.0022222222222,365.5172413793104,287.67027777777776C375.86206896551727,285.3383333333333,389.6551724137932,286.36777777777775,400,288.4493518518519C410.344827586207,290.5309259259259,417.2413793103449,293.66462962962964,424.1379310344828,293.56981481481483C431.0344827586207,293.475,437.9310344827586,290.1516666666667,444.8275862068965,281.8702777777778C451.7241379310345,273.5888888888889,458.6206896551725,260.3494444444445,465.5172413793104,252.97314814814817C472.41379310344837,245.59685185185185,479.3103448275863,244.0837037037037,486.2068965517242,246.19416666666666C493.1034482758621,248.3046296296296,500,254.03870370370365,506.89655172413796,267.06611111111107C513.7931034482759,280.09351851851847,520.6896551724138,300.41425925925927,527.5862068965517,300.4111111111111C534.4827586206897,300.407962962963,541.3793103448276,280.08092592592595,548.2758620689655,258.09055555555557C555.1724137931034,236.10018518518518,562.0689655172414,212.44648148148147,568.9655172413793,212.6860185185185C575.8620689655172,212.92555555555555,582.7586206896552,237.0583333333333,586.2068965517241,249.12472222222223L589.6551724137931,261.1911111111111" style="fill: none; stroke: #8ac3ff; stroke-width: 5; stroke-linecap: round;"></path></g><g class="mark-text role-mark layer_3_marks" role="graphics-object" aria-roledescription="text mark container"><text text-anchor="middle" transform="translate(267.62068965517244,20.888888888888893)" style="font-family: calibri; font-size: 22px; fill: black; opacity: 0.9;">relationship from 1990 to 2007 but have since shifted to a direct one.</text></g><g class="mark-text role-mark layer_4_marks" role="graphics-object" aria-roledescription="text mark container"><text text-anchor="middle" transform="translate(196.55172413793102,376.44444444444446)" style="font-family: calibri; font-size: 24px; fill: black; opacity: 0.8;">Inverse Relationship</text><text text-anchor="middle" transform="translate(506.89655172413796,376.44444444444446)" style="font-family: calibri; font-size: 24px; fill: black; opacity: 0.8;">Direct Relationship</text></g><g class="mark-rule role-mark layer_5_marks" role="graphics-symbol" aria-roledescription="rule mark container"><line transform="translate(196.55172413793102,338.8888888888889)" x2="0" y2="11.111111111111086" style="fill: none; stroke: black; opacity: 0.5;"></line><line transform="translate(10.344827586206897,338.8888888888889)" x2="0" y2="-11.111111111111143" style="fill: none; stroke: black; opacity: 0.5;"></line><line transform="translate(10.344827586206897,338.8888888888889)" x2="351.7241379310345" y2="0" style="fill: none; stroke: black; opacity: 0.5;"></line><line transform="translate(362.0689655172414,327.77777777777777)" x2="0" y2="11.111111111111143" style="fill: none; stroke: black; opacity: 0.5;"></line><line transform="translate(506.89655172413796,338.8888888888889)" x2="0" y2="11.111111111111086" style="fill: none; stroke: black; opacity: 0.5;"></line><line transform="translate(382.7586206896552,327.77777777777777)" x2="0" y2="11.111111111111143" style="fill: none; stroke: black; opacity: 0.5;"></line><line transform="translate(382.7586206896552,338.8888888888889)" x2="206.89655172413796" y2="0" style="fill: none; stroke: black; opacity: 0.5;"></line><line transform="translate(589.6551724137931,338.8888888888889)" x2="0" y2="-11.111111111111143" style="fill: none; stroke: black; opacity: 0.5;"></line></g><g class="mark-text role-mark layer_6_marks" role="graphics-object" aria-roledescription="text mark container"><text text-anchor="middle" transform="translate(-19.655172413793103,61.55555555555558)" style="font-family: calibri; font-size: 20px; fill: black; opacity: 0.8;">800k</text></g><g class="mark-text role-mark layer_7_marks" role="graphics-object" aria-roledescription="text mark container"><text text-anchor="middle" transform="translate(38.724137931034484,61.55555555555558)" style="font-family: calibri; font-size: 20px; fill: black; opacity: 0.8;">migrants</text></g><g class="mark-text role-mark layer_8_marks" role="graphics-object" aria-roledescription="text mark container"><text text-anchor="middle" transform="translate(341.3793103448276,54.55555555555558)" style="font-family: sans-serif; font-size: 11.5px; font-weight: bold; fill: black; opacity: 0.09;">__________________________________________________________________________________</text></g><g class="mark-text role-mark layer_9_marks" role="graphics-object" aria-roledescription="text mark container"><text text-anchor="middle" transform="translate(-9.655172413793103,-3)" style="font-family: calibri; font-size: 22px; fill: #8ac3ff;">Inward</text></g><g class="mark-text role-mark layer_10_marks" role="graphics-object" aria-roledescription="text mark container"><text text-anchor="middle" transform="translate(43.03448275862069,-3)" style="font-family: calibri; font-size: 22px; fill: black; opacity: 0.8;">and</text></g><g class="mark-text role-mark layer_11_marks" role="graphics-object" aria-roledescription="text mark container"><text text-anchor="middle" transform="translate(102.41379310344828,-3)" style="font-family: calibri; font-size: 22px; fill: #ffc417;">outward</text></g><g class="mark-group role-title"><g transform="translate(-40.71768925107756,-57)"><path class="background" aria-hidden="true" d="M0,0h0v0h0Z" style="pointer-events: none; fill: none;"></path><g><g class="mark-text role-title-text" role="graphics-symbol" aria-roledescription="title" aria-label="Title text 'California Domestic Migration Trends'" style="pointer-events: none;"><text text-anchor="start" transform="translate(0,24)" style="font-family: Calibri; font-size: 30px; font-weight: normal; fill: #000; opacity: 1;">California Domestic Migration Trends</text></g></g><path class="foreground" aria-hidden="true" d="" style="pointer-events: none; display: none; fill: none;"></path></g></g></g><path class="foreground" aria-hidden="true" d="" style="display: none; fill: none;"></path></g></g></g></svg>