<svg class="marks" width="651" height="474" viewBox="0 0 651 474" version="1.1" xmlns="http://www.w3.org/2000/svg" xmlns:xlink="http://www.w3.org/1999/xlink"><rect width="651" height="474" style="fill: white;"></rect><g transform="translate(40,43)"><g class="mark-group role-frame root" role="graphics-object" aria-roledescription="group mark container"><g transform="translate(0,0)"><path class="background" aria-hidden="true" d="M0.5,0.5h600v400h-600Z" style="fill: none; stroke: #ddd; stroke-opacity: 0;"></path><g><g class="mark-group role-axis" role="graphics-symbol" aria-roledescription="axis" aria-label="Y-axis for a linear scale with values from 0 to 1,200,000"><g transform="translate(0.5,0.5)"><path class="background" aria-hidden="true" d="M0,0h0v0h0Z" style="pointer-events: none; fill: none;"></path><g><g class="mark-rule role-axis-grid" style="pointer-events: none;"><line transform="translate(0,333)" x2="600" y2="0" style="fill: none; stroke: #ddd; stroke-opacity: 1; stroke-width: 1; opacity: 1;"></line><line transform="translate(0,267)" x2="600" y2="0" style="fill: none; stroke: #ddd; stroke-opacity: 1; stroke-width: 1; opacity: 1;"></line><line transform="translate(0,200)" x2="600" y2="0" style="fill: none; stroke: #ddd; stroke-opacity: 1; stroke-width: 1; opacity: 1;"></line><line transform="translate(0,133)" x2="600" y2="0" style="fill: none; stroke: #ddd; stroke-opacity: 1; stroke-width: 1; opacity: 1;"></line></g></g><path class="foreground" aria-hidden="true" d="" style="pointer-events: none; display: none; fill: none;"></path></g></g><g class="mark-group role-axis" role="graphics-symbol" aria-roledescription="axis" aria-label="X-axis for a discrete scale with 29 values: 1990, 1991, 1992, 1993, 1994, ending with 2017"><g transform="translate(0.5,400.5)"><path class="background" aria-hidden="true" d="M0,0h0v0h0Z" style="pointer-events: none; fill: none;"></path><g><g class="mark-text role-axis-label" style="pointer-events: none;"><text text-anchor="middle" transform="translate(9.844827586206897,23)" style="font-family: Calibri; font-size: 16px; fill: #000; fill-opacity: 0.8; opacity: 1;">1990</text><text text-anchor="middle" transform="translate(216.74137931034483,23)" style="font-family: Calibri; font-size: 16px; fill: #000; fill-opacity: 0.8; opacity: 1;">2000</text><text text-anchor="middle" transform="translate(444.32758620689657,23)" style="font-family: Calibri; font-size: 16px; fill: #000; fill-opacity: 0.8; opacity: 1;">2010</text><text text-anchor="middle" transform="translate(589.1551724137931,23)" style="font-family: Calibri; font-size: 16px; fill: #000; fill-opacity: 0.8; opacity: 1;">2017</text></g><g class="mark-rule role-axis-domain" style="pointer-events: none;"><line transform="translate(0,0)" x2="600" y2="0" style="fill: none; stroke: #888; stroke-width: 1; opacity: 1;"></line></g></g><path class="foreground" aria-hidden="true" d="" style="pointer-events: none; display: none; fill: none;"></path></g></g><g class="mark-group role-axis" role="graphics-symbol" aria-roledescription="axis" aria-label="Y-axis titled 'migration trends were characterized by an inverse relationship from' for a linear scale with values from 0 to 1,200,000"><g transform="translate(0.5,0.5)"><path class="background" aria-hidden="true" d="M0,0h0v0h0Z" style="pointer-events: none; fill: none;"></path><g><g class="mark-text role-axis-label" style="pointer-events: none;"><text text-anchor="start" transform="translate(-35,338.33333333333337)" style="font-family: Calibri; font-size: 16px; fill: #000; fill-opacity: 0; opacity: 1;">200,000</text><text text-anchor="start" transform="translate(-35,271.6666666666667)" style="font-family: Calibri; font-size: 16px; fill: #000; fill-opacity: 0; opacity: 1;">400,000</text><text text-anchor="start" transform="translate(-35,205)" style="font-family: Calibri; font-size: 16px; fill: #000; fill-opacity: 0; opacity: 1;">600,000</text><text text-anchor="start" transform="translate(-35,138.33333333333334)" style="font-family: Calibri; font-size: 16px; fill: #000; fill-opacity: 0; opacity: 1;">800,000</text></g><g class="mark-rule role-axis-domain" style="pointer-events: none;"><line transform="translate(0,400)" x2="0" y2="-400" style="fill: none; stroke: #888; stroke-width: 0; opacity: 1;"></line></g><g class="mark-text role-axis-title" style="pointer-events: none;"><text text-anchor="start" transform="translate(110,11)" style="font-family: Calibri; font-size: 17px; font-weight: normal; fill: #000; fill-opacity: 0.8; opacity: 1;">migration trends were characterized by an inverse relationship from</text></g></g><path class="foreground" aria-hidden="true" d="" style="pointer-events: none; display: none; fill: none;"></path></g></g><g class="mark-line role-mark layer_0_marks" role="graphics-symbol" aria-roledescription="line mark container"><path d="M10.344827586206897,155.50000000000003L13.793103448275863,154.85011111111115C17.24137931034483,154.20022222222224,24.13793103448276,152.90044444444447,31.034482758620687,145.17461111111112C37.931034482758626,137.4487777777778,44.82758620689655,123.29688888888889,51.724137931034484,113.57066666666668C58.62068965517242,103.84444444444445,65.51724137931035,98.54388888888889,72.41379310344827,98.04427777777778C79.3103448275862,97.54466666666667,86.20689655172414,101.846,93.10344827586205,109.72072222222222C100,117.59544444444445,106.89655172413795,129.04355555555557,113.79310344827587,138.97572222222223C120.6896551724138,148.9078888888889,127.58620689655173,157.3241111111111,134.48275862068965,164.0046111111111C141.3793103448276,170.68511111111113,148.27586206896552,175.6298888888889,155.17241379310346,179.19083333333333C162.0689655172414,182.75177777777776,168.9655172413793,184.92888888888888,175.86206896551724,185.78622222222222C182.75862068965515,186.64355555555554,189.6551724137931,186.1811111111111,196.55172413793102,186.65416666666667C203.44827586206895,187.12722222222223,210.3448275862069,188.53577777777775,217.2413793103448,187.58988888888885C224.13793103448276,186.64399999999998,231.0344827586207,183.34366666666665,237.9310344827586,182.88299999999995C244.8275862068966,182.4223333333333,251.7241379310345,184.80133333333333,258.62068965517244,183.74394444444442C265.5172413793104,182.68655555555554,272.4137931034483,178.1927777777778,279.3103448275862,170.46705555555556C286.2068965517242,162.74133333333336,293.1034482758621,151.78366666666668,300.00000000000006,143.05388888888888C306.89655172413796,134.3241111111111,313.7931034482759,127.82222222222224,320.68965517241384,127.12672222222223C327.5862068965518,126.43122222222223,334.4827586206897,131.5421111111111,341.3793103448276,139.84927777777776C348.2758620689656,148.15644444444445,355.1724137931035,159.65988888888887,365.5172413793104,169.34033333333335C375.86206896551727,179.02077777777777,389.6551724137932,186.87822222222223,400,193.9706666666667C410.344827586207,201.0631111111111,417.2413793103449,207.39055555555555,424.1379310344828,210.1481111111111C431.0344827586207,212.90566666666666,437.9310344827586,212.09333333333333,444.8275862068965,208.69477777777777C451.7241379310345,205.29622222222224,458.6206896551725,199.31144444444445,465.5172413793104,193.48544444444443C472.41379310344837,187.65944444444446,479.3103448275863,181.99222222222224,486.2068965517242,180.35338888888893C493.1034482758621,178.71455555555556,500,181.1041111111111,506.89655172413796,191.208C513.7931034482759,201.3118888888889,520.6896551724138,219.1301111111111,527.5862068965517,216.64116666666666C534.4827586206897,214.15222222222224,541.3793103448276,191.35611111111112,548.2758620689655,164.60477777777777C555.1724137931034,137.85344444444445,562.0689655172414,107.14688888888891,568.9655172413793,103.3248888888889C575.8620689655172,99.5028888888889,582.7586206896552,122.56544444444445,586.2068965517241,134.09672222222224L589.6551724137931,145.62800000000001" style="fill: none; stroke: #ffc417; stroke-width: 5; stroke-linecap: round;"></path></g><g class="mark-line role-mark layer_1_marks" role="graphics-symbol" aria-roledescription="line mark container"><path d="M10.344827586206897,208.06833333333336L13.793103448275863,209.20827777777777C17.24137931034483,210.34822222222223,24.13793103448276,212.62811111111114,31.034482758620687,217.2296666666667C37.931034482758626,221.83122222222224,44.82758620689655,228.75444444444443,51.724137931034484,233.53105555555555C58.62068965517242,238.30766666666668,65.51724137931035,240.93766666666667,72.41379310344827,240.8263333333333C79.3103448275862,240.715,86.20689655172414,237.86233333333334,93.10344827586205,236.0181111111111C100,234.17388888888888,106.89655172413795,233.3381111111111,113.79310344827587,230.00822222222223C120.6896551724138,226.6783333333333,127.58620689655173,220.85433333333333,134.48275862068965,216.7831111111111C141.3793103448276,212.7118888888889,148.27586206896552,210.39344444444444,155.17241379310346,209.89116666666666C162.0689655172414,209.3888888888889,168.9655172413793,210.7027777777778,175.86206896551724,211.04494444444447C182.75862068965515,211.38711111111115,189.6551724137931,210.75755555555557,196.55172413793102,208.86816666666667C203.44827586206895,206.97877777777776,210.3448275862069,203.82955555555554,217.2413793103448,205.24566666666666C224.13793103448276,206.66177777777776,231.0344827586207,212.64322222222222,237.9310344827586,216.27961111111108C244.8275862068966,219.91600000000003,251.7241379310345,221.20733333333337,258.62068965517244,222.0775C265.5172413793104,222.9476666666667,272.4137931034483,223.39666666666668,279.3103448275862,223.9220555555556C286.2068965517242,224.44744444444447,293.1034482758621,225.04922222222226,300.00000000000006,224.6145C306.89655172413796,224.1797777777778,313.7931034482759,222.70855555555556,320.68965517241384,222.21905555555554C327.5862068965518,221.72955555555555,334.4827586206897,222.2217777777778,341.3793103448276,220.91411111111108C348.2758620689656,219.60644444444446,355.1724137931035,216.4988888888889,365.5172413793104,216.01444444444442C375.86206896551727,215.52999999999997,389.6551724137932,217.66866666666667,400,221.02505555555555C410.344827586207,224.38144444444444,417.2413793103449,228.95555555555552,424.1379310344828,230.00266666666664C431.0344827586207,231.04977777777776,437.9310344827586,228.56988888888887,444.8275862068965,223.25122222222225C451.7241379310345,217.93255555555552,458.6206896551725,209.7751111111111,465.5172413793104,204.80261111111108C472.41379310344837,199.8301111111111,479.3103448275863,198.0425555555555,486.2068965517242,199.1819444444444C493.1034482758621,200.3213333333333,500,204.38766666666666,506.89655172413796,214.25983333333332C513.7931034482759,224.13199999999998,520.6896551724138,239.80999999999997,527.5862068965517,239.71483333333333C534.4827586206897,239.61966666666663,541.3793103448276,223.7513333333333,548.2758620689655,206.79822222222222C555.1724137931034,189.8451111111111,562.0689655172414,171.8072222222222,568.9655172413793,172.27055555555557C575.8620689655172,172.7338888888889,582.7586206896552,191.69844444444448,586.2068965517241,201.18072222222224L589.6551724137931,210.663" style="fill: none; stroke: #8ac3ff; stroke-width: 5; stroke-linecap: round;"></path></g><g class="mark-text role-mark layer_2_marks" role="graphics-object" aria-roledescription="text mark container"><text text-anchor="middle" transform="translate(169.98275862068965,31.66666666666666)" style="font-family: calibri; font-size: 17px; fill: black; opacity: 0.9;">1990 to 2007 but have since shifted to a direct relationship.</text></g><g class="mark-text role-mark layer_3_marks" role="graphics-object" aria-roledescription="text mark container"><text text-anchor="middle" transform="translate(196.55172413793102,295)" style="font-family: calibri; font-size: 17px; fill: black; opacity: 0.8;">Inverse Relationship</text><text text-anchor="middle" transform="translate(506.89655172413796,295)" style="font-family: calibri; font-size: 17px; fill: black; opacity: 0.8;">Direct Relationship</text></g><g class="mark-rule role-mark layer_4_marks" role="graphics-symbol" aria-roledescription="rule mark container"><line transform="translate(196.55172413793102,266.6666666666667)" x2="0" y2="10" style="fill: none; stroke: black; opacity: 0.5;"></line><line transform="translate(10.344827586206897,266.6666666666667)" x2="0" y2="-10.000000000000057" style="fill: none; stroke: black; opacity: 0.5;"></line><line transform="translate(10.344827586206897,266.6666666666667)" x2="351.7241379310345" y2="0" style="fill: none; stroke: black; opacity: 0.5;"></line><line transform="translate(362.0689655172414,256.66666666666663)" x2="0" y2="10.000000000000057" style="fill: none; stroke: black; opacity: 0.5;"></line><line transform="translate(506.89655172413796,266.6666666666667)" x2="0" y2="10" style="fill: none; stroke: black; opacity: 0.5;"></line><line transform="translate(382.7586206896552,256.66666666666663)" x2="0" y2="10.000000000000057" style="fill: none; stroke: black; opacity: 0.5;"></line><line transform="translate(382.7586206896552,266.6666666666667)" x2="206.89655172413796" y2="0" style="fill: none; stroke: black; opacity: 0.5;"></line><line transform="translate(589.6551724137931,266.6666666666667)" x2="0" y2="-10.000000000000057" style="fill: none; stroke: black; opacity: 0.5;"></line></g><g class="mark-text role-mark layer_5_marks" role="graphics-object" aria-roledescription="text mark container"><text text-anchor="middle" transform="translate(-4.655172413793103,71.66666666666666)" style="font-family: calibri; font-size: 17px; fill: black; opacity: 0.8;">1 million</text></g><g class="mark-text role-mark layer_6_marks" role="graphics-object" aria-roledescription="text mark container"><text text-anchor="middle" transform="translate(-3.655172413793103,88.33333333333334)" style="font-family: calibri; font-size: 17px; fill: black; opacity: 0.8;">migrants</text></g><g class="mark-text role-mark layer_7_marks" role="graphics-object" aria-roledescription="text mark container"><text text-anchor="middle" transform="translate(313.00000000000006,65.66666666666666)" style="font-family: sans-serif; font-size: 11.5px; font-weight: bold; fill: black; opacity: 0.09;">__________________________________________________________________________________________</text></g><g class="mark-text role-mark layer_8_marks" role="graphics-object" aria-roledescription="text mark container"><text text-anchor="middle" transform="translate(-17.655172413793103,338.33333333333337)" style="font-family: calibri; font-size: 17px; fill: black; opacity: 0.8;">200k</text><text text-anchor="middle" transform="translate(-17.655172413793103,271.6666666666667)" style="font-family: calibri; font-size: 17px; fill: black; opacity: 0.8;">400k</text><text text-anchor="middle" transform="translate(-17.655172413793103,205)" style="font-family: calibri; font-size: 17px; fill: black; opacity: 0.8;">600k</text><text text-anchor="middle" transform="translate(-17.655172413793103,138.33333333333334)" style="font-family: calibri; font-size: 17px; fill: black; opacity: 0.8;">800k</text></g><g class="mark-rule role-mark layer_9_marks" role="graphics-symbol" aria-roledescription="rule mark container"><line transform="translate(10.344827586206897,200)" x2="372.41379310344826" y2="0" style="fill: none; stroke: black; stroke-dasharray: 5,5; opacity: 0.5;"></line></g><g class="mark-text role-mark layer_10_marks" role="graphics-object" aria-roledescription="text mark container"><text text-anchor="middle" transform="translate(-9.655172413793103,11.666666666666687)" style="font-family: calibri; font-size: 17px; fill: #8ac3ff;">Inward</text></g><g class="mark-text role-mark layer_11_marks" role="graphics-object" aria-roledescription="text mark container"><text text-anchor="middle" transform="translate(31.03448275862069,11.666666666666687)" style="font-family: calibri; font-size: 17px; fill: black; opacity: 0.8;">and</text></g><g class="mark-text role-mark layer_12_marks" role="graphics-object" aria-roledescription="text mark container"><text text-anchor="middle" transform="translate(76.11379310344829,11.666666666666687)" style="font-family: calibri; font-size: 17px; fill: #ffc417;">outward</text></g><g class="mark-group role-title"><g transform="translate(-35,-38)"><path class="background" aria-hidden="true" d="M0,0h0v0h0Z" style="pointer-events: none; fill: none;"></path><g><g class="mark-text role-title-text" role="graphics-symbol" aria-roledescription="title" aria-label="Title text 'CA Inward and Outward Migration'" style="pointer-events: none;"><text text-anchor="start" transform="translate(0,24)" style="font-family: Calibri; font-size: 30px; font-weight: normal; fill: #000; opacity: 1;">CA Inward and Outward Migration</text></g></g><path class="foreground" aria-hidden="true" d="" style="pointer-events: none; display: none; fill: none;"></path></g></g></g><path class="foreground" aria-hidden="true" d="" style="display: none; fill: none;"></path></g></g></g></svg>