<svg class="marks" width="661" height="575" viewBox="0 0 661 575" version="1.1" xmlns="http://www.w3.org/2000/svg" xmlns:xlink="http://www.w3.org/1999/xlink"><rect width="661" height="575" style="fill: white;"></rect><g transform="translate(46,40)"><g class="mark-group role-frame root" role="graphics-object" aria-roledescription="group mark container"><g transform="translate(0,0)"><path class="background" aria-hidden="true" d="M0.5,0.5h600v500h-600Z" style="fill: none; stroke: #ddd; stroke-opacity: 0;"></path><g><g class="mark-group role-axis" role="graphics-symbol" aria-roledescription="axis" aria-label="Y-axis for a linear scale with values from 0 to 1,200,000"><g transform="translate(0.5,0.5)"><path class="background" aria-hidden="true" d="M0,0h0v0h0Z" style="pointer-events: none; fill: none;"></path><g><g class="mark-rule role-axis-grid" style="pointer-events: none;"><line transform="translate(0,417)" x2="600" y2="0" style="fill: none; stroke: #ddd; stroke-opacity: 1; stroke-width: 1; opacity: 1;"></line><line transform="translate(0,333)" x2="600" y2="0" style="fill: none; stroke: #ddd; stroke-opacity: 1; stroke-width: 1; opacity: 1;"></line><line transform="translate(0,250)" x2="600" y2="0" style="fill: none; stroke: #ddd; stroke-opacity: 1; stroke-width: 1; opacity: 1;"></line><line transform="translate(0,167)" x2="600" y2="0" style="fill: none; stroke: #ddd; stroke-opacity: 1; stroke-width: 1; opacity: 1;"></line></g></g><path class="foreground" aria-hidden="true" d="" style="pointer-events: none; display: none; fill: none;"></path></g></g><g class="mark-group role-axis" role="graphics-symbol" aria-roledescription="axis" aria-label="X-axis for a discrete scale with 29 values: 1990, 1991, 1992, 1993, 1994, ending with 2017"><g transform="translate(0.5,500.5)"><path class="background" aria-hidden="true" d="M0,0h0v0h0Z" style="pointer-events: none; fill: none;"></path><g><g class="mark-text role-axis-label" style="pointer-events: none;"><text text-anchor="middle" transform="translate(9.844827586206897,26)" style="font-family: Calibri; font-size: 20px; fill: #000; fill-opacity: 0.8; opacity: 1;">1990</text><text text-anchor="middle" transform="translate(216.74137931034483,26)" style="font-family: Calibri; font-size: 20px; fill: #000; fill-opacity: 0.8; opacity: 1;">2000</text><text text-anchor="middle" transform="translate(444.32758620689657,26)" style="font-family: Calibri; font-size: 20px; fill: #000; fill-opacity: 0.8; opacity: 1;">2010</text><text text-anchor="middle" transform="translate(589.1551724137931,26)" style="font-family: Calibri; font-size: 20px; fill: #000; fill-opacity: 0.8; opacity: 1;">2017</text></g><g class="mark-rule role-axis-domain" style="pointer-events: none;"><line transform="translate(0,0)" x2="600" y2="0" style="fill: none; stroke: #888; stroke-width: 1; opacity: 1;"></line></g></g><path class="foreground" aria-hidden="true" d="" style="pointer-events: none; display: none; fill: none;"></path></g></g><g class="mark-group role-axis" role="graphics-symbol" aria-roledescription="axis" aria-label="Y-axis titled 'migration trends were characterized by an inverse' for a linear scale with values from 0 to 1,200,000"><g transform="translate(0.5,0.5)"><path class="background" aria-hidden="true" d="M0,0h0v0h0Z" style="pointer-events: none; fill: none;"></path><g><g class="mark-text role-axis-label" style="pointer-events: none;"><text text-anchor="start" transform="translate(-35,422.6666666666667)" style="font-family: Calibri; font-size: 20px; fill: #000; fill-opacity: 0; opacity: 1;">200,000</text><text text-anchor="start" transform="translate(-35,339.33333333333337)" style="font-family: Calibri; font-size: 20px; fill: #000; fill-opacity: 0; opacity: 1;">400,000</text><text text-anchor="start" transform="translate(-35,256)" style="font-family: Calibri; font-size: 20px; fill: #000; fill-opacity: 0; opacity: 1;">600,000</text><text text-anchor="start" transform="translate(-35,172.66666666666669)" style="font-family: Calibri; font-size: 20px; fill: #000; fill-opacity: 0; opacity: 1;">800,000</text></g><g class="mark-rule role-axis-domain" style="pointer-events: none;"><line transform="translate(0,500)" x2="0" y2="-500" style="fill: none; stroke: #888; stroke-width: 0; opacity: 1;"></line></g><g class="mark-text role-axis-title" style="pointer-events: none;"><text text-anchor="start" transform="translate(145,23.5)" style="font-family: Calibri; font-size: 22px; font-weight: normal; fill: #000; fill-opacity: 0.8; opacity: 1;">migration trends were characterized by an inverse</text></g></g><path class="foreground" aria-hidden="true" d="" style="pointer-events: none; display: none; fill: none;"></path></g></g><g class="mark-area role-mark layer_0_marks" role="graphics-symbol" aria-roledescription="area mark container"><path d="M10.344827586206897,287.28208333333333L13.793103448275863,289.3497222222222C17.24137931034483,291.4173611111111,24.13793103448276,295.55263888888885,31.034482758620687,301.62645833333335C37.931034482758626,307.7002777777778,44.82758620689655,315.7126388888889,51.724137931034484,320.24659722222225C58.62068965517242,324.78055555555557,65.51724137931035,325.83611111111117,72.41379310344827,324.5622916666667C79.3103448275862,323.28847222222225,86.20689655172414,319.6852777777778,93.10344827586205,316.9913888888889C100,314.2975,106.89655172413795,312.5129166666667,113.79310344827587,308.17604166666666C120.6896551724138,303.8391666666667,127.58620689655173,296.95,134.48275862068965,291.9558333333334C141.3793103448276,286.96166666666664,148.27586206896552,283.8625,155.17241379310346,283.2234027777778C162.0689655172414,282.5843055555556,168.9655172413793,284.4052777777778,175.86206896551724,284.8700694444444C182.75862068965515,285.33486111111114,189.6551724137931,284.4434722222222,196.55172413793102,282.2136805555556C203.44827586206895,279.98388888888894,210.3448275862069,276.41569444444445,217.2413793103448,278.19881944444444C224.13793103448276,279.9819444444445,231.0344827586207,287.1163888888889,237.9310344827586,291.40944444444443C244.8275862068966,295.70250000000004,251.7241379310345,297.1541666666667,258.62068965517244,298.30111111111114C265.5172413793104,299.4480555555556,272.4137931034483,300.2902777777778,279.3103448275862,301.0604861111112C286.2068965517242,301.83069444444453,293.1034482758621,302.52888888888896,300.00000000000006,301.873125C306.89655172413796,301.21736111111113,313.7931034482759,299.2076388888889,320.68965517241384,298.49611111111113C327.5862068965518,297.78458333333333,334.4827586206897,298.37125,341.3793103448276,296.7838888888889C348.2758620689656,295.1965277777778,355.1724137931035,291.43513888888884,365.5172413793104,290.60826388888887C375.86206896551727,289.7813888888889,389.6551724137932,291.88902777777776,400,294.2706944444444C410.344827586207,296.6523611111111,417.2413793103449,299.30805555555554,424.1379310344828,299.0699305555555C431.0344827586207,298.83180555555555,437.9310344827586,295.69986111111115,444.8275862068965,289.1973611111111C451.7241379310345,282.69486111111115,458.6206896551725,272.82180555555556,465.5172413793104,266.85319444444445C472.41379310344837,260.88458333333335,479.3103448275863,258.8204166666667,486.2068965517242,260.2895833333334C493.1034482758621,261.75875,500,266.76124999999996,506.89655172413796,279.0804166666666C513.7931034482759,291.3995833333333,520.6896551724138,311.03541666666666,527.5862068965517,310.92875C534.4827586206897,310.8220833333333,541.3793103448276,290.97291666666666,548.2758620689655,268.8870138888888C555.1724137931034,246.80111111111106,562.0689655172414,222.4784722222222,568.9655172413793,222.1906944444444C575.8620689655172,221.90291666666667,582.7586206896552,245.65,586.2068965517241,257.52354166666663L589.6551724137931,269.39708333333334L589.6551724137931,187.21208333333334L586.2068965517242,173.0442361111111C582.7586206896552,158.8763888888889,575.8620689655172,130.54069444444443,568.9655172413793,136.70006944444444C562.0689655172414,142.85944444444445,555.1724137931034,183.5138888888889,548.2758620689655,217.84090277777776C541.3793103448276,252.16791666666668,534.4827586206897,280.1675,527.5862068965517,283.21020833333336C520.6896551724138,286.25291666666664,513.7931034482759,264.33875,506.89655172413796,252.04166666666666C500,239.74458333333337,493.1034482758621,237.06458333333333,486.2068965517242,239.3313888888889C479.3103448275863,241.59819444444443,472.41379310344837,248.81180555555557,465.5172413793104,255.87902777777776C458.6206896551725,262.94625,451.7241379310345,269.8670833333333,444.82758620689657,273.8128472222222C437.9310344827586,277.7586111111111,431.0344827586207,278.7293055555555,424.1379310344828,275.2215277777778C417.2413793103449,271.71375,410.344827586207,263.7275,400,254.80708333333337C389.6551724137932,245.88666666666668,375.86206896551727,236.03208333333336,365.5172413793104,224.0195138888889C355.1724137931035,212.00694444444443,348.2758620689656,197.83638888888888,341.3793103448276,187.62326388888889C334.4827586206897,177.41013888888884,327.5862068965518,171.1544444444444,320.68965517241384,172.31416666666667C313.7931034482759,173.47388888888887,306.89655172413796,182.04902777777775,300.00000000000006,193.17256944444443C293.1034482758621,204.29611111111112,286.2068965517242,217.96805555555557,279.3103448275862,227.85215277777777C272.4137931034483,237.73625,265.5172413793104,243.83249999999998,258.62068965517244,245.3086111111111C251.7241379310345,246.7847222222222,244.8275862068966,243.64069444444445,237.93103448275863,243.88513888888892C231.0344827586207,244.12958333333336,224.13793103448276,247.76250000000002,217.2413793103448,248.75847222222225C210.3448275862069,249.75444444444443,203.44827586206895,248.1134722222222,196.55172413793102,247.60791666666668C189.6551724137931,247.10236111111112,182.75862068965515,247.7322222222222,175.86206896551724,246.71152777777777C168.9655172413793,245.69083333333333,162.0689655172414,243.01958333333332,155.17241379310346,238.7278472222222C148.27586206896552,234.4361111111111,141.3793103448276,228.52388888888888,134.48275862068965,220.37402777777774C127.58620689655173,212.22416666666663,120.6896551724138,201.83666666666667,113.79310344827587,189.6290972222222C106.89655172413795,177.42152777777778,100,163.39388888888888,93.10344827586208,153.87722222222223C86.20689655172414,144.36055555555555,79.3103448275862,139.35486111111112,72.41379310344828,140.39562500000002C65.51724137931035,141.4363888888889,58.62068965517242,148.5236111111111,51.724137931034484,160.82520833333334C44.82758620689655,173.12680555555553,37.931034482758626,190.64277777777775,31.034482758620687,200.59006944444445C24.13793103448276,210.5373611111111,17.24137931034483,212.91597222222222,13.793103448275863,214.1052777777778L10.344827586206897,215.29458333333335Z" style="fill: lightgray; opacity: 0.15;"></path></g><g class="mark-line role-mark layer_1_marks" role="graphics-symbol" aria-roledescription="line mark container"><path d="M10.344827586206897,215.29458333333335L13.793103448275863,214.10527777777781C17.24137931034483,212.91597222222222,24.13793103448276,210.5373611111111,31.034482758620687,200.59006944444445C37.931034482758626,190.64277777777775,44.82758620689655,173.12680555555553,51.724137931034484,160.8252083333333C58.62068965517242,148.5236111111111,65.51724137931035,141.4363888888889,72.41379310344827,140.395625C79.3103448275862,139.35486111111112,86.20689655172414,144.36055555555555,93.10344827586205,153.8772222222222C100,163.39388888888888,106.89655172413795,177.42152777777778,113.79310344827587,189.6290972222222C120.6896551724138,201.83666666666667,127.58620689655173,212.22416666666663,134.48275862068965,220.37402777777777C141.3793103448276,228.52388888888888,148.27586206896552,234.4361111111111,155.17241379310346,238.72784722222218C162.0689655172414,243.01958333333332,168.9655172413793,245.69083333333333,175.86206896551724,246.71152777777777C182.75862068965515,247.7322222222222,189.6551724137931,247.10236111111112,196.55172413793102,247.60791666666668C203.44827586206895,248.1134722222222,210.3448275862069,249.75444444444443,217.2413793103448,248.7584722222222C224.13793103448276,247.76250000000002,231.0344827586207,244.12958333333336,237.9310344827586,243.88513888888892C244.8275862068966,243.64069444444445,251.7241379310345,246.7847222222222,258.62068965517244,245.3086111111111C265.5172413793104,243.83249999999998,272.4137931034483,237.73625,279.3103448275862,227.85215277777777C286.2068965517242,217.96805555555557,293.1034482758621,204.29611111111112,300.00000000000006,193.17256944444443C306.89655172413796,182.04902777777775,313.7931034482759,173.47388888888887,320.68965517241384,172.31416666666664C327.5862068965518,171.1544444444444,334.4827586206897,177.41013888888884,341.3793103448276,187.62326388888883C348.2758620689656,197.83638888888888,355.1724137931035,212.00694444444443,365.5172413793104,224.0195138888889C375.86206896551727,236.03208333333336,389.6551724137932,245.88666666666668,400,254.80708333333337C410.344827586207,263.7275,417.2413793103449,271.71375,424.1379310344828,275.2215277777778C431.0344827586207,278.7293055555555,437.9310344827586,277.7586111111111,444.8275862068965,273.8128472222222C451.7241379310345,269.8670833333333,458.6206896551725,262.94625,465.5172413793104,255.87902777777776C472.41379310344837,248.81180555555557,479.3103448275863,241.59819444444443,486.2068965517242,239.3313888888889C493.1034482758621,237.06458333333333,500,239.74458333333337,506.89655172413796,252.04166666666666C513.7931034482759,264.33875,520.6896551724138,286.25291666666664,527.5862068965517,283.21020833333336C534.4827586206897,280.1675,541.3793103448276,252.16791666666668,548.2758620689655,217.84090277777776C555.1724137931034,183.5138888888889,562.0689655172414,142.85944444444445,568.9655172413793,136.70006944444444C575.8620689655172,130.54069444444443,582.7586206896552,158.8763888888889,586.2068965517241,173.0442361111111L589.6551724137931,187.21208333333334" style="fill: none; stroke: #ffc417; stroke-width: 5; stroke-linecap: round;"></path></g><g class="mark-line role-mark layer_2_marks" role="graphics-symbol" aria-roledescription="line mark container"><path d="M10.344827586206897,287.28208333333333L13.793103448275863,289.3497222222222C17.24137931034483,291.4173611111111,24.13793103448276,295.55263888888885,31.034482758620687,301.62645833333335C37.931034482758626,307.7002777777778,44.82758620689655,315.7126388888889,51.724137931034484,320.24659722222225C58.62068965517242,324.78055555555557,65.51724137931035,325.83611111111117,72.41379310344827,324.5622916666667C79.3103448275862,323.28847222222225,86.20689655172414,319.6852777777778,93.10344827586205,316.9913888888889C100,314.2975,106.89655172413795,312.5129166666667,113.79310344827587,308.17604166666666C120.6896551724138,303.8391666666667,127.58620689655173,296.95,134.48275862068965,291.9558333333334C141.3793103448276,286.96166666666664,148.27586206896552,283.8625,155.17241379310346,283.2234027777778C162.0689655172414,282.5843055555556,168.9655172413793,284.4052777777778,175.86206896551724,284.8700694444444C182.75862068965515,285.33486111111114,189.6551724137931,284.4434722222222,196.55172413793102,282.2136805555556C203.44827586206895,279.98388888888894,210.3448275862069,276.41569444444445,217.2413793103448,278.19881944444444C224.13793103448276,279.9819444444445,231.0344827586207,287.1163888888889,237.9310344827586,291.40944444444443C244.8275862068966,295.70250000000004,251.7241379310345,297.1541666666667,258.62068965517244,298.30111111111114C265.5172413793104,299.4480555555556,272.4137931034483,300.2902777777778,279.3103448275862,301.0604861111112C286.2068965517242,301.83069444444453,293.1034482758621,302.52888888888896,300.00000000000006,301.873125C306.89655172413796,301.21736111111113,313.7931034482759,299.2076388888889,320.68965517241384,298.49611111111113C327.5862068965518,297.78458333333333,334.4827586206897,298.37125,341.3793103448276,296.7838888888889C348.2758620689656,295.1965277777778,355.1724137931035,291.43513888888884,365.5172413793104,290.60826388888887C375.86206896551727,289.7813888888889,389.6551724137932,291.88902777777776,400,294.2706944444444C410.344827586207,296.6523611111111,417.2413793103449,299.30805555555554,424.1379310344828,299.0699305555555C431.0344827586207,298.83180555555555,437.9310344827586,295.69986111111115,444.8275862068965,289.1973611111111C451.7241379310345,282.69486111111115,458.6206896551725,272.82180555555556,465.5172413793104,266.85319444444445C472.41379310344837,260.88458333333335,479.3103448275863,258.8204166666667,486.2068965517242,260.2895833333334C493.1034482758621,261.75875,500,266.76124999999996,506.89655172413796,279.0804166666666C513.7931034482759,291.3995833333333,520.6896551724138,311.03541666666666,527.5862068965517,310.92875C534.4827586206897,310.8220833333333,541.3793103448276,290.97291666666666,548.2758620689655,268.8870138888888C555.1724137931034,246.80111111111106,562.0689655172414,222.4784722222222,568.9655172413793,222.1906944444444C575.8620689655172,221.90291666666667,582.7586206896552,245.65,586.2068965517241,257.52354166666663L589.6551724137931,269.39708333333334" style="fill: none; stroke: #8ac3ff; stroke-width: 5; stroke-linecap: round;"></path></g><g class="mark-text role-mark layer_3_marks" role="graphics-object" aria-roledescription="text mark container"><text text-anchor="middle" transform="translate(267.62068965517244,48.666666666666686)" style="font-family: calibri; font-size: 22px; fill: black; opacity: 0.9;">relationship from 1990 to 2007 but have since shifted to a direct one.</text></g><g class="mark-text role-mark layer_4_marks" role="graphics-object" aria-roledescription="text mark container"><text text-anchor="middle" transform="translate(196.55172413793102,369.5)" style="font-family: calibri; font-size: 24px; fill: black; opacity: 0.8;">Inverse Relationship</text><text text-anchor="middle" transform="translate(506.89655172413796,369.5)" style="font-family: calibri; font-size: 24px; fill: black; opacity: 0.8;">Direct Relationship</text></g><g class="mark-rule role-mark layer_5_marks" role="graphics-symbol" aria-roledescription="rule mark container"><line transform="translate(196.55172413793102,333.33333333333337)" x2="0" y2="12.499999999999943" style="fill: none; stroke: black; opacity: 0.5;"></line><line transform="translate(10.344827586206897,333.33333333333337)" x2="0" y2="-12.500000000000057" style="fill: none; stroke: black; opacity: 0.5;"></line><line transform="translate(10.344827586206897,333.33333333333337)" x2="351.7241379310345" y2="0" style="fill: none; stroke: black; opacity: 0.5;"></line><line transform="translate(362.0689655172414,320.8333333333333)" x2="0" y2="12.500000000000057" style="fill: none; stroke: black; opacity: 0.5;"></line><line transform="translate(506.89655172413796,333.33333333333337)" x2="0" y2="12.499999999999943" style="fill: none; stroke: black; opacity: 0.5;"></line><line transform="translate(382.7586206896552,320.8333333333333)" x2="0" y2="12.500000000000057" style="fill: none; stroke: black; opacity: 0.5;"></line><line transform="translate(382.7586206896552,333.33333333333337)" x2="206.89655172413796" y2="0" style="fill: none; stroke: black; opacity: 0.5;"></line><line transform="translate(589.6551724137931,333.33333333333337)" x2="0" y2="-12.500000000000057" style="fill: none; stroke: black; opacity: 0.5;"></line></g><g class="mark-text role-mark layer_6_marks" role="graphics-object" aria-roledescription="text mark container"><text text-anchor="middle" transform="translate(-4.655172413793103,89.33333333333331)" style="font-family: calibri; font-size: 20px; fill: black; opacity: 0.8;">1 million</text></g><g class="mark-text role-mark layer_7_marks" role="graphics-object" aria-roledescription="text mark container"><text text-anchor="middle" transform="translate(-3.655172413793103,110.16666666666669)" style="font-family: calibri; font-size: 20px; fill: black; opacity: 0.8;">migrants</text></g><g class="mark-text role-mark layer_8_marks" role="graphics-object" aria-roledescription="text mark container"><text text-anchor="middle" transform="translate(313.00000000000006,82.33333333333331)" style="font-family: sans-serif; font-size: 11.5px; font-weight: bold; fill: black; opacity: 0.09;">__________________________________________________________________________________________</text></g><g class="mark-text role-mark layer_9_marks" role="graphics-object" aria-roledescription="text mark container"><text text-anchor="middle" transform="translate(-17.655172413793103,422.6666666666667)" style="font-family: calibri; font-size: 20px; fill: black; opacity: 0.8;">200k</text><text text-anchor="middle" transform="translate(-17.655172413793103,339.33333333333337)" style="font-family: calibri; font-size: 20px; fill: black; opacity: 0.8;">400k</text><text text-anchor="middle" transform="translate(-17.655172413793103,256)" style="font-family: calibri; font-size: 20px; fill: black; opacity: 0.8;">600k</text><text text-anchor="middle" transform="translate(-17.655172413793103,172.66666666666669)" style="font-family: calibri; font-size: 20px; fill: black; opacity: 0.8;">800k</text></g><g class="mark-text role-mark layer_10_marks" role="graphics-object" aria-roledescription="text mark container"><text text-anchor="middle" transform="translate(-9.655172413793103,23.666666666666664)" style="font-family: calibri; font-size: 22px; fill: #8ac3ff;">Inward</text></g><g class="mark-text role-mark layer_11_marks" role="graphics-object" aria-roledescription="text mark container"><text text-anchor="middle" transform="translate(43.03448275862069,23.666666666666664)" style="font-family: calibri; font-size: 22px; fill: black; opacity: 0.8;">and</text></g><g class="mark-text role-mark layer_12_marks" role="graphics-object" aria-roledescription="text mark container"><text text-anchor="middle" transform="translate(102.41379310344828,23.666666666666664)" style="font-family: calibri; font-size: 22px; fill: #ffc417;">outward</text></g><g class="mark-group role-title"><g transform="translate(-40.71768925107756,-35)"><path class="background" aria-hidden="true" d="M0,0h0v0h0Z" style="pointer-events: none; fill: none;"></path><g><g class="mark-text role-title-text" role="graphics-symbol" aria-roledescription="title" aria-label="Title text 'California Domestic Migration Trends'" style="pointer-events: none;"><text text-anchor="start" transform="translate(0,24)" style="font-family: Calibri; font-size: 30px; font-weight: normal; fill: #000; opacity: 1;">California Domestic Migration Trends</text></g></g><path class="foreground" aria-hidden="true" d="" style="pointer-events: none; display: none; fill: none;"></path></g></g></g><path class="foreground" aria-hidden="true" d="" style="display: none; fill: none;"></path></g></g></g></svg>