<svg class="marks" width="672" height="650" viewBox="0 0 672 650" version="1.1" xmlns="http://www.w3.org/2000/svg" xmlns:xlink="http://www.w3.org/1999/xlink"><rect width="672" height="650" style="fill: white;"></rect><g transform="translate(55,114)"><g class="mark-group role-frame root" role="graphics-object" aria-roledescription="group mark container"><g transform="translate(0,0)"><path class="background" aria-hidden="true" d="M0.5,0.5h600v500h-600Z" style="fill: none; stroke: #ddd; stroke-opacity: 0;"></path><g><g class="mark-group role-axis" role="graphics-symbol" aria-roledescription="axis" aria-label="Y-axis for a linear scale with values from -500,000 to 0"><g transform="translate(0.5,0.5)"><path class="background" aria-hidden="true" d="M0,0h0v0h0Z" style="pointer-events: none; fill: none;"></path><g><g class="mark-rule role-axis-grid" style="pointer-events: none;"><line transform="translate(0,0)" x2="600" y2="0" style="fill: none; stroke: #ddd; stroke-opacity: 1; stroke-width: 1; opacity: 1;"></line><line transform="translate(0,100)" x2="600" y2="0" style="fill: none; stroke: #ddd; stroke-opacity: 1; stroke-width: 1; opacity: 1;"></line><line transform="translate(0,200)" x2="600" y2="0" style="fill: none; stroke: #ddd; stroke-opacity: 1; stroke-width: 1; opacity: 1;"></line><line transform="translate(0,300)" x2="600" y2="0" style="fill: none; stroke: #ddd; stroke-opacity: 1; stroke-width: 1; opacity: 1;"></line><line transform="translate(0,400)" x2="600" y2="0" style="fill: none; stroke: #ddd; stroke-opacity: 1; stroke-width: 1; opacity: 1;"></line></g></g><path class="foreground" aria-hidden="true" d="" style="pointer-events: none; display: none; fill: none;"></path></g></g><g class="mark-group role-axis" role="graphics-symbol" aria-roledescription="axis" aria-label="X-axis for a discrete scale with 29 values: 1991, 1992, 1993, 1994, 1995, ending with 2018"><g transform="translate(0.5,500.5)"><path class="background" aria-hidden="true" d="M0,0h0v0h0Z" style="pointer-events: none; fill: none;"></path><g><g class="mark-text role-axis-label" style="pointer-events: none;"><text text-anchor="middle" transform="translate(10.344827586206861,27)" style="font-family: Calibri; font-size: 22px; fill: #000; fill-opacity: 0; opacity: 1;">1991</text><text text-anchor="middle" transform="translate(196.551724137931,27)" style="font-family: Calibri; font-size: 22px; fill: #000; fill-opacity: 0; opacity: 1;">2000</text><text text-anchor="middle" transform="translate(403.44827586206895,27)" style="font-family: Calibri; font-size: 22px; fill: #000; fill-opacity: 0; opacity: 1;">2010</text><text text-anchor="middle" transform="translate(589.6551724137931,27)" style="font-family: Calibri; font-size: 22px; fill: #000; fill-opacity: 0; opacity: 1;">2018</text></g><g class="mark-rule role-axis-domain" style="pointer-events: none;"><line transform="translate(0,0)" x2="600" y2="0" style="fill: none; stroke: #888; stroke-width: 1; opacity: 1;"></line></g></g><path class="foreground" aria-hidden="true" d="" style="pointer-events: none; display: none; fill: none;"></path></g></g><g class="mark-group role-axis" role="graphics-symbol" aria-roledescription="axis" aria-label="Y-axis titled 'Every year since 1990 more Californians moved out than residents' for a linear scale with values from -500k to 0k"><g transform="translate(0.5,0.5)"><path class="background" aria-hidden="true" d="M0,0h0v0h0Z" style="pointer-events: none; fill: none;"></path><g><g class="mark-text role-axis-label" style="pointer-events: none;"><text text-anchor="start" transform="translate(-50,7)" style="font-family: Calibri; font-size: 22px; fill: #000; fill-opacity: 0.8; opacity: 1;">0k</text><text text-anchor="start" transform="translate(-50,106.99999999999997)" style="font-family: Calibri; font-size: 22px; fill: #000; fill-opacity: 0.8; opacity: 1;">-100k</text><text text-anchor="start" transform="translate(-50,207)" style="font-family: Calibri; font-size: 22px; fill: #000; fill-opacity: 0.8; opacity: 1;">-200k</text><text text-anchor="start" transform="translate(-50,307)" style="font-family: Calibri; font-size: 22px; fill: #000; fill-opacity: 0.8; opacity: 1;">-300k</text><text text-anchor="start" transform="translate(-50,407)" style="font-family: Calibri; font-size: 22px; fill: #000; fill-opacity: 0.8; opacity: 1;">-400k</text></g><g class="mark-rule role-axis-domain" style="pointer-events: none;"><line transform="translate(0,500)" x2="0" y2="-500" style="fill: none; stroke: #888; stroke-width: 0; opacity: 1;"></line></g><g class="mark-text role-axis-title" style="pointer-events: none;"><text text-anchor="start" transform="translate(-50,-55)" style="font-family: Calibri; font-size: 24px; font-weight: normal; fill: #000; fill-opacity: 0.8; opacity: 1;">Every year since 1990 more Californians moved out than residents</text></g></g><path class="foreground" aria-hidden="true" d="" style="pointer-events: none; display: none; fill: none;"></path></g></g><g class="mark-area role-mark layer_0_marks" role="graphics-symbol" aria-roledescription="area mark container"><path d="M10.344827586206861,170.818C17.24137931034475,172.18185789826103,24.13793103448264,173.54571579652207,31.034482758620655,216.02100000000002C37.93103448275867,258.49628420347796,44.82758620689681,342.08299471217293,51.72413793103445,387.545C58.620689655172086,433.0070052878271,65.51724137930918,440.3443053547866,72.41379310344824,430.327C79.3103448275873,420.30969464521337,86.20689655172829,392.9377838686806,93.10344827586204,362.51C99.99999999999578,332.0822161313194,106.89655172412228,298.59855917049117,113.79310344827583,260.00100000000003C120.68965517242938,221.40344082950887,127.58620689660995,177.69197944935482,134.48275862068962,146.747C141.3793103447693,115.80202055064521,148.27586206874813,97.62352303208968,155.17241379310343,88.87299999999998C162.06896551745874,80.12247696791027,168.96551724219054,80.79992842228648,175.8620689655172,84.99499999999999C182.75862068884388,89.1900715777135,189.6551724107654,96.90276327876428,196.551724137931,84.588C203.44827586509658,72.2732367212357,210.34482759750628,39.93101846265632,217.2413793103448,48.954C224.1379310231833,57.97698153734368,231.0344827164509,108.36516287061042,237.9310344827586,122.78C244.82758624906631,137.19483712938958,251.7241380884144,115.63633005490195,258.6206896551724,111.612C265.51724122193036,107.58766994509804,272.4137925160982,121.0975169097818,279.31034482758616,158.45199999999997C286.2068971390741,195.80648309021814,293.10345046788206,257.00560230597085,300,269.20500000000004C306.89654953211794,281.4043976940292,313.7930952675459,244.60407386633477,320.6896551724138,222.26800000000003C327.5862150772817,199.93192613366529,334.48278915158954,192.06010222869023,341.37931034482756,176.36400000000003C348.2758315380656,160.66789777130984,355.17229985023357,137.1475172189045,362.06896551724134,116.78500000000003C368.9656311842491,96.42248278109554,375.86249420609704,79.21782889569194,382.7586206896551,86.42800000000001C389.6547471732132,93.63817110430809,396.55013711848153,125.26316719832778,403.44827586206895,129.193C410.3464146056564,133.12283280167225,417.2473021475626,109.35750231099703,424.13793103448273,92.77800000000002C431.02855992140286,76.198497689003,437.90893015333705,66.8048235576841,444.8275862068965,71.54100000000003C451.746242260456,76.27717644231595,458.70318413564064,95.14320345826674,465.51724137931035,93.73599999999999C472.33129862298006,92.32879654173324,479.00247123513464,70.64836260924896,486.2068965517241,75.575C493.4113218683136,80.50163739075104,501.14899988933826,112.03534610473739,506.8965517241379,128.299C512.6441035589376,144.56265389526263,516.4015292075123,145.55625297180148,527.5862068965517,142.03C538.7708845855911,138.50374702819852,557.382814315095,130.4576420080567,568.9655172413793,137.59799999999998C580.5482201676637,144.73835799194327,585.1016962907283,167.06517899597162,589.6551724137931,189.392L589.6551724137931,0C585.1016962907283,0,580.5482201676637,0,568.9655172413793,0C557.382814315095,0,538.770884585591,0,527.5862068965517,0C516.4015292075125,0,512.6441035589377,0,506.8965517241379,0C501.14899988933814,0,493.4113218683137,0,486.2068965517241,0C479.0024712351346,0,472.33129862297994,0,465.51724137931035,0C458.70318413564075,0,451.74624226045603,0,444.8275862068965,0C437.908930153337,0,431.0285599214029,0,424.13793103448273,0C417.24730214756255,0,410.34641460565626,0,403.44827586206895,0C396.55013711848164,0,389.6547471732132,0,382.7586206896551,0C375.86249420609704,0,368.96563118424916,0,362.06896551724134,0C355.1722998502335,0,348.27583153806563,0,341.37931034482756,0C334.4827891515895,0,327.5862150772816,0,320.6896551724138,0C313.79309526754594,0,306.896549532118,0,300,0C293.103450467882,0,286.2068971390741,0,279.31034482758616,0C272.4137925160982,0,265.51724122193036,0,258.6206896551724,0C251.72413808841443,0,244.82758624906637,0,237.9310344827586,0C231.03448271645084,0,224.13793102318334,0,217.2413793103448,0C210.34482759750625,0,203.44827586509658,0,196.551724137931,0C189.6551724107654,0,182.75862068884385,0,175.8620689655172,0C168.96551724219057,0,162.06896551745874,0,155.17241379310343,0C148.27586206874813,0,141.37931034476935,0,134.48275862068962,0C127.58620689660991,0,120.68965517242934,0,113.79310344827583,0C106.89655172412232,0,99.99999999999578,0,93.10344827586204,0C86.20689655172829,0,79.31034482758729,0,72.41379310344824,0C65.5172413793092,0,58.620689655172086,0,51.72413793103445,0C44.82758620689681,0,37.93103448275867,0,31.034482758620655,0C24.13793103448264,0,17.24137931034475,0,10.344827586206861,0Z" style="fill: #e5e8ef; opacity: 0.25;"></path></g><g class="mark-line role-mark layer_1_marks" role="graphics-symbol" aria-roledescription="line mark container"><path d="M10.344827586206861,170.818C17.24137931034475,172.18185789826103,24.13793103448264,173.54571579652207,31.034482758620655,216.02100000000002C37.93103448275867,258.49628420347796,44.82758620689681,342.08299471217293,51.72413793103445,387.545C58.620689655172086,433.0070052878271,65.51724137930918,440.3443053547866,72.41379310344824,430.327C79.3103448275873,420.30969464521337,86.20689655172829,392.9377838686806,93.10344827586204,362.51C99.99999999999578,332.0822161313194,106.89655172412228,298.59855917049117,113.79310344827583,260.00100000000003C120.68965517242938,221.40344082950887,127.58620689660995,177.69197944935482,134.48275862068962,146.747C141.3793103447693,115.80202055064521,148.27586206874813,97.62352303208968,155.17241379310343,88.87299999999998C162.06896551745874,80.12247696791027,168.96551724219054,80.79992842228648,175.8620689655172,84.99499999999999C182.75862068884388,89.1900715777135,189.6551724107654,96.90276327876428,196.551724137931,84.588C203.44827586509658,72.2732367212357,210.34482759750628,39.93101846265632,217.2413793103448,48.954C224.1379310231833,57.97698153734368,231.0344827164509,108.36516287061042,237.9310344827586,122.78C244.82758624906631,137.19483712938958,251.7241380884144,115.63633005490195,258.6206896551724,111.612C265.51724122193036,107.58766994509804,272.4137925160982,121.0975169097818,279.31034482758616,158.45199999999997C286.2068971390741,195.80648309021814,293.10345046788206,257.00560230597085,300,269.20500000000004C306.89654953211794,281.4043976940292,313.7930952675459,244.60407386633477,320.6896551724138,222.26800000000003C327.5862150772817,199.93192613366529,334.48278915158954,192.06010222869023,341.37931034482756,176.36400000000003C348.2758315380656,160.66789777130984,355.17229985023357,137.1475172189045,362.06896551724134,116.78500000000003C368.9656311842491,96.42248278109554,375.86249420609704,79.21782889569194,382.7586206896551,86.42800000000001C389.6547471732132,93.63817110430809,396.55013711848153,125.26316719832778,403.44827586206895,129.193C410.3464146056564,133.12283280167225,417.2473021475626,109.35750231099703,424.13793103448273,92.77800000000002C431.02855992140286,76.198497689003,437.90893015333705,66.8048235576841,444.8275862068965,71.54100000000003C451.746242260456,76.27717644231595,458.70318413564064,95.14320345826674,465.51724137931035,93.73599999999999C472.33129862298006,92.32879654173324,479.00247123513464,70.64836260924896,486.2068965517241,75.575C493.4113218683136,80.50163739075104,501.14899988933826,112.03534610473739,506.8965517241379,128.299C512.6441035589376,144.56265389526263,516.4015292075123,145.55625297180148,527.5862068965517,142.03C538.7708845855911,138.50374702819852,557.382814315095,130.4576420080567,568.9655172413793,137.59799999999998C580.5482201676637,144.73835799194327,585.1016962907283,167.06517899597162,589.6551724137931,189.392" style="fill: none; stroke: #006aac; stroke-width: 5; stroke-linecap: round;"></path></g><g class="mark-text role-mark layer_2_marks" role="graphics-object" aria-roledescription="text mark container"><text text-anchor="middle" transform="translate(72.41379310344824,457)" style="font-family: calibri; font-size: 22px; font-weight: bold; fill: black; opacity: 0.8;">'94 peak</text><text text-anchor="middle" transform="translate(300,292.00000000000006)" style="font-family: calibri; font-size: 22px; font-weight: bold; fill: black; opacity: 0.8;">'05 peak</text><text text-anchor="middle" transform="translate(548.2758620689655,222.00000000000003)" style="font-family: calibri; font-size: 22px; font-weight: bold; fill: black; opacity: 0.8;">Next Peak?</text></g><g class="mark-text role-mark layer_3_marks" role="graphics-object" aria-roledescription="text mark container"><text text-anchor="middle" transform="translate(87.10344827586204,-23.00000000000003)" style="font-family: calibri; font-size: 24px; fill: black; opacity: 0.9;">from other states moved in.</text></g><g class="mark-text role-mark layer_4_marks" role="graphics-object" aria-roledescription="text mark container"><text text-anchor="middle" transform="translate(90.10344827586204,526)" style="font-family: calibri; font-size: 20px; fill: black; opacity: 0.8;">'95</text><text text-anchor="middle" transform="translate(193.551724137931,526)" style="font-family: calibri; font-size: 20px; fill: black; opacity: 0.8;">'00</text><text text-anchor="middle" transform="translate(297,526)" style="font-family: calibri; font-size: 20px; fill: black; opacity: 0.8;">'05</text><text text-anchor="middle" transform="translate(400.44827586206895,526)" style="font-family: calibri; font-size: 20px; fill: black; opacity: 0.8;">'10</text><text text-anchor="middle" transform="translate(503.8965517241379,526)" style="font-family: calibri; font-size: 20px; fill: black; opacity: 0.8;">'15</text></g><g class="mark-group role-title"><g transform="translate(-50,-109)"><path class="background" aria-hidden="true" d="M0,0h0v0h0Z" style="pointer-events: none; fill: none;"></path><g><g class="mark-text role-title-text" role="graphics-symbol" aria-roledescription="title" aria-label="Title text 'California Net Domestic Migration'" style="pointer-events: none;"><text text-anchor="start" transform="translate(0,24)" style="font-family: Calibri; font-size: 30px; font-weight: normal; fill: #000; opacity: 1;">California Net Domestic Migration</text></g></g><path class="foreground" aria-hidden="true" d="" style="pointer-events: none; display: none; fill: none;"></path></g></g></g><path class="foreground" aria-hidden="true" d="" style="display: none; fill: none;"></path></g></g></g></svg>