<svg class="marks" width="672" height="650" viewBox="0 0 672 650" version="1.1" xmlns="http://www.w3.org/2000/svg" xmlns:xlink="http://www.w3.org/1999/xlink"><rect width="672" height="650" style="fill: white;"></rect><g transform="translate(55,114)"><g class="mark-group role-frame root" role="graphics-object" aria-roledescription="group mark container"><g transform="translate(0,0)"><path class="background" aria-hidden="true" d="M0.5,0.5h600v500h-600Z" style="fill: none; stroke: #ddd; stroke-opacity: 0;"></path><g><g class="mark-group role-axis" role="graphics-symbol" aria-roledescription="axis" aria-label="Y-axis for a linear scale with values from -450,000 to 0"><g transform="translate(0.5,0.5)"><path class="background" aria-hidden="true" d="M0,0h0v0h0Z" style="pointer-events: none; fill: none;"></path><g><g class="mark-rule role-axis-grid" style="pointer-events: none;"><line transform="translate(0,0)" x2="600" y2="0" style="fill: none; stroke: #ddd; stroke-opacity: 1; stroke-width: 1; opacity: 1;"></line><line transform="translate(0,111)" x2="600" y2="0" style="fill: none; stroke: #ddd; stroke-opacity: 1; stroke-width: 1; opacity: 1;"></line><line transform="translate(0,222)" x2="600" y2="0" style="fill: none; stroke: #ddd; stroke-opacity: 1; stroke-width: 1; opacity: 1;"></line><line transform="translate(0,333)" x2="600" y2="0" style="fill: none; stroke: #ddd; stroke-opacity: 1; stroke-width: 1; opacity: 1;"></line><line transform="translate(0,444)" x2="600" y2="0" style="fill: none; stroke: #ddd; stroke-opacity: 1; stroke-width: 1; opacity: 1;"></line></g></g><path class="foreground" aria-hidden="true" d="" style="pointer-events: none; display: none; fill: none;"></path></g></g><g class="mark-group role-axis" role="graphics-symbol" aria-roledescription="axis" aria-label="X-axis for a discrete scale with 29 values: 1991, 1992, 1993, 1994, 1995, ending with 2018"><g transform="translate(0.5,500.5)"><path class="background" aria-hidden="true" d="M0,0h0v0h0Z" style="pointer-events: none; fill: none;"></path><g><g class="mark-text role-axis-label" style="pointer-events: none;"><text text-anchor="middle" transform="translate(10.344827586206861,27)" style="font-family: Calibri; font-size: 22px; fill: #000; fill-opacity: 0.8; opacity: 1;">1991</text><text text-anchor="middle" transform="translate(196.551724137931,27)" style="font-family: Calibri; font-size: 22px; fill: #000; fill-opacity: 0.8; opacity: 1;">2000</text><text text-anchor="middle" transform="translate(403.44827586206895,27)" style="font-family: Calibri; font-size: 22px; fill: #000; fill-opacity: 0.8; opacity: 1;">2010</text><text text-anchor="middle" transform="translate(589.6551724137931,27)" style="font-family: Calibri; font-size: 22px; fill: #000; fill-opacity: 0.8; opacity: 1;">2018</text></g><g class="mark-rule role-axis-domain" style="pointer-events: none;"><line transform="translate(0,0)" x2="600" y2="0" style="fill: none; stroke: #888; stroke-width: 1; opacity: 1;"></line></g></g><path class="foreground" aria-hidden="true" d="" style="pointer-events: none; display: none; fill: none;"></path></g></g><g class="mark-group role-axis" role="graphics-symbol" aria-roledescription="axis" aria-label="Y-axis titled 'Every year since 1990 more Californians moved out than residents' for a linear scale with values from -450k to 0k"><g transform="translate(0.5,0.5)"><path class="background" aria-hidden="true" d="M0,0h0v0h0Z" style="pointer-events: none; fill: none;"></path><g><g class="mark-text role-axis-label" style="pointer-events: none;"><text text-anchor="start" transform="translate(-50,7)" style="font-family: Calibri; font-size: 22px; fill: #000; fill-opacity: 0.8; opacity: 1;">0k</text><text text-anchor="start" transform="translate(-50,118.1111111111111)" style="font-family: Calibri; font-size: 22px; fill: #000; fill-opacity: 0.8; opacity: 1;">-100k</text><text text-anchor="start" transform="translate(-50,229.2222222222222)" style="font-family: Calibri; font-size: 22px; fill: #000; fill-opacity: 0.8; opacity: 1;">-200k</text><text text-anchor="start" transform="translate(-50,340.33333333333337)" style="font-family: Calibri; font-size: 22px; fill: #000; fill-opacity: 0.8; opacity: 1;">-300k</text><text text-anchor="start" transform="translate(-50,451.4444444444444)" style="font-family: Calibri; font-size: 22px; fill: #000; fill-opacity: 0.8; opacity: 1;">-400k</text></g><g class="mark-rule role-axis-domain" style="pointer-events: none;"><line transform="translate(0,500)" x2="0" y2="-500" style="fill: none; stroke: #888; stroke-width: 0; opacity: 1;"></line></g><g class="mark-text role-axis-title" style="pointer-events: none;"><text text-anchor="start" transform="translate(-50,-55)" style="font-family: Calibri; font-size: 24px; font-weight: normal; fill: #000; fill-opacity: 0.8; opacity: 1;">Every year since 1990 more Californians moved out than residents</text></g></g><path class="foreground" aria-hidden="true" d="" style="pointer-events: none; display: none; fill: none;"></path></g></g><g class="mark-area role-mark layer_0_marks" role="graphics-symbol" aria-roledescription="area mark container"><path d="M10.344827586206861,189.79777777777778L13.793103448275827,198.1687037037037C17.241379310344794,206.53962962962964,24.137931034482722,223.28148148148148,31.034482758620655,263.4161111111111C37.931034482758584,303.55074074074076,44.82758620689651,367.0781481481481,51.72413793103445,406.76444444444445C58.620689655172384,446.45074074074074,65.5172413793103,462.2959259259259,72.41379310344824,457.6598148148148C79.31034482758618,453.0237037037037,86.20689655172411,427.90629629629626,93.10344827586204,396.3644444444444C99.99999999999996,364.8225925925926,106.89655172413791,326.8562962962963,113.79310344827583,286.90018518518514C120.68965517241377,246.94407407407405,127.58620689655169,204.99814814814815,134.48275862068962,173.30777777777777C141.37931034482756,141.6174074074074,148.2758620689655,120.18259259259258,155.17241379310343,108.74703703703703C162.06896551724137,97.3114814814815,168.96551724137927,95.8751851851852,175.8620689655172,95.08166666666669C182.75862068965512,94.28814814814815,189.65517241379305,94.13740740740741,196.55172413793102,87.46314814814815C203.44827586206893,80.78888888888889,210.34482758620686,67.59111111111112,217.2413793103448,74.66370370370372C224.1379310344827,81.7362962962963,231.03448275862067,109.07925925925927,237.9310344827586,120.68259259259258C244.8275862068965,132.2859259259259,251.72413793103445,128.14962962962963,258.6206896551724,134.75555555555556C265.5172413793103,141.36148148148143,272.4137931034482,158.7096296296296,279.31034482758616,187.89351851851848C286.2068965517241,217.07740740740738,293.10344827586204,258.09703703703707,299.99999999999994,269.91481481481486C306.8965517241379,281.7325925925926,313.7931034482759,264.3485185185185,320.6896551724138,247.15574074074075C327.5862068965517,229.96296296296296,334.4827586206896,212.9614814814815,341.3793103448275,193.42759259259262C348.2758620689655,173.89370370370372,355.17241379310343,151.8274074074074,362.0689655172414,135.1725925925926C368.96551724137925,118.51777777777777,375.8620689655172,107.27444444444444,382.7586206896551,109.57222222222224C389.655172413793,111.87,396.551724137931,127.7088888888889,403.4482758620689,128.88481481481483C410.3448275862069,130.06074074074073,417.2413793103448,116.5737037037037,424.1379310344828,105.8974074074074C431.03448275862064,95.2211111111111,437.9310344827586,87.35555555555555,444.8275862068965,87.53296296296297C451.7241379310344,87.7103703703704,458.6206896551724,95.93074074074076,465.5172413793103,96.6777777777778C472.4137931034483,97.42481481481484,479.3103448275862,90.69851851851854,486.2068965517242,97.09907407407407C493.10344827586204,103.49962962962962,500,123.02703703703702,506.8965517241379,135.3335185185185C513.7931034482758,147.64,520.6896551724138,152.72555555555556,531.0344827586208,154.4475925925926C541.3793103448276,156.16962962962964,555.1724137931034,154.52814814814818,565.5172413793103,163.2988888888889C575.8620689655172,172.06962962962962,582.7586206896552,191.25259259259258,586.2068965517241,200.84407407407403L589.6551724137931,210.43555555555554L589.6551724137931,0L586.2068965517242,0C582.7586206896552,0,575.8620689655172,0,565.5172413793103,0C555.1724137931034,0,541.3793103448276,0,531.0344827586206,0C520.6896551724138,0,513.7931034482758,0,506.8965517241379,0C500,0,493.10344827586204,0,486.2068965517241,0C479.3103448275862,0,472.4137931034483,0,465.5172413793104,0C458.6206896551724,0,451.7241379310344,0,444.8275862068965,0C437.9310344827586,0,431.03448275862064,0,424.13793103448273,0C417.2413793103448,0,410.3448275862069,0,403.448275862069,0C396.551724137931,0,389.655172413793,0,382.7586206896551,0C375.8620689655172,0,368.96551724137925,0,362.06896551724134,0C355.17241379310343,0,348.2758620689655,0,341.3793103448276,0C334.4827586206896,0,327.5862068965517,0,320.6896551724138,0C313.7931034482759,0,306.8965517241379,0,300,0C293.10344827586204,0,286.2068965517241,0,279.31034482758616,0C272.4137931034482,0,265.5172413793103,0,258.6206896551724,0C251.72413793103445,0,244.8275862068965,0,237.9310344827586,0C231.03448275862067,0,224.1379310344827,0,217.24137931034477,0C210.34482758620686,0,203.44827586206893,0,196.55172413793102,0C189.65517241379305,0,182.75862068965512,0,175.8620689655172,0C168.96551724137927,0,162.06896551724137,0,155.17241379310343,0C148.2758620689655,0,141.37931034482756,0,134.48275862068962,0C127.58620689655169,0,120.68965517241377,0,113.79310344827582,0C106.89655172413791,0,99.99999999999996,0,93.10344827586204,0C86.20689655172411,0,79.31034482758618,0,72.41379310344824,0C65.5172413793103,0,58.620689655172384,0,51.72413793103445,0C44.82758620689651,0,37.931034482758584,0,31.034482758620655,0C24.137931034482722,0,17.241379310344794,0,13.793103448275827,0L10.344827586206861,0Z" style="fill: lightgray; opacity: 0.25;"></path></g><g class="mark-line role-mark layer_1_marks" role="graphics-symbol" aria-roledescription="line mark container"><path d="M10.344827586206861,189.79777777777778L13.793103448275827,198.1687037037037C17.241379310344794,206.53962962962964,24.137931034482722,223.28148148148148,31.034482758620655,263.4161111111111C37.931034482758584,303.55074074074076,44.82758620689651,367.0781481481481,51.72413793103445,406.76444444444445C58.620689655172384,446.45074074074074,65.5172413793103,462.2959259259259,72.41379310344824,457.6598148148148C79.31034482758618,453.0237037037037,86.20689655172411,427.90629629629626,93.10344827586204,396.3644444444444C99.99999999999996,364.8225925925926,106.89655172413791,326.8562962962963,113.79310344827583,286.90018518518514C120.68965517241377,246.94407407407405,127.58620689655169,204.99814814814815,134.48275862068962,173.30777777777777C141.37931034482756,141.6174074074074,148.2758620689655,120.18259259259258,155.17241379310343,108.74703703703703C162.06896551724137,97.3114814814815,168.96551724137927,95.8751851851852,175.8620689655172,95.08166666666669C182.75862068965512,94.28814814814815,189.65517241379305,94.13740740740741,196.55172413793102,87.46314814814815C203.44827586206893,80.78888888888889,210.34482758620686,67.59111111111112,217.2413793103448,74.66370370370372C224.1379310344827,81.7362962962963,231.03448275862067,109.07925925925927,237.9310344827586,120.68259259259258C244.8275862068965,132.2859259259259,251.72413793103445,128.14962962962963,258.6206896551724,134.75555555555556C265.5172413793103,141.36148148148143,272.4137931034482,158.7096296296296,279.31034482758616,187.89351851851848C286.2068965517241,217.07740740740738,293.10344827586204,258.09703703703707,299.99999999999994,269.91481481481486C306.8965517241379,281.7325925925926,313.7931034482759,264.3485185185185,320.6896551724138,247.15574074074075C327.5862068965517,229.96296296296296,334.4827586206896,212.9614814814815,341.3793103448275,193.42759259259262C348.2758620689655,173.89370370370372,355.17241379310343,151.8274074074074,362.0689655172414,135.1725925925926C368.96551724137925,118.51777777777777,375.8620689655172,107.27444444444444,382.7586206896551,109.57222222222224C389.655172413793,111.87,396.551724137931,127.7088888888889,403.4482758620689,128.88481481481483C410.3448275862069,130.06074074074073,417.2413793103448,116.5737037037037,424.1379310344828,105.8974074074074C431.03448275862064,95.2211111111111,437.9310344827586,87.35555555555555,444.8275862068965,87.53296296296297C451.7241379310344,87.7103703703704,458.6206896551724,95.93074074074076,465.5172413793103,96.6777777777778C472.4137931034483,97.42481481481484,479.3103448275862,90.69851851851854,486.2068965517242,97.09907407407407C493.10344827586204,103.49962962962962,500,123.02703703703702,506.8965517241379,135.3335185185185C513.7931034482758,147.64,520.6896551724138,152.72555555555556,531.0344827586208,154.4475925925926C541.3793103448276,156.16962962962964,555.1724137931034,154.52814814814818,565.5172413793103,163.2988888888889C575.8620689655172,172.06962962962962,582.7586206896552,191.25259259259258,586.2068965517241,200.84407407407403L589.6551724137931,210.43555555555554" style="fill: none; stroke: #006aac; stroke-width: 5; stroke-linecap: round;"></path></g><g class="mark-text role-mark layer_2_marks" role="graphics-object" aria-roledescription="text mark container"><text text-anchor="middle" transform="translate(72.41379310344824,484.7777777777778)" style="font-family: calibri; font-size: 22px; font-weight: bold; fill: black; opacity: 0.8;">'94 peak</text><text text-anchor="middle" transform="translate(300,318.11111111111114)" style="font-family: calibri; font-size: 22px; font-weight: bold; fill: black; opacity: 0.8;">'05 peak</text><text text-anchor="middle" transform="translate(548.2758620689655,251.44444444444446)" style="font-family: calibri; font-size: 22px; font-weight: bold; fill: black; opacity: 0.8;">Next Peak?</text></g><g class="mark-text role-mark layer_3_marks" role="graphics-object" aria-roledescription="text mark container"><text text-anchor="middle" transform="translate(87.10344827586204,-26.33333333333333)" style="font-family: calibri; font-size: 24px; fill: black; opacity: 0.9;">from other states moved in.</text></g><g class="mark-group role-title"><g transform="translate(-50,-109)"><path class="background" aria-hidden="true" d="M0,0h0v0h0Z" style="pointer-events: none; fill: none;"></path><g><g class="mark-text role-title-text" role="graphics-symbol" aria-roledescription="title" aria-label="Title text 'California Net Domestic Migration'" style="pointer-events: none;"><text text-anchor="start" transform="translate(0,24)" style="font-family: Calibri; font-size: 30px; font-weight: normal; fill: #000; opacity: 1;">California Net Domestic Migration</text></g></g><path class="foreground" aria-hidden="true" d="" style="pointer-events: none; display: none; fill: none;"></path></g></g></g><path class="foreground" aria-hidden="true" d="" style="display: none; fill: none;"></path></g></g></g></svg>