<svg class="marks" width="672" height="584" viewBox="0 0 672 584" version="1.1" xmlns="http://www.w3.org/2000/svg" xmlns:xlink="http://www.w3.org/1999/xlink"><rect width="672" height="584" style="fill: white;"></rect><g transform="translate(55,113)"><g class="mark-group role-frame root" role="graphics-object" aria-roledescription="group mark container"><g transform="translate(0,0)"><path class="background" aria-hidden="true" d="M0.5,0.5h600v435h-600Z" style="fill: none; stroke: #ddd; stroke-opacity: 0;"></path><g><g class="mark-group role-axis" role="graphics-symbol" aria-roledescription="axis" aria-label="Y-axis for a linear scale with values from -500,000 to 0"><g transform="translate(0.5,0.5)"><path class="background" aria-hidden="true" d="M0,0h0v0h0Z" style="pointer-events: none; fill: none;"></path><g><g class="mark-rule role-axis-grid" style="pointer-events: none;"><line transform="translate(0,0)" x2="600" y2="0" style="fill: none; stroke: #ddd; stroke-opacity: 1; stroke-width: 1; opacity: 1;"></line><line transform="translate(0,87)" x2="600" y2="0" style="fill: none; stroke: #ddd; stroke-opacity: 1; stroke-width: 1; opacity: 1;"></line><line transform="translate(0,174)" x2="600" y2="0" style="fill: none; stroke: #ddd; stroke-opacity: 1; stroke-width: 1; opacity: 1;"></line><line transform="translate(0,261)" x2="600" y2="0" style="fill: none; stroke: #ddd; stroke-opacity: 1; stroke-width: 1; opacity: 1;"></line><line transform="translate(0,348)" x2="600" y2="0" style="fill: none; stroke: #ddd; stroke-opacity: 1; stroke-width: 1; opacity: 1;"></line></g></g><path class="foreground" aria-hidden="true" d="" style="pointer-events: none; display: none; fill: none;"></path></g></g><g class="mark-group role-axis" role="graphics-symbol" aria-roledescription="axis" aria-label="X-axis for a discrete scale with 29 values: 1991, 1992, 1993, 1994, 1995, ending with 2018"><g transform="translate(0.5,435.5)"><path class="background" aria-hidden="true" d="M0,0h0v0h0Z" style="pointer-events: none; fill: none;"></path><g><g class="mark-text role-axis-label" style="pointer-events: none;"><text text-anchor="middle" transform="translate(10.344827586206861,27)" style="font-family: Calibri; font-size: 22px; fill: #000; fill-opacity: 0; opacity: 1;">1991</text><text text-anchor="middle" transform="translate(196.551724137931,27)" style="font-family: Calibri; font-size: 22px; fill: #000; fill-opacity: 0; opacity: 1;">2000</text><text text-anchor="middle" transform="translate(403.44827586206895,27)" style="font-family: Calibri; font-size: 22px; fill: #000; fill-opacity: 0; opacity: 1;">2010</text><text text-anchor="middle" transform="translate(589.6551724137931,27)" style="font-family: Calibri; font-size: 22px; fill: #000; fill-opacity: 0; opacity: 1;">2018</text></g><g class="mark-rule role-axis-domain" style="pointer-events: none;"><line transform="translate(0,0)" x2="600" y2="0" style="fill: none; stroke: #888; stroke-width: 1; opacity: 1;"></line></g></g><path class="foreground" aria-hidden="true" d="" style="pointer-events: none; display: none; fill: none;"></path></g></g><g class="mark-group role-axis" role="graphics-symbol" aria-roledescription="axis" aria-label="Y-axis titled 'Every year since 1991 more Californians moved out than residents' for a linear scale with values from -500k to 0k"><g transform="translate(0.5,0.5)"><path class="background" aria-hidden="true" d="M0,0h0v0h0Z" style="pointer-events: none; fill: none;"></path><g><g class="mark-text role-axis-label" style="pointer-events: none;"><text text-anchor="start" transform="translate(-50,7)" style="font-family: Calibri; font-size: 22px; fill: #000; fill-opacity: 0.8; opacity: 1;">0k</text><text text-anchor="start" transform="translate(-50,93.99999999999999)" style="font-family: Calibri; font-size: 22px; fill: #000; fill-opacity: 0.8; opacity: 1;">-100k</text><text text-anchor="start" transform="translate(-50,181)" style="font-family: Calibri; font-size: 22px; fill: #000; fill-opacity: 0.8; opacity: 1;">-200k</text><text text-anchor="start" transform="translate(-50,268)" style="font-family: Calibri; font-size: 22px; fill: #000; fill-opacity: 0.8; opacity: 1;">-300k</text><text text-anchor="start" transform="translate(-50,355)" style="font-family: Calibri; font-size: 22px; fill: #000; fill-opacity: 0.8; opacity: 1;">-400k</text></g><g class="mark-rule role-axis-domain" style="pointer-events: none;"><line transform="translate(0,435)" x2="0" y2="-435" style="fill: none; stroke: #888; stroke-width: 0; opacity: 1;"></line></g><g class="mark-text role-axis-title" style="pointer-events: none;"><text text-anchor="start" transform="translate(-50,-55)" style="font-family: Calibri; font-size: 22px; font-weight: normal; fill: #000; fill-opacity: 0.8; opacity: 1;">Every year since 1991 more Californians moved out than residents</text></g></g><path class="foreground" aria-hidden="true" d="" style="pointer-events: none; display: none; fill: none;"></path></g></g><g class="mark-area role-mark layer_0_marks" role="graphics-symbol" aria-roledescription="area mark container"><path d="M10.344827586206861,148.61166000000003C17.24137931034475,149.79821637148706,24.13793103448264,150.98477274297417,31.034482758620655,187.93827000000002C37.93103448275867,224.89176725702586,44.82758620689681,297.61220539959044,51.72413793103445,337.16415C58.620689655172086,376.7160946004096,65.51724137930918,383.09954565866434,72.41379310344824,374.38449C79.3103448275873,365.6694343413357,86.20689655172829,341.8558719657521,93.10344827586204,315.3837C99.99999999999578,288.91152803424785,106.89655172412228,259.7807464783273,113.79310344827583,226.20087000000004C120.68965517242938,192.6209935216728,127.58620689660995,154.5920221209387,134.48275862068962,127.66989000000001C141.3793103447693,100.74775787906131,148.27586206874813,84.93246503791799,155.17241379310343,77.31950999999998C162.06896551745874,69.70655496208197,168.96551724219054,70.29593772738924,175.8620689655172,73.94564999999999C182.75862068884388,77.59536227261073,189.6551724107654,84.30540405252495,196.551724137931,73.59156C203.44827586509658,62.87771594747506,210.34482759750628,34.739986062511,217.2413793103448,42.58998C224.1379310231833,50.43997393748899,231.0344827164509,94.27769169743108,237.9310344827586,106.8186C244.82758624906631,119.35950830256893,251.7241380884144,100.60360714776469,258.6206896551724,97.10243999999999C265.51724122193036,93.60127285223528,272.4137925160982,105.35483971151015,279.31034482758616,137.85323999999997C286.2068971390741,170.3516402884898,293.10345046788206,223.5948740061946,300,234.20835000000002C306.89654953211794,244.82182599380545,313.7930952675459,212.80554426371123,320.6896551724138,193.37316C327.5862150772817,173.9407757362888,334.48278915158954,167.0922889389605,341.37931034482756,153.43668000000002C348.2758315380656,139.78107106103954,355.17229985023357,119.31833998044692,362.06896551724134,101.60295000000002C368.9656311842491,83.88756001955312,375.86249420609704,68.919511139252,382.7586206896551,75.19236000000001C389.6547471732132,81.46520886074802,396.55013711848153,108.97895546254513,403.44827586206895,112.39791C410.3464146056564,115.81686453745486,417.2473021475626,95.14102701056746,424.13793103448273,80.71686000000003C431.02855992140286,66.2926929894326,437.90893015333705,58.120196495185155,444.8275862068965,62.240670000000016C451.746242260456,66.36114350481488,458.70318413564064,82.77458700869205,465.51724137931035,81.55031999999999C472.33129862298006,80.32605299130792,479.00247123513464,61.46407547004661,486.2068965517241,65.75025000000001C493.4113218683136,70.03642452995341,501.14899988933826,97.47075111112153,506.8965517241379,111.62013C512.6441035589376,125.76950888887848,516.4015292075123,126.6339400854673,527.5862068965517,123.56609999999999C538.7708845855911,120.49825991453268,557.382814315095,113.49814854700932,568.9655172413793,119.71026C580.5482201676637,125.92237145299069,585.1016962907283,145.34670572649534,589.6551724137931,164.77104L589.6551724137931,0C585.1016962907283,0,580.5482201676637,0,568.9655172413793,0C557.382814315095,0,538.770884585591,0,527.5862068965517,0C516.4015292075125,0,512.6441035589377,0,506.8965517241379,0C501.14899988933814,0,493.4113218683137,0,486.2068965517241,0C479.0024712351346,0,472.33129862297994,0,465.51724137931035,0C458.70318413564075,0,451.74624226045603,0,444.8275862068965,0C437.908930153337,0,431.0285599214029,0,424.13793103448273,0C417.24730214756255,0,410.34641460565626,0,403.44827586206895,0C396.55013711848164,0,389.6547471732132,0,382.7586206896551,0C375.86249420609704,0,368.96563118424916,0,362.06896551724134,0C355.1722998502335,0,348.27583153806563,0,341.37931034482756,0C334.4827891515895,0,327.5862150772816,0,320.6896551724138,0C313.79309526754594,0,306.896549532118,0,300,0C293.103450467882,0,286.2068971390741,0,279.31034482758616,0C272.4137925160982,0,265.51724122193036,0,258.6206896551724,0C251.72413808841443,0,244.82758624906637,0,237.9310344827586,0C231.03448271645084,0,224.13793102318334,0,217.2413793103448,0C210.34482759750625,0,203.44827586509658,0,196.551724137931,0C189.6551724107654,0,182.75862068884385,0,175.8620689655172,0C168.96551724219057,0,162.06896551745874,0,155.17241379310343,0C148.27586206874813,0,141.37931034476935,0,134.48275862068962,0C127.58620689660991,0,120.68965517242934,0,113.79310344827583,0C106.89655172412232,0,99.99999999999578,0,93.10344827586204,0C86.20689655172829,0,79.31034482758729,0,72.41379310344824,0C65.5172413793092,0,58.620689655172086,0,51.72413793103445,0C44.82758620689681,0,37.93103448275867,0,31.034482758620655,0C24.13793103448264,0,17.24137931034475,0,10.344827586206861,0Z" style="fill: #e5e8ef; opacity: 0.25;"></path></g><g class="mark-line role-mark layer_1_marks" role="graphics-symbol" aria-roledescription="line mark container"><path d="M10.344827586206861,148.61166000000003C17.24137931034475,149.79821637148706,24.13793103448264,150.98477274297417,31.034482758620655,187.93827000000002C37.93103448275867,224.89176725702586,44.82758620689681,297.61220539959044,51.72413793103445,337.16415C58.620689655172086,376.7160946004096,65.51724137930918,383.09954565866434,72.41379310344824,374.38449C79.3103448275873,365.6694343413357,86.20689655172829,341.8558719657521,93.10344827586204,315.3837C99.99999999999578,288.91152803424785,106.89655172412228,259.7807464783273,113.79310344827583,226.20087000000004C120.68965517242938,192.6209935216728,127.58620689660995,154.5920221209387,134.48275862068962,127.66989000000001C141.3793103447693,100.74775787906131,148.27586206874813,84.93246503791799,155.17241379310343,77.31950999999998C162.06896551745874,69.70655496208197,168.96551724219054,70.29593772738924,175.8620689655172,73.94564999999999C182.75862068884388,77.59536227261073,189.6551724107654,84.30540405252495,196.551724137931,73.59156C203.44827586509658,62.87771594747506,210.34482759750628,34.739986062511,217.2413793103448,42.58998C224.1379310231833,50.43997393748899,231.0344827164509,94.27769169743108,237.9310344827586,106.8186C244.82758624906631,119.35950830256893,251.7241380884144,100.60360714776469,258.6206896551724,97.10243999999999C265.51724122193036,93.60127285223528,272.4137925160982,105.35483971151015,279.31034482758616,137.85323999999997C286.2068971390741,170.3516402884898,293.10345046788206,223.5948740061946,300,234.20835000000002C306.89654953211794,244.82182599380545,313.7930952675459,212.80554426371123,320.6896551724138,193.37316C327.5862150772817,173.9407757362888,334.48278915158954,167.0922889389605,341.37931034482756,153.43668000000002C348.2758315380656,139.78107106103954,355.17229985023357,119.31833998044692,362.06896551724134,101.60295000000002C368.9656311842491,83.88756001955312,375.86249420609704,68.919511139252,382.7586206896551,75.19236000000001C389.6547471732132,81.46520886074802,396.55013711848153,108.97895546254513,403.44827586206895,112.39791C410.3464146056564,115.81686453745486,417.2473021475626,95.14102701056746,424.13793103448273,80.71686000000003C431.02855992140286,66.2926929894326,437.90893015333705,58.120196495185155,444.8275862068965,62.240670000000016C451.746242260456,66.36114350481488,458.70318413564064,82.77458700869205,465.51724137931035,81.55031999999999C472.33129862298006,80.32605299130792,479.00247123513464,61.46407547004661,486.2068965517241,65.75025000000001C493.4113218683136,70.03642452995341,501.14899988933826,97.47075111112153,506.8965517241379,111.62013C512.6441035589376,125.76950888887848,516.4015292075123,126.6339400854673,527.5862068965517,123.56609999999999C538.7708845855911,120.49825991453268,557.382814315095,113.49814854700932,568.9655172413793,119.71026C580.5482201676637,125.92237145299069,585.1016962907283,145.34670572649534,589.6551724137931,164.77104" style="fill: none; stroke: #006aac; stroke-width: 5; stroke-linecap: round;"></path></g><g class="mark-text role-mark layer_2_marks" role="graphics-object" aria-roledescription="text mark container"><text text-anchor="middle" transform="translate(72.41379310344824,402.85)" style="font-family: calibri; font-size: 22px; font-weight: bold; fill: black; opacity: 0.8;">'94 peak</text><text text-anchor="middle" transform="translate(300,257.56000000000006)" style="font-family: calibri; font-size: 22px; font-weight: bold; fill: black; opacity: 0.8;">'05 peak</text><text text-anchor="middle" transform="translate(548.2758620689655,194.05)" style="font-family: calibri; font-size: 22px; font-weight: bold; fill: black; opacity: 0.8;">Next Peak?</text></g><g class="mark-text role-mark layer_3_marks" role="graphics-object" aria-roledescription="text mark container"><text text-anchor="middle" transform="translate(75.41379310344824,-27.800000000000033)" style="font-family: calibri; font-size: 22px; fill: black; opacity: 0.9;">from other states moved in.</text></g><g class="mark-text role-mark layer_4_marks" role="graphics-object" aria-roledescription="text mark container"><text text-anchor="middle" transform="translate(90.10344827586204,461)" style="font-family: calibri; font-size: 20px; fill: black; opacity: 0.8;">'95</text><text text-anchor="middle" transform="translate(193.551724137931,461)" style="font-family: calibri; font-size: 20px; fill: black; opacity: 0.8;">'00</text><text text-anchor="middle" transform="translate(297,461)" style="font-family: calibri; font-size: 20px; fill: black; opacity: 0.8;">'05</text><text text-anchor="middle" transform="translate(400.44827586206895,461)" style="font-family: calibri; font-size: 20px; fill: black; opacity: 0.8;">'10</text><text text-anchor="middle" transform="translate(503.8965517241379,461)" style="font-family: calibri; font-size: 20px; fill: black; opacity: 0.8;">'15</text></g><g class="mark-group role-title"><g transform="translate(-50,-108)"><path class="background" aria-hidden="true" d="M0,0h0v0h0Z" style="pointer-events: none; fill: none;"></path><g><g class="mark-text role-title-text" role="graphics-symbol" aria-roledescription="title" aria-label="Title text 'California Net Domestic Migration'" style="pointer-events: none;"><text text-anchor="start" transform="translate(0,24)" style="font-family: Calibri; font-size: 30px; font-weight: normal; fill: #000; opacity: 1;">California Net Domestic Migration</text></g></g><path class="foreground" aria-hidden="true" d="" style="pointer-events: none; display: none; fill: none;"></path></g></g></g><path class="foreground" aria-hidden="true" d="" style="display: none; fill: none;"></path></g></g></g></svg>