<svg class="marks" width="1535" height="609" viewBox="0 0 1535 609" version="1.1" xmlns="http://www.w3.org/2000/svg" xmlns:xlink="http://www.w3.org/1999/xlink"><rect width="1535" height="609" style="fill: white;"></rect><g transform="translate(31,108)"><g class="mark-group role-frame root"><g transform="translate(0,0)"><path class="background" d="M0,0h0v450h0Z" style="fill: none;"></path><g><g class="mark-group role-scope concat_0_group"><g transform="translate(0,0)"><path class="background" d="M0.5,0.5h600v450h-600Z" style="fill: none; stroke: #ddd; stroke-opacity: 0;"></path><g><g class="mark-group role-axis"><g transform="translate(0.5,0.5)"><path class="background" d="M0,0h0v0h0Z" style="pointer-events: none; fill: none;"></path><g><g class="mark-rule role-axis-grid" style="pointer-events: none;"><line transform="translate(0,386)" x2="600" y2="0" style="fill: none; stroke: #ddd; stroke-opacity: 1; stroke-width: 1; opacity: 1;"></line><line transform="translate(0,257)" x2="600" y2="0" style="fill: none; stroke: #ddd; stroke-opacity: 1; stroke-width: 1; opacity: 1;"></line><line transform="translate(0,129)" x2="600" y2="0" style="fill: none; stroke: #ddd; stroke-opacity: 1; stroke-width: 1; opacity: 1;"></line></g></g><path class="foreground" d="" style="pointer-events: none; display: none; fill: none;"></path></g></g><g class="mark-group role-axis"><g transform="translate(0.5,450.5)"><path class="background" d="M0,0h0v0h0Z" style="pointer-events: none; fill: none;"></path><g><g class="mark-rule role-axis-tick" style="pointer-events: none;"><line transform="translate(27,0)" x2="0" y2="10" style="fill: none; stroke: #888; stroke-width: 1; opacity: 1;"></line><line transform="translate(573,0)" x2="0" y2="10" style="fill: none; stroke: #888; stroke-width: 1; opacity: 1;"></line></g><g class="mark-text role-axis-label" style="pointer-events: none;"><text text-anchor="middle" transform="translate(27.272727272727252,41)" style="font-family: Lato; font-size: 26px; fill: #000; fill-opacity: 0.8; opacity: 1;">2008</text><text text-anchor="middle" transform="translate(572.7272727272727,41)" style="font-family: Lato; font-size: 26px; fill: #000; fill-opacity: 0.8; opacity: 1;">2018</text></g><g class="mark-rule role-axis-domain" style="pointer-events: none;"><line transform="translate(0,0)" x2="600" y2="0" style="fill: none; stroke: #888; stroke-width: 1; opacity: 1;"></line></g></g><path class="foreground" d="" style="pointer-events: none; display: none; fill: none;"></path></g></g><g class="mark-group role-axis"><g transform="translate(0.5,0.5)"><path class="background" d="M0,0h0v0h0Z" style="pointer-events: none; fill: none;"></path><g><g class="mark-text role-axis-label" style="pointer-events: none;"><text text-anchor="start" transform="translate(-25,393.7142857142857)" style="font-family: Lato; font-size: 26px; fill: #000; fill-opacity: 0.8; opacity: 1;">2k</text><text text-anchor="start" transform="translate(-25,265.1428571428571)" style="font-family: Lato; font-size: 26px; fill: #000; fill-opacity: 0.8; opacity: 1;">4k</text><text text-anchor="start" transform="translate(-25,136.57142857142856)" style="font-family: Lato; font-size: 26px; fill: #000; fill-opacity: 0.8; opacity: 1;">6k</text></g><g class="mark-rule role-axis-domain" style="pointer-events: none;"><line transform="translate(0,450)" x2="0" y2="-450" style="fill: none; stroke: #888; stroke-width: 0; opacity: 1;"></line></g><g class="mark-text role-axis-title" style="pointer-events: none;"><text text-anchor="start" transform="translate(-25,-40)" style="font-family: Lato; font-size: 26px; font-weight: normal; fill: #000; fill-opacity: 0.8; opacity: 1;">Counties grouped by % of housing units rented</text></g></g><path class="foreground" d="" style="pointer-events: none; display: none; fill: none;"></path></g></g><g class="mark-group role-scope concat_0_layer_0_pathgroup"><g transform="translate(0,0)"><path class="background" d="M0,0h600v450h-600Z" style="fill: none;"></path><g><g class="mark-line role-mark concat_0_layer_0_marks"><path d="M27.272727272727252,307.79999999999995L36.363636363636346,307.3928571428571C45.45454545454544,306.98571428571427,63.63636363636362,306.1714285714286,81.8181818181818,305.71071428571435C99.99999999999999,305.25000000000006,118.18181818181817,305.14285714285717,136.36363636363635,305.1321428571429C154.54545454545453,305.1214285714286,172.72727272727272,305.20714285714286,190.90909090909088,305.1857142857143C209.0909090909091,305.1642857142857,227.27272727272725,305.0357142857143,245.4545454545454,304.5535714285714C263.6363636363636,304.07142857142856,281.8181818181818,303.23571428571427,300,301.7142857142857C318.1818181818182,300.1928571428571,336.3636363636363,297.98571428571427,354.5454545454545,295.22142857142853C372.7272727272727,292.45714285714286,390.9090909090908,289.1357142857143,409.09090909090907,284.66785714285714C427.27272727272725,280.2,445.45454545454544,274.58571428571423,463.6363636363637,272.6142857142857C481.8181818181818,270.6428571428571,500,272.3142857142857,518.1818181818181,268.2642857142857C536.3636363636364,264.2142857142857,554.5454545454546,254.44285714285715,563.6363636363636,249.55714285714285L572.7272727272727,244.67142857142858" style="fill: none; stroke: #b2182b; stroke-width: 8; stroke-linecap: round; opacity: 1;"></path></g></g><path class="foreground" d="" style="display: none; fill: none;"></path></g><g transform="translate(0,0)"><path class="background" d="M0,0h600v450h-600Z" style="fill: none;"></path><g><g class="mark-line role-mark concat_0_layer_0_marks"><path d="M27.272727272727252,340.2L36.363636363636346,339.5785714285714C45.45454545454544,338.95714285714286,63.63636363636362,337.7142857142857,81.8181818181818,337.4464285714286C99.99999999999999,337.17857142857144,118.18181818181817,337.8857142857143,136.36363636363635,337.84285714285716C154.54545454545453,337.8,172.72727272727272,337.00714285714287,190.90909090909088,335.5285714285714C209.0909090909091,334.05,227.27272727272725,331.8857142857143,245.4545454545454,330.5892857142857C263.6363636363636,329.29285714285714,281.8181818181818,328.8642857142857,300,327.3107142857143C318.1818181818182,325.75714285714287,336.3636363636363,323.0785714285714,354.5454545454545,320.1535714285714C372.7272727272727,317.22857142857146,390.9090909090908,314.0571428571429,409.09090909090907,310.97142857142853C427.27272727272725,307.8857142857143,445.45454545454544,304.8857142857143,463.6363636363637,302.7642857142857C481.8181818181818,300.6428571428571,500,299.4,518.1818181818181,298.0928571428571C536.3636363636364,296.7857142857143,554.5454545454546,295.4142857142857,563.6363636363636,294.72857142857146L572.7272727272727,294.04285714285714" style="fill: none; stroke: #ef8a62; stroke-width: 8; stroke-linecap: round; opacity: 1;"></path></g></g><path class="foreground" d="" style="display: none; fill: none;"></path></g><g transform="translate(0,0)"><path class="background" d="M0,0h600v450h-600Z" style="fill: none;"></path><g><g class="mark-line role-mark concat_0_layer_0_marks"><path d="M27.272727272727252,351.51428571428573L36.363636363636346,350.00357142857143C45.45454545454544,348.4928571428572,63.63636363636362,345.47142857142853,81.8181818181818,345.10714285714283C99.99999999999999,344.7428571428571,118.18181818181817,347.0357142857143,136.36363636363635,347.38928571428573C154.54545454545453,347.7428571428571,172.72727272727272,346.15714285714284,190.90909090909088,345.3107142857143C209.0909090909091,344.4642857142857,227.27272727272725,344.35714285714283,245.4545454545454,343.59642857142853C263.6363636363636,342.83571428571423,281.8181818181818,341.4214285714286,300,338.8392857142857C318.1818181818182,336.25714285714287,336.3636363636363,332.50714285714287,354.5454545454545,330.10714285714283C372.7272727272727,327.70714285714286,390.9090909090908,326.65714285714284,409.09090909090907,324.02142857142854C427.27272727272725,321.3857142857143,445.45454545454544,317.16428571428577,463.6363636363637,314.4644892857143C481.8181818181818,311.76469285714285,500,310.5865285714286,518.1818181818181,309.3474321428571C536.3636363636364,308.10833571428566,554.5454545454546,306.80830714285713,563.6363636363636,306.15829285714284L572.7272727272727,305.50827857142855" style="fill: none; stroke: #fddbc7; stroke-width: 8; stroke-linecap: round; opacity: 1;"></path></g></g><path class="foreground" d="" style="display: none; fill: none;"></path></g><g transform="translate(0,0)"><path class="background" d="M0,0h600v450h-600Z" style="fill: none;"></path><g><g class="mark-line role-mark concat_0_layer_0_marks"><path d="M27.272727272727252,354.9857142857143L36.363636363636346,354.15000000000003C45.45454545454544,353.31428571428575,63.63636363636362,351.64285714285717,81.8181818181818,350.01428571428573C99.99999999999999,348.3857142857143,118.18181818181817,346.8,136.36363636363635,346.1892857142857C154.54545454545453,345.5785714285714,172.72727272727272,345.9428571428571,190.90909090909088,346.2214285714286C209.0909090909091,346.5,227.27272727272725,346.6928571428571,245.4545454545454,346.3071428571429C263.6363636363636,345.9214285714286,281.8181818181818,344.95714285714286,300,344.3571428571429C318.1818181818182,343.7571428571428,336.3636363636363,343.52142857142854,354.5454545454545,341.17499999999995C372.7272727272727,338.8285714285714,390.9090909090908,334.37142857142857,409.09090909090907,331.3178571428571C427.27272727272725,328.26428571428573,445.45454545454544,326.6142857142857,463.6363636363637,325.2353785714286C481.8181818181818,323.85647142857147,500,322.74865714285716,518.1818181818181,321.5835428571429C536.3636363636364,320.4184285714286,554.5454545454546,319.1960142857143,563.6363636363636,318.58480714285713L572.7272727272727,317.9736" style="fill: none; stroke: #e2e0d3; stroke-width: 8; stroke-linecap: round; opacity: 1;"></path></g></g><path class="foreground" d="" style="display: none; fill: none;"></path></g><g transform="translate(0,0)"><path class="background" d="M0,0h600v450h-600Z" style="fill: none;"></path><g><g class="mark-line role-mark concat_0_layer_0_marks"><path d="M27.272727272727252,358.3285714285714L36.363636363636346,358.1892857142857C45.45454545454544,358.05,63.63636363636362,357.77142857142854,81.8181818181818,357.39642857142854C99.99999999999999,357.02142857142854,118.18181818181817,356.55,136.36363636363635,356.14285714285717C154.54545454545453,355.73571428571427,172.72727272727272,355.39285714285717,190.90909090909088,355.03928571428577C209.0909090909091,354.6857142857143,227.27272727272725,354.3214285714286,245.4545454545454,353.4107142857143C263.6363636363636,352.5,281.8181818181818,351.04285714285714,300,349.4357142857143C318.1818181818182,347.8285714285714,336.3636363636363,346.0714285714286,354.5454545454545,343.84285714285716C372.7272727272727,341.6142857142857,390.9090909090908,338.9142857142857,409.09090909090907,335.37857142857143C427.27272727272725,331.84285714285716,445.45454545454544,327.47142857142853,463.6363636363637,324.72635357142855C481.8181818181818,321.98127857142856,500,320.86255714285716,518.1818181818181,319.6859678571429C536.3636363636364,318.5093785714286,554.5454545454546,317.2749214285714,563.6363636363636,316.6576928571429L572.7272727272727,316.0404642857143" style="fill: none; stroke: #d1e5f0; stroke-width: 8; stroke-linecap: round; opacity: 1;"></path></g></g><path class="foreground" d="" style="display: none; fill: none;"></path></g><g transform="translate(0,0)"><path class="background" d="M0,0h600v450h-600Z" style="fill: none;"></path><g><g class="mark-line role-mark concat_0_layer_0_marks"><path d="M27.272727272727252,355.5L36.363636363636346,355.27500000000003C45.45454545454544,355.05,63.63636363636362,354.6000000000001,81.8181818181818,353.76428571428573C99.99999999999999,352.9285714285715,118.18181818181817,351.70714285714286,136.36363636363635,351.01071428571436C154.54545454545453,350.31428571428575,172.72727272727272,350.14285714285717,190.90909090909088,348.87857142857143C209.0909090909091,347.6142857142857,227.27272727272725,345.2571428571428,245.4545454545454,343.37142857142857C263.6363636363636,341.48571428571427,281.8181818181818,340.07142857142856,300,337.38214285714287C318.1818181818182,334.6928571428571,336.3636363636363,330.72857142857146,354.5454545454545,328.4035714285714C372.7272727272727,326.0785714285714,390.9090909090908,325.39285714285717,409.09090909090907,323.29285714285714C427.27272727272725,321.1928571428571,445.45454545454544,317.6785714285714,463.6363636363637,315.335925C481.8181818181818,312.99327857142856,500,311.8222714285714,518.1818181818181,310.59069642857145C536.3636363636364,309.3591214285714,554.5454545454546,308.06697857142854,563.6363636363636,307.4209071428571L572.7272727272727,306.7748357142857" style="fill: none; stroke: #67a9cf; stroke-width: 8; stroke-linecap: round; opacity: 1;"></path></g></g><path class="foreground" d="" style="display: none; fill: none;"></path></g><g transform="translate(0,0)"><path class="background" d="M0,0h600v450h-600Z" style="fill: none;"></path><g><g class="mark-line role-mark concat_0_layer_0_marks"><path d="M27.272727272727252,327.79285714285714L36.363636363636346,327.1178571428572C45.45454545454544,326.4428571428571,63.63636363636362,325.09285714285716,81.8181818181818,323.8071428571429C99.99999999999999,322.52142857142854,118.18181818181817,321.3,136.36363636363635,320.3571428571429C154.54545454545453,319.4142857142857,172.72727272727272,318.75,190.90909090909088,318.26785714285717C209.0909090909091,317.7857142857143,227.27272727272725,317.48571428571427,245.4545454545454,316.98214285714283C263.6363636363636,316.47857142857146,281.8181818181818,315.77142857142854,300,315.4071428571429C318.1818181818182,315.04285714285714,336.3636363636363,315.02142857142854,354.5454545454545,310.9714285714286C372.7272727272727,306.9214285714286,390.9090909090908,298.84285714285716,409.09090909090907,295.16785714285714C427.27272727272725,291.4928571428572,445.45454545454544,292.2214285714286,463.6363636363637,291.93814285714285C481.8181818181818,291.6548571428571,500,290.3597142857143,518.1818181818181,288.9975857142857C536.3636363636364,287.63545714285715,554.5454545454546,286.20634285714283,563.6363636363636,285.4917857142857L572.7272727272727,284.77722857142857" style="fill: none; stroke: #2166ac; stroke-width: 8; stroke-linecap: round; opacity: 1;"></path></g></g><path class="foreground" d="" style="display: none; fill: none;"></path></g></g><g class="mark-text role-mark concat_0_layer_1_marks"><text text-anchor="middle" transform="translate(59.27272727272725,8)" style="font-family: lato; font-size: 26px; fill: black; opacity: 0.8;">$8k per month</text></g><g class="mark-text role-mark concat_0_layer_2_marks"><text text-anchor="middle" transform="translate(372.27272727272725,-1)" style="font-family: sans-serif; font-size: 11.5px; font-weight: bold; fill: black; opacity: 0.09;">________________________________________________________________________</text></g><g class="mark-group role-title"><g transform="translate(-25.090721823952435,-102)"><path class="background" d="M0,0h0v0h0Z" style="pointer-events: none; fill: none;"></path><g><g class="mark-text role-title-text" style="pointer-events: none;"><text text-anchor="start" transform="translate(0,28)" style="font-family: Lato; font-size: 36px; font-weight: normal; fill: #000; opacity: 1;">Monthly Renter Income</text></g></g><path class="foreground" d="" style="pointer-events: none; display: none; fill: none;"></path></g></g></g><path class="foreground" d="" style="display: none; fill: none;"></path></g></g><g class="mark-group role-scope concat_1_group"><g transform="translate(626,0)"><path class="background" d="M0.5,0.5h600v450h-600Z" style="fill: none; stroke: #ddd; stroke-opacity: 0;"></path><g><g class="mark-group role-axis"><g transform="translate(0.5,0.5)"><path class="background" d="M0,0h0v0h0Z" style="pointer-events: none; fill: none;"></path><g><g class="mark-rule role-axis-grid" style="pointer-events: none;"><line transform="translate(0,386)" x2="600" y2="0" style="fill: none; stroke: #ddd; stroke-opacity: 1; stroke-width: 1; opacity: 1;"></line><line transform="translate(0,257)" x2="600" y2="0" style="fill: none; stroke: #ddd; stroke-opacity: 1; stroke-width: 1; opacity: 1;"></line><line transform="translate(0,129)" x2="600" y2="0" style="fill: none; stroke: #ddd; stroke-opacity: 1; stroke-width: 1; opacity: 1;"></line></g></g><path class="foreground" d="" style="pointer-events: none; display: none; fill: none;"></path></g></g><g class="mark-group role-axis"><g transform="translate(0.5,450.5)"><path class="background" d="M0,0h0v0h0Z" style="pointer-events: none; fill: none;"></path><g><g class="mark-rule role-axis-tick" style="pointer-events: none;"><line transform="translate(27,0)" x2="0" y2="10" style="fill: none; stroke: #888; stroke-width: 1; opacity: 1;"></line><line transform="translate(573,0)" x2="0" y2="10" style="fill: none; stroke: #888; stroke-width: 1; opacity: 1;"></line></g><g class="mark-text role-axis-label" style="pointer-events: none;"><text text-anchor="middle" transform="translate(27.272727272727252,41)" style="font-family: Lato; font-size: 26px; fill: #000; fill-opacity: 0.8; opacity: 1;">2008</text><text text-anchor="middle" transform="translate(572.7272727272727,41)" style="font-family: Lato; font-size: 26px; fill: #000; fill-opacity: 0.8; opacity: 1;">2018</text></g><g class="mark-rule role-axis-domain" style="pointer-events: none;"><line transform="translate(0,0)" x2="600" y2="0" style="fill: none; stroke: #888; stroke-width: 1; opacity: 1;"></line></g></g><path class="foreground" d="" style="pointer-events: none; display: none; fill: none;"></path></g></g><g class="mark-group role-axis"><g transform="translate(0.5,0.5)"><path class="background" d="M0,0h0v0h0Z" style="pointer-events: none; fill: none;"></path><g><g class="mark-text role-axis-label" style="pointer-events: none;"><text text-anchor="start" transform="translate(0,393.7142857142857)" style="font-family: Lato; font-size: 26px; fill: #000; fill-opacity: 0; opacity: 1;">2k</text><text text-anchor="start" transform="translate(0,265.1428571428571)" style="font-family: Lato; font-size: 26px; fill: #000; fill-opacity: 0; opacity: 1;">4k</text><text text-anchor="start" transform="translate(0,136.57142857142856)" style="font-family: Lato; font-size: 26px; fill: #000; fill-opacity: 0; opacity: 1;">6k</text></g><g class="mark-rule role-axis-domain" style="pointer-events: none;"><line transform="translate(0,450)" x2="0" y2="-450" style="fill: none; stroke: #888; stroke-width: 0; opacity: 1;"></line></g><g class="mark-text role-axis-title" style="pointer-events: none;"><text text-anchor="start" transform="translate(-2,-40)" style="font-family: Lato; font-size: 26px; font-weight: normal; fill: #000; fill-opacity: 0.8; opacity: 1;">Counties grouped by % of housing units rented</text></g></g><path class="foreground" d="" style="pointer-events: none; display: none; fill: none;"></path></g></g><g class="mark-group role-scope concat_1_layer_0_pathgroup"><g transform="translate(0,0)"><path class="background" d="M0,0h600v450h-600Z" style="fill: none;"></path><g><g class="mark-line role-mark concat_1_layer_0_marks"><path d="M27.272727272727252,78.68571428571427L36.363636363636346,77.02499999999998C45.45454545454544,75.3642857142857,63.63636363636362,72.04285714285713,81.8181818181818,70.13571428571429C99.99999999999999,68.22857142857143,118.18181818181817,67.7357142857143,136.36363636363635,67.48928571428571C154.54545454545453,67.24285714285716,172.72727272727272,67.24285714285716,190.90909090909088,66.86785714285715C209.0909090909091,66.49285714285716,227.27272727272725,65.74285714285716,245.4545454545454,64.90714285714286C263.6363636363636,64.07142857142857,281.8181818181818,63.15,300,60.482142857142854C318.1818181818182,57.81428571428571,336.3636363636363,53.4,354.5454545454545,47.699999999999996C372.7272727272727,42.00000000000001,390.9090909090908,35.01428571428571,409.09090909090907,27.621428571428567C427.27272727272725,20.228571428571417,445.45454545454544,12.428571428571411,463.6363636363637,8.8392857142857C481.8181818181818,5.2499999999999885,500,5.871428571428573,518.1818181818181,2.4428571428571524C536.3636363636364,-0.9857142857142674,554.5454545454546,-8.464285714285692,563.6363636363636,-12.203571428571403L572.7272727272727,-15.942857142857115" style="fill: none; stroke: #b2182b; stroke-width: 8; stroke-linecap: round; opacity: 1;"></path></g></g><path class="foreground" d="" style="display: none; fill: none;"></path></g><g transform="translate(0,0)"><path class="background" d="M0,0h600v450h-600Z" style="fill: none;"></path><g><g class="mark-line role-mark concat_1_layer_0_marks"><path d="M27.272727272727252,136.86428571428573L36.363636363636346,136.48928571428573C45.45454545454544,136.11428571428573,63.63636363636362,135.36428571428573,81.8181818181818,134.47500000000002C99.99999999999999,133.5857142857143,118.18181818181817,132.55714285714285,136.36363636363635,132.62142857142857C154.54545454545453,132.68571428571428,172.72727272727272,133.84285714285716,190.90909090909088,134.94642857142858C209.0909090909091,136.05000000000004,227.27272727272725,137.10000000000002,245.4545454545454,138.15C263.6363636363636,139.20000000000002,281.8181818181818,140.25,300,139.27499999999998C318.1818181818182,138.29999999999998,336.3636363636363,135.29999999999998,354.5454545454545,130.82142857142858C372.7272727272727,126.34285714285716,390.9090909090908,120.3857142857143,409.09090909090907,113.45357142857144C427.27272727272725,106.5214285714286,445.45454545454544,98.61428571428574,463.6363636363637,92.97857142857146C481.8181818181818,87.34285714285716,500,83.97857142857144,518.1818181818181,80.62500000000001C536.3636363636364,77.27142857142857,554.5454545454546,73.92857142857142,563.6363636363636,72.25714285714285L572.7272727272727,70.58571428571426" style="fill: none; stroke: #ef8a62; stroke-width: 8; stroke-linecap: round; opacity: 1;"></path></g></g><path class="foreground" d="" style="display: none; fill: none;"></path></g><g transform="translate(0,0)"><path class="background" d="M0,0h600v450h-600Z" style="fill: none;"></path><g><g class="mark-line role-mark concat_1_layer_0_marks"><path d="M27.272727272727252,162.64285714285714L36.363636363636346,159.32142857142856C45.45454545454544,156,63.63636363636362,149.35714285714286,81.8181818181818,148.68214285714285C99.99999999999999,148.00714285714287,118.18181818181817,153.29999999999998,136.36363636363635,154.35C154.54545454545453,155.4,172.72727272727272,152.20714285714288,190.90909090909088,150.2464285714286C209.0909090909091,148.2857142857143,227.27272727272725,147.55714285714285,245.4545454545454,146.1642857142857C263.6363636363636,144.77142857142857,281.8181818181818,142.71428571428572,300,140.18571428571428C318.1818181818182,137.65714285714287,336.3636363636363,134.65714285714287,354.5454545454545,130.91785714285714C372.7272727272727,127.17857142857144,390.9090909090908,122.7,409.09090909090907,116.83928571428571C427.27272727272725,110.97857142857141,445.45454545454544,103.73571428571427,463.6363636363637,98.45511428571427C481.8181818181818,93.17451428571428,500,89.85617142857143,518.1818181818181,86.54840357142858C536.3636363636364,83.24063571428572,554.5454545454546,79.94344285714284,563.6363636363636,78.29484642857142L572.7272727272727,76.64624999999998" style="fill: none; stroke: #fddbc7; stroke-width: 8; stroke-linecap: round; opacity: 1;"></path></g></g><path class="foreground" d="" style="display: none; fill: none;"></path></g><g transform="translate(0,0)"><path class="background" d="M0,0h600v450h-600Z" style="fill: none;"></path><g><g class="mark-line role-mark concat_1_layer_0_marks"><path d="M27.272727272727252,179.74285714285716L36.363636363636346,177.50357142857146C45.45454545454544,175.26428571428573,63.63636363636362,170.7857142857143,81.8181818181818,168.84642857142856C99.99999999999999,166.90714285714284,118.18181818181817,167.50714285714287,136.36363636363635,168.24642857142857C154.54545454545453,168.9857142857143,172.72727272727272,169.86428571428573,190.90909090909088,169.70357142857145C209.0909090909091,169.54285714285717,227.27272727272725,168.34285714285716,245.4545454545454,168.01071428571427C263.6363636363636,167.67857142857142,281.8181818181818,168.2142857142857,300,168.11785714285713C318.1818181818182,168.02142857142857,336.3636363636363,167.29285714285712,354.5454545454545,164.05714285714285C372.7272727272727,160.82142857142856,390.9090909090908,155.07857142857142,409.09090909090907,148.91785714285714C427.27272727272725,142.75714285714287,445.45454545454544,136.17857142857144,463.6363636363637,131.3616C481.8181818181818,126.54462857142859,500,123.48925714285717,518.1818181818181,120.44361428571428C536.3636363636364,117.39797142857144,554.5454545454546,114.36205714285715,563.6363636363636,112.84410000000001L572.7272727272727,111.32614285714287" style="fill: none; stroke: #e2e0d3; stroke-width: 8; stroke-linecap: round; opacity: 1;"></path></g></g><path class="foreground" d="" style="display: none; fill: none;"></path></g><g transform="translate(0,0)"><path class="background" d="M0,0h600v450h-600Z" style="fill: none;"></path><g><g class="mark-line role-mark concat_1_layer_0_marks"><path d="M27.272727272727252,208.79999999999998L36.363636363636346,208.13571428571427C45.45454545454544,207.47142857142856,63.63636363636362,206.14285714285714,81.8181818181818,204.47142857142856C99.99999999999999,202.80000000000004,118.18181818181817,200.7857142857143,136.36363636363635,199.30714285714285C154.54545454545453,197.82857142857142,172.72727272727272,196.88571428571427,190.90909090909088,195.64285714285714C209.0909090909091,194.39999999999998,227.27272727272725,192.85714285714286,245.4545454545454,191.3571428571429C263.6363636363636,189.8571428571429,281.8181818181818,188.4,300,186.33214285714288C318.1818181818182,184.26428571428573,336.3636363636363,181.58571428571432,354.5454545454545,178.44642857142858C372.7272727272727,175.30714285714285,390.9090909090908,171.70714285714288,409.09090909090907,167.70000000000002C427.27272727272725,163.69285714285715,445.45454545454544,159.27857142857144,463.6363636363637,155.64407142857144C481.8181818181818,152.00957142857143,500,149.15485714285714,518.1818181818181,146.30922857142855C536.3636363636364,143.46359999999999,554.5454545454546,140.62705714285715,563.6363636363636,139.20878571428577L572.7272727272727,137.79051428571432" style="fill: none; stroke: #d1e5f0; stroke-width: 8; stroke-linecap: round; opacity: 1;"></path></g></g><path class="foreground" d="" style="display: none; fill: none;"></path></g><g transform="translate(0,0)"><path class="background" d="M0,0h600v450h-600Z" style="fill: none;"></path><g><g class="mark-line role-mark concat_1_layer_0_marks"><path d="M27.272727272727252,205.52142857142857L36.363636363636346,202.77857142857144C45.45454545454544,200.0357142857143,63.63636363636362,194.54999999999998,81.8181818181818,190.4142857142857C99.99999999999999,186.27857142857144,118.18181818181817,183.49285714285713,136.36363636363635,183.225C154.54545454545453,182.95714285714288,172.72727272727272,185.20714285714288,190.90909090909088,184.19999999999996C209.0909090909091,183.19285714285715,227.27272727272725,178.92857142857142,245.4545454545454,175.30714285714285C263.6363636363636,171.6857142857143,281.8181818181818,168.70714285714288,300,164.71071428571432C318.1818181818182,160.71428571428575,336.3636363636363,155.70000000000002,354.5454545454545,152.92499999999998C372.7272727272727,150.15,390.9090909090908,149.61428571428573,409.09090909090907,146.75357142857143C427.27272727272725,143.89285714285714,445.45454545454544,138.70714285714286,463.6363636363637,134.60216785714286C481.8181818181818,130.49719285714286,500,127.47295714285713,518.1818181818181,124.45835357142857C536.3636363636364,121.44374999999998,554.5454545454546,118.43877857142856,563.6363636363636,116.93629285714286L572.7272727272727,115.43380714285713" style="fill: none; stroke: #67a9cf; stroke-width: 8; stroke-linecap: round; opacity: 1;"></path></g></g><path class="foreground" d="" style="display: none; fill: none;"></path></g><g transform="translate(0,0)"><path class="background" d="M0,0h600v450h-600Z" style="fill: none;"></path><g><g class="mark-line role-mark concat_1_layer_0_marks"><path d="M27.272727272727252,134.22857142857143L36.363636363636346,131.89285714285714C45.45454545454544,129.55714285714285,63.63636363636362,124.88571428571429,81.8181818181818,123.41785714285714C99.99999999999999,121.94999999999999,118.18181818181817,123.68571428571427,136.36363636363635,122.56071428571427C154.54545454545453,121.43571428571427,172.72727272727272,117.44999999999999,190.90909090909088,119.11071428571427C209.0909090909091,120.77142857142856,227.27272727272725,128.07857142857142,245.4545454545454,132.8892857142857C263.6363636363636,137.7,281.8181818181818,140.0142857142857,300,140.04642857142855C318.1818181818182,140.07857142857142,336.3636363636363,137.82857142857142,354.5454545454545,123.44999999999999C372.7272727272727,109.07142857142856,390.9090909090908,82.5642857142857,409.09090909090907,69.85714285714285C427.27272727272725,57.15,445.45454545454544,58.242857142857154,463.6363636363637,56.98255714285716C481.8181818181818,55.72225714285716,500,52.10880000000002,518.1818181818181,48.50685000000002C536.3636363636364,44.90490000000002,554.5454545454546,41.31445714285716,563.6363636363636,39.51923571428573L572.7272727272727,37.7240142857143" style="fill: none; stroke: #2166ac; stroke-width: 8; stroke-linecap: round; opacity: 1;"></path></g></g><path class="foreground" d="" style="display: none; fill: none;"></path></g></g><g class="mark-text role-mark concat_1_layer_1_marks"><text text-anchor="middle" transform="translate(302.27272727272725,-1)" style="font-family: sans-serif; font-size: 11.5px; font-weight: bold; fill: black; opacity: 0.09;">______________________________________________________________________________________________</text></g><g class="mark-group role-title"><g transform="translate(-2.887245871803998,-102)"><path class="background" d="M0,0h0v0h0Z" style="pointer-events: none; fill: none;"></path><g><g class="mark-text role-title-text" style="pointer-events: none;"><text text-anchor="start" transform="translate(0,28)" style="font-family: Lato; font-size: 36px; font-weight: normal; fill: #000; opacity: 1;">Monthly Homeowner Income</text></g></g><path class="foreground" d="" style="pointer-events: none; display: none; fill: none;"></path></g></g></g><path class="foreground" d="" style="display: none; fill: none;"></path></g></g><g class="mark-group role-legend"><g transform="translate(1247,0)"><path class="background" d="M0,0h252v232h-252Z" style="pointer-events: none; fill: none;"></path><g><g class="mark-group role-legend-entry"><g transform="translate(0,31)"><path class="background" d="M0,0h0v0h0Z" style="pointer-events: none; fill: none;"></path><g><g class="mark-group role-scope"><g transform="translate(0,0)"><path class="background" d="M0,0h208.70887756347656v27h-208.70887756347656Z" style="pointer-events: none; fill: none; opacity: 1;"></path><g><g class="mark-symbol role-legend-symbol" style="pointer-events: none;"><path transform="translate(14,14)" d="M-10,0L10,0" style="fill: none; stroke: #b2182b; stroke-width: 8; opacity: 1;"></path></g><g class="mark-text role-legend-label" style="pointer-events: none;"><text text-anchor="start" transform="translate(32,22)" style="font-family: Lato; font-size: 26px; fill: #000; fill-opacity: 0.85; opacity: 1;">More than 50%</text></g></g><path class="foreground" d="" style="pointer-events: none; display: none; fill: none;"></path></g><g transform="translate(0,29)"><path class="background" d="M0,0h208.70887756347656v27h-208.70887756347656Z" style="pointer-events: none; fill: none; opacity: 1;"></path><g><g class="mark-symbol role-legend-symbol" style="pointer-events: none;"><path transform="translate(14,14)" d="M-10,0L10,0" style="fill: none; stroke: #ef8a62; stroke-width: 8; opacity: 1;"></path></g><g class="mark-text role-legend-label" style="pointer-events: none;"><text text-anchor="start" transform="translate(32,22)" style="font-family: Lato; font-size: 26px; fill: #000; fill-opacity: 0.85; opacity: 1;">40 to 50</text></g></g><path class="foreground" d="" style="pointer-events: none; display: none; fill: none;"></path></g><g transform="translate(0,58)"><path class="background" d="M0,0h208.70887756347656v27h-208.70887756347656Z" style="pointer-events: none; fill: none; opacity: 1;"></path><g><g class="mark-symbol role-legend-symbol" style="pointer-events: none;"><path transform="translate(14,14)" d="M-10,0L10,0" style="fill: none; stroke: #fddbc7; stroke-width: 8; opacity: 1;"></path></g><g class="mark-text role-legend-label" style="pointer-events: none;"><text text-anchor="start" transform="translate(32,22)" style="font-family: Lato; font-size: 26px; fill: #000; fill-opacity: 0.85; opacity: 1;">35 to 40</text></g></g><path class="foreground" d="" style="pointer-events: none; display: none; fill: none;"></path></g><g transform="translate(0,87)"><path class="background" d="M0,0h208.70887756347656v27h-208.70887756347656Z" style="pointer-events: none; fill: none; opacity: 1;"></path><g><g class="mark-symbol role-legend-symbol" style="pointer-events: none;"><path transform="translate(14,14)" d="M-10,0L10,0" style="fill: none; stroke: #e2e0d3; stroke-width: 8; opacity: 1;"></path></g><g class="mark-text role-legend-label" style="pointer-events: none;"><text text-anchor="start" transform="translate(32,22)" style="font-family: Lato; font-size: 26px; fill: #000; fill-opacity: 0.85; opacity: 1;">30 to 35</text></g></g><path class="foreground" d="" style="pointer-events: none; display: none; fill: none;"></path></g><g transform="translate(0,116)"><path class="background" d="M0,0h208.70887756347656v27h-208.70887756347656Z" style="pointer-events: none; fill: none; opacity: 1;"></path><g><g class="mark-symbol role-legend-symbol" style="pointer-events: none;"><path transform="translate(14,14)" d="M-10,0L10,0" style="fill: none; stroke: #d1e5f0; stroke-width: 8; opacity: 1;"></path></g><g class="mark-text role-legend-label" style="pointer-events: none;"><text text-anchor="start" transform="translate(32,22)" style="font-family: Lato; font-size: 26px; fill: #000; fill-opacity: 0.85; opacity: 1;">25 to 30</text></g></g><path class="foreground" d="" style="pointer-events: none; display: none; fill: none;"></path></g><g transform="translate(0,145)"><path class="background" d="M0,0h208.70887756347656v27h-208.70887756347656Z" style="pointer-events: none; fill: none; opacity: 1;"></path><g><g class="mark-symbol role-legend-symbol" style="pointer-events: none;"><path transform="translate(14,14)" d="M-10,0L10,0" style="fill: none; stroke: #67a9cf; stroke-width: 8; opacity: 1;"></path></g><g class="mark-text role-legend-label" style="pointer-events: none;"><text text-anchor="start" transform="translate(32,22)" style="font-family: Lato; font-size: 26px; fill: #000; fill-opacity: 0.85; opacity: 1;">20 to 25</text></g></g><path class="foreground" d="" style="pointer-events: none; display: none; fill: none;"></path></g><g transform="translate(0,174)"><path class="background" d="M0,0h208.70887756347656v27h-208.70887756347656Z" style="pointer-events: none; fill: none; opacity: 1;"></path><g><g class="mark-symbol role-legend-symbol" style="pointer-events: none;"><path transform="translate(14,14)" d="M-10,0L10,0" style="fill: none; stroke: #2166ac; stroke-width: 8; opacity: 1;"></path></g><g class="mark-text role-legend-label" style="pointer-events: none;"><text text-anchor="start" transform="translate(32,22)" style="font-family: Lato; font-size: 26px; fill: #000; fill-opacity: 0.85; opacity: 1;">Less than 20%</text></g></g><path class="foreground" d="" style="pointer-events: none; display: none; fill: none;"></path></g></g></g><path class="foreground" d="" style="pointer-events: none; display: none; fill: none;"></path></g></g><g class="mark-text role-legend-title" style="pointer-events: none;"><text text-anchor="start" transform="translate(0,21)" style="font-family: Lato; font-size: 26px; font-weight: bold; fill: #000; fill-opacity: 0.85; opacity: 1;">Housing Units Rented</text></g></g><path class="foreground" d="" style="pointer-events: none; display: none; fill: none;"></path></g></g></g><path class="foreground" d="" style="display: none; fill: none;"></path></g></g></g></svg>