<svg class="marks" width="1596" height="609" viewBox="0 0 1596 609" version="1.1" xmlns="http://www.w3.org/2000/svg" xmlns:xlink="http://www.w3.org/1999/xlink"><rect width="1596" height="609" style="fill: white;"></rect><g transform="translate(65,108)"><g class="mark-group role-frame root"><g transform="translate(0,0)"><path class="background" d="M0,0h0v450h0Z" style="fill: none;"></path><g><g class="mark-group role-scope concat_0_group"><g transform="translate(0,0)"><path class="background" d="M0.5,0.5h600v450h-600Z" style="fill: none; stroke: #ddd; stroke-opacity: 0;"></path><g><g class="mark-group role-axis"><g transform="translate(0.5,0.5)"><path class="background" d="M0,0h0v0h0Z" style="pointer-events: none; fill: none;"></path><g><g class="mark-rule role-axis-grid" style="pointer-events: none;"><line transform="translate(0,338)" x2="600" y2="0" style="fill: none; stroke: #ddd; stroke-opacity: 1; stroke-width: 1; opacity: 1;"></line><line transform="translate(0,225)" x2="600" y2="0" style="fill: none; stroke: #ddd; stroke-opacity: 1; stroke-width: 1; opacity: 1;"></line><line transform="translate(0,113)" x2="600" y2="0" style="fill: none; stroke: #ddd; stroke-opacity: 1; stroke-width: 1; opacity: 1;"></line></g></g><path class="foreground" d="" style="pointer-events: none; display: none; fill: none;"></path></g></g><g class="mark-group role-axis"><g transform="translate(0.5,450.5)"><path class="background" d="M0,0h0v0h0Z" style="pointer-events: none; fill: none;"></path><g><g class="mark-rule role-axis-tick" style="pointer-events: none;"><line transform="translate(27,0)" x2="0" y2="10" style="fill: none; stroke: #888; stroke-width: 1; opacity: 1;"></line><line transform="translate(573,0)" x2="0" y2="10" style="fill: none; stroke: #888; stroke-width: 1; opacity: 1;"></line></g><g class="mark-text role-axis-label" style="pointer-events: none;"><text text-anchor="middle" transform="translate(27.272727272727252,41)" style="font-family: Lato; font-size: 26px; fill: #000; fill-opacity: 0.8; opacity: 1;">2008</text><text text-anchor="middle" transform="translate(572.7272727272727,41)" style="font-family: Lato; font-size: 26px; fill: #000; fill-opacity: 0.8; opacity: 1;">2018</text></g><g class="mark-rule role-axis-domain" style="pointer-events: none;"><line transform="translate(0,0)" x2="600" y2="0" style="fill: none; stroke: #888; stroke-width: 1; opacity: 1;"></line></g></g><path class="foreground" d="" style="pointer-events: none; display: none; fill: none;"></path></g></g><g class="mark-group role-axis"><g transform="translate(0.5,0.5)"><path class="background" d="M0,0h0v0h0Z" style="pointer-events: none; fill: none;"></path><g><g class="mark-text role-axis-label" style="pointer-events: none;"><text text-anchor="start" transform="translate(-60,345.5)" style="font-family: Lato; font-size: 26px; fill: #000; fill-opacity: 0.7; opacity: 1;">400</text><text text-anchor="start" transform="translate(-60,233)" style="font-family: Lato; font-size: 26px; fill: #000; fill-opacity: 0.7; opacity: 1;">800</text><text text-anchor="start" transform="translate(-60,120.5)" style="font-family: Lato; font-size: 26px; fill: #000; fill-opacity: 0.7; opacity: 1;">1200</text></g><g class="mark-rule role-axis-domain" style="pointer-events: none;"><line transform="translate(0,450)" x2="0" y2="-450" style="fill: none; stroke: #888; stroke-width: 0; opacity: 1;"></line></g><g class="mark-text role-axis-title" style="pointer-events: none;"><text text-anchor="start" transform="translate(-60,-35)" style="font-family: Lato; font-size: 26px; font-weight: normal; fill: #000; fill-opacity: 0.8; opacity: 1;">Counties grouped by housing density</text></g></g><path class="foreground" d="" style="pointer-events: none; display: none; fill: none;"></path></g></g><g class="mark-group role-scope concat_0_layer_0_pathgroup"><g transform="translate(0,0)"><path class="background" d="M0,0h600v450h-600Z" style="fill: none;"></path><g><g class="mark-line role-mark concat_0_layer_0_marks"><path d="M27.272727272727252,190.68749999999997L36.363636363636346,189.56249999999997C45.45454545454544,188.43749999999997,63.63636363636362,186.18749999999997,81.8181818181818,184.40625C99.99999999999999,182.625,118.18181818181817,181.3125,136.36363636363635,179.90625C154.54545454545453,178.5,172.72727272727272,177,190.90909090909088,174.890625C209.0909090909091,172.78125,227.27272727272725,170.06249999999997,245.4545454545454,168.42187499999997C263.6363636363636,166.78125,281.8181818181818,166.21875,300,164.06250000000003C318.1818181818182,161.90625000000003,336.3636363636363,158.15625,354.5454545454545,153.984375C372.7272727272727,149.8125,390.9090909090908,145.21875,409.09090909090907,140.578125C427.27272727272725,135.9375,445.45454545454544,131.25,463.6363636363637,128.859375C481.8181818181818,126.46875,500,126.375,518.1818181818181,124.59375C536.3636363636364,122.8125,554.5454545454546,119.34374999999999,563.6363636363636,117.60937499999999L572.7272727272727,115.87499999999997" style="fill: none; stroke: #b2182b; stroke-width: 8; stroke-linecap: round;"></path></g></g><path class="foreground" d="" style="display: none; fill: none;"></path></g><g transform="translate(0,0)"><path class="background" d="M0,0h600v450h-600Z" style="fill: none;"></path><g><g class="mark-line role-mark concat_0_layer_0_marks"><path d="M27.272727272727252,224.71875L36.363636363636346,222.984375C45.45454545454544,221.25,63.63636363636362,217.78125,81.8181818181818,215.34375C99.99999999999999,212.90625,118.18181818181817,211.5,136.36363636363635,210.46875C154.54545454545453,209.4375,172.72727272727272,208.78125,190.90909090909088,207.984375C209.0909090909091,207.1875,227.27272727272725,206.25,245.4545454545454,205.546875C263.6363636363636,204.84375,281.8181818181818,204.375,300,203.25C318.1818181818182,202.125,336.3636363636363,200.34375,354.5454545454545,197.859375C372.7272727272727,195.375,390.9090909090908,192.1875,409.09090909090907,189.1875C427.27272727272725,186.1875,445.45454545454544,183.375,463.6363636363637,181.6875C481.8181818181818,180,500,179.4375,518.1818181818181,177.140625C536.3636363636364,174.84375,554.5454545454546,170.8125,563.6363636363636,168.796875L572.7272727272727,166.78125" style="fill: none; stroke: #ef8a62; stroke-width: 8; stroke-linecap: round;"></path></g></g><path class="foreground" d="" style="display: none; fill: none;"></path></g><g transform="translate(0,0)"><path class="background" d="M0,0h600v450h-600Z" style="fill: none;"></path><g><g class="mark-line role-mark concat_0_layer_0_marks"><path d="M27.272727272727252,255.375L36.363636363636346,254.296875C45.45454545454544,253.21875,63.63636363636362,251.0625,81.8181818181818,249.140625C99.99999999999999,247.21875,118.18181818181817,245.53125,136.36363636363635,243.796875C154.54545454545453,242.0625,172.72727272727272,240.28125,190.90909090909088,238.921875C209.0909090909091,237.5625,227.27272727272725,236.625,245.4545454545454,235.6875C263.6363636363636,234.75,281.8181818181818,233.8125,300,232.78125C318.1818181818182,231.75,336.3636363636363,230.625,354.5454545454545,228.984375C372.7272727272727,227.34375,390.9090909090908,225.1875,409.09090909090907,223.125C427.27272727272725,221.0625,445.45454545454544,219.09375,463.6363636363637,217.86628125000001C481.8181818181818,216.6388125,500,216.15262499999997,518.1818181818181,214.16742187499997C536.3636363636364,212.18221874999998,554.5454545454546,208.698,563.6363636363636,206.95589062500002L572.7272727272727,205.21378125" style="fill: none; stroke: #fddbc7; stroke-width: 8; stroke-linecap: round;"></path></g></g><path class="foreground" d="" style="display: none; fill: none;"></path></g><g transform="translate(0,0)"><path class="background" d="M0,0h600v450h-600Z" style="fill: none;"></path><g><g class="mark-line role-mark concat_0_layer_0_marks"><path d="M27.272727272727252,280.96875L36.363636363636346,279.65625C45.45454545454544,278.34375,63.63636363636362,275.71875,81.8181818181818,273.140625C99.99999999999999,270.5625,118.18181818181817,268.03125000000006,136.36363636363635,265.92187500000006C154.54545454545453,263.81250000000006,172.72727272727272,262.125,190.90909090909088,260.625C209.0909090909091,259.125,227.27272727272725,257.8125,245.4545454545454,257.015625C263.6363636363636,256.21875,281.8181818181818,255.9375,300,255.46875C318.1818181818182,255,336.3636363636363,254.34375,354.5454545454545,252.984375C372.7272727272727,251.625,390.9090909090908,249.5625,409.09090909090907,247.40625C427.27272727272725,245.25,445.45454545454544,243,463.6363636363637,241.65656249999998C481.8181818181818,240.31312499999999,500,239.87625,518.1818181818181,238.09242187499999C536.3636363636364,236.30859375,554.5454545454546,233.1778125,563.6363636363636,231.61242187499997L572.7272727272727,230.04703124999997" style="fill: none; stroke: #e2e0d3; stroke-width: 8; stroke-linecap: round;"></path></g></g><path class="foreground" d="" style="display: none; fill: none;"></path></g><g transform="translate(0,0)"><path class="background" d="M0,0h600v450h-600Z" style="fill: none;"></path><g><g class="mark-line role-mark concat_0_layer_0_marks"><path d="M27.272727272727252,286.03125L36.363636363636346,284.859375C45.45454545454544,283.6875,63.63636363636362,281.34375,81.8181818181818,279.515625C99.99999999999999,277.6875,118.18181818181817,276.37500000000006,136.36363636363635,275.25000000000006C154.54545454545453,274.12500000000006,172.72727272727272,273.1875,190.90909090909088,272.0625C209.0909090909091,270.9375,227.27272727272725,269.625,245.4545454545454,268.78125C263.6363636363636,267.9375,281.8181818181818,267.5625,300,266.90625C318.1818181818182,266.25,336.3636363636363,265.3125,354.5454545454545,263.953125C372.7272727272727,262.59375,390.9090909090908,260.8125,409.09090909090907,258.984375C427.27272727272725,257.15625,445.45454545454544,255.28125,463.6363636363637,254.13853125C481.8181818181818,252.99581249999997,500,252.585375,518.1818181818181,250.909453125C536.3636363636364,249.23353124999997,554.5454545454546,246.29212499999997,563.6363636363636,244.82142187499997L572.7272727272727,243.35071874999997" style="fill: none; stroke: #d1e5f0; stroke-width: 8; stroke-linecap: round;"></path></g></g><path class="foreground" d="" style="display: none; fill: none;"></path></g><g transform="translate(0,0)"><path class="background" d="M0,0h600v450h-600Z" style="fill: none;"></path><g><g class="mark-line role-mark concat_0_layer_0_marks"><path d="M27.272727272727252,289.6875L36.363636363636346,288.75C45.45454545454544,287.8125,63.63636363636362,285.9375,81.8181818181818,284.015625C99.99999999999999,282.09375,118.18181818181817,280.125,136.36363636363635,278.25C154.54545454545453,276.375,172.72727272727272,274.59375,190.90909090909088,272.953125C209.0909090909091,271.3125,227.27272727272725,269.8125,245.4545454545454,268.734375C263.6363636363636,267.65625,281.8181818181818,266.99999999999994,300,266.43749999999994C318.1818181818182,265.87499999999994,336.3636363636363,265.40625,354.5454545454545,263.71875C372.7272727272727,262.03125,390.9090909090908,259.125,409.09090909090907,256.734375C427.27272727272725,254.34375,445.45454545454544,252.46875,463.6363636363637,251.32307812500002C481.8181818181818,250.17740625000002,500,249.7610625,518.1818181818181,248.061140625C536.3636363636364,246.36121875000003,554.5454545454546,243.37771874999999,563.6363636363636,241.88596875L572.7272727272727,240.39421875" style="fill: none; stroke: #67a9cf; stroke-width: 8; stroke-linecap: round;"></path></g></g><path class="foreground" d="" style="display: none; fill: none;"></path></g><g transform="translate(0,0)"><path class="background" d="M0,0h600v450h-600Z" style="fill: none;"></path><g><g class="mark-line role-mark concat_0_layer_0_marks"><path d="M27.272727272727252,288.5625L36.363636363636346,287.8125C45.45454545454544,287.0625,63.63636363636362,285.5625,81.8181818181818,283.5C99.99999999999999,281.4375,118.18181818181817,278.8125,136.36363636363635,276.84375C154.54545454545453,274.875,172.72727272727272,273.5625,190.90909090909088,271.921875C209.0909090909091,270.28125,227.27272727272725,268.31249999999994,245.4545454545454,267.18749999999994C263.6363636363636,266.0625,281.8181818181818,265.78125,300,264.70312500000006C318.1818181818182,263.62500000000006,336.3636363636363,261.75,354.5454545454545,260.15625C372.7272727272727,258.5625,390.9090909090908,257.25,409.09090909090907,256.03125C427.27272727272725,254.8125,445.45454545454544,253.6875,463.6363636363637,252.918890625C481.8181818181818,252.15028125,500,251.73806249999998,518.1818181818181,250.05496874999997C536.3636363636364,248.37187499999996,554.5454545454546,245.41790625,563.6363636363636,243.940921875L572.7272727272727,242.46393750000001" style="fill: none; stroke: #2166ac; stroke-width: 8; stroke-linecap: round;"></path></g></g><path class="foreground" d="" style="display: none; fill: none;"></path></g></g><g class="mark-text role-mark concat_0_layer_1_marks"><text text-anchor="middle" transform="translate(41.27272727272725,8)" style="font-family: lato; font-size: 26px; fill: black; opacity: 0.8;">$1600 per month</text></g><g class="mark-text role-mark concat_0_layer_2_marks"><text text-anchor="middle" transform="translate(372.5454545454545,-1)" style="font-family: sans-serif; font-size: 11.5px; font-weight: bold; fill: black; opacity: 0.09;">________________________________________________________________________</text></g><g class="mark-group role-title"><g transform="translate(-60,-97)"><path class="background" d="M0,0h0v0h0Z" style="pointer-events: none; fill: none;"></path><g><g class="mark-text role-title-text" style="pointer-events: none;"><text text-anchor="start" transform="translate(0,28)" style="font-family: Lato; font-size: 36px; font-weight: normal; fill: #000; opacity: 1;">Monthly Renter Housing Expense</text></g></g><path class="foreground" d="" style="pointer-events: none; display: none; fill: none;"></path></g></g></g><path class="foreground" d="" style="display: none; fill: none;"></path></g></g><g class="mark-group role-scope concat_1_group"><g transform="translate(626,0)"><path class="background" d="M0.5,0.5h600v450h-600Z" style="fill: none; stroke: #ddd; stroke-opacity: 0;"></path><g><g class="mark-group role-axis"><g transform="translate(0.5,0.5)"><path class="background" d="M0,0h0v0h0Z" style="pointer-events: none; fill: none;"></path><g><g class="mark-rule role-axis-grid" style="pointer-events: none;"><line transform="translate(0,338)" x2="600" y2="0" style="fill: none; stroke: #ddd; stroke-opacity: 1; stroke-width: 1; opacity: 1;"></line><line transform="translate(0,225)" x2="600" y2="0" style="fill: none; stroke: #ddd; stroke-opacity: 1; stroke-width: 1; opacity: 1;"></line><line transform="translate(0,113)" x2="600" y2="0" style="fill: none; stroke: #ddd; stroke-opacity: 1; stroke-width: 1; opacity: 1;"></line></g></g><path class="foreground" d="" style="pointer-events: none; display: none; fill: none;"></path></g></g><g class="mark-group role-axis"><g transform="translate(0.5,450.5)"><path class="background" d="M0,0h0v0h0Z" style="pointer-events: none; fill: none;"></path><g><g class="mark-rule role-axis-tick" style="pointer-events: none;"><line transform="translate(27,0)" x2="0" y2="10" style="fill: none; stroke: #888; stroke-width: 1; opacity: 1;"></line><line transform="translate(573,0)" x2="0" y2="10" style="fill: none; stroke: #888; stroke-width: 1; opacity: 1;"></line></g><g class="mark-text role-axis-label" style="pointer-events: none;"><text text-anchor="middle" transform="translate(27.272727272727252,41)" style="font-family: Lato; font-size: 26px; fill: #000; fill-opacity: 0.8; opacity: 1;">2008</text><text text-anchor="middle" transform="translate(572.7272727272727,41)" style="font-family: Lato; font-size: 26px; fill: #000; fill-opacity: 0.8; opacity: 1;">2018</text></g><g class="mark-rule role-axis-domain" style="pointer-events: none;"><line transform="translate(0,0)" x2="600" y2="0" style="fill: none; stroke: #888; stroke-width: 1; opacity: 1;"></line></g></g><path class="foreground" d="" style="pointer-events: none; display: none; fill: none;"></path></g></g><g class="mark-group role-axis"><g transform="translate(0.5,0.5)"><path class="background" d="M0,0h0v0h0Z" style="pointer-events: none; fill: none;"></path><g><g class="mark-text role-axis-label" style="pointer-events: none;"><text text-anchor="start" transform="translate(0,345.5)" style="font-family: Lato; font-size: 26px; fill: #000; fill-opacity: 0; opacity: 1;">400</text><text text-anchor="start" transform="translate(0,233)" style="font-family: Lato; font-size: 26px; fill: #000; fill-opacity: 0; opacity: 1;">800</text><text text-anchor="start" transform="translate(0,120.5)" style="font-family: Lato; font-size: 26px; fill: #000; fill-opacity: 0; opacity: 1;">1200</text></g><g class="mark-rule role-axis-domain" style="pointer-events: none;"><line transform="translate(0,450)" x2="0" y2="-450" style="fill: none; stroke: #888; stroke-width: 0; opacity: 1;"></line></g><g class="mark-text role-axis-title" style="pointer-events: none;"><text text-anchor="start" transform="translate(0,-40)" style="font-family: Lato; font-size: 26px; font-weight: normal; fill: #000; fill-opacity: 0.8; opacity: 1;">Counties grouped by housing density</text></g></g><path class="foreground" d="" style="pointer-events: none; display: none; fill: none;"></path></g></g><g class="mark-group role-scope concat_1_layer_0_pathgroup"><g transform="translate(0,0)"><path class="background" d="M0,0h600v450h-600Z" style="fill: none;"></path><g><g class="mark-line role-mark concat_1_layer_0_marks"><path d="M27.272727272727252,32.34375000000001L36.363636363636346,31.12500000000001C45.45454545454544,29.90625000000001,63.63636363636362,27.46875000000001,81.8181818181818,27.14062500000001C99.99999999999999,26.81250000000001,118.18181818181817,28.59375000000001,136.36363636363635,31.26562500000001C154.54545454545453,33.93750000000001,172.72727272727272,37.500000000000014,190.90909090909088,40.82812500000001C209.0909090909091,44.15625000000001,227.27272727272725,47.24999999999999,245.4545454545454,51.18749999999999C263.6363636363636,55.12499999999999,281.8181818181818,59.90625,300,62.625C318.1818181818182,65.34375,336.3636363636363,65.99999999999999,354.5454545454545,65.90624999999999C372.7272727272727,65.81249999999999,390.9090909090908,64.96874999999999,409.09090909090907,62.67187499999998C427.27272727272725,60.375,445.45454545454544,56.62500000000001,463.6363636363637,57.23437500000001C481.8181818181818,57.84375000000002,500,62.81250000000001,518.1818181818181,62.8125C536.3636363636364,62.81250000000001,554.5454545454546,57.84375000000002,563.6363636363636,55.35937500000002L572.7272727272727,52.87500000000002" style="fill: none; stroke: #b2182b; stroke-width: 8; stroke-linecap: round; opacity: 0.85;"></path></g></g><path class="foreground" d="" style="display: none; fill: none;"></path></g><g transform="translate(0,0)"><path class="background" d="M0,0h600v450h-600Z" style="fill: none;"></path><g><g class="mark-line role-mark concat_1_layer_0_marks"><path d="M27.272727272727252,138.09375L36.363636363636346,137.15625C45.45454545454544,136.21875,63.63636363636362,134.34375000000003,81.8181818181818,133.31250000000003C99.99999999999999,132.28125000000003,118.18181818181817,132.09375,136.36363636363635,132.84375C154.54545454545453,133.59375,172.72727272727272,135.28124999999997,190.90909090909088,137.29687499999997C209.0909090909091,139.31249999999997,227.27272727272725,141.65624999999997,245.4545454545454,143.53124999999997C263.6363636363636,145.40624999999997,281.8181818181818,146.8125,300,147.890625C318.1818181818182,148.96875,336.3636363636363,149.71875,354.5454545454545,149.671875C372.7272727272727,149.625,390.9090909090908,148.78125,409.09090909090907,147.09375C427.27272727272725,145.40625,445.45454545454544,142.875,463.6363636363637,142.6875C481.8181818181818,142.5,500,144.65625000000003,518.1818181818181,144.42187500000003C536.3636363636364,144.18750000000003,554.5454545454546,141.5625,563.6363636363636,140.25L572.7272727272727,138.9375" style="fill: none; stroke: #ef8a62; stroke-width: 8; stroke-linecap: round; opacity: 0.85;"></path></g></g><path class="foreground" d="" style="display: none; fill: none;"></path></g><g transform="translate(0,0)"><path class="background" d="M0,0h600v450h-600Z" style="fill: none;"></path><g><g class="mark-line role-mark concat_1_layer_0_marks"><path d="M27.272727272727252,199.6875L36.363636363636346,198.515625C45.45454545454544,197.34375,63.63636363636362,195,81.8181818181818,194.015625C99.99999999999999,193.03125,118.18181818181817,193.40625,136.36363636363635,193.828125C154.54545454545453,194.25,172.72727272727272,194.71875,190.90909090909088,195.1875C209.0909090909091,195.65625,227.27272727272725,196.125,245.4545454545454,197.4375C263.6363636363636,198.75,281.8181818181818,200.90625,300,202.171875C318.1818181818182,203.4375,336.3636363636363,203.8125,354.5454545454545,203.34375C372.7272727272727,202.875,390.9090909090908,201.5625,409.09090909090907,200.48437499999997C427.27272727272725,199.40624999999997,445.45454545454544,198.56249999999997,463.6363636363637,199.01896875C481.8181818181818,199.4754375,500,201.232125,518.1818181818181,201.04115625C536.3636363636364,200.85018750000003,554.5454545454546,198.7115625,563.6363636363636,197.64225L572.7272727272727,196.5729375" style="fill: none; stroke: #fddbc7; stroke-width: 8; stroke-linecap: round; opacity: 0.85;"></path></g></g><path class="foreground" d="" style="display: none; fill: none;"></path></g><g transform="translate(0,0)"><path class="background" d="M0,0h600v450h-600Z" style="fill: none;"></path><g><g class="mark-line role-mark concat_1_layer_0_marks"><path d="M27.272727272727252,243.28125L36.363636363636346,242.484375C45.45454545454544,241.6875,63.63636363636362,240.09375,81.8181818181818,238.921875C99.99999999999999,237.75,118.18181818181817,237,136.36363636363635,237.046875C154.54545454545453,237.09375,172.72727272727272,237.9375,190.90909090909088,238.453125C209.0909090909091,238.96875,227.27272727272725,239.15625,245.4545454545454,239.578125C263.6363636363636,240,281.8181818181818,240.65625,300,241.03125C318.1818181818182,241.40625,336.3636363636363,241.5,354.5454545454545,241.078125C372.7272727272727,240.65625,390.9090909090908,239.71875,409.09090909090907,238.40625C427.27272727272725,237.09375,445.45454545454544,235.40625,463.6363636363637,235.31550000000001C481.8181818181818,235.22474999999997,500,236.73074999999997,518.1818181818181,236.56701562499998C536.3636363636364,236.40328124999996,554.5454545454546,234.56981249999998,563.6363636363636,233.65307812499998L572.7272727272727,232.73634374999997" style="fill: none; stroke: #e2e0d3; stroke-width: 8; stroke-linecap: round; opacity: 0.85;"></path></g></g><path class="foreground" d="" style="display: none; fill: none;"></path></g><g transform="translate(0,0)"><path class="background" d="M0,0h600v450h-600Z" style="fill: none;"></path><g><g class="mark-line role-mark concat_1_layer_0_marks"><path d="M27.272727272727252,259.59375L36.363636363636346,258.890625C45.45454545454544,258.1875,63.63636363636362,256.78125,81.8181818181818,256.265625C99.99999999999999,255.75,118.18181818181817,256.125,136.36363636363635,256.40625C154.54545454545453,256.6875,172.72727272727272,256.875,190.90909090909088,257.25C209.0909090909091,257.625,227.27272727272725,258.1875,245.4545454545454,258.75C263.6363636363636,259.3125,281.8181818181818,259.875,300,260.34375C318.1818181818182,260.8125,336.3636363636363,261.1875,354.5454545454545,260.765625C372.7272727272727,260.34375,390.9090909090908,259.125,409.09090909090907,257.765625C427.27272727272725,256.40625,445.45454545454544,254.90625,463.6363636363637,254.84071874999998C481.8181818181818,254.7751875,500,256.144125,518.1818181818181,255.99529687499998C536.3636363636364,255.84646874999999,554.5454545454546,254.17987499999995,563.6363636363636,253.34657812499995L572.7272727272727,252.51328124999998" style="fill: none; stroke: #d1e5f0; stroke-width: 8; stroke-linecap: round; opacity: 0.85;"></path></g></g><path class="foreground" d="" style="display: none; fill: none;"></path></g><g transform="translate(0,0)"><path class="background" d="M0,0h600v450h-600Z" style="fill: none;"></path><g><g class="mark-line role-mark concat_1_layer_0_marks"><path d="M27.272727272727252,277.875L36.363636363636346,276.9375C45.45454545454544,276,63.63636363636362,274.125,81.8181818181818,272.671875C99.99999999999999,271.21875,118.18181818181817,270.1875,136.36363636363635,269.34375C154.54545454545453,268.5,172.72727272727272,267.84375,190.90909090909088,267.375C209.0909090909091,266.90625,227.27272727272725,266.62499999999994,245.4545454545454,267.51562499999994C263.6363636363636,268.40625,281.8181818181818,270.46875,300,271.35937500000006C318.1818181818182,272.25000000000006,336.3636363636363,271.96875,354.5454545454545,271.5C372.7272727272727,271.03125,390.9090909090908,270.375,409.09090909090907,269.71875C427.27272727272725,269.0625,445.45454545454544,268.40625,463.6363636363637,268.712671875C481.8181818181818,269.01909374999997,500,270.2881875,518.1818181818181,270.150234375C536.3636363636364,270.01228125000006,554.5454545454546,268.46728125000004,563.6363636363636,267.69478125L572.7272727272727,266.92228125" style="fill: none; stroke: #67a9cf; stroke-width: 8; stroke-linecap: round; opacity: 0.85;"></path></g></g><path class="foreground" d="" style="display: none; fill: none;"></path></g><g transform="translate(0,0)"><path class="background" d="M0,0h600v450h-600Z" style="fill: none;"></path><g><g class="mark-line role-mark concat_1_layer_0_marks"><path d="M27.272727272727252,284.0625L36.363636363636346,283.40625C45.45454545454544,282.75,63.63636363636362,281.4375,81.8181818181818,280.640625C99.99999999999999,279.84375,118.18181818181817,279.5625,136.36363636363635,279.328125C154.54545454545453,279.09375,172.72727272727272,278.90625,190.90909090909088,278.390625C209.0909090909091,277.875,227.27272727272725,277.03125,245.4545454545454,276.75C263.6363636363636,276.46875,281.8181818181818,276.75,300,276.9375C318.1818181818182,277.125,336.3636363636363,277.21875,354.5454545454545,276.46875C372.7272727272727,275.71875,390.9090909090908,274.12500000000006,409.09090909090907,272.76562500000006C427.27272727272725,271.40625000000006,445.45454545454544,270.28125,463.6363636363637,270.348375C481.8181818181818,270.4155,500,271.67474999999996,518.1818181818181,271.537875C536.3636363636364,271.401,554.5454545454546,269.868,563.6363636363636,269.10150000000004L572.7272727272727,268.33500000000004" style="fill: none; stroke: #2166ac; stroke-width: 8; stroke-linecap: round; opacity: 0.85;"></path></g></g><path class="foreground" d="" style="display: none; fill: none;"></path></g></g><g class="mark-text role-mark concat_1_layer_1_marks"><text text-anchor="middle" transform="translate(300,-1)" style="font-family: sans-serif; font-size: 11.5px; font-weight: bold; fill: black; opacity: 0.09;">______________________________________________________________________________________________</text></g><g class="mark-group role-title"><g transform="translate(-2.887245871803998,-102)"><path class="background" d="M0,0h0v0h0Z" style="pointer-events: none; fill: none;"></path><g><g class="mark-text role-title-text" style="pointer-events: none;"><text text-anchor="start" transform="translate(0,28)" style="font-family: Lato; font-size: 36px; font-weight: normal; fill: #000; opacity: 1;">Monthly Homeowner Housing Expense</text></g></g><path class="foreground" d="" style="pointer-events: none; display: none; fill: none;"></path></g></g></g><path class="foreground" d="" style="display: none; fill: none;"></path></g></g><g class="mark-group role-legend"><g transform="translate(1250,0)"><path class="background" d="M0,0h276v232h-276Z" style="pointer-events: none; fill: none;"></path><g><g class="mark-group role-legend-entry"><g transform="translate(0,31)"><path class="background" d="M0,0h0v0h0Z" style="pointer-events: none; fill: none;"></path><g><g class="mark-group role-scope"><g transform="translate(0,0)"><path class="background" d="M0,0h202.9498748779297v27h-202.9498748779297Z" style="pointer-events: none; fill: none; opacity: 1;"></path><g><g class="mark-symbol role-legend-symbol" style="pointer-events: none;"><path transform="translate(14,14)" d="M-10,0L10,0" style="fill: none; stroke: #b2182b; stroke-width: 8; opacity: 0.85;"></path></g><g class="mark-text role-legend-label" style="pointer-events: none;"><text text-anchor="start" transform="translate(32,22)" style="font-family: Lato; font-size: 26px; fill: #000; fill-opacity: 0.85; opacity: 1;">More than 200</text></g></g><path class="foreground" d="" style="pointer-events: none; display: none; fill: none;"></path></g><g transform="translate(0,29)"><path class="background" d="M0,0h202.9498748779297v27h-202.9498748779297Z" style="pointer-events: none; fill: none; opacity: 1;"></path><g><g class="mark-symbol role-legend-symbol" style="pointer-events: none;"><path transform="translate(14,14)" d="M-10,0L10,0" style="fill: none; stroke: #ef8a62; stroke-width: 8; opacity: 0.85;"></path></g><g class="mark-text role-legend-label" style="pointer-events: none;"><text text-anchor="start" transform="translate(32,22)" style="font-family: Lato; font-size: 26px; fill: #000; fill-opacity: 0.85; opacity: 1;">75 to 200</text></g></g><path class="foreground" d="" style="pointer-events: none; display: none; fill: none;"></path></g><g transform="translate(0,58)"><path class="background" d="M0,0h202.9498748779297v27h-202.9498748779297Z" style="pointer-events: none; fill: none; opacity: 1;"></path><g><g class="mark-symbol role-legend-symbol" style="pointer-events: none;"><path transform="translate(14,14)" d="M-10,0L10,0" style="fill: none; stroke: #fddbc7; stroke-width: 8; opacity: 0.85;"></path></g><g class="mark-text role-legend-label" style="pointer-events: none;"><text text-anchor="start" transform="translate(32,22)" style="font-family: Lato; font-size: 26px; fill: #000; fill-opacity: 0.85; opacity: 1;">30 to 75</text></g></g><path class="foreground" d="" style="pointer-events: none; display: none; fill: none;"></path></g><g transform="translate(0,87)"><path class="background" d="M0,0h202.9498748779297v27h-202.9498748779297Z" style="pointer-events: none; fill: none; opacity: 1;"></path><g><g class="mark-symbol role-legend-symbol" style="pointer-events: none;"><path transform="translate(14,14)" d="M-10,0L10,0" style="fill: none; stroke: #e2e0d3; stroke-width: 8; opacity: 0.85;"></path></g><g class="mark-text role-legend-label" style="pointer-events: none;"><text text-anchor="start" transform="translate(32,22)" style="font-family: Lato; font-size: 26px; fill: #000; fill-opacity: 0.85; opacity: 1;">20 to 30</text></g></g><path class="foreground" d="" style="pointer-events: none; display: none; fill: none;"></path></g><g transform="translate(0,116)"><path class="background" d="M0,0h202.9498748779297v27h-202.9498748779297Z" style="pointer-events: none; fill: none; opacity: 1;"></path><g><g class="mark-symbol role-legend-symbol" style="pointer-events: none;"><path transform="translate(14,14)" d="M-10,0L10,0" style="fill: none; stroke: #d1e5f0; stroke-width: 8; opacity: 0.85;"></path></g><g class="mark-text role-legend-label" style="pointer-events: none;"><text text-anchor="start" transform="translate(32,22)" style="font-family: Lato; font-size: 26px; fill: #000; fill-opacity: 0.85; opacity: 1;">10 to 20</text></g></g><path class="foreground" d="" style="pointer-events: none; display: none; fill: none;"></path></g><g transform="translate(0,145)"><path class="background" d="M0,0h202.9498748779297v27h-202.9498748779297Z" style="pointer-events: none; fill: none; opacity: 1;"></path><g><g class="mark-symbol role-legend-symbol" style="pointer-events: none;"><path transform="translate(14,14)" d="M-10,0L10,0" style="fill: none; stroke: #67a9cf; stroke-width: 8; opacity: 0.85;"></path></g><g class="mark-text role-legend-label" style="pointer-events: none;"><text text-anchor="start" transform="translate(32,22)" style="font-family: Lato; font-size: 26px; fill: #000; fill-opacity: 0.85; opacity: 1;">5 to 10</text></g></g><path class="foreground" d="" style="pointer-events: none; display: none; fill: none;"></path></g><g transform="translate(0,174)"><path class="background" d="M0,0h202.9498748779297v27h-202.9498748779297Z" style="pointer-events: none; fill: none; opacity: 1;"></path><g><g class="mark-symbol role-legend-symbol" style="pointer-events: none;"><path transform="translate(14,14)" d="M-10,0L10,0" style="fill: none; stroke: #2166ac; stroke-width: 8; opacity: 0.85;"></path></g><g class="mark-text role-legend-label" style="pointer-events: none;"><text text-anchor="start" transform="translate(32,22)" style="font-family: Lato; font-size: 26px; fill: #000; fill-opacity: 0.85; opacity: 1;">Less than 5</text></g></g><path class="foreground" d="" style="pointer-events: none; display: none; fill: none;"></path></g></g></g><path class="foreground" d="" style="pointer-events: none; display: none; fill: none;"></path></g></g><g class="mark-text role-legend-title" style="pointer-events: none;"><text text-anchor="start" transform="translate(0,21)" style="font-family: Lato; font-size: 26px; font-weight: bold; fill: #000; fill-opacity: 0.85; opacity: 1;">Housing Units / sq. mile</text></g></g><path class="foreground" d="" style="pointer-events: none; display: none; fill: none;"></path></g></g></g><path class="foreground" d="" style="display: none; fill: none;"></path></g></g></g></svg>