<svg class="marks" width="1550" height="609" viewBox="0 0 1550 609" version="1.1" xmlns="http://www.w3.org/2000/svg" xmlns:xlink="http://www.w3.org/1999/xlink"><rect width="1550" height="609" style="fill: white;"></rect><g transform="translate(43,108)"><g class="mark-group role-frame root"><g transform="translate(0,0)"><path class="background" d="M0,0h0v450h0Z" style="fill: none;"></path><g><g class="mark-group role-scope concat_0_group"><g transform="translate(0,0)"><path class="background" d="M0.5,0.5h600v450h-600Z" style="fill: none; stroke: #ddd; stroke-opacity: 0;"></path><g><g class="mark-group role-axis"><g transform="translate(0.5,0.5)"><path class="background" d="M0,0h0v0h0Z" style="pointer-events: none; fill: none;"></path><g><g class="mark-rule role-axis-grid" style="pointer-events: none;"><line transform="translate(0,375)" x2="600" y2="0" style="fill: none; stroke: #ddd; stroke-opacity: 1; stroke-width: 1; opacity: 1;"></line><line transform="translate(0,300)" x2="600" y2="0" style="fill: none; stroke: #ddd; stroke-opacity: 1; stroke-width: 1; opacity: 1;"></line><line transform="translate(0,225)" x2="600" y2="0" style="fill: none; stroke: #ddd; stroke-opacity: 1; stroke-width: 1; opacity: 1;"></line><line transform="translate(0,150)" x2="600" y2="0" style="fill: none; stroke: #ddd; stroke-opacity: 1; stroke-width: 1; opacity: 1;"></line><line transform="translate(0,75)" x2="600" y2="0" style="fill: none; stroke: #ddd; stroke-opacity: 1; stroke-width: 1; opacity: 1;"></line></g></g><path class="foreground" d="" style="pointer-events: none; display: none; fill: none;"></path></g></g><g class="mark-group role-axis"><g transform="translate(0.5,450.5)"><path class="background" d="M0,0h0v0h0Z" style="pointer-events: none; fill: none;"></path><g><g class="mark-rule role-axis-tick" style="pointer-events: none;"><line transform="translate(27,0)" x2="0" y2="10" style="fill: none; stroke: #888; stroke-width: 1; opacity: 1;"></line><line transform="translate(573,0)" x2="0" y2="10" style="fill: none; stroke: #888; stroke-width: 1; opacity: 1;"></line></g><g class="mark-text role-axis-label" style="pointer-events: none;"><text text-anchor="middle" transform="translate(27.272727272727252,41)" style="font-family: Lato; font-size: 26px; fill: #000; fill-opacity: 0.8; opacity: 1;">2008</text><text text-anchor="middle" transform="translate(572.7272727272727,41)" style="font-family: Lato; font-size: 26px; fill: #000; fill-opacity: 0.8; opacity: 1;">2018</text></g><g class="mark-rule role-axis-domain" style="pointer-events: none;"><line transform="translate(0,0)" x2="600" y2="0" style="fill: none; stroke: #888; stroke-width: 1; opacity: 1;"></line></g></g><path class="foreground" d="" style="pointer-events: none; display: none; fill: none;"></path></g></g><g class="mark-group role-axis"><g transform="translate(0.5,0.5)"><path class="background" d="M0,0h0v0h0Z" style="pointer-events: none; fill: none;"></path><g><g class="mark-text role-axis-label" style="pointer-events: none;"><text text-anchor="start" transform="translate(-35,383)" style="font-family: Lato; font-size: 26px; fill: #000; fill-opacity: 0.8; opacity: 1;">15</text><text text-anchor="start" transform="translate(-35,308.00000000000006)" style="font-family: Lato; font-size: 26px; fill: #000; fill-opacity: 0.8; opacity: 1;">20</text><text text-anchor="start" transform="translate(-35,233)" style="font-family: Lato; font-size: 26px; fill: #000; fill-opacity: 0.8; opacity: 1;">25</text><text text-anchor="start" transform="translate(-35,158.00000000000003)" style="font-family: Lato; font-size: 26px; fill: #000; fill-opacity: 0.8; opacity: 1;">30</text><text text-anchor="start" transform="translate(-35,82.99999999999999)" style="font-family: Lato; font-size: 26px; fill: #000; fill-opacity: 0.8; opacity: 1;">35</text></g><g class="mark-rule role-axis-domain" style="pointer-events: none;"><line transform="translate(0,450)" x2="0" y2="-450" style="fill: none; stroke: #888; stroke-width: 0; opacity: 1;"></line></g><g class="mark-text role-axis-title" style="pointer-events: none;"><text text-anchor="start" transform="translate(-35,-40)" style="font-family: Lato; font-size: 26px; font-weight: normal; fill: #000; fill-opacity: 0.8; opacity: 1;">Counties grouped by % of housing units rented</text></g></g><path class="foreground" d="" style="pointer-events: none; display: none; fill: none;"></path></g></g><g class="mark-group role-scope concat_0_layer_0_pathgroup"><g transform="translate(0,0)"><path class="background" d="M0,0h600v450h-600Z" style="fill: none;"></path><g><g class="mark-line role-mark concat_0_layer_0_marks"><path d="M27.272727272727252,78.00001144409168L36.363636363636346,75.75000762939443C45.45454545454544,73.5000038146972,63.63636363636362,68.9999961853027,81.8181818181818,64.74999427795409C99.99999999999999,60.49999237060549,118.18181818181817,56.499996185302756,136.36363636363635,53.249998092651374C154.54545454545453,50.00000000000001,172.72727272727272,47.5,190.90909090909088,45C209.0909090909091,42.5,227.27272727272725,40.00000000000001,245.4545454545454,39.25000190734864C263.6363636363636,38.50000381469728,281.8181818181818,39.500007629394545,300,40.250005722045906C318.1818181818182,41.00000381469727,336.3636363636363,41.499996185302734,354.5454545454545,41.74999237060547C372.7272727272727,41.999988555908196,390.9090909090908,41.999988555908196,409.09090909090907,43.99998664855956C427.27272727272725,45.99998474121093,445.45454545454544,49.999980926513665,463.6363636363637,53.49998474121093C481.8181818181818,56.999988555908196,500,59.99999999999999,518.1818181818181,63.25000762939454C536.3636363636364,66.50001525878908,554.5454545454546,70.00001907348638,563.6363636363636,71.75002098083505L572.7272727272727,73.5000228881837" style="fill: none; stroke: #b2182b; stroke-width: 8; stroke-linecap: round;"></path></g></g><path class="foreground" d="" style="display: none; fill: none;"></path></g><g transform="translate(0,0)"><path class="background" d="M0,0h600v450h-600Z" style="fill: none;"></path><g><g class="mark-line role-mark concat_0_layer_0_marks"><path d="M27.272727272727252,101.99998855590833L36.363636363636346,100.99999427795423C45.45454545454544,100.00000000000013,63.63636363636362,98.00001144409192,81.8181818181818,95.75001716613781C99.99999999999999,93.50002288818371,118.18181818181817,91.00002288818371,136.36363636363635,89.25002098083503C154.54545454545453,87.50001907348637,172.72727272727272,86.50001525878902,190.90909090909088,87.00000762939449C209.0909090909091,87.49999999999994,227.27272727272725,89.49998855590819,245.4545454545454,91.49998664855957C263.6363636363636,93.49998474121094,281.8181818181818,95.49999237060547,300,97.74999618530273C318.1818181818182,100,336.3636363636363,102.49999999999999,354.5454545454545,104.25000190734859C372.7272727272727,106.00000381469721,390.9090909090908,107.00000762939443,409.09090909090907,108.00001144409173C427.27272727272725,109.00001525878902,445.45454545454544,110.00001907348637,463.6363636363637,112.50001907348638C481.8181818181818,115.0000190734864,500,119.00001525878908,518.1818181818181,120.75001239776611C536.3636363636364,122.50000953674315,554.5454545454546,122.00000762939453,563.6363636363636,121.75000667572021L572.7272727272727,121.5000057220459" style="fill: none; stroke: #ef8a62; stroke-width: 8; stroke-linecap: round;"></path></g></g><path class="foreground" d="" style="display: none; fill: none;"></path></g><g transform="translate(0,0)"><path class="background" d="M0,0h600v450h-600Z" style="fill: none;"></path><g><g class="mark-line role-mark concat_0_layer_0_marks"><path d="M27.272727272727252,124.49998855590826L36.363636363636346,122.74998664855961C45.45454545454544,120.99998474121098,63.63636363636362,117.49998092651367,81.8181818181818,114.99998092651369C99.99999999999999,112.49998092651369,118.18181818181817,110.999984741211,136.36363636363635,109.749984741211C154.54545454545453,108.49998474121101,172.72727272727272,107.49998092651371,190.90909090909088,105.99998474121094C209.0909090909091,104.49998855590816,227.27272727272725,102.49999999999993,245.4545454545454,102.49999999999993C263.6363636363636,102.49999999999993,281.8181818181818,104.49998855590816,300,107.24998474121094C318.1818181818182,109.99998092651371,336.3636363636363,113.49998474121101,354.5454545454545,115.74998855590827C372.7272727272727,117.99999237060557,390.9090909090908,118.99999618530279,409.09090909090907,121.25000000000004C427.27272727272725,123.50000381469727,445.45454545454544,127.00000762939449,463.6363636363637,130.6700076293945C481.8181818181818,134.34000762939448,500,138.18000381469724,518.1818181818181,139.86000190734862C536.3636363636364,141.54,554.5454545454546,141.06000000000003,563.6363636363636,140.82000000000002L572.7272727272727,140.58" style="fill: none; stroke: #fddbc7; stroke-width: 8; stroke-linecap: round;"></path></g></g><path class="foreground" d="" style="display: none; fill: none;"></path></g><g transform="translate(0,0)"><path class="background" d="M0,0h600v450h-600Z" style="fill: none;"></path><g><g class="mark-line role-mark concat_0_layer_0_marks"><path d="M27.272727272727252,125.99999427795403L36.363636363636346,124.74999904632564C45.45454545454544,123.50000381469725,63.63636363636362,121.00001335144047,81.8181818181818,119.25001621246342C99.99999999999999,117.50001907348637,118.18181818181817,116.50001525878902,136.36363636363635,115.75000762939447C154.54545454545453,114.99999999999993,172.72727272727272,114.49998855590816,190.90909090909088,114.99999046325684C209.0909090909091,115.49999237060548,227.27272727272725,117.00000762939459,245.4545454545454,119.00001049041752C263.6363636363636,121.00001335144047,281.8181818181818,123.50000381469725,300,125.74999809265135C318.1818181818182,127.99999237060545,336.3636363636363,129.99999046325686,354.5454545454545,131.7499923706055C372.7272727272727,133.49999427795416,390.9090909090908,135.00000000000003,409.09090909090907,135.75000286102298C427.27272727272725,136.5000057220459,445.45454545454544,136.5000057220459,463.6363636363637,138.3950047683716C481.8181818181818,140.29000381469726,500,144.08000190734865,518.1818181818181,145.73750095367433C536.3636363636364,147.395,554.5454545454546,146.92000000000002,563.6363636363636,146.68250000000003L572.7272727272727,146.44500000000002" style="fill: none; stroke: #e2e0d3; stroke-width: 8; stroke-linecap: round;"></path></g></g><path class="foreground" d="" style="display: none; fill: none;"></path></g><g transform="translate(0,0)"><path class="background" d="M0,0h600v450h-600Z" style="fill: none;"></path><g><g class="mark-line role-mark concat_0_layer_0_marks"><path d="M27.272727272727252,142.5L36.363636363636346,141.50000095367432C45.45454545454544,140.50000190734863,63.63636363636362,138.50000381469727,81.8181818181818,137.00000286102295C99.99999999999999,135.5000019073486,118.18181818181817,134.49999809265134,136.36363636363635,134.24999713897702C154.54545454545453,133.9999961853027,172.72727272727272,134.49999809265137,190.90909090909088,134.74999904632568C209.0909090909091,135.00000000000003,227.27272727272725,135.00000000000003,245.4545454545454,135.00000000000003C263.6363636363636,135.00000000000003,281.8181818181818,135.00000000000003,300,135.9999990463257C318.1818181818182,136.99999809265137,336.3636363636363,138.99999618530273,354.5454545454545,140.74999809265134C372.7272727272727,142.49999999999997,390.9090909090908,144.00000572204587,409.09090909090907,146.00000858306882C427.27272727272725,148.00001144409177,445.45454545454544,150.50001144409177,463.6363636363637,153.57750953674312C481.8181818181818,156.65500762939453,500,160.3100038146973,518.1818181818181,161.91000190734863C536.3636363636364,163.51000000000002,554.5454545454546,163.05499999999998,563.6363636363636,162.8275L572.7272727272727,162.59999999999997" style="fill: none; stroke: #d1e5f0; stroke-width: 8; stroke-linecap: round;"></path></g></g><path class="foreground" d="" style="display: none; fill: none;"></path></g><g transform="translate(0,0)"><path class="background" d="M0,0h600v450h-600Z" style="fill: none;"></path><g><g class="mark-line role-mark concat_0_layer_0_marks"><path d="M27.272727272727252,161.99998855590826L36.363636363636346,160.99998950958255C45.45454545454544,159.99999046325686,63.63636363636362,157.99999237060547,81.8181818181818,155.49999237060547C99.99999999999999,152.99999237060547,118.18181818181817,149.99999046325686,136.36363636363635,148.2499933242798C154.54545454545453,146.49999618530276,172.72727272727272,146.00000381469724,190.90909090909088,146.25000476837155C209.0909090909091,146.50000572204584,227.27272727272725,147.49999999999994,245.4545454545454,148.74999999999997C263.6363636363636,149.99999999999997,281.8181818181818,151.50000572204587,300,153.2500076293945C318.1818181818182,155.00000953674314,336.3636363636363,157.00000762939453,354.5454545454545,158.25000762939453C372.7272727272727,159.5000076293945,390.9090909090908,160.00000953674314,409.09090909090907,159.75000858306882C427.27272727272725,159.5000076293945,445.45454545454544,158.50000381469724,463.6363636363637,159.81000190734864C481.8181818181818,161.12,500,164.73999999999998,518.1818181818181,166.325C536.3636363636364,167.91,554.5454545454546,167.46,563.6363636363636,167.23499999999999L572.7272727272727,167.01" style="fill: none; stroke: #67a9cf; stroke-width: 8; stroke-linecap: round;"></path></g></g><path class="foreground" d="" style="display: none; fill: none;"></path></g><g transform="translate(0,0)"><path class="background" d="M0,0h600v450h-600Z" style="fill: none;"></path><g><g class="mark-line role-mark concat_0_layer_0_marks"><path d="M27.272727272727252,142.5L36.363636363636346,139.74999904632566C45.45454545454544,136.99999809265134,63.63636363636362,131.4999961853027,81.8181818181818,128.74999523162836C99.99999999999999,125.99999427795403,118.18181818181817,125.99999427795403,136.36363636363635,127.24999427795403C154.54545454545453,128.49999427795402,172.72727272727272,130.99999427795404,190.90909090909088,132.999997138977C209.0909090909091,134.99999999999997,227.27272727272725,136.50000572204587,245.4545454545454,137.25000858306882C263.6363636363636,138.00001144409177,281.8181818181818,138.00001144409177,300,138.75000953674314C318.1818181818182,139.5000076293945,336.3636363636363,141.00000381469727,354.5454545454545,143.00000190734863C372.7272727272727,145,390.9090909090908,147.50000000000003,409.09090909090907,149.25000190734866C427.27272727272725,151.00000381469727,445.45454545454544,152.00000762939453,463.6363636363637,154.32750762939452C481.8181818181818,156.65500762939453,500,160.3100038146973,518.1818181818181,161.91000190734863C536.3636363636364,163.51000000000002,554.5454545454546,163.05499999999998,563.6363636363636,162.8275L572.7272727272727,162.59999999999997" style="fill: none; stroke: #2166ac; stroke-width: 8; stroke-linecap: round;"></path></g></g><path class="foreground" d="" style="display: none; fill: none;"></path></g></g><g class="mark-text role-mark concat_0_layer_1_marks"><text text-anchor="middle" transform="translate(48.27272727272725,8)" style="font-family: lato; font-size: 26px; fill: black; opacity: 0.8;">40% of income</text></g><g class="mark-text role-mark concat_0_layer_2_marks"><text text-anchor="middle" transform="translate(369.5454545454545,-1)" style="font-family: sans-serif; font-size: 11.5px; font-weight: bold; fill: black; opacity: 0.09;">________________________________________________________________________</text></g><g class="mark-group role-title"><g transform="translate(-37.05920479514384,-102)"><path class="background" d="M0,0h0v0h0Z" style="pointer-events: none; fill: none;"></path><g><g class="mark-text role-title-text" style="pointer-events: none;"><text text-anchor="start" transform="translate(0,28)" style="font-family: Lato; font-size: 36px; font-weight: normal; fill: #000; opacity: 1;">Renter Income Devoted to Housing</text></g></g><path class="foreground" d="" style="pointer-events: none; display: none; fill: none;"></path></g></g></g><path class="foreground" d="" style="display: none; fill: none;"></path></g></g><g class="mark-group role-scope concat_1_group"><g transform="translate(626,0)"><path class="background" d="M0.5,0.5h600v450h-600Z" style="fill: none; stroke: #ddd; stroke-opacity: 0;"></path><g><g class="mark-group role-axis"><g transform="translate(0.5,0.5)"><path class="background" d="M0,0h0v0h0Z" style="pointer-events: none; fill: none;"></path><g><g class="mark-rule role-axis-grid" style="pointer-events: none;"><line transform="translate(0,375)" x2="600" y2="0" style="fill: none; stroke: #ddd; stroke-opacity: 1; stroke-width: 1; opacity: 1;"></line><line transform="translate(0,300)" x2="600" y2="0" style="fill: none; stroke: #ddd; stroke-opacity: 1; stroke-width: 1; opacity: 1;"></line><line transform="translate(0,225)" x2="600" y2="0" style="fill: none; stroke: #ddd; stroke-opacity: 1; stroke-width: 1; opacity: 1;"></line><line transform="translate(0,150)" x2="600" y2="0" style="fill: none; stroke: #ddd; stroke-opacity: 1; stroke-width: 1; opacity: 1;"></line><line transform="translate(0,75)" x2="600" y2="0" style="fill: none; stroke: #ddd; stroke-opacity: 1; stroke-width: 1; opacity: 1;"></line></g></g><path class="foreground" d="" style="pointer-events: none; display: none; fill: none;"></path></g></g><g class="mark-group role-axis"><g transform="translate(0.5,450.5)"><path class="background" d="M0,0h0v0h0Z" style="pointer-events: none; fill: none;"></path><g><g class="mark-rule role-axis-tick" style="pointer-events: none;"><line transform="translate(27,0)" x2="0" y2="10" style="fill: none; stroke: #888; stroke-width: 1; opacity: 1;"></line><line transform="translate(573,0)" x2="0" y2="10" style="fill: none; stroke: #888; stroke-width: 1; opacity: 1;"></line></g><g class="mark-text role-axis-label" style="pointer-events: none;"><text text-anchor="middle" transform="translate(27.272727272727252,41)" style="font-family: Lato; font-size: 26px; fill: #000; fill-opacity: 0.8; opacity: 1;">2008</text><text text-anchor="middle" transform="translate(572.7272727272727,41)" style="font-family: Lato; font-size: 26px; fill: #000; fill-opacity: 0.8; opacity: 1;">2018</text></g><g class="mark-rule role-axis-domain" style="pointer-events: none;"><line transform="translate(0,0)" x2="600" y2="0" style="fill: none; stroke: #888; stroke-width: 1; opacity: 1;"></line></g></g><path class="foreground" d="" style="pointer-events: none; display: none; fill: none;"></path></g></g><g class="mark-group role-axis"><g transform="translate(0.5,0.5)"><path class="background" d="M0,0h0v0h0Z" style="pointer-events: none; fill: none;"></path><g><g class="mark-text role-axis-label" style="pointer-events: none;"><text text-anchor="start" transform="translate(0,383)" style="font-family: Lato; font-size: 26px; fill: #000; fill-opacity: 0; opacity: 1;">15</text><text text-anchor="start" transform="translate(0,308.00000000000006)" style="font-family: Lato; font-size: 26px; fill: #000; fill-opacity: 0; opacity: 1;">20</text><text text-anchor="start" transform="translate(0,233)" style="font-family: Lato; font-size: 26px; fill: #000; fill-opacity: 0; opacity: 1;">25</text><text text-anchor="start" transform="translate(0,158.00000000000003)" style="font-family: Lato; font-size: 26px; fill: #000; fill-opacity: 0; opacity: 1;">30</text><text text-anchor="start" transform="translate(0,82.99999999999999)" style="font-family: Lato; font-size: 26px; fill: #000; fill-opacity: 0; opacity: 1;">35</text></g><g class="mark-rule role-axis-domain" style="pointer-events: none;"><line transform="translate(0,450)" x2="0" y2="-450" style="fill: none; stroke: #888; stroke-width: 0; opacity: 1;"></line></g><g class="mark-text role-axis-title" style="pointer-events: none;"><text text-anchor="start" transform="translate(-2,-40)" style="font-family: Lato; font-size: 26px; font-weight: normal; fill: #000; fill-opacity: 0.8; opacity: 1;">Counties grouped by % of housing units rented</text></g></g><path class="foreground" d="" style="pointer-events: none; display: none; fill: none;"></path></g></g><g class="mark-group role-scope concat_1_layer_0_pathgroup"><g transform="translate(0,0)"><path class="background" d="M0,0h600v450h-600Z" style="fill: none;"></path><g><g class="mark-line role-mark concat_1_layer_0_marks"><path d="M27.272727272727252,189.0000057220459L36.363636363636346,188.00000667572021C45.45454545454544,187.00000762939453,63.63636363636362,185.00000953674314,81.8181818181818,183.2500076293945C99.99999999999999,181.5000057220458,118.18181818181817,179.99999999999991,136.36363636363635,179.99999999999997C154.54545454545453,179.99999999999991,172.72727272727272,181.5000057220458,190.90909090909088,189.5000076293945C209.0909090909091,197.50000953674314,227.27272727272725,212.0000076293945,245.4545454545454,221.25000476837155C263.6363636363636,230.5000019073486,281.8181818181818,234.49999809265134,300,237.4999952316284C318.1818181818182,240.49999237060547,336.3636363636363,242.49999046325686,354.5454545454545,245.4999923706055C372.7272727272727,248.49999427795413,390.9090909090908,252.5,409.09090909090907,256.0000038146972C427.27272727272725,259.5000076293945,445.45454545454544,262.50000953674316,463.6363636363637,264.0000104904175C481.8181818181818,265.5000114440918,500,265.5000114440918,518.1818181818181,268.50000858306885C536.3636363636364,271.5000057220459,554.5454545454546,277.5,563.6363636363636,280.49999713897705L572.7272727272727,283.4999942779541" style="fill: none; stroke: #b2182b; stroke-width: 8; stroke-linecap: round;"></path></g></g><path class="foreground" d="" style="display: none; fill: none;"></path></g><g transform="translate(0,0)"><path class="background" d="M0,0h600v450h-600Z" style="fill: none;"></path><g><g class="mark-line role-mark concat_1_layer_0_marks"><path d="M27.272727272727252,240L36.363636363636346,241.75000190734863C45.45454545454544,243.50000381469727,63.63636363636362,247.00000762939453,81.8181818181818,250.75000762939453C99.99999999999999,254.5000076293945,118.18181818181817,258.5000038146972,136.36363636363635,262.0000028610229C154.54545454545453,265.5000019073486,172.72727272727272,268.50000381469727,190.90909090909088,272.7500057220459C209.0909090909091,277.00000762939453,227.27272727272725,282.5000095367432,245.4545454545454,287.2500085830689C263.6363636363636,292.0000076293946,281.8181818181818,296.0000038146973,300,299.7500038146973C318.1818181818182,303.5000038146973,336.3636363636363,307.00000762939453,354.5454545454545,310.2500057220459C372.7272727272727,313.50000381469727,390.9090909090908,316.49999618530273,409.09090909090907,318.7499952316284C427.27272727272725,320.9999942779541,445.45454545454544,322.5,463.6363636363637,324.0000009536743C481.8181818181818,325.50000190734863,500,326.99999809265137,518.1818181818181,327.99999713897705C536.3636363636364,328.99999618530273,554.5454545454546,329.49999809265137,563.6363636363636,329.7499990463257L572.7272727272727,330" style="fill: none; stroke: #ef8a62; stroke-width: 8; stroke-linecap: round;"></path></g></g><path class="foreground" d="" style="display: none; fill: none;"></path></g><g transform="translate(0,0)"><path class="background" d="M0,0h600v450h-600Z" style="fill: none;"></path><g><g class="mark-line role-mark concat_1_layer_0_marks"><path d="M27.272727272727252,277.5L36.363636363636346,278.00000190734863C45.45454545454544,278.50000381469727,63.63636363636362,279.50000762939453,81.8181818181818,281.00000858306885C99.99999999999999,282.50000953674316,118.18181818181817,284.50000762939453,136.36363636363635,285.75000762939453C154.54545454545453,287.00000762939453,172.72727272727272,287.5000095367432,190.90909090909088,290.25001049041754C209.0909090909091,293.00001144409185,227.27272727272725,298.0000114440918,245.4545454545454,301.7500114440918C263.6363636363636,305.5000114440918,281.8181818181818,308.0000114440918,300,310.5000114440918C318.1818181818182,313.0000114440918,336.3636363636363,315.5000114440918,354.5454545454545,318.75000953674316C372.7272727272727,322.00000762939453,390.9090909090908,326.00000381469727,409.09090909090907,328.00000190734863C427.27272727272725,330,445.45454545454544,330,463.6363636363637,330.7325C481.8181818181818,331.465,500,332.93,518.1818181818181,333.90749999999997C536.3636363636364,334.885,554.5454545454546,335.37499999999994,563.6363636363636,335.61999999999995L572.7272727272727,335.86499999999995" style="fill: none; stroke: #fddbc7; stroke-width: 8; stroke-linecap: round;"></path></g></g><path class="foreground" d="" style="display: none; fill: none;"></path></g><g transform="translate(0,0)"><path class="background" d="M0,0h600v450h-600Z" style="fill: none;"></path><g><g class="mark-line role-mark concat_1_layer_0_marks"><path d="M27.272727272727252,289.4999885559082L36.363636363636346,289.24999237060547C45.45454545454544,288.99999618530273,63.63636363636362,288.5000038146973,81.8181818181818,289.2500066757203C99.99999999999999,290.0000095367432,118.18181818181817,292.0000076293946,136.36363636363635,295.5000066757203C154.54545454545453,299.00000572204596,172.72727272727272,304.0000057220459,190.90909090909088,308.0000066757202C209.0909090909091,312.00000762939453,227.27272727272725,315.00000953674316,245.4545454545454,317.7500104904175C263.6363636363636,320.5000114440918,281.8181818181818,323.0000114440918,300,326.25000953674316C318.1818181818182,329.50000762939453,336.3636363636363,333.50000381469727,354.5454545454545,336.5000009536743C372.7272727272727,339.49999809265137,390.9090909090908,341.49999618530273,409.09090909090907,343.4999942779541C427.27272727272725,345.49999237060547,445.45454545454544,347.49999046325684,463.6363636363637,349.17999141693116C481.8181818181818,350.8599923706054,500,352.2199961853027,518.1818181818181,353.12749809265136C536.3636363636364,354.035,554.5454545454546,354.49,563.6363636363636,354.7175L572.7272727272727,354.945" style="fill: none; stroke: #e2e0d3; stroke-width: 8; stroke-linecap: round;"></path></g></g><path class="foreground" d="" style="display: none; fill: none;"></path></g><g transform="translate(0,0)"><path class="background" d="M0,0h600v450h-600Z" style="fill: none;"></path><g><g class="mark-line role-mark concat_1_layer_0_marks"><path d="M27.272727272727252,307.5L36.363636363636346,307.7500009536743C45.45454545454544,308.00000190734863,63.63636363636362,308.50000381469727,81.8181818181818,309.25000190734863C99.99999999999999,310,118.18181818181817,310.99999427795416,136.36363636363635,312.4999952316285C154.54545454545453,313.9999961853028,172.72727272727272,316.00000381469727,190.90909090909088,318.7500047683716C209.0909090909091,321.5000057220459,227.27272727272725,325,245.4545454545454,327.74999618530273C263.6363636363636,330.49999237060547,281.8181818181818,332.49999046325684,300,334.99999046325684C318.1818181818182,337.49999046325684,336.3636363636363,340.49999237060547,354.5454545454545,343.2499933242798C372.7272727272727,345.9999942779541,390.9090909090908,348.4999942779541,409.09090909090907,350.24999618530273C427.27272727272725,351.99999809265137,445.45454545454544,353.00000190734863,463.6363636363637,354.16750286102297C481.8181818181818,355.3350038146973,500,356.6700019073487,518.1818181818181,357.5600009536743C536.3636363636364,358.45000000000005,554.5454545454546,358.895,563.6363636363636,359.1175L572.7272727272727,359.34" style="fill: none; stroke: #d1e5f0; stroke-width: 8; stroke-linecap: round;"></path></g></g><path class="foreground" d="" style="display: none; fill: none;"></path></g><g transform="translate(0,0)"><path class="background" d="M0,0h600v450h-600Z" style="fill: none;"></path><g><g class="mark-line role-mark concat_1_layer_0_marks"><path d="M27.272727272727252,309.0000057220459L36.363636363636346,309.0000057220459C45.45454545454544,309.0000057220459,63.63636363636362,309.0000057220459,81.8181818181818,309.2500066757202C99.99999999999999,309.50000762939453,118.18181818181817,310.00000953674316,136.36363636363635,311.25000953674316C154.54545454545453,312.50000953674316,172.72727272727272,314.50000762939453,190.90909090909088,316.7500066757202C209.0909090909091,319.0000057220459,227.27272727272725,321.5000057220459,245.4545454545454,323.7500047683716C263.6363636363636,326.00000381469727,281.8181818181818,328.00000190734863,300,329.50000286102295C318.1818181818182,331.00000381469727,336.3636363636363,332.00000762939453,354.5454545454545,334.50000762939453C372.7272727272727,337.00000762939453,390.9090909090908,341.00000381469727,409.09090909090907,343.50000381469727C427.27272727272725,346.00000381469727,445.45454545454544,347.00000762939453,463.6363636363637,348.18500762939453C481.8181818181818,349.3700076293946,500,350.7400038146973,518.1818181818181,351.6525019073486C536.3636363636364,352.56500000000005,554.5454545454546,353.02,563.6363636363636,353.2475L572.7272727272727,353.475" style="fill: none; stroke: #67a9cf; stroke-width: 8; stroke-linecap: round;"></path></g></g><path class="foreground" d="" style="display: none; fill: none;"></path></g><g transform="translate(0,0)"><path class="background" d="M0,0h600v450h-600Z" style="fill: none;"></path><g><g class="mark-line role-mark concat_1_layer_0_marks"><path d="M27.272727272727252,280.5000114440918L36.363636363636346,280.00000953674316C45.45454545454544,279.50000762939453,63.63636363636362,278.50000381469727,81.8181818181818,279.50000286102295C99.99999999999999,280.50000190734863,118.18181818181817,283.50000381469727,136.36363636363635,285.50000190734863C154.54545454545453,287.5,172.72727272727272,288.4999942779541,190.90909090909088,290.9999942779541C209.0909090909091,293.4999942779541,227.27272727272725,297.5,245.4545454545454,302.5C263.6363636363636,307.5,281.8181818181818,313.4999942779541,300,318.99999141693115C318.1818181818182,324.4999885559082,336.3636363636363,329.4999885559082,354.5454545454545,331.9999885559082C372.7272727272727,334.4999885559082,390.9090909090908,334.4999885559082,409.09090909090907,335.7499885559082C427.27272727272725,336.9999885559082,445.45454545454544,339.4999885559082,463.6363636363637,341.4499904632568C481.8181818181818,343.3999923706055,500,344.79999618530275,518.1818181818181,345.7324980926514C536.3636363636364,346.66499999999996,554.5454545454546,347.12999999999994,563.6363636363636,347.36249999999995L572.7272727272727,347.59499999999997" style="fill: none; stroke: #2166ac; stroke-width: 8; stroke-linecap: round;"></path></g></g><path class="foreground" d="" style="display: none; fill: none;"></path></g></g><g class="mark-text role-mark concat_1_layer_1_marks"><text text-anchor="middle" transform="translate(300,-1)" style="font-family: sans-serif; font-size: 11.5px; font-weight: bold; fill: black; opacity: 0.09;">______________________________________________________________________________________________</text></g><g class="mark-group role-title"><g transform="translate(-2.887245871803998,-102)"><path class="background" d="M0,0h0v0h0Z" style="pointer-events: none; fill: none;"></path><g><g class="mark-text role-title-text" style="pointer-events: none;"><text text-anchor="start" transform="translate(0,28)" style="font-family: Lato; font-size: 36px; font-weight: normal; fill: #000; opacity: 1;">Homeowner Income Devoted to Housing</text></g></g><path class="foreground" d="" style="pointer-events: none; display: none; fill: none;"></path></g></g></g><path class="foreground" d="" style="display: none; fill: none;"></path></g></g><g class="mark-group role-legend"><g transform="translate(1250,0)"><path class="background" d="M0,0h252v232h-252Z" style="pointer-events: none; fill: none;"></path><g><g class="mark-group role-legend-entry"><g transform="translate(0,31)"><path class="background" d="M0,0h0v0h0Z" style="pointer-events: none; fill: none;"></path><g><g class="mark-group role-scope"><g transform="translate(0,0)"><path class="background" d="M0,0h208.70887756347656v27h-208.70887756347656Z" style="pointer-events: none; fill: none; opacity: 1;"></path><g><g class="mark-symbol role-legend-symbol" style="pointer-events: none;"><path transform="translate(14,14)" d="M-10,0L10,0" style="fill: none; stroke: #b2182b; stroke-width: 8; opacity: 1;"></path></g><g class="mark-text role-legend-label" style="pointer-events: none;"><text text-anchor="start" transform="translate(32,22)" style="font-family: Lato; font-size: 26px; fill: #000; fill-opacity: 0.85; opacity: 1;">More than 50%</text></g></g><path class="foreground" d="" style="pointer-events: none; display: none; fill: none;"></path></g><g transform="translate(0,29)"><path class="background" d="M0,0h208.70887756347656v27h-208.70887756347656Z" style="pointer-events: none; fill: none; opacity: 1;"></path><g><g class="mark-symbol role-legend-symbol" style="pointer-events: none;"><path transform="translate(14,14)" d="M-10,0L10,0" style="fill: none; stroke: #ef8a62; stroke-width: 8; opacity: 1;"></path></g><g class="mark-text role-legend-label" style="pointer-events: none;"><text text-anchor="start" transform="translate(32,22)" style="font-family: Lato; font-size: 26px; fill: #000; fill-opacity: 0.85; opacity: 1;">40 to 50</text></g></g><path class="foreground" d="" style="pointer-events: none; display: none; fill: none;"></path></g><g transform="translate(0,58)"><path class="background" d="M0,0h208.70887756347656v27h-208.70887756347656Z" style="pointer-events: none; fill: none; opacity: 1;"></path><g><g class="mark-symbol role-legend-symbol" style="pointer-events: none;"><path transform="translate(14,14)" d="M-10,0L10,0" style="fill: none; stroke: #fddbc7; stroke-width: 8; opacity: 1;"></path></g><g class="mark-text role-legend-label" style="pointer-events: none;"><text text-anchor="start" transform="translate(32,22)" style="font-family: Lato; font-size: 26px; fill: #000; fill-opacity: 0.85; opacity: 1;">35 to 40</text></g></g><path class="foreground" d="" style="pointer-events: none; display: none; fill: none;"></path></g><g transform="translate(0,87)"><path class="background" d="M0,0h208.70887756347656v27h-208.70887756347656Z" style="pointer-events: none; fill: none; opacity: 1;"></path><g><g class="mark-symbol role-legend-symbol" style="pointer-events: none;"><path transform="translate(14,14)" d="M-10,0L10,0" style="fill: none; stroke: #e2e0d3; stroke-width: 8; opacity: 1;"></path></g><g class="mark-text role-legend-label" style="pointer-events: none;"><text text-anchor="start" transform="translate(32,22)" style="font-family: Lato; font-size: 26px; fill: #000; fill-opacity: 0.85; opacity: 1;">30 to 35</text></g></g><path class="foreground" d="" style="pointer-events: none; display: none; fill: none;"></path></g><g transform="translate(0,116)"><path class="background" d="M0,0h208.70887756347656v27h-208.70887756347656Z" style="pointer-events: none; fill: none; opacity: 1;"></path><g><g class="mark-symbol role-legend-symbol" style="pointer-events: none;"><path transform="translate(14,14)" d="M-10,0L10,0" style="fill: none; stroke: #d1e5f0; stroke-width: 8; opacity: 1;"></path></g><g class="mark-text role-legend-label" style="pointer-events: none;"><text text-anchor="start" transform="translate(32,22)" style="font-family: Lato; font-size: 26px; fill: #000; fill-opacity: 0.85; opacity: 1;">25 to 30</text></g></g><path class="foreground" d="" style="pointer-events: none; display: none; fill: none;"></path></g><g transform="translate(0,145)"><path class="background" d="M0,0h208.70887756347656v27h-208.70887756347656Z" style="pointer-events: none; fill: none; opacity: 1;"></path><g><g class="mark-symbol role-legend-symbol" style="pointer-events: none;"><path transform="translate(14,14)" d="M-10,0L10,0" style="fill: none; stroke: #67a9cf; stroke-width: 8; opacity: 1;"></path></g><g class="mark-text role-legend-label" style="pointer-events: none;"><text text-anchor="start" transform="translate(32,22)" style="font-family: Lato; font-size: 26px; fill: #000; fill-opacity: 0.85; opacity: 1;">20 to 25</text></g></g><path class="foreground" d="" style="pointer-events: none; display: none; fill: none;"></path></g><g transform="translate(0,174)"><path class="background" d="M0,0h208.70887756347656v27h-208.70887756347656Z" style="pointer-events: none; fill: none; opacity: 1;"></path><g><g class="mark-symbol role-legend-symbol" style="pointer-events: none;"><path transform="translate(14,14)" d="M-10,0L10,0" style="fill: none; stroke: #2166ac; stroke-width: 8; opacity: 1;"></path></g><g class="mark-text role-legend-label" style="pointer-events: none;"><text text-anchor="start" transform="translate(32,22)" style="font-family: Lato; font-size: 26px; fill: #000; fill-opacity: 0.85; opacity: 1;">Less than 20%</text></g></g><path class="foreground" d="" style="pointer-events: none; display: none; fill: none;"></path></g></g></g><path class="foreground" d="" style="pointer-events: none; display: none; fill: none;"></path></g></g><g class="mark-text role-legend-title" style="pointer-events: none;"><text text-anchor="start" transform="translate(0,21)" style="font-family: Lato; font-size: 26px; font-weight: bold; fill: #000; fill-opacity: 0.85; opacity: 1;">Housing Units Rented</text></g></g><path class="foreground" d="" style="pointer-events: none; display: none; fill: none;"></path></g></g></g><path class="foreground" d="" style="display: none; fill: none;"></path></g></g></g></svg>