<svg class="marks" width="1545" height="562" viewBox="0 0 1545 562" version="1.1" xmlns="http://www.w3.org/2000/svg" xmlns:xlink="http://www.w3.org/1999/xlink"><rect width="1545" height="562" style="fill: white;"></rect><g transform="translate(65,61)"><g class="mark-group role-frame root"><g transform="translate(0,0)"><path class="background" d="M0,0h0v450h0Z" style="fill: none;"></path><g><g class="mark-group role-scope concat_0_group"><g transform="translate(0,0)"><path class="background" d="M0.5,0.5h600v450h-600Z" style="fill: none; stroke: #ddd; stroke-opacity: 0;"></path><g><g class="mark-group role-axis"><g transform="translate(0.5,0.5)"><path class="background" d="M0,0h0v0h0Z" style="pointer-events: none; fill: none;"></path><g><g class="mark-rule role-axis-grid" style="pointer-events: none;"><line transform="translate(0,338)" x2="600" y2="0" style="fill: none; stroke: #ddd; stroke-opacity: 1; stroke-width: 1; opacity: 1;"></line><line transform="translate(0,225)" x2="600" y2="0" style="fill: none; stroke: #ddd; stroke-opacity: 1; stroke-width: 1; opacity: 1;"></line><line transform="translate(0,113)" x2="600" y2="0" style="fill: none; stroke: #ddd; stroke-opacity: 1; stroke-width: 1; opacity: 1;"></line></g></g><path class="foreground" d="" style="pointer-events: none; display: none; fill: none;"></path></g></g><g class="mark-group role-axis"><g transform="translate(0.5,450.5)"><path class="background" d="M0,0h0v0h0Z" style="pointer-events: none; fill: none;"></path><g><g class="mark-rule role-axis-tick" style="pointer-events: none;"><line transform="translate(27,0)" x2="0" y2="10" style="fill: none; stroke: #888; stroke-width: 1; opacity: 1;"></line><line transform="translate(573,0)" x2="0" y2="10" style="fill: none; stroke: #888; stroke-width: 1; opacity: 1;"></line></g><g class="mark-text role-axis-label" style="pointer-events: none;"><text text-anchor="middle" transform="translate(27.272727272727252,41)" style="font-family: Lato; font-size: 26px; fill: #000; fill-opacity: 0.8; opacity: 1;">2008</text><text text-anchor="middle" transform="translate(572.7272727272727,41)" style="font-family: Lato; font-size: 26px; fill: #000; fill-opacity: 0.8; opacity: 1;">2018</text></g><g class="mark-rule role-axis-domain" style="pointer-events: none;"><line transform="translate(0,0)" x2="600" y2="0" style="fill: none; stroke: #888; stroke-width: 1; opacity: 1;"></line></g></g><path class="foreground" d="" style="pointer-events: none; display: none; fill: none;"></path></g></g><g class="mark-group role-axis"><g transform="translate(0.5,0.5)"><path class="background" d="M0,0h0v0h0Z" style="pointer-events: none; fill: none;"></path><g><g class="mark-text role-axis-label" style="pointer-events: none;"><text text-anchor="start" transform="translate(-60,345.5)" style="font-family: Lato; font-size: 26px; fill: #000; fill-opacity: 0.8; opacity: 1;">400</text><text text-anchor="start" transform="translate(-60,233)" style="font-family: Lato; font-size: 26px; fill: #000; fill-opacity: 0.8; opacity: 1;">800</text><text text-anchor="start" transform="translate(-60,120.5)" style="font-family: Lato; font-size: 26px; fill: #000; fill-opacity: 0.8; opacity: 1;">1200</text></g><g class="mark-rule role-axis-domain" style="pointer-events: none;"><line transform="translate(0,450)" x2="0" y2="-450" style="fill: none; stroke: #888; stroke-width: 0; opacity: 1;"></line></g><g class="mark-text role-axis-title" style="pointer-events: none;"><text text-anchor="start" transform="translate(-60,-35)" style="font-family: Lato; font-size: 26px; font-weight: normal; fill: #000; fill-opacity: 0.8; opacity: 1;">Counties grouped by population density</text></g></g><path class="foreground" d="" style="pointer-events: none; display: none; fill: none;"></path></g></g><g class="mark-group role-scope concat_0_layer_0_pathgroup"><g transform="translate(0,0)"><path class="background" d="M0,0h600v450h-600Z" style="fill: none;"></path><g><g class="mark-line role-mark concat_0_layer_0_marks"><path d="M27.272727272727252,175.21875L36.363636363636346,175.078125C45.45454545454544,174.9375,63.63636363636362,174.65625,81.8181818181818,173.578125C99.99999999999999,172.5,118.18181818181817,170.625,136.36363636363635,168.5625C154.54545454545453,166.5,172.72727272727272,164.25,190.90909090909088,162.609375C209.0909090909091,160.96875,227.27272727272725,159.9375,245.4545454545454,159.046875C263.6363636363636,158.15625,281.8181818181818,157.40625,300,156C318.1818181818182,154.59375,336.3636363636363,152.53125,354.5454545454545,148.828125C372.7272727272727,145.125,390.9090909090908,139.78124999999997,409.09090909090907,134.57812499999997C427.27272727272725,129.37499999999997,445.45454545454544,124.3125,463.6363636363637,121.546875C481.8181818181818,118.78125,500,118.3125,518.1818181818181,115.5C536.3636363636364,112.6875,554.5454545454546,107.53125,563.6363636363636,104.953125L572.7272727272727,102.37500000000001" style="fill: none; stroke: #b2182b; stroke-width: 8; stroke-linecap: round;"></path></g></g><path class="foreground" d="" style="display: none; fill: none;"></path></g><g transform="translate(0,0)"><path class="background" d="M0,0h600v450h-600Z" style="fill: none;"></path><g><g class="mark-line role-mark concat_0_layer_0_marks"><path d="M27.272727272727252,214.03124999999997L36.363636363636346,212.76562499999997C45.45454545454544,211.5,63.63636363636362,208.96875,81.8181818181818,206.578125C99.99999999999999,204.1875,118.18181818181817,201.9375,136.36363636363635,199.875C154.54545454545453,197.8125,172.72727272727272,195.9375,190.90909090909088,194.296875C209.0909090909091,192.65625,227.27272727272725,191.25,245.4545454545454,190.3125C263.6363636363636,189.375,281.8181818181818,188.90625,300,188.0625C318.1818181818182,187.21875,336.3636363636363,186,354.5454545454545,184.078125C372.7272727272727,182.15625,390.9090909090908,179.53125,409.09090909090907,176.015625C427.27272727272725,172.5,445.45454545454544,168.09375,463.6363636363637,165.68775000000002C481.8181818181818,163.28175000000002,500,162.876,518.1818181818181,160.44135937500002C536.3636363636364,158.00671875,554.5454545454546,153.5431875,563.6363636363636,151.31142187499998L572.7272727272727,149.07965624999997" style="fill: none; stroke: #ef8a62; stroke-width: 8; stroke-linecap: round;"></path></g></g><path class="foreground" d="" style="display: none; fill: none;"></path></g><g transform="translate(0,0)"><path class="background" d="M0,0h600v450h-600Z" style="fill: none;"></path><g><g class="mark-line role-mark concat_0_layer_0_marks"><path d="M27.272727272727252,246.65625L36.363636363636346,245.0625C45.45454545454544,243.46875,63.63636363636362,240.28125,81.8181818181818,237.65625C99.99999999999999,235.03125,118.18181818181817,232.96875,136.36363636363635,232.21875C154.54545454545453,231.46875,172.72727272727272,232.03125,190.90909090909088,231.890625C209.0909090909091,231.75,227.27272727272725,230.90625,245.4545454545454,230.390625C263.6363636363636,229.875,281.8181818181818,229.6875,300,228.84375C318.1818181818182,228,336.3636363636363,226.5,354.5454545454545,224.671875C372.7272727272727,222.84375,390.9090909090908,220.6875,409.09090909090907,218.390625C427.27272727272725,216.09375,445.45454545454544,213.65625,463.6363636363637,212.26828125C481.8181818181818,210.88031250000003,500,210.541875,518.1818181818181,208.511390625C536.3636363636364,206.48090625,554.5454545454546,202.75837499999997,563.6363636363636,200.89710937499999L572.7272727272727,199.03584374999997" style="fill: none; stroke: #fddbc7; stroke-width: 8; stroke-linecap: round;"></path></g></g><path class="foreground" d="" style="display: none; fill: none;"></path></g><g transform="translate(0,0)"><path class="background" d="M0,0h600v450h-600Z" style="fill: none;"></path><g><g class="mark-line role-mark concat_0_layer_0_marks"><path d="M27.272727272727252,270.28125L36.363636363636346,269.71875C45.45454545454544,269.15625,63.63636363636362,268.03125,81.8181818181818,266.765625C99.99999999999999,265.5,118.18181818181817,264.09375,136.36363636363635,262.875C154.54545454545453,261.65625,172.72727272727272,260.625,190.90909090909088,259.5C209.0909090909091,258.375,227.27272727272725,257.15625,245.4545454545454,256.265625C263.6363636363636,255.375,281.8181818181818,254.8125,300,254.15625C318.1818181818182,253.5,336.3636363636363,252.75,354.5454545454545,251.109375C372.7272727272727,249.46875000000003,390.9090909090908,246.93750000000003,409.09090909090907,245.01562500000003C427.27272727272725,243.09375000000003,445.45454545454544,241.78125000000003,463.6363636363637,240.97650000000002C481.8181818181818,240.17175,500,239.87474999999998,518.1818181818181,238.092984375C536.3636363636364,236.31121875,554.5454545454546,233.0446875,563.6363636363636,231.411421875L572.7272727272727,229.77815625000002" style="fill: none; stroke: #e2e0d3; stroke-width: 8; stroke-linecap: round;"></path></g></g><path class="foreground" d="" style="display: none; fill: none;"></path></g><g transform="translate(0,0)"><path class="background" d="M0,0h600v450h-600Z" style="fill: none;"></path><g><g class="mark-line role-mark concat_0_layer_0_marks"><path d="M27.272727272727252,287.71875L36.363636363636346,286.640625C45.45454545454544,285.5625,63.63636363636362,283.40625,81.8181818181818,281.484375C99.99999999999999,279.5625,118.18181818181817,277.875,136.36363636363635,276.515625C154.54545454545453,275.15625,172.72727272727272,274.125,190.90909090909088,272.953125C209.0909090909091,271.78125,227.27272727272725,270.46875,245.4545454545454,269.671875C263.6363636363636,268.875,281.8181818181818,268.59375,300,267.890625C318.1818181818182,267.1875,336.3636363636363,266.0625,354.5454545454545,264.46875C372.7272727272727,262.875,390.9090909090908,260.8125,409.09090909090907,258.9375C427.27272727272725,257.0625,445.45454545454544,255.375,463.6363636363637,254.392125C481.8181818181818,253.40925000000001,500,253.131,518.1818181818181,251.461640625C536.3636363636364,249.79228125,554.5454545454546,246.73181250000002,563.6363636363636,245.201578125L572.7272727272727,243.67134374999998" style="fill: none; stroke: #d1e5f0; stroke-width: 8; stroke-linecap: round;"></path></g></g><path class="foreground" d="" style="display: none; fill: none;"></path></g><g transform="translate(0,0)"><path class="background" d="M0,0h600v450h-600Z" style="fill: none;"></path><g><g class="mark-line role-mark concat_0_layer_0_marks"><path d="M27.272727272727252,288L36.363636363636346,287.34375C45.45454545454544,286.6875,63.63636363636362,285.375,81.8181818181818,283.640625C99.99999999999999,281.90625,118.18181818181817,279.75,136.36363636363635,277.828125C154.54545454545453,275.90625,172.72727272727272,274.21875000000006,190.90909090909088,272.57812500000006C209.0909090909091,270.93750000000006,227.27272727272725,269.34375,245.4545454545454,268.265625C263.6363636363636,267.1875,281.8181818181818,266.625,300,265.546875C318.1818181818182,264.46875,336.3636363636363,262.875,354.5454545454545,261.234375C372.7272727272727,259.59375,390.9090909090908,257.90625,409.09090909090907,256.359375C427.27272727272725,254.8125,445.45454545454544,253.40625,463.6363636363637,252.562828125C481.8181818181818,251.71940625000002,500,251.4388125,518.1818181818181,249.75515625C536.3636363636364,248.07150000000001,554.5454545454546,244.98478124999997,563.6363636363636,243.44142187499997L572.7272727272727,241.89806249999998" style="fill: none; stroke: #67a9cf; stroke-width: 8; stroke-linecap: round;"></path></g></g><path class="foreground" d="" style="display: none; fill: none;"></path></g><g transform="translate(0,0)"><path class="background" d="M0,0h600v450h-600Z" style="fill: none;"></path><g><g class="mark-line role-mark concat_0_layer_0_marks"><path d="M27.272727272727252,291.09375L36.363636363636346,289.921875C45.45454545454544,288.75,63.63636363636362,286.40625,81.8181818181818,284.15625C99.99999999999999,281.90625,118.18181818181817,279.75,136.36363636363635,277.96875C154.54545454545453,276.1875,172.72727272727272,274.78124999999994,190.90909090909088,273.32812499999994C209.0909090909091,271.87499999999994,227.27272727272725,270.37499999999994,245.4545454545454,269.48437499999994C263.6363636363636,268.59375,281.8181818181818,268.3125,300,267.56250000000006C318.1818181818182,266.81250000000006,336.3636363636363,265.59375,354.5454545454545,263.859375C372.7272727272727,262.125,390.9090909090908,259.875,409.09090909090907,258.046875C427.27272727272725,256.21875,445.45454545454544,254.8125,463.6363636363637,253.9700625C481.8181818181818,253.127625,500,252.84900000000002,518.1818181818181,251.177296875C536.3636363636364,249.50559375,554.5454545454546,246.4408125,563.6363636363636,244.90842187500002L572.7272727272727,243.37603124999998" style="fill: none; stroke: #2166ac; stroke-width: 8; stroke-linecap: round;"></path></g></g><path class="foreground" d="" style="display: none; fill: none;"></path></g></g><g class="mark-text role-mark concat_0_layer_1_marks"><text text-anchor="middle" transform="translate(41.27272727272725,8)" style="font-family: lato; font-size: 26px; fill: black; opacity: 0.8;">$1600 per month</text></g><g class="mark-text role-mark concat_0_layer_2_marks"><text text-anchor="middle" transform="translate(372.5454545454545,-1)" style="font-family: sans-serif; font-size: 11.5px; font-weight: bold; fill: black; opacity: 0.09;">________________________________________________________________________</text></g></g><path class="foreground" d="" style="display: none; fill: none;"></path></g></g><g class="mark-group role-scope concat_1_group"><g transform="translate(626,0)"><path class="background" d="M0.5,0.5h600v450h-600Z" style="fill: none; stroke: #ddd; stroke-opacity: 0;"></path><g><g class="mark-group role-axis"><g transform="translate(0.5,0.5)"><path class="background" d="M0,0h0v0h0Z" style="pointer-events: none; fill: none;"></path><g><g class="mark-rule role-axis-grid" style="pointer-events: none;"><line transform="translate(0,338)" x2="600" y2="0" style="fill: none; stroke: #ddd; stroke-opacity: 1; stroke-width: 1; opacity: 1;"></line><line transform="translate(0,225)" x2="600" y2="0" style="fill: none; stroke: #ddd; stroke-opacity: 1; stroke-width: 1; opacity: 1;"></line><line transform="translate(0,113)" x2="600" y2="0" style="fill: none; stroke: #ddd; stroke-opacity: 1; stroke-width: 1; opacity: 1;"></line></g></g><path class="foreground" d="" style="pointer-events: none; display: none; fill: none;"></path></g></g><g class="mark-group role-axis"><g transform="translate(0.5,450.5)"><path class="background" d="M0,0h0v0h0Z" style="pointer-events: none; fill: none;"></path><g><g class="mark-rule role-axis-tick" style="pointer-events: none;"><line transform="translate(27,0)" x2="0" y2="10" style="fill: none; stroke: #888; stroke-width: 1; opacity: 1;"></line><line transform="translate(573,0)" x2="0" y2="10" style="fill: none; stroke: #888; stroke-width: 1; opacity: 1;"></line></g><g class="mark-text role-axis-label" style="pointer-events: none;"><text text-anchor="middle" transform="translate(27.272727272727252,41)" style="font-family: Lato; font-size: 26px; fill: #000; fill-opacity: 0.8; opacity: 1;">2008</text><text text-anchor="middle" transform="translate(572.7272727272727,41)" style="font-family: Lato; font-size: 26px; fill: #000; fill-opacity: 0.8; opacity: 1;">2018</text></g><g class="mark-rule role-axis-domain" style="pointer-events: none;"><line transform="translate(0,0)" x2="600" y2="0" style="fill: none; stroke: #888; stroke-width: 1; opacity: 1;"></line></g></g><path class="foreground" d="" style="pointer-events: none; display: none; fill: none;"></path></g></g><g class="mark-group role-axis"><g transform="translate(0.5,0.5)"><path class="background" d="M0,0h0v0h0Z" style="pointer-events: none; fill: none;"></path><g><g class="mark-text role-axis-label" style="pointer-events: none;"><text text-anchor="start" transform="translate(0,345.5)" style="font-family: Lato; font-size: 26px; fill: #000; fill-opacity: 0; opacity: 1;">400</text><text text-anchor="start" transform="translate(0,233)" style="font-family: Lato; font-size: 26px; fill: #000; fill-opacity: 0; opacity: 1;">800</text><text text-anchor="start" transform="translate(0,120.5)" style="font-family: Lato; font-size: 26px; fill: #000; fill-opacity: 0; opacity: 1;">1200</text></g><g class="mark-rule role-axis-domain" style="pointer-events: none;"><line transform="translate(0,450)" x2="0" y2="-450" style="fill: none; stroke: #888; stroke-width: 0; opacity: 1;"></line></g><g class="mark-text role-axis-title" style="pointer-events: none;"><text text-anchor="start" transform="translate(0,-35)" style="font-family: Lato; font-size: 26px; font-weight: normal; fill: #000; fill-opacity: 0.8; opacity: 1;">Counties grouped by population density</text></g></g><path class="foreground" d="" style="pointer-events: none; display: none; fill: none;"></path></g></g><g class="mark-group role-scope concat_1_layer_0_pathgroup"><g transform="translate(0,0)"><path class="background" d="M0,0h600v450h-600Z" style="fill: none;"></path><g><g class="mark-line role-mark concat_1_layer_0_marks"><path d="M27.272727272727252,18.000000000000014L36.363636363636346,17.250000000000014C45.45454545454544,16.500000000000014,63.63636363636362,15.000000000000014,81.8181818181818,15.093750000000009C99.99999999999999,15.187500000000009,118.18181818181817,16.875000000000007,136.36363636363635,18.984375000000004C154.54545454545453,21.09375,172.72727272727272,23.624999999999996,190.90909090909088,26.437499999999996C209.0909090909091,29.24999999999999,227.27272727272725,32.34374999999999,245.4545454545454,34.828125C263.6363636363636,37.3125,281.8181818181818,39.18750000000001,300,40.359375000000014C318.1818181818182,41.53125000000001,336.3636363636363,42,354.5454545454545,42.37499999999999C372.7272727272727,42.74999999999999,390.9090909090908,43.03124999999998,409.09090909090907,41.90624999999998C427.27272727272725,40.78124999999998,445.45454545454544,38.24999999999998,463.6363636363637,39.703124999999986C481.8181818181818,41.15624999999999,500,46.59374999999999,518.1818181818181,46.35937499999999C536.3636363636364,46.125,554.5454545454546,40.21875000000001,563.6363636363636,37.26562500000002L572.7272727272727,34.31250000000002" style="fill: none; stroke: #b2182b; stroke-width: 8; stroke-linecap: round; opacity: 0.85;"></path></g></g><path class="foreground" d="" style="display: none; fill: none;"></path></g><g transform="translate(0,0)"><path class="background" d="M0,0h600v450h-600Z" style="fill: none;"></path><g><g class="mark-line role-mark concat_1_layer_0_marks"><path d="M27.272727272727252,107.15625000000001L36.363636363636346,105.37500000000001C45.45454545454544,103.59375,63.63636363636362,100.03125,81.8181818181818,98.67187499999999C99.99999999999999,97.31249999999999,118.18181818181817,98.15624999999999,136.36363636363635,98.8125C154.54545454545453,99.46875,172.72727272727272,99.9375,190.90909090909088,102.9375C209.0909090909091,105.9375,227.27272727272725,111.46875,245.4545454545454,116.4375C263.6363636363636,121.40625,281.8181818181818,125.81250000000001,300,128.71875000000003C318.1818181818182,131.625,336.3636363636363,133.03125,354.5454545454545,132.70312499999997C372.7272727272727,132.37499999999997,390.9090909090908,130.3125,409.09090909090907,127.828125C427.27272727272725,125.34375,445.45454545454544,122.4375,463.6363636363637,123.15309375C481.8181818181818,123.86868750000001,500,128.20612500000001,518.1818181818181,128.019140625C536.3636363636364,127.83215625000003,554.5454545454546,123.12075,563.6363636363636,120.76504687500001L572.7272727272727,118.40934375" style="fill: none; stroke: #ef8a62; stroke-width: 8; stroke-linecap: round; opacity: 0.85;"></path></g></g><path class="foreground" d="" style="display: none; fill: none;"></path></g><g transform="translate(0,0)"><path class="background" d="M0,0h600v450h-600Z" style="fill: none;"></path><g><g class="mark-line role-mark concat_1_layer_0_marks"><path d="M27.272727272727252,185.90624999999997L36.363636363636346,184.265625C45.45454545454544,182.625,63.63636363636362,179.34375,81.8181818181818,177.75C99.99999999999999,176.15625,118.18181818181817,176.25,136.36363636363635,177.75C154.54545454545453,179.25,172.72727272727272,182.15625,190.90909090909088,184.265625C209.0909090909091,186.375,227.27272727272725,187.6875,245.4545454545454,189.28125C263.6363636363636,190.875,281.8181818181818,192.75,300,194.34375C318.1818181818182,195.9375,336.3636363636363,197.25,354.5454545454545,197.15625C372.7272727272727,197.0625,390.9090909090908,195.5625,409.09090909090907,194.25C427.27272727272725,192.9375,445.45454545454544,191.8125,463.6363636363637,192.95174999999998C481.8181818181818,194.09099999999998,500,197.4945,518.1818181818181,197.34778125C536.3636363636364,197.20106249999995,554.5454545454546,193.50412500000002,563.6363636363636,191.65565625L572.7272727272727,189.8071875" style="fill: none; stroke: #fddbc7; stroke-width: 8; stroke-linecap: round; opacity: 0.85;"></path></g></g><path class="foreground" d="" style="display: none; fill: none;"></path></g><g transform="translate(0,0)"><path class="background" d="M0,0h600v450h-600Z" style="fill: none;"></path><g><g class="mark-line role-mark concat_1_layer_0_marks"><path d="M27.272727272727252,230.62499999999997L36.363636363636346,230.90624999999997C45.45454545454544,231.1875,63.63636363636362,231.75,81.8181818181818,232.21875C99.99999999999999,232.6875,118.18181818181817,233.0625,136.36363636363635,233.390625C154.54545454545453,233.71875,172.72727272727272,234,190.90909090909088,234.5625C209.0909090909091,235.125,227.27272727272725,235.96875,245.4545454545454,237.140625C263.6363636363636,238.3125,281.8181818181818,239.8125,300,240.515625C318.1818181818182,241.21875,336.3636363636363,241.125,354.5454545454545,240.703125C372.7272727272727,240.28125,390.9090909090908,239.53125,409.09090909090907,238.5C427.27272727272725,237.46875,445.45454545454544,236.15625,463.6363636363637,236.91196875C481.8181818181818,237.66768749999997,500,240.49162499999997,518.1818181818181,240.36989062499995C536.3636363636364,240.24815624999997,554.5454545454546,237.18075,563.6363636363636,235.647046875L572.7272727272727,234.11334375" style="fill: none; stroke: #e2e0d3; stroke-width: 8; stroke-linecap: round; opacity: 0.85;"></path></g></g><path class="foreground" d="" style="display: none; fill: none;"></path></g><g transform="translate(0,0)"><path class="background" d="M0,0h600v450h-600Z" style="fill: none;"></path><g><g class="mark-line role-mark concat_1_layer_0_marks"><path d="M27.272727272727252,262.125L36.363636363636346,261.421875C45.45454545454544,260.71875,63.63636363636362,259.3125,81.8181818181818,258.515625C99.99999999999999,257.71875,118.18181818181817,257.53125,136.36363636363635,257.578125C154.54545454545453,257.625,172.72727272727272,257.90625,190.90909090909088,258.28125C209.0909090909091,258.65625,227.27272727272725,259.125,245.4545454545454,259.734375C263.6363636363636,260.34375,281.8181818181818,261.09374999999994,300,261.46874999999994C318.1818181818182,261.84374999999994,336.3636363636363,261.84374999999994,354.5454545454545,261.14062499999994C372.7272727272727,260.43749999999994,390.9090909090908,259.03125,409.09090909090907,257.625C427.27272727272725,256.21875,445.45454545454544,254.8125,463.6363636363637,255.39951562500002C481.8181818181818,255.98653125,500,258.5668125,518.1818181818181,258.455578125C536.3636363636364,258.34434375,554.5454545454546,255.54159374999998,563.6363636363636,254.14021874999995L572.7272727272727,252.73884374999997" style="fill: none; stroke: #d1e5f0; stroke-width: 8; stroke-linecap: round; opacity: 0.85;"></path></g></g><path class="foreground" d="" style="display: none; fill: none;"></path></g><g transform="translate(0,0)"><path class="background" d="M0,0h600v450h-600Z" style="fill: none;"></path><g><g class="mark-line role-mark concat_1_layer_0_marks"><path d="M27.272727272727252,277.3125L36.363636363636346,276.515625C45.45454545454544,275.71875,63.63636363636362,274.12500000000006,81.8181818181818,273.32812500000006C99.99999999999999,272.53125000000006,118.18181818181817,272.53125000000006,136.36363636363635,272.39062500000006C154.54545454545453,272.25000000000006,172.72727272727272,271.96875,190.90909090909088,271.5C209.0909090909091,271.03125,227.27272727272725,270.375,245.4545454545454,270.609375C263.6363636363636,270.84375,281.8181818181818,271.96875,300,272.34375C318.1818181818182,272.71875,336.3636363636363,272.34375,354.5454545454545,271.78125C372.7272727272727,271.21875,390.9090909090908,270.46875,409.09090909090907,269.671875C427.27272727272725,268.875,445.45454545454544,268.03125,463.6363636363637,268.80909375000005C481.8181818181818,269.58693750000003,500,271.986375,518.1818181818181,271.88296875000003C536.3636363636364,271.77956250000005,554.5454545454546,269.1733125,563.6363636363636,267.87018750000004L572.7272727272727,266.5670625" style="fill: none; stroke: #67a9cf; stroke-width: 8; stroke-linecap: round; opacity: 0.85;"></path></g></g><path class="foreground" d="" style="display: none; fill: none;"></path></g><g transform="translate(0,0)"><path class="background" d="M0,0h600v450h-600Z" style="fill: none;"></path><g><g class="mark-line role-mark concat_1_layer_0_marks"><path d="M27.272727272727252,283.5L36.363636363636346,282.609375C45.45454545454544,281.71875,63.63636363636362,279.9375,81.8181818181818,278.765625C99.99999999999999,277.59375,118.18181818181817,277.03125,136.36363636363635,276.84375C154.54545454545453,276.65625,172.72727272727272,276.84375,190.90909090909088,276.796875C209.0909090909091,276.75,227.27272727272725,276.46875,245.4545454545454,276.1875C263.6363636363636,275.90625,281.8181818181818,275.625,300,275.625C318.1818181818182,275.625,336.3636363636363,275.90625,354.5454545454545,275.296875C372.7272727272727,274.6875,390.9090909090908,273.1875,409.09090909090907,271.640625C427.27272727272725,270.09375,445.45454545454544,268.5,463.6363636363637,268.904671875C481.8181818181818,269.30934375,500,271.7124375,518.1818181818181,271.60884375C536.3636363636364,271.50525,554.5454545454546,268.89496875000003,563.6363636363636,267.589828125L572.7272727272727,266.2846875" style="fill: none; stroke: #2166ac; stroke-width: 8; stroke-linecap: round; opacity: 0.85;"></path></g></g><path class="foreground" d="" style="display: none; fill: none;"></path></g></g><g class="mark-text role-mark concat_1_layer_1_marks"><text text-anchor="middle" transform="translate(300,-1)" style="font-family: sans-serif; font-size: 11.5px; font-weight: bold; fill: black; opacity: 0.09;">______________________________________________________________________________________________</text></g></g><path class="foreground" d="" style="display: none; fill: none;"></path></g></g><g class="mark-group role-legend"><g transform="translate(1250,0)"><path class="background" d="M0,0h225v232h-225Z" style="pointer-events: none; fill: none;"></path><g><g class="mark-group role-legend-entry"><g transform="translate(0,31)"><path class="background" d="M0,0h0v0h0Z" style="pointer-events: none; fill: none;"></path><g><g class="mark-group role-scope"><g transform="translate(0,0)"><path class="background" d="M0,0h218.0298614501953v27h-218.0298614501953Z" style="pointer-events: none; fill: none; opacity: 1;"></path><g><g class="mark-symbol role-legend-symbol" style="pointer-events: none;"><path transform="translate(14,14)" d="M-10,0L10,0" style="fill: none; stroke: #b2182b; stroke-width: 8; opacity: 0.85;"></path></g><g class="mark-text role-legend-label" style="pointer-events: none;"><text text-anchor="start" transform="translate(32,22)" style="font-family: Lato; font-size: 26px; fill: #000; fill-opacity: 0.85; opacity: 1;">More than 1000</text></g></g><path class="foreground" d="" style="pointer-events: none; display: none; fill: none;"></path></g><g transform="translate(0,29)"><path class="background" d="M0,0h218.0298614501953v27h-218.0298614501953Z" style="pointer-events: none; fill: none; opacity: 1;"></path><g><g class="mark-symbol role-legend-symbol" style="pointer-events: none;"><path transform="translate(14,14)" d="M-10,0L10,0" style="fill: none; stroke: #ef8a62; stroke-width: 8; opacity: 0.85;"></path></g><g class="mark-text role-legend-label" style="pointer-events: none;"><text text-anchor="start" transform="translate(32,22)" style="font-family: Lato; font-size: 26px; fill: #000; fill-opacity: 0.85; opacity: 1;">250 to 1000</text></g></g><path class="foreground" d="" style="pointer-events: none; display: none; fill: none;"></path></g><g transform="translate(0,58)"><path class="background" d="M0,0h218.0298614501953v27h-218.0298614501953Z" style="pointer-events: none; fill: none; opacity: 1;"></path><g><g class="mark-symbol role-legend-symbol" style="pointer-events: none;"><path transform="translate(14,14)" d="M-10,0L10,0" style="fill: none; stroke: #fddbc7; stroke-width: 8; opacity: 0.85;"></path></g><g class="mark-text role-legend-label" style="pointer-events: none;"><text text-anchor="start" transform="translate(32,22)" style="font-family: Lato; font-size: 26px; fill: #000; fill-opacity: 0.85; opacity: 1;">100 to 250</text></g></g><path class="foreground" d="" style="pointer-events: none; display: none; fill: none;"></path></g><g transform="translate(0,87)"><path class="background" d="M0,0h218.0298614501953v27h-218.0298614501953Z" style="pointer-events: none; fill: none; opacity: 1;"></path><g><g class="mark-symbol role-legend-symbol" style="pointer-events: none;"><path transform="translate(14,14)" d="M-10,0L10,0" style="fill: none; stroke: #e2e0d3; stroke-width: 8; opacity: 0.85;"></path></g><g class="mark-text role-legend-label" style="pointer-events: none;"><text text-anchor="start" transform="translate(32,22)" style="font-family: Lato; font-size: 26px; fill: #000; fill-opacity: 0.85; opacity: 1;">50 to 100</text></g></g><path class="foreground" d="" style="pointer-events: none; display: none; fill: none;"></path></g><g transform="translate(0,116)"><path class="background" d="M0,0h218.0298614501953v27h-218.0298614501953Z" style="pointer-events: none; fill: none; opacity: 1;"></path><g><g class="mark-symbol role-legend-symbol" style="pointer-events: none;"><path transform="translate(14,14)" d="M-10,0L10,0" style="fill: none; stroke: #d1e5f0; stroke-width: 8; opacity: 0.85;"></path></g><g class="mark-text role-legend-label" style="pointer-events: none;"><text text-anchor="start" transform="translate(32,22)" style="font-family: Lato; font-size: 26px; fill: #000; fill-opacity: 0.85; opacity: 1;">25 to 50</text></g></g><path class="foreground" d="" style="pointer-events: none; display: none; fill: none;"></path></g><g transform="translate(0,145)"><path class="background" d="M0,0h218.0298614501953v27h-218.0298614501953Z" style="pointer-events: none; fill: none; opacity: 1;"></path><g><g class="mark-symbol role-legend-symbol" style="pointer-events: none;"><path transform="translate(14,14)" d="M-10,0L10,0" style="fill: none; stroke: #67a9cf; stroke-width: 8; opacity: 0.85;"></path></g><g class="mark-text role-legend-label" style="pointer-events: none;"><text text-anchor="start" transform="translate(32,22)" style="font-family: Lato; font-size: 26px; fill: #000; fill-opacity: 0.85; opacity: 1;">10 to 25</text></g></g><path class="foreground" d="" style="pointer-events: none; display: none; fill: none;"></path></g><g transform="translate(0,174)"><path class="background" d="M0,0h218.0298614501953v27h-218.0298614501953Z" style="pointer-events: none; fill: none; opacity: 1;"></path><g><g class="mark-symbol role-legend-symbol" style="pointer-events: none;"><path transform="translate(14,14)" d="M-10,0L10,0" style="fill: none; stroke: #2166ac; stroke-width: 8; opacity: 0.85;"></path></g><g class="mark-text role-legend-label" style="pointer-events: none;"><text text-anchor="start" transform="translate(32,22)" style="font-family: Lato; font-size: 26px; fill: #000; fill-opacity: 0.85; opacity: 1;">Less than 10</text></g></g><path class="foreground" d="" style="pointer-events: none; display: none; fill: none;"></path></g></g></g><path class="foreground" d="" style="pointer-events: none; display: none; fill: none;"></path></g></g><g class="mark-text role-legend-title" style="pointer-events: none;"><text text-anchor="start" transform="translate(0,21)" style="font-family: Lato; font-size: 26px; font-weight: bold; fill: #000; fill-opacity: 0.85; opacity: 1;">Residents / sq. mile</text></g></g><path class="foreground" d="" style="pointer-events: none; display: none; fill: none;"></path></g></g></g><path class="foreground" d="" style="display: none; fill: none;"></path></g></g></g></svg>