<svg class="marks" width="1574" height="609" viewBox="0 0 1574 609" version="1.1" xmlns="http://www.w3.org/2000/svg" xmlns:xlink="http://www.w3.org/1999/xlink"><rect width="1574" height="609" style="fill: white;"></rect><g transform="translate(43,108)"><g class="mark-group role-frame root"><g transform="translate(0,0)"><path class="background" d="M0,0h0v450h0Z" style="fill: none;"></path><g><g class="mark-group role-scope concat_0_group"><g transform="translate(0,0)"><path class="background" d="M0.5,0.5h600v450h-600Z" style="fill: none; stroke: #ddd; stroke-opacity: 0;"></path><g><g class="mark-group role-axis"><g transform="translate(0.5,0.5)"><path class="background" d="M0,0h0v0h0Z" style="pointer-events: none; fill: none;"></path><g><g class="mark-rule role-axis-grid" style="pointer-events: none;"><line transform="translate(0,375)" x2="600" y2="0" style="fill: none; stroke: #ddd; stroke-opacity: 1; stroke-width: 1; opacity: 1;"></line><line transform="translate(0,300)" x2="600" y2="0" style="fill: none; stroke: #ddd; stroke-opacity: 1; stroke-width: 1; opacity: 1;"></line><line transform="translate(0,225)" x2="600" y2="0" style="fill: none; stroke: #ddd; stroke-opacity: 1; stroke-width: 1; opacity: 1;"></line><line transform="translate(0,150)" x2="600" y2="0" style="fill: none; stroke: #ddd; stroke-opacity: 1; stroke-width: 1; opacity: 1;"></line><line transform="translate(0,75)" x2="600" y2="0" style="fill: none; stroke: #ddd; stroke-opacity: 1; stroke-width: 1; opacity: 1;"></line></g></g><path class="foreground" d="" style="pointer-events: none; display: none; fill: none;"></path></g></g><g class="mark-group role-axis"><g transform="translate(0.5,450.5)"><path class="background" d="M0,0h0v0h0Z" style="pointer-events: none; fill: none;"></path><g><g class="mark-rule role-axis-tick" style="pointer-events: none;"><line transform="translate(27,0)" x2="0" y2="10" style="fill: none; stroke: #888; stroke-width: 1; opacity: 1;"></line><line transform="translate(573,0)" x2="0" y2="10" style="fill: none; stroke: #888; stroke-width: 1; opacity: 1;"></line></g><g class="mark-text role-axis-label" style="pointer-events: none;"><text text-anchor="middle" transform="translate(27.272727272727252,41)" style="font-family: Lato; font-size: 26px; fill: #000; fill-opacity: 0.8; opacity: 1;">2008</text><text text-anchor="middle" transform="translate(572.7272727272727,41)" style="font-family: Lato; font-size: 26px; fill: #000; fill-opacity: 0.8; opacity: 1;">2018</text></g><g class="mark-rule role-axis-domain" style="pointer-events: none;"><line transform="translate(0,0)" x2="600" y2="0" style="fill: none; stroke: #888; stroke-width: 1; opacity: 1;"></line></g></g><path class="foreground" d="" style="pointer-events: none; display: none; fill: none;"></path></g></g><g class="mark-group role-axis"><g transform="translate(0.5,0.5)"><path class="background" d="M0,0h0v0h0Z" style="pointer-events: none; fill: none;"></path><g><g class="mark-text role-axis-label" style="pointer-events: none;"><text text-anchor="start" transform="translate(-35,383)" style="font-family: Lato; font-size: 26px; fill: #000; fill-opacity: 0.8; opacity: 1;">15</text><text text-anchor="start" transform="translate(-35,308.00000000000006)" style="font-family: Lato; font-size: 26px; fill: #000; fill-opacity: 0.8; opacity: 1;">20</text><text text-anchor="start" transform="translate(-35,233)" style="font-family: Lato; font-size: 26px; fill: #000; fill-opacity: 0.8; opacity: 1;">25</text><text text-anchor="start" transform="translate(-35,158.00000000000003)" style="font-family: Lato; font-size: 26px; fill: #000; fill-opacity: 0.8; opacity: 1;">30</text><text text-anchor="start" transform="translate(-35,82.99999999999999)" style="font-family: Lato; font-size: 26px; fill: #000; fill-opacity: 0.8; opacity: 1;">35</text></g><g class="mark-rule role-axis-domain" style="pointer-events: none;"><line transform="translate(0,450)" x2="0" y2="-450" style="fill: none; stroke: #888; stroke-width: 0; opacity: 1;"></line></g><g class="mark-text role-axis-title" style="pointer-events: none;"><text text-anchor="start" transform="translate(-35,-35)" style="font-family: Lato; font-size: 26px; font-weight: normal; fill: #000; fill-opacity: 0.8; opacity: 1;">Counties grouped by housing density</text></g></g><path class="foreground" d="" style="pointer-events: none; display: none; fill: none;"></path></g></g><g class="mark-group role-scope concat_0_layer_0_pathgroup"><g transform="translate(0,0)"><path class="background" d="M0,0h600v450h-600Z" style="fill: none;"></path><g><g class="mark-line role-mark concat_0_layer_0_marks"><path d="M27.272727272727252,106.4999771118164L36.363636363636346,105.2499771118164C45.45454545454544,103.9999771118164,63.63636363636362,101.4999771118164,81.8181818181818,98.74998092651366C99.99999999999999,95.99998474121092,118.18181818181817,92.99999237060545,136.36363636363635,90.9999942779541C154.54545454545453,88.99999618530275,172.72727272727272,87.99999237060553,190.90909090909088,88.24998855590826C209.0909090909091,88.499984741211,227.27272727272725,89.99998092651371,245.4545454545454,91.74998283386232C263.6363636363636,93.49998474121094,281.8181818181818,95.49999237060547,300,97.74999618530273C318.1818181818182,100,336.3636363636363,102.49999999999999,354.5454545454545,104.25000190734859C372.7272727272727,106.00000381469721,390.9090909090908,107.00000762939443,409.09090909090907,108.00001144409173C427.27272727272725,109.00001525878902,445.45454545454544,110.00001907348637,463.6363636363637,111.50001525878913C481.8181818181818,113.00001144409191,500,115.00000000000011,518.1818181818181,116.99999809265148C536.3636363636364,118.9999961853028,554.5454545454546,121.00000381469728,563.6363636363636,122.00000762939453L572.7272727272727,123.00001144409177" style="fill: none; stroke: #b2182b; stroke-width: 8; stroke-linecap: round;"></path></g></g><path class="foreground" d="" style="display: none; fill: none;"></path></g><g transform="translate(0,0)"><path class="background" d="M0,0h600v450h-600Z" style="fill: none;"></path><g><g class="mark-line role-mark concat_0_layer_0_marks"><path d="M27.272727272727252,138.00001144409177L36.363636363636346,137.00000762939453C45.45454545454544,136.00000381469727,63.63636363636362,133.99999618530276,81.8181818181818,131.9999933242798C99.99999999999999,129.99999046325686,118.18181818181817,127.99999237060545,136.36363636363635,125.99999427795406C154.54545454545453,123.99999618530269,172.72727272727272,121.99999809265137,190.90909090909088,121.74999713897705C209.0909090909091,121.49999618530278,227.27272727272725,122.99999237060551,245.4545454545454,123.99999141693117C263.6363636363636,124.99999046325685,281.8181818181818,125.49999237060543,300,126.74999237060545C318.1818181818182,127.99999237060545,336.3636363636363,129.99999046325686,354.5454545454545,130.99998950958258C372.7272727272727,131.9999885559083,390.9090909090908,131.9999885559083,409.09090909090907,131.9999885559083C427.27272727272725,131.9999885559083,445.45454545454544,131.9999885559083,463.6363636363637,133.2499885559083C481.8181818181818,134.4999885559083,500,136.9999885559083,518.1818181818181,136.7499923706055C536.3636363636364,136.49999618530276,554.5454545454546,133.50000381469724,563.6363636363636,132.0000076293945L572.7272727272727,130.50001144409174" style="fill: none; stroke: #ef8a62; stroke-width: 8; stroke-linecap: round;"></path></g></g><path class="foreground" d="" style="display: none; fill: none;"></path></g><g transform="translate(0,0)"><path class="background" d="M0,0h600v450h-600Z" style="fill: none;"></path><g><g class="mark-line role-mark concat_0_layer_0_marks"><path d="M27.272727272727252,124.49998855590826L36.363636363636346,122.99999237060548C45.45454545454544,121.49999618530273,63.63636363636362,118.50000381469722,81.8181818181818,115.50000190734858C99.99999999999999,112.49999999999993,118.18181818181817,109.49998855590816,136.36363636363635,106.99998855590816C154.54545454545453,104.49998855590816,172.72727272727272,102.49999999999993,190.90909090909088,101.75000190734859C209.0909090909091,101.00000381469725,227.27272727272725,101.49999618530279,245.4545454545454,102.74999618530278C263.6363636363636,103.99999618530278,281.8181818181818,106.00000381469722,300,107.50000953674312C318.1818181818182,109.00001525878902,336.3636363636363,110.00001907348637,354.5454545454545,111.75002098083503C372.7272727272727,113.50002288818371,390.9090909090908,116.00002288818371,409.09090909090907,118.50001811981207C427.27272727272725,121.00001335144047,445.45454545454544,123.50000381469725,463.6363636363637,126.01499999999994C481.8181818181818,128.52999618530268,500,131.05999809265134,518.1818181818181,130.80499904632566C536.3636363636364,130.54999999999998,554.5454545454546,127.50999999999999,563.6363636363636,125.99L572.7272727272727,124.46999999999998" style="fill: none; stroke: #fddbc7; stroke-width: 8; stroke-linecap: round;"></path></g></g><path class="foreground" d="" style="display: none; fill: none;"></path></g><g transform="translate(0,0)"><path class="background" d="M0,0h600v450h-600Z" style="fill: none;"></path><g><g class="mark-line role-mark concat_0_layer_0_marks"><path d="M27.272727272727252,139.49998855590826L36.363636363636346,138.74999046325686C45.45454545454544,137.9999923706055,63.63636363636362,136.49999618530276,81.8181818181818,132.7499961853028C99.99999999999999,128.9999961853028,118.18181818181817,122.99999237060557,136.36363636363635,119.99999046325695C154.54545454545453,116.99998855590833,172.72727272727272,116.99998855590833,190.90909090909088,117.49999046325695C209.0909090909091,117.99999237060557,227.27272727272725,118.99999618530279,245.4545454545454,120.74999809265141C263.6363636363636,122.50000000000001,281.8181818181818,125,300,126.50000095367432C318.1818181818182,128.00000190734863,336.3636363636363,128.5000038146973,354.5454545454545,130.75000286102298C372.7272727272727,133.00000190734863,390.9090909090908,136.99999809265137,409.09090909090907,140.2499961853027C427.27272727272725,143.49999427795407,445.45454545454544,145.99999427795407,463.6363636363637,148.45499523162837C481.8181818181818,150.9099961853027,500,153.3199980926514,518.1818181818181,153.0774990463257C536.3636363636364,152.83500000000004,554.5454545454546,149.94000000000003,563.6363636363636,148.49249999999998L572.7272727272727,147.045" style="fill: none; stroke: #e2e0d3; stroke-width: 8; stroke-linecap: round;"></path></g></g><path class="foreground" d="" style="display: none; fill: none;"></path></g><g transform="translate(0,0)"><path class="background" d="M0,0h600v450h-600Z" style="fill: none;"></path><g><g class="mark-line role-mark concat_0_layer_0_marks"><path d="M27.272727272727252,142.5L36.363636363636346,140.25000095367432C45.45454545454544,138.00000190734863,63.63636363636362,133.5000038146973,81.8181818181818,131.5000057220459C99.99999999999999,129.50000762939453,118.18181818181817,130.00000953674314,136.36363636363635,128.50000858306882C154.54545454545453,127.00000762939449,172.72727272727272,123.50000381469727,190.90909090909088,121.75000190734863C209.0909090909091,120.00000000000004,227.27272727272725,120.00000000000004,245.4545454545454,121.75000190734863C263.6363636363636,123.50000381469727,281.8181818181818,127.00000762939449,300,130.00000953674314C318.1818181818182,133.00001144409177,336.3636363636363,135.50001144409177,354.5454545454545,137.0000076293945C372.7272727272727,138.50000381469727,390.9090909090908,138.99999618530276,409.09090909090907,139.99999523162845C427.27272727272725,140.99999427795413,445.45454545454544,142.50000000000003,463.6363636363637,144.46750190734866C481.8181818181818,146.4350038146973,500,148.87000190734864,518.1818181818181,148.6250009536743C536.3636363636364,148.38,554.5454545454546,145.455,563.6363636363636,143.99249999999998L572.7272727272727,142.53" style="fill: none; stroke: #d1e5f0; stroke-width: 8; stroke-linecap: round;"></path></g></g><path class="foreground" d="" style="display: none; fill: none;"></path></g><g transform="translate(0,0)"><path class="background" d="M0,0h600v450h-600Z" style="fill: none;"></path><g><g class="mark-line role-mark concat_0_layer_0_marks"><path d="M27.272727272727252,175.50001144409174L36.363636363636346,174.00001049041745C45.45454545454544,172.50000953674314,63.63636363636362,169.5000076293945,81.8181818181818,166.25000476837158C99.99999999999999,163.00000190734863,118.18181818181817,159.49999809265134,136.36363636363635,156.24999523162842C154.54545454545453,152.99999237060547,172.72727272727272,149.99999046325686,190.90909090909088,149.74998950958255C209.0909090909091,149.49998855590826,227.27272727272725,151.99998855590826,245.4545454545454,152.49999046325686C263.6363636363636,152.9999923706055,281.8181818181818,151.49999618530276,300,152.50000000000003C318.1818181818182,153.50000381469727,336.3636363636363,157.0000076293945,354.5454545454545,158.75000953674314C372.7272727272727,160.50001144409174,390.9090909090908,160.50001144409174,409.09090909090907,162.25000858306882C427.27272727272725,164.00000572204587,445.45454545454544,167.49999999999997,463.6363636363637,170.39499809265132C481.8181818181818,173.2899961853027,500,175.57999809265138,518.1818181818181,175.34999904632568C536.3636363636364,175.12,554.5454545454546,172.37,563.6363636363636,170.995L572.7272727272727,169.62" style="fill: none; stroke: #67a9cf; stroke-width: 8; stroke-linecap: round;"></path></g></g><path class="foreground" d="" style="display: none; fill: none;"></path></g><g transform="translate(0,0)"><path class="background" d="M0,0h600v450h-600Z" style="fill: none;"></path><g><g class="mark-line role-mark concat_0_layer_0_marks"><path d="M27.272727272727252,219.0000057220459L36.363636363636346,217.7500057220459C45.45454545454544,216.5000057220459,63.63636363636362,214.0000057220459,81.8181818181818,211.5000057220459C99.99999999999999,209.0000057220459,118.18181818181817,206.5000057220459,136.36363636363635,204.50000286102295C154.54545454545453,202.5,172.72727272727272,200.9999942779541,190.90909090909088,199.49999332427979C209.0909090909091,197.99999237060547,227.27272727272725,196.49999618530273,245.4545454545454,194.49999809265137C263.6363636363636,192.5,281.8181818181818,190,300,189.74999904632566C318.1818181818182,189.49999809265134,336.3636363636363,191.4999961853027,354.5454545454545,192.99999713897702C372.7272727272727,194.49999809265134,390.9090909090908,195.5000019073486,409.09090909090907,197.00000286102292C427.27272727272725,198.50000381469724,445.45454545454544,200.5000019073486,463.6363636363637,202.56250095367432C481.8181818181818,204.625,500,206.75,518.1818181818181,206.5375C536.3636363636364,206.32500000000002,554.5454545454546,203.77499999999998,563.6363636363636,202.49999999999997L572.7272727272727,201.22499999999997" style="fill: none; stroke: #2166ac; stroke-width: 8; stroke-linecap: round;"></path></g></g><path class="foreground" d="" style="display: none; fill: none;"></path></g></g><g class="mark-text role-mark concat_0_layer_1_marks"><text text-anchor="middle" transform="translate(48.27272727272725,8)" style="font-family: lato; font-size: 26px; fill: black; opacity: 0.8;">40% of income</text></g><g class="mark-text role-mark concat_0_layer_2_marks"><text text-anchor="middle" transform="translate(367.5454545454545,-1)" style="font-family: sans-serif; font-size: 11.5px; font-weight: bold; fill: black; opacity: 0.09;">________________________________________________________________________</text></g><g class="mark-group role-title"><g transform="translate(-37.05920479514384,-97)"><path class="background" d="M0,0h0v0h0Z" style="pointer-events: none; fill: none;"></path><g><g class="mark-text role-title-text" style="pointer-events: none;"><text text-anchor="start" transform="translate(0,28)" style="font-family: Lato; font-size: 36px; font-weight: normal; fill: #000; opacity: 1;">Renter Income Devoted to Housing</text></g></g><path class="foreground" d="" style="pointer-events: none; display: none; fill: none;"></path></g></g></g><path class="foreground" d="" style="display: none; fill: none;"></path></g></g><g class="mark-group role-scope concat_1_group"><g transform="translate(626,0)"><path class="background" d="M0.5,0.5h600v450h-600Z" style="fill: none; stroke: #ddd; stroke-opacity: 0;"></path><g><g class="mark-group role-axis"><g transform="translate(0.5,0.5)"><path class="background" d="M0,0h0v0h0Z" style="pointer-events: none; fill: none;"></path><g><g class="mark-rule role-axis-grid" style="pointer-events: none;"><line transform="translate(0,375)" x2="600" y2="0" style="fill: none; stroke: #ddd; stroke-opacity: 1; stroke-width: 1; opacity: 1;"></line><line transform="translate(0,300)" x2="600" y2="0" style="fill: none; stroke: #ddd; stroke-opacity: 1; stroke-width: 1; opacity: 1;"></line><line transform="translate(0,225)" x2="600" y2="0" style="fill: none; stroke: #ddd; stroke-opacity: 1; stroke-width: 1; opacity: 1;"></line><line transform="translate(0,150)" x2="600" y2="0" style="fill: none; stroke: #ddd; stroke-opacity: 1; stroke-width: 1; opacity: 1;"></line><line transform="translate(0,75)" x2="600" y2="0" style="fill: none; stroke: #ddd; stroke-opacity: 1; stroke-width: 1; opacity: 1;"></line></g></g><path class="foreground" d="" style="pointer-events: none; display: none; fill: none;"></path></g></g><g class="mark-group role-axis"><g transform="translate(0.5,450.5)"><path class="background" d="M0,0h0v0h0Z" style="pointer-events: none; fill: none;"></path><g><g class="mark-rule role-axis-tick" style="pointer-events: none;"><line transform="translate(27,0)" x2="0" y2="10" style="fill: none; stroke: #888; stroke-width: 1; opacity: 1;"></line><line transform="translate(573,0)" x2="0" y2="10" style="fill: none; stroke: #888; stroke-width: 1; opacity: 1;"></line></g><g class="mark-text role-axis-label" style="pointer-events: none;"><text text-anchor="middle" transform="translate(27.272727272727252,41)" style="font-family: Lato; font-size: 26px; fill: #000; fill-opacity: 0.8; opacity: 1;">2008</text><text text-anchor="middle" transform="translate(572.7272727272727,41)" style="font-family: Lato; font-size: 26px; fill: #000; fill-opacity: 0.8; opacity: 1;">2018</text></g><g class="mark-rule role-axis-domain" style="pointer-events: none;"><line transform="translate(0,0)" x2="600" y2="0" style="fill: none; stroke: #888; stroke-width: 1; opacity: 1;"></line></g></g><path class="foreground" d="" style="pointer-events: none; display: none; fill: none;"></path></g></g><g class="mark-group role-axis"><g transform="translate(0.5,0.5)"><path class="background" d="M0,0h0v0h0Z" style="pointer-events: none; fill: none;"></path><g><g class="mark-text role-axis-label" style="pointer-events: none;"><text text-anchor="start" transform="translate(0,383)" style="font-family: Lato; font-size: 26px; fill: #000; fill-opacity: 0; opacity: 1;">15</text><text text-anchor="start" transform="translate(0,308.00000000000006)" style="font-family: Lato; font-size: 26px; fill: #000; fill-opacity: 0; opacity: 1;">20</text><text text-anchor="start" transform="translate(0,233)" style="font-family: Lato; font-size: 26px; fill: #000; fill-opacity: 0; opacity: 1;">25</text><text text-anchor="start" transform="translate(0,158.00000000000003)" style="font-family: Lato; font-size: 26px; fill: #000; fill-opacity: 0; opacity: 1;">30</text><text text-anchor="start" transform="translate(0,82.99999999999999)" style="font-family: Lato; font-size: 26px; fill: #000; fill-opacity: 0; opacity: 1;">35</text></g><g class="mark-rule role-axis-domain" style="pointer-events: none;"><line transform="translate(0,450)" x2="0" y2="-450" style="fill: none; stroke: #888; stroke-width: 0; opacity: 1;"></line></g><g class="mark-text role-axis-title" style="pointer-events: none;"><text text-anchor="start" transform="translate(-2,-40)" style="font-family: Lato; font-size: 26px; font-weight: normal; fill: #000; fill-opacity: 0.8; opacity: 1;">Counties grouped by housing density</text></g></g><path class="foreground" d="" style="pointer-events: none; display: none; fill: none;"></path></g></g><g class="mark-group role-scope concat_1_layer_0_pathgroup"><g transform="translate(0,0)"><path class="background" d="M0,0h600v450h-600Z" style="fill: none;"></path><g><g class="mark-line role-mark concat_1_layer_0_marks"><path d="M27.272727272727252,258.00001144409174L36.363636363636346,258.2500076293945C45.45454545454544,258.5000038146972,63.63636363636362,258.99999618530273,81.8181818181818,259.9999952316284C99.99999999999999,260.9999942779541,118.18181818181817,262.5,136.36363636363635,265C154.54545454545453,267.5,172.72727272727272,270.99999427795404,190.90909090909088,274.4999933242797C209.0909090909091,277.9999923706054,227.27272727272725,281.49999618530273,245.4545454545454,284.49999809265137C263.6363636363636,287.5,281.8181818181818,290,300,293.00000190734863C318.1818181818182,296.00000381469727,336.3636363636363,299.50000762939453,354.5454545454545,302.7500057220459C372.7272727272727,306.00000381469727,390.9090909090908,308.9999961853028,409.09090909090907,311.7499923706055C427.27272727272725,314.49998855590826,445.45454545454544,316.9999885559082,463.6363636363637,319.24999237060547C481.8181818181818,321.49999618530273,500,323.50000381469727,518.1818181818181,325.0000047683716C536.3636363636364,326.5000057220459,554.5454545454546,327.5,563.6363636363636,327.99999713897705L572.7272727272727,328.4999942779541" style="fill: none; stroke: #b2182b; stroke-width: 8; stroke-linecap: round;"></path></g></g><path class="foreground" d="" style="display: none; fill: none;"></path></g><g transform="translate(0,0)"><path class="background" d="M0,0h600v450h-600Z" style="fill: none;"></path><g><g class="mark-line role-mark concat_1_layer_0_marks"><path d="M27.272727272727252,289.4999885559082L36.363636363636346,289.7499895095825C45.45454545454544,289.99999046325684,63.63636363636362,290.49999237060547,81.8181818181818,291.49999618530273C99.99999999999999,292.5,118.18181818181817,294.0000057220459,136.36363636363635,296.00000858306885C154.54545454545453,298.0000114440918,172.72727272727272,300.5000114440918,190.90909090909088,303.0000114440918C209.0909090909091,305.5000114440918,227.27272727272725,308.0000114440918,245.4545454545454,311.00000858306885C263.6363636363636,314.0000057220459,281.8181818181818,317.5,300,320.74999809265137C318.1818181818182,323.99999618530273,336.3636363636363,326.99999809265137,354.5454545454545,330C372.7272727272727,333.00000190734863,390.9090909090908,336.00000381469727,409.09090909090907,338.00000190734863C427.27272727272725,340,445.45454545454544,340.9999942779541,463.6363636363637,342.4999952316284C481.8181818181818,343.99999618530273,500,346.00000381469727,518.1818181818181,347.00000762939453C536.3636363636364,348.0000114440918,554.5454545454546,348.0000114440918,563.6363636363636,348.0000114440918L572.7272727272727,348.0000114440918" style="fill: none; stroke: #ef8a62; stroke-width: 8; stroke-linecap: round;"></path></g></g><path class="foreground" d="" style="display: none; fill: none;"></path></g><g transform="translate(0,0)"><path class="background" d="M0,0h600v450h-600Z" style="fill: none;"></path><g><g class="mark-line role-mark concat_1_layer_0_marks"><path d="M27.272727272727252,320.9999942779541L36.363636363636346,320.9999942779541C45.45454545454544,320.9999942779541,63.63636363636362,320.9999942779541,81.8181818181818,321.2499952316284C99.99999999999999,321.49999618530273,118.18181818181817,321.99999809265137,136.36363636363635,322.99999713897705C154.54545454545453,323.99999618530273,172.72727272727272,325.49999237060547,190.90909090909088,326.9999933242798C209.0909090909091,328.4999942779541,227.27272727272725,330,245.4545454545454,331.75000190734863C263.6363636363636,333.50000381469727,281.8181818181818,335.50000190734863,300,338.25000286102295C318.1818181818182,341.00000381469727,336.3636363636363,344.50000762939453,354.5454545454545,347.50000953674316C372.7272727272727,350.5000114440918,390.9090909090908,353.0000114440918,409.09090909090907,355.00000953674316C427.27272727272725,357.00000762939453,445.45454545454544,358.50000381469727,463.6363636363637,360.18000190734864C481.8181818181818,361.85999999999996,500,363.71999999999997,518.1818181818181,364.65000000000003C536.3636363636364,365.58,554.5454545454546,365.58,563.6363636363636,365.58L572.7272727272727,365.58" style="fill: none; stroke: #fddbc7; stroke-width: 8; stroke-linecap: round;"></path></g></g><path class="foreground" d="" style="display: none; fill: none;"></path></g><g transform="translate(0,0)"><path class="background" d="M0,0h600v450h-600Z" style="fill: none;"></path><g><g class="mark-line role-mark concat_1_layer_0_marks"><path d="M27.272727272727252,339.0000057220459L36.363636363636346,339.0000057220459C45.45454545454544,339.0000057220459,63.63636363636362,339.0000057220459,81.8181818181818,339.0000057220459C99.99999999999999,339.0000057220459,118.18181818181817,339.0000057220459,136.36363636363635,339.2500066757202C154.54545454545453,339.50000762939453,172.72727272727272,340.00000953674316,190.90909090909088,341.00000858306885C209.0909090909091,342.00000762939453,227.27272727272725,343.50000381469727,245.4545454545454,344.75000381469727C263.6363636363636,346.00000381469727,281.8181818181818,347.00000762939453,300,349.2500066757202C318.1818181818182,351.5000057220459,336.3636363636363,355,354.5454545454545,357.4999976158142C372.7272727272727,359.9999952316284,390.9090909090908,361.49999618530273,409.09090909090907,362.99999713897705C427.27272727272725,364.49999809265137,445.45454545454544,365.9999990463257,463.6363636363637,367.6499995231629C481.8181818181818,369.3,500,371.09999999999997,518.1818181818181,372C536.3636363636364,372.8999999999999,554.5454545454546,372.8999999999999,563.6363636363636,372.90000000000003L572.7272727272727,372.9" style="fill: none; stroke: #e2e0d3; stroke-width: 8; stroke-linecap: round;"></path></g></g><path class="foreground" d="" style="display: none; fill: none;"></path></g><g transform="translate(0,0)"><path class="background" d="M0,0h600v450h-600Z" style="fill: none;"></path><g><g class="mark-line role-mark concat_1_layer_0_marks"><path d="M27.272727272727252,349.4999885559082L36.363636363636346,349.4999885559082C45.45454545454544,349.4999885559082,63.63636363636362,349.4999885559082,81.8181818181818,349.99999046325684C99.99999999999999,350.49999237060547,118.18181818181817,351.49999618530273,136.36363636363635,352.5C154.54545454545453,353.50000381469727,172.72727272727272,354.50000762939453,190.90909090909088,355.5000066757202C209.0909090909091,356.5000057220459,227.27272727272725,357.5,245.4545454545454,358.7499976158142C263.6363636363636,359.9999952316284,281.8181818181818,361.49999618530273,300,363.7499976158142C318.1818181818182,365.9999990463257,336.3636363636363,369.0000009536743,354.5454545454545,371.2500023841858C372.7272727272727,373.50000381469727,390.9090909090908,375.0000047683716,409.09090909090907,376.2500047683716C427.27272727272725,377.5000047683716,445.45454545454544,378.50000381469727,463.6363636363637,379.85500286102297C481.8181818181818,381.21000190734867,500,382.92000095367433,518.1818181818181,383.7750004768372C536.3636363636364,384.62999999999994,554.5454545454546,384.62999999999994,563.6363636363636,384.63000000000005L572.7272727272727,384.63" style="fill: none; stroke: #d1e5f0; stroke-width: 8; stroke-linecap: round;"></path></g></g><path class="foreground" d="" style="display: none; fill: none;"></path></g><g transform="translate(0,0)"><path class="background" d="M0,0h600v450h-600Z" style="fill: none;"></path><g><g class="mark-line role-mark concat_1_layer_0_marks"><path d="M27.272727272727252,361.5000057220459L36.363636363636346,361.00000381469727C45.45454545454544,360.50000190734863,63.63636363636362,359.49999809265137,81.8181818181818,358.99999618530273C99.99999999999999,358.4999942779541,118.18181818181817,358.4999942779541,136.36363636363635,358.99999618530273C154.54545454545453,359.49999809265137,172.72727272727272,360.50000190734863,190.90909090909088,361.75000190734863C209.0909090909091,363.00000190734863,227.27272727272725,364.49999809265137,245.4545454545454,366.2499976158142C263.6363636363636,367.99999713897705,281.8181818181818,370,300,371.5000009536743C318.1818181818182,373.00000190734863,336.3636363636363,374.0000009536743,354.5454545454545,375.49999952316284C372.7272727272727,376.99999809265137,390.9090909090908,378.99999618530273,409.09090909090907,380.49999713897705C427.27272727272725,381.99999809265137,445.45454545454544,383.00000190734863,463.6363636363637,384.337502861023C481.8181818181818,385.6750038146973,500,387.3500019073487,518.1818181818181,388.1875009536743C536.3636363636364,389.02500000000003,554.5454545454546,389.02500000000003,563.6363636363636,389.02500000000003L572.7272727272727,389.02500000000003" style="fill: none; stroke: #67a9cf; stroke-width: 8; stroke-linecap: round;"></path></g></g><path class="foreground" d="" style="display: none; fill: none;"></path></g><g transform="translate(0,0)"><path class="background" d="M0,0h600v450h-600Z" style="fill: none;"></path><g><g class="mark-line role-mark concat_1_layer_0_marks"><path d="M27.272727272727252,372.00000286102295L36.363636363636346,372.2500014305115C45.45454545454544,372.5,63.63636363636362,372.99999713897705,81.8181818181818,373.4999966621399C99.99999999999999,373.99999618530273,118.18181818181817,374.49999809265137,136.36363636363635,375.2499985694885C154.54545454545453,375.9999990463257,172.72727272727272,376.99999809265137,190.90909090909088,377.7499985694885C209.0909090909091,378.4999990463257,227.27272727272725,379.0000009536743,245.4545454545454,379.50000047683716C263.6363636363636,380,281.8181818181818,380.49999713897705,300,381.9999957084656C318.1818181818182,383.4999942779541,336.3636363636363,385.9999942779541,354.5454545454545,387.74999618530273C372.7272727272727,389.49999809265137,390.9090909090908,390.50000190734863,409.09090909090907,391.00000381469727C427.27272727272725,391.5000057220459,445.45454545454544,391.5000057220459,463.6363636363637,392.30750476837164C481.8181818181818,393.1150038146973,500,394.73000190734865,518.1818181818181,395.5375009536744C536.3636363636364,396.345,554.5454545454546,396.345,563.6363636363636,396.345L572.7272727272727,396.345" style="fill: none; stroke: #2166ac; stroke-width: 8; stroke-linecap: round;"></path></g></g><path class="foreground" d="" style="display: none; fill: none;"></path></g></g><g class="mark-text role-mark concat_1_layer_1_marks"><text text-anchor="middle" transform="translate(300,-1)" style="font-family: sans-serif; font-size: 11.5px; font-weight: bold; fill: black; opacity: 0.09;">______________________________________________________________________________________________</text></g><g class="mark-group role-title"><g transform="translate(-2.887245871803998,-102)"><path class="background" d="M0,0h0v0h0Z" style="pointer-events: none; fill: none;"></path><g><g class="mark-text role-title-text" style="pointer-events: none;"><text text-anchor="start" transform="translate(0,28)" style="font-family: Lato; font-size: 36px; font-weight: normal; fill: #000; opacity: 1;">Homeowner Income Devoted to Housing</text></g></g><path class="foreground" d="" style="pointer-events: none; display: none; fill: none;"></path></g></g></g><path class="foreground" d="" style="display: none; fill: none;"></path></g></g><g class="mark-group role-legend"><g transform="translate(1250,0)"><path class="background" d="M0,0h276v232h-276Z" style="pointer-events: none; fill: none;"></path><g><g class="mark-group role-legend-entry"><g transform="translate(0,31)"><path class="background" d="M0,0h0v0h0Z" style="pointer-events: none; fill: none;"></path><g><g class="mark-group role-scope"><g transform="translate(0,0)"><path class="background" d="M0,0h202.9498748779297v27h-202.9498748779297Z" style="pointer-events: none; fill: none; opacity: 1;"></path><g><g class="mark-symbol role-legend-symbol" style="pointer-events: none;"><path transform="translate(14,14)" d="M-10,0L10,0" style="fill: none; stroke: #b2182b; stroke-width: 8; opacity: 1;"></path></g><g class="mark-text role-legend-label" style="pointer-events: none;"><text text-anchor="start" transform="translate(32,22)" style="font-family: Lato; font-size: 26px; fill: #000; fill-opacity: 0.85; opacity: 1;">More than 200</text></g></g><path class="foreground" d="" style="pointer-events: none; display: none; fill: none;"></path></g><g transform="translate(0,29)"><path class="background" d="M0,0h202.9498748779297v27h-202.9498748779297Z" style="pointer-events: none; fill: none; opacity: 1;"></path><g><g class="mark-symbol role-legend-symbol" style="pointer-events: none;"><path transform="translate(14,14)" d="M-10,0L10,0" style="fill: none; stroke: #ef8a62; stroke-width: 8; opacity: 1;"></path></g><g class="mark-text role-legend-label" style="pointer-events: none;"><text text-anchor="start" transform="translate(32,22)" style="font-family: Lato; font-size: 26px; fill: #000; fill-opacity: 0.85; opacity: 1;">75 to 200</text></g></g><path class="foreground" d="" style="pointer-events: none; display: none; fill: none;"></path></g><g transform="translate(0,58)"><path class="background" d="M0,0h202.9498748779297v27h-202.9498748779297Z" style="pointer-events: none; fill: none; opacity: 1;"></path><g><g class="mark-symbol role-legend-symbol" style="pointer-events: none;"><path transform="translate(14,14)" d="M-10,0L10,0" style="fill: none; stroke: #fddbc7; stroke-width: 8; opacity: 1;"></path></g><g class="mark-text role-legend-label" style="pointer-events: none;"><text text-anchor="start" transform="translate(32,22)" style="font-family: Lato; font-size: 26px; fill: #000; fill-opacity: 0.85; opacity: 1;">30 to 75</text></g></g><path class="foreground" d="" style="pointer-events: none; display: none; fill: none;"></path></g><g transform="translate(0,87)"><path class="background" d="M0,0h202.9498748779297v27h-202.9498748779297Z" style="pointer-events: none; fill: none; opacity: 1;"></path><g><g class="mark-symbol role-legend-symbol" style="pointer-events: none;"><path transform="translate(14,14)" d="M-10,0L10,0" style="fill: none; stroke: #e2e0d3; stroke-width: 8; opacity: 1;"></path></g><g class="mark-text role-legend-label" style="pointer-events: none;"><text text-anchor="start" transform="translate(32,22)" style="font-family: Lato; font-size: 26px; fill: #000; fill-opacity: 0.85; opacity: 1;">20 to 30</text></g></g><path class="foreground" d="" style="pointer-events: none; display: none; fill: none;"></path></g><g transform="translate(0,116)"><path class="background" d="M0,0h202.9498748779297v27h-202.9498748779297Z" style="pointer-events: none; fill: none; opacity: 1;"></path><g><g class="mark-symbol role-legend-symbol" style="pointer-events: none;"><path transform="translate(14,14)" d="M-10,0L10,0" style="fill: none; stroke: #d1e5f0; stroke-width: 8; opacity: 1;"></path></g><g class="mark-text role-legend-label" style="pointer-events: none;"><text text-anchor="start" transform="translate(32,22)" style="font-family: Lato; font-size: 26px; fill: #000; fill-opacity: 0.85; opacity: 1;">10 to 20</text></g></g><path class="foreground" d="" style="pointer-events: none; display: none; fill: none;"></path></g><g transform="translate(0,145)"><path class="background" d="M0,0h202.9498748779297v27h-202.9498748779297Z" style="pointer-events: none; fill: none; opacity: 1;"></path><g><g class="mark-symbol role-legend-symbol" style="pointer-events: none;"><path transform="translate(14,14)" d="M-10,0L10,0" style="fill: none; stroke: #67a9cf; stroke-width: 8; opacity: 1;"></path></g><g class="mark-text role-legend-label" style="pointer-events: none;"><text text-anchor="start" transform="translate(32,22)" style="font-family: Lato; font-size: 26px; fill: #000; fill-opacity: 0.85; opacity: 1;">5 to 10</text></g></g><path class="foreground" d="" style="pointer-events: none; display: none; fill: none;"></path></g><g transform="translate(0,174)"><path class="background" d="M0,0h202.9498748779297v27h-202.9498748779297Z" style="pointer-events: none; fill: none; opacity: 1;"></path><g><g class="mark-symbol role-legend-symbol" style="pointer-events: none;"><path transform="translate(14,14)" d="M-10,0L10,0" style="fill: none; stroke: #2166ac; stroke-width: 8; opacity: 1;"></path></g><g class="mark-text role-legend-label" style="pointer-events: none;"><text text-anchor="start" transform="translate(32,22)" style="font-family: Lato; font-size: 26px; fill: #000; fill-opacity: 0.85; opacity: 1;">Less than 5</text></g></g><path class="foreground" d="" style="pointer-events: none; display: none; fill: none;"></path></g></g></g><path class="foreground" d="" style="pointer-events: none; display: none; fill: none;"></path></g></g><g class="mark-text role-legend-title" style="pointer-events: none;"><text text-anchor="start" transform="translate(0,21)" style="font-family: Lato; font-size: 26px; font-weight: bold; fill: #000; fill-opacity: 0.85; opacity: 1;">Housing Units / sq. mile</text></g></g><path class="foreground" d="" style="pointer-events: none; display: none; fill: none;"></path></g></g></g><path class="foreground" d="" style="display: none; fill: none;"></path></g></g></g></svg>