<svg class="marks" width="1523" height="567" viewBox="0 0 1523 567" version="1.1" xmlns="http://www.w3.org/2000/svg" xmlns:xlink="http://www.w3.org/1999/xlink"><rect width="1523" height="567" style="fill: white;"></rect><g transform="translate(43,66)"><g class="mark-group role-frame root"><g transform="translate(0,0)"><path class="background" d="M0,0h0v450h0Z" style="fill: none;"></path><g><g class="mark-group role-scope concat_0_group"><g transform="translate(0,0)"><path class="background" d="M0.5,0.5h600v450h-600Z" style="fill: none; stroke: #ddd; stroke-opacity: 0;"></path><g><g class="mark-group role-axis"><g transform="translate(0.5,0.5)"><path class="background" d="M0,0h0v0h0Z" style="pointer-events: none; fill: none;"></path><g><g class="mark-rule role-axis-grid" style="pointer-events: none;"><line transform="translate(0,375)" x2="600" y2="0" style="fill: none; stroke: #ddd; stroke-opacity: 1; stroke-width: 1; opacity: 1;"></line><line transform="translate(0,300)" x2="600" y2="0" style="fill: none; stroke: #ddd; stroke-opacity: 1; stroke-width: 1; opacity: 1;"></line><line transform="translate(0,225)" x2="600" y2="0" style="fill: none; stroke: #ddd; stroke-opacity: 1; stroke-width: 1; opacity: 1;"></line><line transform="translate(0,150)" x2="600" y2="0" style="fill: none; stroke: #ddd; stroke-opacity: 1; stroke-width: 1; opacity: 1;"></line><line transform="translate(0,75)" x2="600" y2="0" style="fill: none; stroke: #ddd; stroke-opacity: 1; stroke-width: 1; opacity: 1;"></line></g></g><path class="foreground" d="" style="pointer-events: none; display: none; fill: none;"></path></g></g><g class="mark-group role-axis"><g transform="translate(0.5,450.5)"><path class="background" d="M0,0h0v0h0Z" style="pointer-events: none; fill: none;"></path><g><g class="mark-rule role-axis-tick" style="pointer-events: none;"><line transform="translate(27,0)" x2="0" y2="10" style="fill: none; stroke: #888; stroke-width: 1; opacity: 1;"></line><line transform="translate(573,0)" x2="0" y2="10" style="fill: none; stroke: #888; stroke-width: 1; opacity: 1;"></line></g><g class="mark-text role-axis-label" style="pointer-events: none;"><text text-anchor="middle" transform="translate(27.272727272727252,41)" style="font-family: Lato; font-size: 26px; fill: #000; fill-opacity: 0.8; opacity: 1;">2008</text><text text-anchor="middle" transform="translate(572.7272727272727,41)" style="font-family: Lato; font-size: 26px; fill: #000; fill-opacity: 0.8; opacity: 1;">2018</text></g><g class="mark-rule role-axis-domain" style="pointer-events: none;"><line transform="translate(0,0)" x2="600" y2="0" style="fill: none; stroke: #888; stroke-width: 1; opacity: 1;"></line></g></g><path class="foreground" d="" style="pointer-events: none; display: none; fill: none;"></path></g></g><g class="mark-group role-axis"><g transform="translate(0.5,0.5)"><path class="background" d="M0,0h0v0h0Z" style="pointer-events: none; fill: none;"></path><g><g class="mark-text role-axis-label" style="pointer-events: none;"><text text-anchor="start" transform="translate(-35,383)" style="font-family: Lato; font-size: 26px; fill: #000; fill-opacity: 0.8; opacity: 1;">15</text><text text-anchor="start" transform="translate(-35,308.00000000000006)" style="font-family: Lato; font-size: 26px; fill: #000; fill-opacity: 0.8; opacity: 1;">20</text><text text-anchor="start" transform="translate(-35,233)" style="font-family: Lato; font-size: 26px; fill: #000; fill-opacity: 0.8; opacity: 1;">25</text><text text-anchor="start" transform="translate(-35,158.00000000000003)" style="font-family: Lato; font-size: 26px; fill: #000; fill-opacity: 0.8; opacity: 1;">30</text><text text-anchor="start" transform="translate(-35,82.99999999999999)" style="font-family: Lato; font-size: 26px; fill: #000; fill-opacity: 0.8; opacity: 1;">35</text></g><g class="mark-rule role-axis-domain" style="pointer-events: none;"><line transform="translate(0,450)" x2="0" y2="-450" style="fill: none; stroke: #888; stroke-width: 0; opacity: 1;"></line></g><g class="mark-text role-axis-title" style="pointer-events: none;"><text text-anchor="start" transform="translate(-35,-40)" style="font-family: Lato; font-size: 26px; font-weight: normal; fill: #000; fill-opacity: 0.8; opacity: 1;">Counties grouped by population density</text></g></g><path class="foreground" d="" style="pointer-events: none; display: none; fill: none;"></path></g></g><g class="mark-group role-scope concat_0_layer_0_pathgroup"><g transform="translate(0,0)"><path class="background" d="M0,0h600v450h-600Z" style="fill: none;"></path><g><g class="mark-line role-mark concat_0_layer_0_marks"><path d="M27.272727272727252,101.99998855590833L36.363636363636346,100.74998855590832C45.45454545454544,99.49998855590832,63.63636363636362,96.99998855590832,81.8181818181818,94.49998855590832C99.99999999999999,91.99998855590832,118.18181818181817,89.4999885559083,136.36363636363635,87.99999237060553C154.54545454545453,86.49999618530275,172.72727272727272,86.00000381469722,190.90909090909088,86.00000381469722C209.0909090909091,86.00000381469722,227.27272727272725,86.49999618530275,245.4545454545454,88.49999427795414C263.6363636363636,90.49999237060553,281.8181818181818,93.99999618530278,300,96.49999618530278C318.1818181818182,98.99999618530278,336.3636363636363,100.49999237060554,354.5454545454545,101.74999237060554C372.7272727272727,102.99999237060554,390.9090909090908,103.99999618530275,409.09090909090907,105.50000190734865C427.27272727272725,107.00000762939455,445.45454545454544,109.00001525878913,463.6363636363637,111.00001335144053C481.8181818181818,113.00001144409191,500,115.00000000000011,518.1818181818181,116.99999809265148C536.3636363636364,118.9999961853028,554.5454545454546,121.00000381469728,563.6363636363636,122.00000762939453L572.7272727272727,123.00001144409177" style="fill: none; stroke: #b2182b; stroke-width: 8; stroke-linecap: round;"></path></g></g><path class="foreground" d="" style="display: none; fill: none;"></path></g><g transform="translate(0,0)"><path class="background" d="M0,0h600v450h-600Z" style="fill: none;"></path><g><g class="mark-line role-mark concat_0_layer_0_marks"><path d="M27.272727272727252,127.5L36.363636363636346,125.50000190734862C45.45454545454544,123.50000381469722,63.63636363636362,119.50000762939446,81.8181818181818,116.75001144409174C99.99999999999999,114.00001525878902,118.18181818181817,112.50001907348637,136.36363636363635,111.75002098083503C154.54545454545453,111.00002288818371,172.72727272727272,111.00002288818371,190.90909090909088,111.75002098083503C209.0909090909091,112.50001907348637,227.27272727272725,114.00001525878902,245.4545454545454,115.50001144409175C263.6363636363636,117.00000762939447,281.8181818181818,118.50000381469725,300,119.75000381469727C318.1818181818182,121.00000381469727,336.3636363636363,122.00000762939453,354.5454545454545,122.25000858306883C372.7272727272727,122.50000953674315,390.9090909090908,122.00000762939453,409.09090909090907,122.7500057220459C427.27272727272725,123.50000381469727,445.45454545454544,125.50000190734863,463.6363636363637,127.2499990463257C481.8181818181818,128.99999618530276,500,130.49999237060553,518.1818181818181,130.74999332427984C536.3636363636364,130.9999942779542,554.5454545454546,130.00000000000003,563.6363636363636,129.50000286102298L572.7272727272727,129.00000572204593" style="fill: none; stroke: #ef8a62; stroke-width: 8; stroke-linecap: round;"></path></g></g><path class="foreground" d="" style="display: none; fill: none;"></path></g><g transform="translate(0,0)"><path class="background" d="M0,0h600v450h-600Z" style="fill: none;"></path><g><g class="mark-line role-mark concat_0_layer_0_marks"><path d="M27.272727272727252,135.00000000000003L36.363636363636346,132.75000095367434C45.45454545454544,130.50000190734866,63.63636363636362,126.00000381469727,81.8181818181818,122.5C99.99999999999999,118.99999618530273,118.18181818181817,116.49998664855957,136.36363636363635,113.24998378753664C154.54545454545453,109.99998092651371,172.72727272727272,105.99998474121101,190.90909090909088,104.74998474121101C209.0909090909091,103.49998474121101,227.27272727272725,104.99998092651371,245.4545454545454,106.49998664855961C263.6363636363636,107.99999237060551,281.8181818181818,109.5000076293946,300,111.50001525878916C318.1818181818182,113.50002288818371,336.3636363636363,116.00002288818371,354.5454545454545,117.75002002716072C372.7272727272727,119.50001716613777,390.9090909090908,120.50001144409184,409.09090909090907,122.25000858306886C427.27272727272725,124.0000057220459,445.45454545454544,126.50000572204591,463.6363636363637,128.7125047683716C481.8181818181818,130.9250038146973,500,132.85000190734866,518.1818181818181,134.77500095367432C536.3636363636364,136.70000000000002,554.5454545454546,138.625,563.6363636363636,139.5875L572.7272727272727,140.55" style="fill: none; stroke: #fddbc7; stroke-width: 8; stroke-linecap: round;"></path></g></g><path class="foreground" d="" style="display: none; fill: none;"></path></g><g transform="translate(0,0)"><path class="background" d="M0,0h600v450h-600Z" style="fill: none;"></path><g><g class="mark-line role-mark concat_0_layer_0_marks"><path d="M27.272727272727252,129.00000572204593L36.363636363636346,128.7500047683716C45.45454545454544,128.5000038146973,63.63636363636362,128.00000190734863,81.8181818181818,125.9999990463257C99.99999999999999,123.99999618530278,118.18181818181817,120.49999237060554,136.36363636363635,118.24998855590827C154.54545454545453,115.99998474121101,172.72727272727272,114.99998092651371,190.90909090909088,115.49998283386232C209.0909090909091,115.99998474121094,227.27272727272725,117.99999237060548,245.4545454545454,119.74999427795414C263.6363636363636,121.49999618530278,281.8181818181818,122.99999237060551,300,124.99999046325689C318.1818181818182,126.99998855590827,336.3636363636363,129.4999885559083,354.5454545454545,132.2499895095826C372.7272727272727,134.99999046325686,390.9090909090908,137.99999237060547,409.09090909090907,139.49999332427979C427.27272727272725,140.99999427795407,445.45454545454544,140.99999427795407,463.6363636363637,141.9374952316284C481.8181818181818,142.8749961853027,500,144.74999809265137,518.1818181818181,146.62499904632568C536.3636363636364,148.5,554.5454545454546,150.37499999999997,563.6363636363636,151.31249999999997L572.7272727272727,152.24999999999997" style="fill: none; stroke: #e2e0d3; stroke-width: 8; stroke-linecap: round;"></path></g></g><path class="foreground" d="" style="display: none; fill: none;"></path></g><g transform="translate(0,0)"><path class="background" d="M0,0h600v450h-600Z" style="fill: none;"></path><g><g class="mark-line role-mark concat_0_layer_0_marks"><path d="M27.272727272727252,140.99999427795407L36.363636363636346,139.49999332427979C45.45454545454544,137.99999237060547,63.63636363636362,134.99999046325686,81.8181818181818,132.99999237060553C99.99999999999999,130.9999942779542,118.18181818181817,130.00000000000003,136.36363636363635,127.75000572204596C154.54545454545453,125.50001144409185,172.72727272727272,122.00001716613777,190.90909090909088,120.50001621246345C209.0909090909091,119.00001525878913,227.27272727272725,119.50000762939459,245.4545454545454,121.00000381469731C263.6363636363636,122.50000000000001,281.8181818181818,125,300,127.75000095367432C318.1818181818182,130.50000190734863,336.3636363636363,133.50000381469727,354.5454545454545,135.2500057220459C372.7272727272727,137.00000762939453,390.9090909090908,137.50000953674314,409.09090909090907,138.50000858306882C427.27272727272725,139.5000076293945,445.45454545454544,141.00000381469727,463.6363636363637,142.68500190734864C481.8181818181818,144.37,500,146.23999999999998,518.1818181818181,148.10999999999999C536.3636363636364,149.98,554.5454545454546,151.85,563.6363636363636,152.785L572.7272727272727,153.72" style="fill: none; stroke: #d1e5f0; stroke-width: 8; stroke-linecap: round;"></path></g></g><path class="foreground" d="" style="display: none; fill: none;"></path></g><g transform="translate(0,0)"><path class="background" d="M0,0h600v450h-600Z" style="fill: none;"></path><g><g class="mark-line role-mark concat_0_layer_0_marks"><path d="M27.272727272727252,184.49998855590823L36.363636363636346,182.24998950958252C45.45454545454544,179.99999046325684,63.63636363636362,175.49999237060547,81.8181818181818,171.24999523162842C99.99999999999999,166.99999809265134,118.18181818181817,163.00000190734863,136.36363636363635,159.50000286102295C154.54545454545453,156.00000381469727,172.72727272727272,153.00000190734866,190.90909090909088,152.2499990463257C209.0909090909091,151.49999618530276,227.27272727272725,152.9999923706055,245.4545454545454,152.49999046325686C263.6363636363636,151.99998855590826,281.8181818181818,149.49998855590826,300,150.4999923706055C318.1818181818182,151.49999618530276,336.3636363636363,156.00000381469724,354.5454545454545,158.2500076293945C372.7272727272727,160.50001144409174,390.9090909090908,160.50001144409174,409.09090909090907,162.0000076293945C427.27272727272725,163.50000381469724,445.45454545454544,166.49999618530273,463.6363636363637,168.8799942779541C481.8181818181818,171.2599923706055,500,173.01999618530274,518.1818181818181,174.77999809265137C536.3636363636364,176.54000000000005,554.5454545454546,178.30000000000004,563.6363636363636,179.17999999999998L572.7272727272727,180.06" style="fill: none; stroke: #67a9cf; stroke-width: 8; stroke-linecap: round;"></path></g></g><path class="foreground" d="" style="display: none; fill: none;"></path></g><g transform="translate(0,0)"><path class="background" d="M0,0h600v450h-600Z" style="fill: none;"></path><g><g class="mark-line role-mark concat_0_layer_0_marks"><path d="M27.272727272727252,226.50000572204587L36.363636363636346,225.5000066757202C45.45454545454544,224.5000076293945,63.63636363636362,222.50000953674308,81.8181818181818,219.25000667572013C99.99999999999999,216.00000381469724,118.18181818181817,211.49999618530273,136.36363636363635,208.99999618530276C154.54545454545453,206.49999618530273,172.72727272727272,206.00000381469724,190.90909090909088,204.2500066757202C209.0909090909091,202.50000953674308,227.27272727272725,199.5000076293945,245.4545454545454,198.0000066757202C263.6363636363636,196.50000572204587,281.8181818181818,196.50000572204587,300,197.50000476837155C318.1818181818182,198.50000381469724,336.3636363636363,200.5000019073486,354.5454545454545,202.24999904632568C372.7272727272727,203.99999618530273,390.9090909090908,205.4999923706055,409.09090909090907,207.49999046325686C427.27272727272725,209.49998855590823,445.45454545454544,211.99998855590823,463.6363636363637,214.03749046325686C481.8181818181818,216.0749923706055,500,217.64999618530274,518.1818181818181,219.2249980926514C536.3636363636364,220.79999999999998,554.5454545454546,222.375,563.6363636363636,223.16250000000002L572.7272727272727,223.95000000000002" style="fill: none; stroke: #2166ac; stroke-width: 8; stroke-linecap: round;"></path></g></g><path class="foreground" d="" style="display: none; fill: none;"></path></g></g><g class="mark-text role-mark concat_0_layer_1_marks"><text text-anchor="middle" transform="translate(48.27272727272725,8)" style="font-family: lato; font-size: 26px; fill: black; opacity: 0.8;">40% of income</text></g><g class="mark-text role-mark concat_0_layer_2_marks"><text text-anchor="middle" transform="translate(369.5454545454545,-1)" style="font-family: sans-serif; font-size: 11.5px; font-weight: bold; fill: black; opacity: 0.09;">________________________________________________________________________</text></g></g><path class="foreground" d="" style="display: none; fill: none;"></path></g></g><g class="mark-group role-scope concat_1_group"><g transform="translate(626,0)"><path class="background" d="M0.5,0.5h600v450h-600Z" style="fill: none; stroke: #ddd; stroke-opacity: 0;"></path><g><g class="mark-group role-axis"><g transform="translate(0.5,0.5)"><path class="background" d="M0,0h0v0h0Z" style="pointer-events: none; fill: none;"></path><g><g class="mark-rule role-axis-grid" style="pointer-events: none;"><line transform="translate(0,375)" x2="600" y2="0" style="fill: none; stroke: #ddd; stroke-opacity: 1; stroke-width: 1; opacity: 1;"></line><line transform="translate(0,300)" x2="600" y2="0" style="fill: none; stroke: #ddd; stroke-opacity: 1; stroke-width: 1; opacity: 1;"></line><line transform="translate(0,225)" x2="600" y2="0" style="fill: none; stroke: #ddd; stroke-opacity: 1; stroke-width: 1; opacity: 1;"></line><line transform="translate(0,150)" x2="600" y2="0" style="fill: none; stroke: #ddd; stroke-opacity: 1; stroke-width: 1; opacity: 1;"></line><line transform="translate(0,75)" x2="600" y2="0" style="fill: none; stroke: #ddd; stroke-opacity: 1; stroke-width: 1; opacity: 1;"></line></g></g><path class="foreground" d="" style="pointer-events: none; display: none; fill: none;"></path></g></g><g class="mark-group role-axis"><g transform="translate(0.5,450.5)"><path class="background" d="M0,0h0v0h0Z" style="pointer-events: none; fill: none;"></path><g><g class="mark-rule role-axis-tick" style="pointer-events: none;"><line transform="translate(27,0)" x2="0" y2="10" style="fill: none; stroke: #888; stroke-width: 1; opacity: 1;"></line><line transform="translate(573,0)" x2="0" y2="10" style="fill: none; stroke: #888; stroke-width: 1; opacity: 1;"></line></g><g class="mark-text role-axis-label" style="pointer-events: none;"><text text-anchor="middle" transform="translate(27.272727272727252,41)" style="font-family: Lato; font-size: 26px; fill: #000; fill-opacity: 0.8; opacity: 1;">2008</text><text text-anchor="middle" transform="translate(572.7272727272727,41)" style="font-family: Lato; font-size: 26px; fill: #000; fill-opacity: 0.8; opacity: 1;">2018</text></g><g class="mark-rule role-axis-domain" style="pointer-events: none;"><line transform="translate(0,0)" x2="600" y2="0" style="fill: none; stroke: #888; stroke-width: 1; opacity: 1;"></line></g></g><path class="foreground" d="" style="pointer-events: none; display: none; fill: none;"></path></g></g><g class="mark-group role-axis"><g transform="translate(0.5,0.5)"><path class="background" d="M0,0h0v0h0Z" style="pointer-events: none; fill: none;"></path><g><g class="mark-text role-axis-label" style="pointer-events: none;"><text text-anchor="start" transform="translate(0,383)" style="font-family: Lato; font-size: 26px; fill: #000; fill-opacity: 0; opacity: 1;">15</text><text text-anchor="start" transform="translate(0,308.00000000000006)" style="font-family: Lato; font-size: 26px; fill: #000; fill-opacity: 0; opacity: 1;">20</text><text text-anchor="start" transform="translate(0,233)" style="font-family: Lato; font-size: 26px; fill: #000; fill-opacity: 0; opacity: 1;">25</text><text text-anchor="start" transform="translate(0,158.00000000000003)" style="font-family: Lato; font-size: 26px; fill: #000; fill-opacity: 0; opacity: 1;">30</text><text text-anchor="start" transform="translate(0,82.99999999999999)" style="font-family: Lato; font-size: 26px; fill: #000; fill-opacity: 0; opacity: 1;">35</text></g><g class="mark-rule role-axis-domain" style="pointer-events: none;"><line transform="translate(0,450)" x2="0" y2="-450" style="fill: none; stroke: #888; stroke-width: 0; opacity: 1;"></line></g><g class="mark-text role-axis-title" style="pointer-events: none;"><text text-anchor="start" transform="translate(-2,-40)" style="font-family: Lato; font-size: 26px; font-weight: normal; fill: #000; fill-opacity: 0.8; opacity: 1;">Counties grouped by population density</text></g></g><path class="foreground" d="" style="pointer-events: none; display: none; fill: none;"></path></g></g><g class="mark-group role-scope concat_1_layer_0_pathgroup"><g transform="translate(0,0)"><path class="background" d="M0,0h600v450h-600Z" style="fill: none;"></path><g><g class="mark-line role-mark concat_1_layer_0_marks"><path d="M27.272727272727252,245.99999427795404L36.363636363636346,246.74999713897702C45.45454545454544,247.49999999999997,63.63636363636362,249.00000572204587,81.8181818181818,250.5000066757202C99.99999999999999,252.00000762939453,118.18181818181817,253.50000381469727,136.36363636363635,256.00000381469727C154.54545454545453,258.50000381469727,172.72727272727272,262.00000762939453,190.90909090909088,265.5000066757202C209.0909090909091,269.0000057220459,227.27272727272725,272.5,245.4545454545454,275.9999990463257C263.6363636363636,279.49999809265137,281.8181818181818,283.00000190734863,300,286.5000009536743C318.1818181818182,290,336.3636363636363,293.4999942779541,354.5454545454545,296.2499952316284C372.7272727272727,298.99999618530273,390.9090909090908,301.00000381469727,409.09090909090907,303.0000066757202C427.27272727272725,305.00000953674316,445.45454545454544,307.00000762939453,463.6363636363637,309.2500066757202C481.8181818181818,311.5000057220459,500,314.0000057220459,518.1818181818181,316.2500047683716C536.3636363636364,318.50000381469727,554.5454545454546,320.50000190734863,563.6363636363636,321.5000009536743L572.7272727272727,322.5" style="fill: none; stroke: #b2182b; stroke-width: 8; stroke-linecap: round;"></path></g></g><path class="foreground" d="" style="display: none; fill: none;"></path></g><g transform="translate(0,0)"><path class="background" d="M0,0h600v450h-600Z" style="fill: none;"></path><g><g class="mark-line role-mark concat_1_layer_0_marks"><path d="M27.272727272727252,280.5000114440918L36.363636363636346,281.00000858306885C45.45454545454544,281.5000057220459,63.63636363636362,282.5,81.8181818181818,283.4999990463257C99.99999999999999,284.49999809265137,118.18181818181817,285.50000190734863,136.36363636363635,286.75000190734863C154.54545454545453,288.00000190734863,172.72727272727272,289.49999809265137,190.90909090909088,292.2499990463257C209.0909090909091,295,227.27272727272725,299.0000057220459,245.4545454545454,302.5000047683716C263.6363636363636,306.00000381469727,281.8181818181818,308.9999961853028,300,312.24999427795416C318.1818181818182,315.4999923706055,336.3636363636363,318.99999618530273,354.5454545454545,322.2499990463257C372.7272727272727,325.50000190734863,390.9090909090908,328.50000381469727,409.09090909090907,330.75000286102295C427.27272727272725,333.00000190734863,445.45454545454544,334.49999809265137,463.6363636363637,335.74999809265137C481.8181818181818,336.99999809265137,500,338.00000190734863,518.1818181818181,338.50000381469727C536.3636363636364,339.0000057220459,554.5454545454546,339.0000057220459,563.6363636363636,339.0000057220459L572.7272727272727,339.0000057220459" style="fill: none; stroke: #ef8a62; stroke-width: 8; stroke-linecap: round;"></path></g></g><path class="foreground" d="" style="display: none; fill: none;"></path></g><g transform="translate(0,0)"><path class="background" d="M0,0h600v450h-600Z" style="fill: none;"></path><g><g class="mark-line role-mark concat_1_layer_0_marks"><path d="M27.272727272727252,311.99998855590826L36.363636363636346,312.2499895095826C45.45454545454544,312.4999904632569,63.63636363636362,312.99999237060547,81.8181818181818,313.4999942779541C99.99999999999999,313.99999618530273,118.18181818181817,314.49999809265137,136.36363636363635,315.9999990463257C154.54545454545453,317.5,172.72727272727272,320,190.90909090909088,322.5C209.0909090909091,325,227.27272727272725,327.5,245.4545454545454,329.7499990463257C263.6363636363636,331.99999809265137,281.8181818181818,333.99999618530273,300,336.74999713897705C318.1818181818182,339.49999809265137,336.3636363636363,343.00000190734863,354.5454545454545,346.00000381469727C372.7272727272727,349.0000057220459,390.9090909090908,351.5000057220459,409.09090909090907,353.50000381469727C427.27272727272725,355.50000190734863,445.45454545454544,356.99999809265137,463.6363636363637,358.787497138977C481.8181818181818,360.5749961853027,500,362.6499980926514,518.1818181818181,364.51749904632567C536.3636363636364,366.385,554.5454545454546,368.045,563.6363636363636,368.875L572.7272727272727,369.705" style="fill: none; stroke: #fddbc7; stroke-width: 8; stroke-linecap: round;"></path></g></g><path class="foreground" d="" style="display: none; fill: none;"></path></g><g transform="translate(0,0)"><path class="background" d="M0,0h600v450h-600Z" style="fill: none;"></path><g><g class="mark-line role-mark concat_1_layer_0_marks"><path d="M27.272727272727252,331.5000057220459L36.363636363636346,332.25000381469727C45.45454545454544,333.00000190734863,63.63636363636362,334.49999809265137,81.8181818181818,335.24999618530273C99.99999999999999,335.9999942779541,118.18181818181817,335.9999942779541,136.36363636363635,336.74999713897705C154.54545454545453,337.5,172.72727272727272,339.0000057220459,190.90909090909088,340.5000066757202C209.0909090909091,342.00000762939453,227.27272727272725,343.50000381469727,245.4545454545454,345.2500009536743C263.6363636363636,346.99999809265137,281.8181818181818,348.99999618530273,300,351.2499952316284C318.1818181818182,353.4999942779541,336.3636363636363,355.9999942779541,354.5454545454545,357.99999475479126C372.7272727272727,359.9999952316284,390.9090909090908,361.49999618530273,409.09090909090907,362.99999713897705C427.27272727272725,364.49999809265137,445.45454545454544,365.9999990463257,463.6363636363637,367.74749952316284C481.8181818181818,369.49499999999995,500,371.48999999999995,518.1818181818181,373.28749999999997C536.3636363636364,375.085,554.5454545454546,376.685,563.6363636363636,377.48499999999996L572.7272727272727,378.285" style="fill: none; stroke: #e2e0d3; stroke-width: 8; stroke-linecap: round;"></path></g></g><path class="foreground" d="" style="display: none; fill: none;"></path></g><g transform="translate(0,0)"><path class="background" d="M0,0h600v450h-600Z" style="fill: none;"></path><g><g class="mark-line role-mark concat_1_layer_0_marks"><path d="M27.272727272727252,349.4999885559082L36.363636363636346,349.4999885559082C45.45454545454544,349.4999885559082,63.63636363636362,349.4999885559082,81.8181818181818,349.99999046325684C99.99999999999999,350.49999237060547,118.18181818181817,351.49999618530273,136.36363636363635,352.74999618530273C154.54545454545453,353.99999618530273,172.72727272727272,355.49999237060547,190.90909090909088,356.49999141693115C209.0909090909091,357.49999046325684,227.27272727272725,357.99999237060547,245.4545454545454,358.99999380111694C263.6363636363636,359.9999952316284,281.8181818181818,361.49999618530273,300,363.4999966621399C318.1818181818182,365.49999713897705,336.3636363636363,367.99999713897705,354.5454545454545,369.9999976158142C372.7272727272727,371.99999809265137,390.9090909090908,373.4999990463257,409.09090909090907,374.7499990463257C427.27272727272725,375.9999990463257,445.45454545454544,376.99999809265137,463.6363636363637,378.4524980926513C481.8181818181818,379.90499809265134,500,381.8099990463257,518.1818181818181,383.5249995231629C536.3636363636364,385.24,554.5454545454546,386.76500000000004,563.6363636363636,387.5275L572.7272727272727,388.29" style="fill: none; stroke: #d1e5f0; stroke-width: 8; stroke-linecap: round;"></path></g></g><path class="foreground" d="" style="display: none; fill: none;"></path></g><g transform="translate(0,0)"><path class="background" d="M0,0h600v450h-600Z" style="fill: none;"></path><g><g class="mark-line role-mark concat_1_layer_0_marks"><path d="M27.272727272727252,362.999997138977L36.363636363636346,362.4999976158142C45.45454545454544,361.99999809265137,63.63636363636362,360.9999990463257,81.8181818181818,360.9999990463257C99.99999999999999,360.9999990463257,118.18181818181817,361.99999809265137,136.36363636363635,362.49999761581415C154.54545454545453,362.999997138977,172.72727272727272,362.999997138977,190.90909090909088,363.9999985694885C209.0909090909091,365,227.27272727272725,367.00000286102295,245.4545454545454,368.7500023841858C263.6363636363636,370.50000190734863,281.8181818181818,371.99999809265137,300,373.24999809265137C318.1818181818182,374.49999809265137,336.3636363636363,375.50000190734863,354.5454545454545,377.00000286102295C372.7272727272727,378.50000381469727,390.9090909090908,380.50000190734863,409.09090909090907,382.00000047683716C427.27272727272725,383.4999990463257,445.45454545454544,384.49999809265137,463.6363636363637,385.9224980926513C481.8181818181818,387.3449980926514,500,389.18999904632574,518.1818181818181,390.8499995231629C536.3636363636364,392.51000000000005,554.5454545454546,393.98500000000007,563.6363636363636,394.7225L572.7272727272727,395.46000000000004" style="fill: none; stroke: #67a9cf; stroke-width: 8; stroke-linecap: round;"></path></g></g><path class="foreground" d="" style="display: none; fill: none;"></path></g><g transform="translate(0,0)"><path class="background" d="M0,0h600v450h-600Z" style="fill: none;"></path><g><g class="mark-line role-mark concat_1_layer_0_marks"><path d="M27.272727272727252,373.4999942779541L36.363636363636346,373.7499952316284C45.45454545454544,373.99999618530273,63.63636363636362,374.49999809265137,81.8181818181818,374.7499990463257C99.99999999999999,375,118.18181818181817,375,136.36363636363635,375C154.54545454545453,375,172.72727272727272,375,190.90909090909088,375.49999952316284C209.0909090909091,375.9999990463257,227.27272727272725,376.99999809265137,245.4545454545454,378.24999809265137C263.6363636363636,379.49999809265137,281.8181818181818,380.9999990463257,300,382.99999952316284C318.1818181818182,385,336.3636363636363,387.5,354.5454545454545,389.0000009536743C372.7272727272727,390.50000190734863,390.9090909090908,391.00000381469727,409.09090909090907,391.2500047683716C427.27272727272725,391.5000057220459,445.45454545454544,391.5000057220459,463.6363636363637,392.39500476837156C481.8181818181818,393.29000381469723,500,395.0800019073486,518.1818181818181,396.69250095367426C536.3636363636364,398.305,554.5454545454546,399.73999999999995,563.6363636363636,400.4575L572.7272727272727,401.17499999999995" style="fill: none; stroke: #2166ac; stroke-width: 8; stroke-linecap: round;"></path></g></g><path class="foreground" d="" style="display: none; fill: none;"></path></g></g><g class="mark-text role-mark concat_1_layer_1_marks"><text text-anchor="middle" transform="translate(300,-1)" style="font-family: sans-serif; font-size: 11.5px; font-weight: bold; fill: black; opacity: 0.09;">______________________________________________________________________________________________</text></g></g><path class="foreground" d="" style="display: none; fill: none;"></path></g></g><g class="mark-group role-legend"><g transform="translate(1250,0)"><path class="background" d="M0,0h225v232h-225Z" style="pointer-events: none; fill: none;"></path><g><g class="mark-group role-legend-entry"><g transform="translate(0,31)"><path class="background" d="M0,0h0v0h0Z" style="pointer-events: none; fill: none;"></path><g><g class="mark-group role-scope"><g transform="translate(0,0)"><path class="background" d="M0,0h218.0298614501953v27h-218.0298614501953Z" style="pointer-events: none; fill: none; opacity: 1;"></path><g><g class="mark-symbol role-legend-symbol" style="pointer-events: none;"><path transform="translate(14,14)" d="M-10,0L10,0" style="fill: none; stroke: #b2182b; stroke-width: 8; opacity: 1;"></path></g><g class="mark-text role-legend-label" style="pointer-events: none;"><text text-anchor="start" transform="translate(32,22)" style="font-family: Lato; font-size: 26px; fill: #000; fill-opacity: 0.85; opacity: 1;">More than 1000</text></g></g><path class="foreground" d="" style="pointer-events: none; display: none; fill: none;"></path></g><g transform="translate(0,29)"><path class="background" d="M0,0h218.0298614501953v27h-218.0298614501953Z" style="pointer-events: none; fill: none; opacity: 1;"></path><g><g class="mark-symbol role-legend-symbol" style="pointer-events: none;"><path transform="translate(14,14)" d="M-10,0L10,0" style="fill: none; stroke: #ef8a62; stroke-width: 8; opacity: 1;"></path></g><g class="mark-text role-legend-label" style="pointer-events: none;"><text text-anchor="start" transform="translate(32,22)" style="font-family: Lato; font-size: 26px; fill: #000; fill-opacity: 0.85; opacity: 1;">250 to 1000</text></g></g><path class="foreground" d="" style="pointer-events: none; display: none; fill: none;"></path></g><g transform="translate(0,58)"><path class="background" d="M0,0h218.0298614501953v27h-218.0298614501953Z" style="pointer-events: none; fill: none; opacity: 1;"></path><g><g class="mark-symbol role-legend-symbol" style="pointer-events: none;"><path transform="translate(14,14)" d="M-10,0L10,0" style="fill: none; stroke: #fddbc7; stroke-width: 8; opacity: 1;"></path></g><g class="mark-text role-legend-label" style="pointer-events: none;"><text text-anchor="start" transform="translate(32,22)" style="font-family: Lato; font-size: 26px; fill: #000; fill-opacity: 0.85; opacity: 1;">100 to 250</text></g></g><path class="foreground" d="" style="pointer-events: none; display: none; fill: none;"></path></g><g transform="translate(0,87)"><path class="background" d="M0,0h218.0298614501953v27h-218.0298614501953Z" style="pointer-events: none; fill: none; opacity: 1;"></path><g><g class="mark-symbol role-legend-symbol" style="pointer-events: none;"><path transform="translate(14,14)" d="M-10,0L10,0" style="fill: none; stroke: #e2e0d3; stroke-width: 8; opacity: 1;"></path></g><g class="mark-text role-legend-label" style="pointer-events: none;"><text text-anchor="start" transform="translate(32,22)" style="font-family: Lato; font-size: 26px; fill: #000; fill-opacity: 0.85; opacity: 1;">50 to 100</text></g></g><path class="foreground" d="" style="pointer-events: none; display: none; fill: none;"></path></g><g transform="translate(0,116)"><path class="background" d="M0,0h218.0298614501953v27h-218.0298614501953Z" style="pointer-events: none; fill: none; opacity: 1;"></path><g><g class="mark-symbol role-legend-symbol" style="pointer-events: none;"><path transform="translate(14,14)" d="M-10,0L10,0" style="fill: none; stroke: #d1e5f0; stroke-width: 8; opacity: 1;"></path></g><g class="mark-text role-legend-label" style="pointer-events: none;"><text text-anchor="start" transform="translate(32,22)" style="font-family: Lato; font-size: 26px; fill: #000; fill-opacity: 0.85; opacity: 1;">25 to 50</text></g></g><path class="foreground" d="" style="pointer-events: none; display: none; fill: none;"></path></g><g transform="translate(0,145)"><path class="background" d="M0,0h218.0298614501953v27h-218.0298614501953Z" style="pointer-events: none; fill: none; opacity: 1;"></path><g><g class="mark-symbol role-legend-symbol" style="pointer-events: none;"><path transform="translate(14,14)" d="M-10,0L10,0" style="fill: none; stroke: #67a9cf; stroke-width: 8; opacity: 1;"></path></g><g class="mark-text role-legend-label" style="pointer-events: none;"><text text-anchor="start" transform="translate(32,22)" style="font-family: Lato; font-size: 26px; fill: #000; fill-opacity: 0.85; opacity: 1;">10 to 25</text></g></g><path class="foreground" d="" style="pointer-events: none; display: none; fill: none;"></path></g><g transform="translate(0,174)"><path class="background" d="M0,0h218.0298614501953v27h-218.0298614501953Z" style="pointer-events: none; fill: none; opacity: 1;"></path><g><g class="mark-symbol role-legend-symbol" style="pointer-events: none;"><path transform="translate(14,14)" d="M-10,0L10,0" style="fill: none; stroke: #2166ac; stroke-width: 8; opacity: 1;"></path></g><g class="mark-text role-legend-label" style="pointer-events: none;"><text text-anchor="start" transform="translate(32,22)" style="font-family: Lato; font-size: 26px; fill: #000; fill-opacity: 0.85; opacity: 1;">Less than 10</text></g></g><path class="foreground" d="" style="pointer-events: none; display: none; fill: none;"></path></g></g></g><path class="foreground" d="" style="pointer-events: none; display: none; fill: none;"></path></g></g><g class="mark-text role-legend-title" style="pointer-events: none;"><text text-anchor="start" transform="translate(0,21)" style="font-family: Lato; font-size: 26px; font-weight: bold; fill: #000; fill-opacity: 0.85; opacity: 1;">Residents / sq. mile</text></g></g><path class="foreground" d="" style="pointer-events: none; display: none; fill: none;"></path></g></g></g><path class="foreground" d="" style="display: none; fill: none;"></path></g></g></g></svg>