<svg class="marks" width="1508" height="567" viewBox="0 0 1508 567" version="1.1" xmlns="http://www.w3.org/2000/svg" xmlns:xlink="http://www.w3.org/1999/xlink"><rect width="1508" height="567" style="fill: white;"></rect><g transform="translate(31,66)"><g class="mark-group role-frame root"><g transform="translate(0,0)"><path class="background" d="M0,0h0v450h0Z" style="fill: none;"></path><g><g class="mark-group role-scope concat_0_group"><g transform="translate(0,0)"><path class="background" d="M0.5,0.5h600v450h-600Z" style="fill: none; stroke: #ddd; stroke-opacity: 0;"></path><g><g class="mark-group role-axis"><g transform="translate(0.5,0.5)"><path class="background" d="M0,0h0v0h0Z" style="pointer-events: none; fill: none;"></path><g><g class="mark-rule role-axis-grid" style="pointer-events: none;"><line transform="translate(0,386)" x2="600" y2="0" style="fill: none; stroke: #ddd; stroke-opacity: 1; stroke-width: 1; opacity: 1;"></line><line transform="translate(0,257)" x2="600" y2="0" style="fill: none; stroke: #ddd; stroke-opacity: 1; stroke-width: 1; opacity: 1;"></line><line transform="translate(0,129)" x2="600" y2="0" style="fill: none; stroke: #ddd; stroke-opacity: 1; stroke-width: 1; opacity: 1;"></line></g></g><path class="foreground" d="" style="pointer-events: none; display: none; fill: none;"></path></g></g><g class="mark-group role-axis"><g transform="translate(0.5,450.5)"><path class="background" d="M0,0h0v0h0Z" style="pointer-events: none; fill: none;"></path><g><g class="mark-rule role-axis-tick" style="pointer-events: none;"><line transform="translate(27,0)" x2="0" y2="10" style="fill: none; stroke: #888; stroke-width: 1; opacity: 1;"></line><line transform="translate(573,0)" x2="0" y2="10" style="fill: none; stroke: #888; stroke-width: 1; opacity: 1;"></line></g><g class="mark-text role-axis-label" style="pointer-events: none;"><text text-anchor="middle" transform="translate(27.272727272727252,41)" style="font-family: Lato; font-size: 26px; fill: #000; fill-opacity: 0.8; opacity: 1;">2008</text><text text-anchor="middle" transform="translate(572.7272727272727,41)" style="font-family: Lato; font-size: 26px; fill: #000; fill-opacity: 0.8; opacity: 1;">2018</text></g><g class="mark-rule role-axis-domain" style="pointer-events: none;"><line transform="translate(0,0)" x2="600" y2="0" style="fill: none; stroke: #888; stroke-width: 1; opacity: 1;"></line></g></g><path class="foreground" d="" style="pointer-events: none; display: none; fill: none;"></path></g></g><g class="mark-group role-axis"><g transform="translate(0.5,0.5)"><path class="background" d="M0,0h0v0h0Z" style="pointer-events: none; fill: none;"></path><g><g class="mark-text role-axis-label" style="pointer-events: none;"><text text-anchor="start" transform="translate(-25,393.7142857142857)" style="font-family: Lato; font-size: 26px; fill: #000; fill-opacity: 0.8; opacity: 1;">2k</text><text text-anchor="start" transform="translate(-25,265.1428571428571)" style="font-family: Lato; font-size: 26px; fill: #000; fill-opacity: 0.8; opacity: 1;">4k</text><text text-anchor="start" transform="translate(-25,136.57142857142856)" style="font-family: Lato; font-size: 26px; fill: #000; fill-opacity: 0.8; opacity: 1;">6k</text></g><g class="mark-rule role-axis-domain" style="pointer-events: none;"><line transform="translate(0,450)" x2="0" y2="-450" style="fill: none; stroke: #888; stroke-width: 0; opacity: 1;"></line></g><g class="mark-text role-axis-title" style="pointer-events: none;"><text text-anchor="start" transform="translate(-25,-40)" style="font-family: Lato; font-size: 26px; font-weight: normal; fill: #000; fill-opacity: 0.8; opacity: 1;">Counties grouped by population density</text></g></g><path class="foreground" d="" style="pointer-events: none; display: none; fill: none;"></path></g></g><g class="mark-group role-scope concat_0_layer_0_pathgroup"><g transform="translate(0,0)"><path class="background" d="M0,0h600v450h-600Z" style="fill: none;"></path><g><g class="mark-line role-mark concat_0_layer_0_marks"><path d="M27.272727272727252,331.52142857142854L36.363636363636346,330.9321428571428C45.45454545454544,330.3428571428571,63.63636363636362,329.16428571428565,81.8181818181818,328.4678571428571C99.99999999999999,327.77142857142854,118.18181818181817,327.5571428571429,136.36363636363635,327.1607142857143C154.54545454545453,326.76428571428573,172.72727272727272,326.18571428571425,190.90909090909088,325.1357142857143C209.0909090909091,324.08571428571423,227.27272727272725,322.5642857142857,245.4545454545454,320.9892857142857C263.6363636363636,319.41428571428577,281.8181818181818,317.7857142857143,300,315.6107142857143C318.1818181818182,313.4357142857143,336.3636363636363,310.7142857142857,354.5454545454545,307.2642857142857C372.7272727272727,303.8142857142857,390.9090909090908,299.6357142857143,409.09090909090907,295.9285714285714C427.27272727272725,292.2214285714286,445.45454545454544,288.98571428571427,463.6363636363637,286.575C481.8181818181818,284.1642857142857,500,282.5785714285714,518.1818181818181,278.8285714285714C536.3636363636364,275.0785714285714,554.5454545454546,269.1642857142857,563.6363636363636,266.20714285714286L572.7272727272727,263.25" style="fill: none; stroke: #b2182b; stroke-width: 8; stroke-linecap: round;"></path></g></g><path class="foreground" d="" style="display: none; fill: none;"></path></g><g transform="translate(0,0)"><path class="background" d="M0,0h600v450h-600Z" style="fill: none;"></path><g><g class="mark-line role-mark concat_0_layer_0_marks"><path d="M27.272727272727252,342.5142857142857L36.363636363636346,342.23571428571427C45.45454545454544,341.95714285714286,63.63636363636362,341.40000000000003,81.8181818181818,341.0785714285714C99.99999999999999,340.75714285714287,118.18181818181817,340.6714285714286,136.36363636363635,339.87857142857143C154.54545454545453,339.0857142857143,172.72727272727272,337.5857142857143,190.90909090909088,336.3964285714286C209.0909090909091,335.20714285714286,227.27272727272725,334.3285714285714,245.4545454545454,333.39642857142854C263.6363636363636,332.4642857142857,281.8181818181818,331.47857142857146,300,329.55C318.1818181818182,327.62142857142857,336.3636363636363,324.75,354.5454545454545,322.53214285714284C372.7272727272727,320.3142857142857,390.9090909090908,318.75,409.09090909090907,316.06071428571425C427.27272727272725,313.37142857142857,445.45454545454544,309.5571428571429,463.6363636363637,306.9265071428572C481.8181818181818,304.2958714285715,500,302.8488857142858,518.1818181818181,299.4269464285715C536.3636363636364,296.0050071428572,554.5454545454546,290.6081142857143,563.6363636363636,287.9096678571429L572.7272727272727,285.21122142857143" style="fill: none; stroke: #ef8a62; stroke-width: 8; stroke-linecap: round;"></path></g></g><path class="foreground" d="" style="display: none; fill: none;"></path></g><g transform="translate(0,0)"><path class="background" d="M0,0h600v450h-600Z" style="fill: none;"></path><g><g class="mark-line role-mark concat_0_layer_0_marks"><path d="M27.272727272727252,365.1428571428571L36.363636363636346,364.5535714285714C45.45454545454544,363.9642857142857,63.63636363636362,362.7857142857143,81.8181818181818,361.91785714285714C99.99999999999999,361.05,118.18181818181817,360.4928571428571,136.36363636363635,360.5571428571429C154.54545454545453,360.62142857142857,172.72727272727272,361.3071428571429,190.90909090909088,361.05C209.0909090909091,360.7928571428572,227.27272727272725,359.59285714285716,245.4545454545454,358.5964285714286C263.6363636363636,357.6000000000001,281.8181818181818,356.8071428571429,300,355.7142857142857C318.1818181818182,354.6214285714286,336.3636363636363,353.22857142857146,354.5454545454545,351.6857142857143C372.7272727272727,350.14285714285717,390.9090909090908,348.45,409.09090909090907,345.9964285714286C427.27272727272725,343.54285714285714,445.45454545454544,340.3285714285714,463.6363636363637,338.10677142857145C481.8181818181818,335.8849714285714,500,334.65565714285714,518.1818181818181,331.74848571428566C536.3636363636364,328.8413142857143,554.5454545454546,324.2562857142857,563.6363636363636,321.9637714285714L572.7272727272727,319.67125714285714" style="fill: none; stroke: #fddbc7; stroke-width: 8; stroke-linecap: round;"></path></g></g><path class="foreground" d="" style="display: none; fill: none;"></path></g><g transform="translate(0,0)"><path class="background" d="M0,0h600v450h-600Z" style="fill: none;"></path><g><g class="mark-line role-mark concat_0_layer_0_marks"><path d="M27.272727272727252,375.81428571428575L36.363636363636346,376.08214285714286C45.45454545454544,376.3500000000001,63.63636363636362,376.8857142857143,81.8181818181818,376.83214285714286C99.99999999999999,376.77857142857147,118.18181818181817,376.1357142857143,136.36363636363635,375.52500000000003C154.54545454545453,374.91428571428565,172.72727272727272,374.33571428571423,190.90909090909088,373.6392857142857C209.0909090909091,372.9428571428571,227.27272727272725,372.12857142857143,245.4545454545454,371.2607142857143C263.6363636363636,370.39285714285717,281.8181818181818,369.47142857142853,300,368.0249999999999C318.1818181818182,366.5785714285714,336.3636363636363,364.60714285714283,354.5454545454545,362.47499999999997C372.7272727272727,360.34285714285716,390.9090909090908,358.05,409.09090909090907,355.8857142857143C427.27272727272725,353.7214285714286,445.45454545454544,351.6857142857143,463.6363636363637,350.0966892857143C481.8181818181818,348.5076642857143,500,347.36532857142856,518.1818181818181,344.66384999999997C536.3636363636364,341.96237142857143,554.5454545454546,337.70175,563.6363636363636,335.5714392857143L572.7272727272727,333.4411285714286" style="fill: none; stroke: #e2e0d3; stroke-width: 8; stroke-linecap: round;"></path></g></g><path class="foreground" d="" style="display: none; fill: none;"></path></g><g transform="translate(0,0)"><path class="background" d="M0,0h600v450h-600Z" style="fill: none;"></path><g><g class="mark-line role-mark concat_0_layer_0_marks"><path d="M27.272727272727252,389.57142857142856L36.363636363636346,388.6928571428571C45.45454545454544,387.8142857142857,63.63636363636362,386.0571428571429,81.8181818181818,384.5678571428571C99.99999999999999,383.0785714285714,118.18181818181817,381.8571428571429,136.36363636363635,381.41785714285714C154.54545454545453,380.97857142857146,172.72727272727272,381.3214285714286,190.90909090909088,381.02142857142854C209.0909090909091,380.72142857142853,227.27272727272725,379.77857142857147,245.4545454545454,378.8892857142857C263.6363636363636,378,281.8181818181818,377.16428571428577,300,375.79285714285714C318.1818181818182,374.4214285714286,336.3636363636363,372.51428571428573,354.5454545454545,370.6178571428572C372.7272727272727,368.7214285714286,390.9090909090908,366.83571428571423,409.09090909090907,364.5535714285714C427.27272727272725,362.27142857142854,445.45454545454544,359.59285714285716,463.6363636363637,357.7076035714286C481.8181818181818,355.82235,500,354.7304142857143,518.1818181818181,352.14813214285715C536.3636363636364,349.56585,554.5454545454546,345.4932214285714,563.6363636363636,343.4569071428571L572.7272727272727,341.4205928571429" style="fill: none; stroke: #d1e5f0; stroke-width: 8; stroke-linecap: round;"></path></g></g><path class="foreground" d="" style="display: none; fill: none;"></path></g><g transform="translate(0,0)"><path class="background" d="M0,0h600v450h-600Z" style="fill: none;"></path><g><g class="mark-line role-mark concat_0_layer_0_marks"><path d="M27.272727272727252,377.74285714285713L36.363636363636346,377.00357142857143C45.45454545454544,376.26428571428573,63.63636363636362,374.7857142857143,81.8181818181818,373.73571428571427C99.99999999999999,372.6857142857143,118.18181818181817,372.0642857142857,136.36363636363635,371.5714285714286C154.54545454545453,371.0785714285714,172.72727272727272,370.7142857142857,190.90909090909088,370.4892857142857C209.0909090909091,370.2642857142857,227.27272727272725,370.1785714285714,245.4545454545454,369.825C263.6363636363636,369.47142857142853,281.8181818181818,368.84999999999997,300,367.53214285714284C318.1818181818182,366.2142857142857,336.3636363636363,364.2,354.5454545454545,362.0571428571429C372.7272727272727,359.91428571428565,390.9090909090908,357.6428571428571,409.09090909090907,355.1892857142857C427.27272727272725,352.73571428571427,445.45454545454544,350.09999999999997,463.6363636363637,348.2033892857143C481.8181818181818,346.3067785714286,500,345.1492714285714,518.1818181818181,342.4119321428572C536.3636363636364,339.67459285714284,554.5454545454546,335.3574214285714,563.6363636363636,333.19883571428574L572.7272727272727,331.04025" style="fill: none; stroke: #67a9cf; stroke-width: 8; stroke-linecap: round;"></path></g></g><path class="foreground" d="" style="display: none; fill: none;"></path></g><g transform="translate(0,0)"><path class="background" d="M0,0h600v450h-600Z" style="fill: none;"></path><g><g class="mark-line role-mark concat_0_layer_0_marks"><path d="M27.272727272727252,362.0571428571429L36.363636363636346,361.7250000000001C45.45454545454544,361.39285714285717,63.63636363636362,360.72857142857146,81.8181818181818,359.8392857142858C99.99999999999999,358.95000000000005,118.18181818181817,357.83571428571435,136.36363636363635,356.75357142857143C154.54545454545453,355.6714285714286,172.72727272727272,354.62142857142857,190.90909090909088,353.5285714285714C209.0909090909091,352.4357142857143,227.27272727272725,351.3,245.4545454545454,350.29285714285714C263.6363636363636,349.2857142857143,281.8181818181818,348.40714285714284,300,347.625C318.1818181818182,346.84285714285716,336.3636363636363,346.15714285714284,354.5454545454545,344.8821428571428C372.7272727272727,343.60714285714283,390.9090909090908,341.7428571428571,409.09090909090907,339.2142857142857C427.27272727272725,336.6857142857143,445.45454545454544,333.4928571428572,463.6363636363637,331.258125C481.8181818181818,329.0233928571429,500,327.74678571428575,518.1818181818181,324.72779999999995C536.3636363636364,321.70881428571425,554.5454545454546,316.94744999999995,563.6363636363636,314.56676785714285L572.7272727272727,312.1860857142857" style="fill: none; stroke: #2166ac; stroke-width: 8; stroke-linecap: round;"></path></g></g><path class="foreground" d="" style="display: none; fill: none;"></path></g></g><g class="mark-text role-mark concat_0_layer_1_marks"><text text-anchor="middle" transform="translate(59.27272727272725,8)" style="font-family: lato; font-size: 26px; fill: black; opacity: 0.8;">$8k per month</text></g><g class="mark-text role-mark concat_0_layer_2_marks"><text text-anchor="middle" transform="translate(372.27272727272725,-1)" style="font-family: sans-serif; font-size: 11.5px; font-weight: bold; fill: black; opacity: 0.09;">________________________________________________________________________</text></g></g><path class="foreground" d="" style="display: none; fill: none;"></path></g></g><g class="mark-group role-scope concat_1_group"><g transform="translate(626,0)"><path class="background" d="M0.5,0.5h600v450h-600Z" style="fill: none; stroke: #ddd; stroke-opacity: 0;"></path><g><g class="mark-group role-axis"><g transform="translate(0.5,0.5)"><path class="background" d="M0,0h0v0h0Z" style="pointer-events: none; fill: none;"></path><g><g class="mark-rule role-axis-grid" style="pointer-events: none;"><line transform="translate(0,386)" x2="600" y2="0" style="fill: none; stroke: #ddd; stroke-opacity: 1; stroke-width: 1; opacity: 1;"></line><line transform="translate(0,257)" x2="600" y2="0" style="fill: none; stroke: #ddd; stroke-opacity: 1; stroke-width: 1; opacity: 1;"></line><line transform="translate(0,129)" x2="600" y2="0" style="fill: none; stroke: #ddd; stroke-opacity: 1; stroke-width: 1; opacity: 1;"></line></g></g><path class="foreground" d="" style="pointer-events: none; display: none; fill: none;"></path></g></g><g class="mark-group role-axis"><g transform="translate(0.5,450.5)"><path class="background" d="M0,0h0v0h0Z" style="pointer-events: none; fill: none;"></path><g><g class="mark-rule role-axis-tick" style="pointer-events: none;"><line transform="translate(27,0)" x2="0" y2="10" style="fill: none; stroke: #888; stroke-width: 1; opacity: 1;"></line><line transform="translate(573,0)" x2="0" y2="10" style="fill: none; stroke: #888; stroke-width: 1; opacity: 1;"></line></g><g class="mark-text role-axis-label" style="pointer-events: none;"><text text-anchor="middle" transform="translate(27.272727272727252,41)" style="font-family: Lato; font-size: 26px; fill: #000; fill-opacity: 0.8; opacity: 1;">2008</text><text text-anchor="middle" transform="translate(572.7272727272727,41)" style="font-family: Lato; font-size: 26px; fill: #000; fill-opacity: 0.8; opacity: 1;">2018</text></g><g class="mark-rule role-axis-domain" style="pointer-events: none;"><line transform="translate(0,0)" x2="600" y2="0" style="fill: none; stroke: #888; stroke-width: 1; opacity: 1;"></line></g></g><path class="foreground" d="" style="pointer-events: none; display: none; fill: none;"></path></g></g><g class="mark-group role-axis"><g transform="translate(0.5,0.5)"><path class="background" d="M0,0h0v0h0Z" style="pointer-events: none; fill: none;"></path><g><g class="mark-text role-axis-label" style="pointer-events: none;"><text text-anchor="start" transform="translate(0,393.7142857142857)" style="font-family: Lato; font-size: 26px; fill: #000; fill-opacity: 0; opacity: 1;">2k</text><text text-anchor="start" transform="translate(0,265.1428571428571)" style="font-family: Lato; font-size: 26px; fill: #000; fill-opacity: 0; opacity: 1;">4k</text><text text-anchor="start" transform="translate(0,136.57142857142856)" style="font-family: Lato; font-size: 26px; fill: #000; fill-opacity: 0; opacity: 1;">6k</text></g><g class="mark-rule role-axis-domain" style="pointer-events: none;"><line transform="translate(0,450)" x2="0" y2="-450" style="fill: none; stroke: #888; stroke-width: 0; opacity: 1;"></line></g><g class="mark-text role-axis-title" style="pointer-events: none;"><text text-anchor="start" transform="translate(-2,-40)" style="font-family: Lato; font-size: 26px; font-weight: normal; fill: #000; fill-opacity: 0.8; opacity: 1;">Counties grouped by population density</text></g></g><path class="foreground" d="" style="pointer-events: none; display: none; fill: none;"></path></g></g><g class="mark-group role-scope concat_1_layer_0_pathgroup"><g transform="translate(0,0)"><path class="background" d="M0,0h600v450h-600Z" style="fill: none;"></path><g><g class="mark-line role-mark concat_1_layer_0_marks"><path d="M27.272727272727252,115.52142857142856L36.363636363636346,113.45357142857141C45.45454545454544,111.38571428571426,63.63636363636362,107.24999999999999,81.8181818181818,104.84999999999998C99.99999999999999,102.44999999999999,118.18181818181817,101.78571428571429,136.36363636363635,100.97142857142859C154.54545454545453,100.15714285714289,172.72727272727272,99.19285714285716,190.90909090909088,98.06785714285716C209.0909090909091,96.94285714285716,227.27272727272725,95.65714285714286,245.4545454545454,94.30714285714286C263.6363636363636,92.95714285714287,281.8181818181818,91.54285714285714,300,88.78928571428571C318.1818181818182,86.03571428571429,336.3636363636363,81.94285714285716,354.5454545454545,76.0607142857143C372.7272727272727,70.17857142857144,390.9090909090908,62.50714285714287,409.09090909090907,55.2857142857143C427.27272727272725,48.064285714285724,445.45454545454544,41.29285714285715,463.6363636363637,36.932142857142864C481.8181818181818,32.57142857142858,500,30.621428571428577,518.1818181818181,27.364285714285717C536.3636363636364,24.10714285714285,554.5454545454546,19.542857142857134,563.6363636363636,17.260714285714275L572.7272727272727,14.978571428571414" style="fill: none; stroke: #b2182b; stroke-width: 8; stroke-linecap: round; opacity: 0.85;"></path></g></g><path class="foreground" d="" style="display: none; fill: none;"></path></g><g transform="translate(0,0)"><path class="background" d="M0,0h600v450h-600Z" style="fill: none;"></path><g><g class="mark-line role-mark concat_1_layer_0_marks"><path d="M27.272727272727252,150.94285714285712L36.363636363636346,149.57142857142856C45.45454545454544,148.2,63.63636363636362,145.45714285714286,81.8181818181818,144.57857142857142C99.99999999999999,143.70000000000002,118.18181818181817,144.68571428571428,136.36363636363635,145.1357142857143C154.54545454545453,145.5857142857143,172.72727272727272,145.50000000000003,190.90909090909088,144.9964285714286C209.0909090909091,144.49285714285716,227.27272727272725,143.57142857142856,245.4545454545454,142.88571428571427C263.6363636363636,142.19999999999996,281.8181818181818,141.74999999999997,300,140.02499999999998C318.1818181818182,138.29999999999998,336.3636363636363,135.29999999999998,354.5454545454545,130.85357142857143C372.7272727272727,126.40714285714286,390.9090909090908,120.51428571428569,409.09090909090907,114.54642857142856C427.27272727272725,108.57857142857142,445.45454545454544,102.53571428571428,463.6363636363637,98.66523214285714C481.8181818181818,94.79475000000001,500,93.09664285714287,518.1818181818181,90.26022857142857C536.3636363636364,87.42381428571429,554.5454545454546,83.44909285714284,563.6363636363636,81.46173214285714L572.7272727272727,79.47437142857142" style="fill: none; stroke: #ef8a62; stroke-width: 8; stroke-linecap: round; opacity: 0.85;"></path></g></g><path class="foreground" d="" style="display: none; fill: none;"></path></g><g transform="translate(0,0)"><path class="background" d="M0,0h600v450h-600Z" style="fill: none;"></path><g><g class="mark-line role-mark concat_1_layer_0_marks"><path d="M27.272727272727252,198.06428571428572L36.363636363636346,196.59642857142856C45.45454545454544,195.12857142857146,63.63636363636362,192.19285714285715,81.8181818181818,190.68214285714285C99.99999999999999,189.17142857142858,118.18181818181817,189.08571428571432,136.36363636363635,189.50357142857146C154.54545454545453,189.92142857142858,172.72727272727272,190.84285714285716,190.90909090909088,190.99285714285716C209.0909090909091,191.14285714285714,227.27272727272725,190.52142857142857,245.4545454545454,189.72857142857143C263.6363636363636,188.9357142857143,281.8181818181818,187.97142857142856,300,186.43928571428572C318.1818181818182,184.90714285714284,336.3636363636363,182.80714285714285,354.5454545454545,179.31428571428572C372.7272727272727,175.82142857142858,390.9090909090908,170.9357142857143,409.09090909090907,166.13571428571427C427.27272727272725,161.3357142857143,445.45454545454544,156.62142857142857,463.6363636363637,153.5278392857143C481.8181818181818,150.43425,500,148.96135714285717,518.1818181818181,146.50114285714287C536.3636363636364,144.0409285714286,554.5454545454546,140.59339285714285,563.6363636363636,138.86962499999998L572.7272727272727,137.14585714285712" style="fill: none; stroke: #fddbc7; stroke-width: 8; stroke-linecap: round; opacity: 0.85;"></path></g></g><path class="foreground" d="" style="display: none; fill: none;"></path></g><g transform="translate(0,0)"><path class="background" d="M0,0h600v450h-600Z" style="fill: none;"></path><g><g class="mark-line role-mark concat_1_layer_0_marks"><path d="M27.272727272727252,234.25714285714287L36.363636363636346,234.11785714285713C45.45454545454544,233.97857142857143,63.63636363636362,233.69999999999996,81.8181818181818,233.0892857142857C99.99999999999999,232.47857142857143,118.18181818181817,231.5357142857143,136.36363636363635,230.54999999999998C154.54545454545453,229.56428571428572,172.72727272727272,228.5357142857143,190.90909090909088,227.34642857142856C209.0909090909091,226.15714285714284,227.27272727272725,224.80714285714285,245.4545454545454,223.46785714285713C263.6363636363636,222.12857142857146,281.8181818181818,220.80000000000004,300,219.03214285714284C318.1818181818182,217.26428571428573,336.3636363636363,215.05714285714285,354.5454545454545,212.22857142857143C372.7272727272727,209.39999999999998,390.9090909090908,205.94999999999996,409.09090909090907,201.79285714285712C427.27272727272725,197.63571428571427,445.45454545454544,192.77142857142857,463.6363636363637,189.67600714285717C481.8181818181818,186.58058571428572,500,185.25402857142856,518.1818181818181,183.0382285714286C536.3636363636364,180.82242857142856,554.5454545454546,177.7173857142857,563.6363636363636,176.16486428571432L572.7272727272727,174.61234285714286" style="fill: none; stroke: #e2e0d3; stroke-width: 8; stroke-linecap: round; opacity: 0.85;"></path></g></g><path class="foreground" d="" style="display: none; fill: none;"></path></g><g transform="translate(0,0)"><path class="background" d="M0,0h600v450h-600Z" style="fill: none;"></path><g><g class="mark-line role-mark concat_1_layer_0_marks"><path d="M27.272727272727252,253.86428571428573L36.363636363636346,252.69642857142858C45.45454545454544,251.52857142857144,63.63636363636362,249.19285714285715,81.8181818181818,247.56428571428572C99.99999999999999,245.9357142857143,118.18181818181817,245.01428571428573,136.36363636363635,244.07142857142858C154.54545454545453,243.12857142857146,172.72727272727272,242.16428571428574,190.90909090909088,241.3821428571429C209.0909090909091,240.60000000000002,227.27272727272725,240,245.4545454545454,239.50714285714284C263.6363636363636,239.0142857142857,281.8181818181818,238.6285714285714,300,237.41785714285712C318.1818181818182,236.2071428571428,336.3636363636363,234.17142857142855,354.5454545454545,231.71785714285707C372.7272727272727,229.26428571428565,390.9090909090908,226.3928571428571,409.09090909090907,223.16785714285712C427.27272727272725,219.94285714285715,445.45454545454544,216.36428571428573,463.6363636363637,213.96228214285713C481.8181818181818,211.56027857142854,500,210.3348428571429,518.1818181818181,208.28795357142857C536.3636363636364,206.2410642857143,554.5454545454546,203.37272142857145,563.6363636363636,201.93855L572.7272727272727,200.5043785714286" style="fill: none; stroke: #d1e5f0; stroke-width: 8; stroke-linecap: round; opacity: 0.85;"></path></g></g><path class="foreground" d="" style="display: none; fill: none;"></path></g><g transform="translate(0,0)"><path class="background" d="M0,0h600v450h-600Z" style="fill: none;"></path><g><g class="mark-line role-mark concat_1_layer_0_marks"><path d="M27.272727272727252,260.67857142857144L36.363636363636346,258.9428571428572C45.45454545454544,257.20714285714286,63.63636363636362,253.7357142857143,81.8181818181818,251.72142857142862C99.99999999999999,249.70714285714288,118.18181818181817,249.15,136.36363636363635,248.68928571428577C154.54545454545453,248.22857142857148,172.72727272727272,247.86428571428576,190.90909090909088,246.81428571428577C209.0909090909091,245.76428571428573,227.27272727272725,244.02857142857147,245.4545454545454,242.53928571428574C263.6363636363636,241.05000000000004,281.8181818181818,239.80714285714285,300,238.44642857142856C318.1818181818182,237.0857142857143,336.3636363636363,235.60714285714286,354.5454545454545,233.18571428571428C372.7272727272727,230.7642857142857,390.9090909090908,227.4,409.09090909090907,223.63928571428573C427.27272727272725,219.87857142857146,445.45454545454544,215.72142857142862,463.6363636363637,213.02765357142857C481.8181818181818,210.3338785714286,500,209.10347142857145,518.1818181818181,207.0482785714286C536.3636363636364,204.99308571428574,554.5454545454546,202.11310714285716,563.6363636363636,200.67311785714287L572.7272727272727,199.23312857142855" style="fill: none; stroke: #67a9cf; stroke-width: 8; stroke-linecap: round; opacity: 0.85;"></path></g></g><path class="foreground" d="" style="display: none; fill: none;"></path></g><g transform="translate(0,0)"><path class="background" d="M0,0h600v450h-600Z" style="fill: none;"></path><g><g class="mark-line role-mark concat_1_layer_0_marks"><path d="M27.272727272727252,252.00000000000003L36.363636363636346,251.0571428571429C45.45454545454544,250.11428571428573,63.63636363636362,248.22857142857143,81.8181818181818,246.2464285714286C99.99999999999999,244.2642857142857,118.18181818181817,242.18571428571428,136.36363636363635,240.8142857142857C154.54545454545453,239.44285714285715,172.72727272727272,238.77857142857144,190.90909090909088,237.42857142857142C209.0909090909091,236.07857142857142,227.27272727272725,234.04285714285712,245.4545454545454,232.60714285714286C263.6363636363636,231.17142857142858,281.8181818181818,230.3357142857143,300,228.10714285714286C318.1818181818182,225.87857142857146,336.3636363636363,222.25714285714287,354.5454545454545,219.04285714285717C372.7272727272727,215.82857142857145,390.9090909090908,213.0214285714286,409.09090909090907,209.55000000000004C427.27272727272725,206.07857142857145,445.45454545454544,201.94285714285718,463.6363636363637,199.23183214285714C481.8181818181818,196.52080714285714,500,195.2344714285714,518.1818181818181,193.08588214285712C536.3636363636364,190.9372928571428,554.5454545454546,187.92645000000002,563.6363636363636,186.42102857142856L572.7272727272727,184.91560714285717" style="fill: none; stroke: #2166ac; stroke-width: 8; stroke-linecap: round; opacity: 0.85;"></path></g></g><path class="foreground" d="" style="display: none; fill: none;"></path></g></g><g class="mark-text role-mark concat_1_layer_1_marks"><text text-anchor="middle" transform="translate(302.27272727272725,-1)" style="font-family: sans-serif; font-size: 11.5px; font-weight: bold; fill: black; opacity: 0.09;">______________________________________________________________________________________________</text></g></g><path class="foreground" d="" style="display: none; fill: none;"></path></g></g><g class="mark-group role-legend"><g transform="translate(1247,0)"><path class="background" d="M0,0h225v232h-225Z" style="pointer-events: none; fill: none;"></path><g><g class="mark-group role-legend-entry"><g transform="translate(0,31)"><path class="background" d="M0,0h0v0h0Z" style="pointer-events: none; fill: none;"></path><g><g class="mark-group role-scope"><g transform="translate(0,0)"><path class="background" d="M0,0h218.0298614501953v27h-218.0298614501953Z" style="pointer-events: none; fill: none; opacity: 1;"></path><g><g class="mark-symbol role-legend-symbol" style="pointer-events: none;"><path transform="translate(14,14)" d="M-10,0L10,0" style="fill: none; stroke: #b2182b; stroke-width: 8; opacity: 0.85;"></path></g><g class="mark-text role-legend-label" style="pointer-events: none;"><text text-anchor="start" transform="translate(32,22)" style="font-family: Lato; font-size: 26px; fill: #000; fill-opacity: 0.85; opacity: 1;">More than 1000</text></g></g><path class="foreground" d="" style="pointer-events: none; display: none; fill: none;"></path></g><g transform="translate(0,29)"><path class="background" d="M0,0h218.0298614501953v27h-218.0298614501953Z" style="pointer-events: none; fill: none; opacity: 1;"></path><g><g class="mark-symbol role-legend-symbol" style="pointer-events: none;"><path transform="translate(14,14)" d="M-10,0L10,0" style="fill: none; stroke: #ef8a62; stroke-width: 8; opacity: 0.85;"></path></g><g class="mark-text role-legend-label" style="pointer-events: none;"><text text-anchor="start" transform="translate(32,22)" style="font-family: Lato; font-size: 26px; fill: #000; fill-opacity: 0.85; opacity: 1;">250 to 1000</text></g></g><path class="foreground" d="" style="pointer-events: none; display: none; fill: none;"></path></g><g transform="translate(0,58)"><path class="background" d="M0,0h218.0298614501953v27h-218.0298614501953Z" style="pointer-events: none; fill: none; opacity: 1;"></path><g><g class="mark-symbol role-legend-symbol" style="pointer-events: none;"><path transform="translate(14,14)" d="M-10,0L10,0" style="fill: none; stroke: #fddbc7; stroke-width: 8; opacity: 0.85;"></path></g><g class="mark-text role-legend-label" style="pointer-events: none;"><text text-anchor="start" transform="translate(32,22)" style="font-family: Lato; font-size: 26px; fill: #000; fill-opacity: 0.85; opacity: 1;">100 to 250</text></g></g><path class="foreground" d="" style="pointer-events: none; display: none; fill: none;"></path></g><g transform="translate(0,87)"><path class="background" d="M0,0h218.0298614501953v27h-218.0298614501953Z" style="pointer-events: none; fill: none; opacity: 1;"></path><g><g class="mark-symbol role-legend-symbol" style="pointer-events: none;"><path transform="translate(14,14)" d="M-10,0L10,0" style="fill: none; stroke: #e2e0d3; stroke-width: 8; opacity: 0.85;"></path></g><g class="mark-text role-legend-label" style="pointer-events: none;"><text text-anchor="start" transform="translate(32,22)" style="font-family: Lato; font-size: 26px; fill: #000; fill-opacity: 0.85; opacity: 1;">50 to 100</text></g></g><path class="foreground" d="" style="pointer-events: none; display: none; fill: none;"></path></g><g transform="translate(0,116)"><path class="background" d="M0,0h218.0298614501953v27h-218.0298614501953Z" style="pointer-events: none; fill: none; opacity: 1;"></path><g><g class="mark-symbol role-legend-symbol" style="pointer-events: none;"><path transform="translate(14,14)" d="M-10,0L10,0" style="fill: none; stroke: #d1e5f0; stroke-width: 8; opacity: 0.85;"></path></g><g class="mark-text role-legend-label" style="pointer-events: none;"><text text-anchor="start" transform="translate(32,22)" style="font-family: Lato; font-size: 26px; fill: #000; fill-opacity: 0.85; opacity: 1;">25 to 50</text></g></g><path class="foreground" d="" style="pointer-events: none; display: none; fill: none;"></path></g><g transform="translate(0,145)"><path class="background" d="M0,0h218.0298614501953v27h-218.0298614501953Z" style="pointer-events: none; fill: none; opacity: 1;"></path><g><g class="mark-symbol role-legend-symbol" style="pointer-events: none;"><path transform="translate(14,14)" d="M-10,0L10,0" style="fill: none; stroke: #67a9cf; stroke-width: 8; opacity: 0.85;"></path></g><g class="mark-text role-legend-label" style="pointer-events: none;"><text text-anchor="start" transform="translate(32,22)" style="font-family: Lato; font-size: 26px; fill: #000; fill-opacity: 0.85; opacity: 1;">10 to 25</text></g></g><path class="foreground" d="" style="pointer-events: none; display: none; fill: none;"></path></g><g transform="translate(0,174)"><path class="background" d="M0,0h218.0298614501953v27h-218.0298614501953Z" style="pointer-events: none; fill: none; opacity: 1;"></path><g><g class="mark-symbol role-legend-symbol" style="pointer-events: none;"><path transform="translate(14,14)" d="M-10,0L10,0" style="fill: none; stroke: #2166ac; stroke-width: 8; opacity: 0.85;"></path></g><g class="mark-text role-legend-label" style="pointer-events: none;"><text text-anchor="start" transform="translate(32,22)" style="font-family: Lato; font-size: 26px; fill: #000; fill-opacity: 0.85; opacity: 1;">Less than 10</text></g></g><path class="foreground" d="" style="pointer-events: none; display: none; fill: none;"></path></g></g></g><path class="foreground" d="" style="pointer-events: none; display: none; fill: none;"></path></g></g><g class="mark-text role-legend-title" style="pointer-events: none;"><text text-anchor="start" transform="translate(0,21)" style="font-family: Lato; font-size: 26px; font-weight: bold; fill: #000; fill-opacity: 0.85; opacity: 1;">Residents / sq. mile</text></g></g><path class="foreground" d="" style="pointer-events: none; display: none; fill: none;"></path></g></g></g><path class="foreground" d="" style="display: none; fill: none;"></path></g></g></g></svg>