<svg class="marks" width="1572" height="609" viewBox="0 0 1572 609" version="1.1" xmlns="http://www.w3.org/2000/svg" xmlns:xlink="http://www.w3.org/1999/xlink"><rect width="1572" height="609" style="fill: white;"></rect><g transform="translate(65,108)"><g class="mark-group role-frame root"><g transform="translate(0,0)"><path class="background" d="M0,0h0v450h0Z" style="fill: none;"></path><g><g class="mark-group role-scope concat_0_group"><g transform="translate(0,0)"><path class="background" d="M0.5,0.5h600v450h-600Z" style="fill: none; stroke: #ddd; stroke-opacity: 0;"></path><g><g class="mark-group role-axis"><g transform="translate(0.5,0.5)"><path class="background" d="M0,0h0v0h0Z" style="pointer-events: none; fill: none;"></path><g><g class="mark-rule role-axis-grid" style="pointer-events: none;"><line transform="translate(0,360)" x2="600" y2="0" style="fill: none; stroke: #ddd; stroke-opacity: 1; stroke-width: 1; opacity: 1;"></line><line transform="translate(0,270)" x2="600" y2="0" style="fill: none; stroke: #ddd; stroke-opacity: 1; stroke-width: 1; opacity: 1;"></line><line transform="translate(0,180)" x2="600" y2="0" style="fill: none; stroke: #ddd; stroke-opacity: 1; stroke-width: 1; opacity: 1;"></line><line transform="translate(0,90)" x2="600" y2="0" style="fill: none; stroke: #ddd; stroke-opacity: 1; stroke-width: 1; opacity: 1;"></line></g></g><path class="foreground" d="" style="pointer-events: none; display: none; fill: none;"></path></g></g><g class="mark-group role-axis"><g transform="translate(0.5,450.5)"><path class="background" d="M0,0h0v0h0Z" style="pointer-events: none; fill: none;"></path><g><g class="mark-rule role-axis-tick" style="pointer-events: none;"><line transform="translate(27,0)" x2="0" y2="10" style="fill: none; stroke: #888; stroke-width: 1; opacity: 1;"></line><line transform="translate(573,0)" x2="0" y2="10" style="fill: none; stroke: #888; stroke-width: 1; opacity: 1;"></line></g><g class="mark-text role-axis-label" style="pointer-events: none;"><text text-anchor="middle" transform="translate(27.272727272727252,41)" style="font-family: Lato; font-size: 26px; fill: #000; fill-opacity: 0.8; opacity: 1;">2008</text><text text-anchor="middle" transform="translate(572.7272727272727,41)" style="font-family: Lato; font-size: 26px; fill: #000; fill-opacity: 0.8; opacity: 1;">2018</text></g><g class="mark-rule role-axis-domain" style="pointer-events: none;"><line transform="translate(0,0)" x2="600" y2="0" style="fill: none; stroke: #888; stroke-width: 1; opacity: 1;"></line></g></g><path class="foreground" d="" style="pointer-events: none; display: none; fill: none;"></path></g></g><g class="mark-group role-axis"><g transform="translate(0.5,0.5)"><path class="background" d="M0,0h0v0h0Z" style="pointer-events: none; fill: none;"></path><g><g class="mark-text role-axis-label" style="pointer-events: none;"><text text-anchor="start" transform="translate(-60,368)" style="font-family: Lato; font-size: 26px; fill: #000; fill-opacity: 0.7; opacity: 1;">400</text><text text-anchor="start" transform="translate(-60,278)" style="font-family: Lato; font-size: 26px; fill: #000; fill-opacity: 0.7; opacity: 1;">800</text><text text-anchor="start" transform="translate(-60,188)" style="font-family: Lato; font-size: 26px; fill: #000; fill-opacity: 0.7; opacity: 1;">1200</text><text text-anchor="start" transform="translate(-60,97.99999999999999)" style="font-family: Lato; font-size: 26px; fill: #000; fill-opacity: 0.7; opacity: 1;">1600</text></g><g class="mark-rule role-axis-domain" style="pointer-events: none;"><line transform="translate(0,450)" x2="0" y2="-450" style="fill: none; stroke: #888; stroke-width: 0; opacity: 1;"></line></g><g class="mark-text role-axis-title" style="pointer-events: none;"><text text-anchor="start" transform="translate(-60,-35)" style="font-family: Lato; font-size: 26px; font-weight: normal; fill: #000; fill-opacity: 0.8; opacity: 1;">Counties grouped by % of housing units rented</text></g></g><path class="foreground" d="" style="pointer-events: none; display: none; fill: none;"></path></g></g><g class="mark-group role-scope concat_0_layer_0_pathgroup"><g transform="translate(0,0)"><path class="background" d="M0,0h600v450h-600Z" style="fill: none;"></path><g><g class="mark-line role-mark concat_0_layer_0_marks"><path d="M27.272727272727252,198.675L36.363636363636346,197.025C45.45454545454544,195.375,63.63636363636362,192.07500000000002,81.8181818181818,189.45000000000002C99.99999999999999,186.82500000000002,118.18181818181817,184.875,136.36363636363635,183.26249999999996C154.54545454545453,181.65,172.72727272727272,180.375,190.90909090909088,179.1C209.0909090909091,177.82500000000002,227.27272727272725,176.54999999999998,245.4545454545454,175.5375C263.6363636363636,174.52499999999998,281.8181818181818,173.77499999999998,300,172.1625C318.1818181818182,170.54999999999998,336.3636363636363,168.075,354.5454545454545,164.6625C372.7272727272727,161.25,390.9090909090908,156.89999999999998,409.09090909090907,152.17499999999998C427.27272727272725,147.45000000000002,445.45454545454544,142.35000000000002,463.6363636363637,140.66250000000002C481.8181818181818,138.97500000000002,500,140.70000000000002,518.1818181818181,137.3625C536.3636363636364,134.025,554.5454545454546,125.625,563.6363636363636,121.425L572.7272727272727,117.22499999999998" style="fill: none; stroke: #b2182b; stroke-width: 8; stroke-linecap: round;"></path></g></g><path class="foreground" d="" style="display: none; fill: none;"></path></g><g transform="translate(0,0)"><path class="background" d="M0,0h600v450h-600Z" style="fill: none;"></path><g><g class="mark-line role-mark concat_0_layer_0_marks"><path d="M27.272727272727252,257.625L36.363636363636346,257.21250000000003C45.45454545454544,256.8,63.63636363636362,255.975,81.8181818181818,255.14999999999998C99.99999999999999,254.32499999999996,118.18181818181817,253.5,136.36363636363635,252.48749999999998C154.54545454545453,251.475,172.72727272727272,250.275,190.90909090909088,247.875C209.0909090909091,245.475,227.27272727272725,241.875,245.4545454545454,240.18750000000003C263.6363636363636,238.50000000000003,281.8181818181818,238.72500000000002,300,238.61250000000004C318.1818181818182,238.5,336.3636363636363,238.05000000000004,354.5454545454545,236.0625C372.7272727272727,234.07500000000002,390.9090909090908,230.54999999999998,409.09090909090907,227.1C427.27272727272725,223.64999999999998,445.45454545454544,220.275,463.6363636363637,218.17499999999998C481.8181818181818,216.07500000000002,500,215.25,518.1818181818181,212.4C536.3636363636364,209.54999999999998,554.5454545454546,204.67499999999998,563.6363636363636,202.23749999999998L572.7272727272727,199.79999999999998" style="fill: none; stroke: #ef8a62; stroke-width: 8; stroke-linecap: round;"></path></g></g><path class="foreground" d="" style="display: none; fill: none;"></path></g><g transform="translate(0,0)"><path class="background" d="M0,0h600v450h-600Z" style="fill: none;"></path><g><g class="mark-line role-mark concat_0_layer_0_marks"><path d="M27.272727272727252,267.75L36.363636363636346,266.0625C45.45454545454544,264.375,63.63636363636362,261,81.8181818181818,260.8125C99.99999999999999,260.625,118.18181818181817,263.625,136.36363636363635,262.875C154.54545454545453,262.125,172.72727272727272,257.625,190.90909090909088,256.2375C209.0909090909091,254.85,227.27272727272725,256.575,245.4545454545454,256.425C263.6363636363636,256.27500000000003,281.8181818181818,254.25,300,250.38750000000002C318.1818181818182,246.52499999999998,336.3636363636363,240.82499999999996,354.5454545454545,238.6875C372.7272727272727,236.54999999999998,390.9090909090908,237.975,409.09090909090907,235.1625C427.27272727272725,232.35,445.45454545454544,225.29999999999998,463.6363636363637,221.36490000000003C481.8181818181818,217.4298,500,216.6096,518.1818181818181,213.7761C536.3636363636364,210.9426,554.5454545454546,206.09580000000003,563.6363636363636,203.6724L572.7272727272727,201.24900000000002" style="fill: none; stroke: #fddbc7; stroke-width: 8; stroke-linecap: round;"></path></g></g><path class="foreground" d="" style="display: none; fill: none;"></path></g><g transform="translate(0,0)"><path class="background" d="M0,0h600v450h-600Z" style="fill: none;"></path><g><g class="mark-line role-mark concat_0_layer_0_marks"><path d="M27.272727272727252,279.225L36.363636363636346,278.325C45.45454545454544,277.425,63.63636363636362,275.62500000000006,81.8181818181818,272.925C99.99999999999999,270.2250000000001,118.18181818181817,266.62500000000006,136.36363636363635,264.71250000000003C154.54545454545453,262.8,172.72727272727272,262.575,190.90909090909088,262.575C209.0909090909091,262.575,227.27272727272725,262.8,245.4545454545454,262.6875C263.6363636363636,262.57500000000005,281.8181818181818,262.125,300,262.27500000000003C318.1818181818182,262.425,336.3636363636363,263.175,354.5454545454545,262.3875C372.7272727272727,261.59999999999997,390.9090909090908,259.27500000000003,409.09090909090907,257.325C427.27272727272725,255.375,445.45454545454544,253.79999999999998,463.6363636363637,252.66251249999996C481.8181818181818,251.525025,500,250.82505000000003,518.1818181818181,248.4069375C536.3636363636364,245.98882500000002,554.5454545454546,241.852575,563.6363636363636,239.78444999999996L572.7272727272727,237.71632499999998" style="fill: none; stroke: #e2e0d3; stroke-width: 8; stroke-linecap: round;"></path></g></g><path class="foreground" d="" style="display: none; fill: none;"></path></g><g transform="translate(0,0)"><path class="background" d="M0,0h600v450h-600Z" style="fill: none;"></path><g><g class="mark-line role-mark concat_0_layer_0_marks"><path d="M27.272727272727252,290.47499999999997L36.363636363636346,289.91249999999997C45.45454545454544,289.34999999999997,63.63636363636362,288.22499999999997,81.8181818181818,287.0625C99.99999999999999,285.90000000000003,118.18181818181817,284.7,136.36363636363635,283.875C154.54545454545453,283.05,172.72727272727272,282.59999999999997,190.90909090909088,282.3375C209.0909090909091,282.075,227.27272727272725,282,245.4545454545454,281.325C263.6363636363636,280.65000000000003,281.8181818181818,279.375,300,278.1375C318.1818181818182,276.90000000000003,336.3636363636363,275.7,354.5454545454545,274.34999999999997C372.7272727272727,273,390.9090909090908,271.5,409.09090909090907,268.72499999999997C427.27272727272725,265.95,445.45454545454544,261.9,463.6363636363637,259.53495C481.8181818181818,257.1699,500,256.4898,518.1818181818181,254.1404625C536.3636363636364,251.791125,554.5454545454546,247.77255,563.6363636363636,245.76326250000002L572.7272727272727,243.753975" style="fill: none; stroke: #d1e5f0; stroke-width: 8; stroke-linecap: round;"></path></g></g><path class="foreground" d="" style="display: none; fill: none;"></path></g><g transform="translate(0,0)"><path class="background" d="M0,0h600v450h-600Z" style="fill: none;"></path><g><g class="mark-line role-mark concat_0_layer_0_marks"><path d="M27.272727272727252,289.12500000000006L36.363636363636346,288.675C45.45454545454544,288.2250000000001,63.63636363636362,287.32500000000005,81.8181818181818,286.05C99.99999999999999,284.77500000000003,118.18181818181817,283.125,136.36363636363635,281.99999999999994C154.54545454545453,280.87499999999994,172.72727272727272,280.2749999999999,190.90909090909088,279.03749999999997C209.0909090909091,277.79999999999995,227.27272727272725,275.925,245.4545454545454,274.6125C263.6363636363636,273.3,281.8181818181818,272.55,300,270.75C318.1818181818182,268.95,336.3636363636363,266.09999999999997,354.5454545454545,264.03749999999997C372.7272727272727,261.97499999999997,390.9090909090908,260.7,409.09090909090907,258.52500000000003C427.27272727272725,256.35,445.45454545454544,253.275,463.6363636363637,251.38391250000004C481.8181818181818,249.49282500000004,500,248.78565000000003,518.1818181818181,246.34278750000001C536.3636363636364,243.89992500000002,554.5454545454546,239.721375,563.6363636363636,237.6321L572.7272727272727,235.542825" style="fill: none; stroke: #67a9cf; stroke-width: 8; stroke-linecap: round;"></path></g></g><path class="foreground" d="" style="display: none; fill: none;"></path></g><g transform="translate(0,0)"><path class="background" d="M0,0h600v450h-600Z" style="fill: none;"></path><g><g class="mark-line role-mark concat_0_layer_0_marks"><path d="M27.272727272727252,265.725L36.363636363636346,263.28749999999997C45.45454545454544,260.85,63.63636363636362,255.97500000000002,81.8181818181818,254.2875C99.99999999999999,252.60000000000002,118.18181818181817,254.10000000000002,136.36363636363635,252.86249999999998C154.54545454545453,251.625,172.72727272727272,247.65,190.90909090909088,245.73749999999998C209.0909090909091,243.82499999999996,227.27272727272725,243.975,245.4545454545454,244.64999999999998C263.6363636363636,245.32500000000002,281.8181818181818,246.525,300,249.63750000000002C318.1818181818182,252.75,336.3636363636363,257.77500000000003,354.5454545454545,255.375C372.7272727272727,252.975,390.9090909090908,243.15,409.09090909090907,239.2875C427.27272727272725,235.42499999999998,445.45454545454544,237.525,463.6363636363637,238.20270000000002C481.8181818181818,238.8804,500,238.13580000000002,518.1818181818181,235.56363750000003C536.3636363636364,232.991475,554.5454545454546,228.59175000000002,563.6363636363636,226.39188750000002L572.7272727272727,224.19202500000003" style="fill: none; stroke: #2166ac; stroke-width: 8; stroke-linecap: round;"></path></g></g><path class="foreground" d="" style="display: none; fill: none;"></path></g></g><g class="mark-text role-mark concat_0_layer_1_marks"><text text-anchor="middle" transform="translate(41.27272727272725,8)" style="font-family: lato; font-size: 26px; fill: black; opacity: 0.8;">$2000 per month</text></g><g class="mark-text role-mark concat_0_layer_2_marks"><text text-anchor="middle" transform="translate(372.5454545454545,-1)" style="font-family: sans-serif; font-size: 11.5px; font-weight: bold; fill: black; opacity: 0.09;">________________________________________________________________________</text></g><g class="mark-group role-title"><g transform="translate(-60,-97)"><path class="background" d="M0,0h0v0h0Z" style="pointer-events: none; fill: none;"></path><g><g class="mark-text role-title-text" style="pointer-events: none;"><text text-anchor="start" transform="translate(0,28)" style="font-family: Lato; font-size: 36px; font-weight: normal; fill: #000; opacity: 1;">Monthly Renter Housing Expense</text></g></g><path class="foreground" d="" style="pointer-events: none; display: none; fill: none;"></path></g></g></g><path class="foreground" d="" style="display: none; fill: none;"></path></g></g><g class="mark-group role-scope concat_1_group"><g transform="translate(626,0)"><path class="background" d="M0.5,0.5h600v450h-600Z" style="fill: none; stroke: #ddd; stroke-opacity: 0;"></path><g><g class="mark-group role-axis"><g transform="translate(0.5,0.5)"><path class="background" d="M0,0h0v0h0Z" style="pointer-events: none; fill: none;"></path><g><g class="mark-rule role-axis-grid" style="pointer-events: none;"><line transform="translate(0,360)" x2="600" y2="0" style="fill: none; stroke: #ddd; stroke-opacity: 1; stroke-width: 1; opacity: 1;"></line><line transform="translate(0,270)" x2="600" y2="0" style="fill: none; stroke: #ddd; stroke-opacity: 1; stroke-width: 1; opacity: 1;"></line><line transform="translate(0,180)" x2="600" y2="0" style="fill: none; stroke: #ddd; stroke-opacity: 1; stroke-width: 1; opacity: 1;"></line><line transform="translate(0,90)" x2="600" y2="0" style="fill: none; stroke: #ddd; stroke-opacity: 1; stroke-width: 1; opacity: 1;"></line></g></g><path class="foreground" d="" style="pointer-events: none; display: none; fill: none;"></path></g></g><g class="mark-group role-axis"><g transform="translate(0.5,450.5)"><path class="background" d="M0,0h0v0h0Z" style="pointer-events: none; fill: none;"></path><g><g class="mark-rule role-axis-tick" style="pointer-events: none;"><line transform="translate(27,0)" x2="0" y2="10" style="fill: none; stroke: #888; stroke-width: 1; opacity: 1;"></line><line transform="translate(573,0)" x2="0" y2="10" style="fill: none; stroke: #888; stroke-width: 1; opacity: 1;"></line></g><g class="mark-text role-axis-label" style="pointer-events: none;"><text text-anchor="middle" transform="translate(27.272727272727252,41)" style="font-family: Lato; font-size: 26px; fill: #000; fill-opacity: 0.8; opacity: 1;">2008</text><text text-anchor="middle" transform="translate(572.7272727272727,41)" style="font-family: Lato; font-size: 26px; fill: #000; fill-opacity: 0.8; opacity: 1;">2018</text></g><g class="mark-rule role-axis-domain" style="pointer-events: none;"><line transform="translate(0,0)" x2="600" y2="0" style="fill: none; stroke: #888; stroke-width: 1; opacity: 1;"></line></g></g><path class="foreground" d="" style="pointer-events: none; display: none; fill: none;"></path></g></g><g class="mark-group role-axis"><g transform="translate(0.5,0.5)"><path class="background" d="M0,0h0v0h0Z" style="pointer-events: none; fill: none;"></path><g><g class="mark-text role-axis-label" style="pointer-events: none;"><text text-anchor="start" transform="translate(0,368)" style="font-family: Lato; font-size: 26px; fill: #000; fill-opacity: 0; opacity: 1;">400</text><text text-anchor="start" transform="translate(0,278)" style="font-family: Lato; font-size: 26px; fill: #000; fill-opacity: 0; opacity: 1;">800</text><text text-anchor="start" transform="translate(0,188)" style="font-family: Lato; font-size: 26px; fill: #000; fill-opacity: 0; opacity: 1;">1200</text><text text-anchor="start" transform="translate(0,97.99999999999999)" style="font-family: Lato; font-size: 26px; fill: #000; fill-opacity: 0; opacity: 1;">1600</text></g><g class="mark-rule role-axis-domain" style="pointer-events: none;"><line transform="translate(0,450)" x2="0" y2="-450" style="fill: none; stroke: #888; stroke-width: 0; opacity: 1;"></line></g><g class="mark-text role-axis-title" style="pointer-events: none;"><text text-anchor="start" transform="translate(0,-40)" style="font-family: Lato; font-size: 26px; font-weight: normal; fill: #000; fill-opacity: 0.8; opacity: 1;">Counties grouped by % of housing units rented</text></g></g><path class="foreground" d="" style="pointer-events: none; display: none; fill: none;"></path></g></g><g class="mark-group role-scope concat_1_layer_0_pathgroup"><g transform="translate(0,0)"><path class="background" d="M0,0h600v450h-600Z" style="fill: none;"></path><g><g class="mark-line role-mark concat_1_layer_0_marks"><path d="M27.272727272727252,-0.22499999999997522L36.363636363636346,-1.3874999999999804C45.45454545454544,-2.5499999999999856,63.63636363636362,-4.874999999999996,81.8181818181818,-5.587500000000001C99.99999999999999,-6.300000000000005,118.18181818181817,-5.400000000000005,136.36363636363635,-2.775000000000002C154.54545454545453,-0.14999999999999977,172.72727272727272,4.200000000000004,190.90909090909088,8.287500000000003C209.0909090909091,12.375000000000002,227.27272727272725,16.2,245.4545454545454,19.874999999999993C263.6363636363636,23.549999999999986,281.8181818181818,27.074999999999978,300,30.41249999999998C318.1818181818182,33.74999999999998,336.3636363636363,36.899999999999984,354.5454545454545,37.64999999999998C372.7272727272727,38.399999999999984,390.9090909090908,36.74999999999998,409.09090909090907,34.087499999999984C427.27272727272725,31.424999999999983,445.45454545454544,27.74999999999999,463.6363636363637,38.24999999999999C481.8181818181818,48.75,500,73.425,518.1818181818181,71.39999999999999C536.3636363636364,69.37499999999999,554.5454545454546,40.649999999999984,563.6363636363636,26.28749999999999L572.7272727272727,11.924999999999986" style="fill: none; stroke: #b2182b; stroke-width: 8; stroke-linecap: round; opacity: 0.85;"></path></g></g><path class="foreground" d="" style="display: none; fill: none;"></path></g><g transform="translate(0,0)"><path class="background" d="M0,0h600v450h-600Z" style="fill: none;"></path><g><g class="mark-line role-mark concat_1_layer_0_marks"><path d="M27.272727272727252,131.625L36.363636363636346,134.32500000000002C45.45454545454544,137.025,63.63636363636362,142.425,81.8181818181818,147.63750000000002C99.99999999999999,152.85000000000002,118.18181818181817,157.875,136.36363636363635,161.25000000000003C154.54545454545453,164.625,172.72727272727272,166.35000000000002,190.90909090909088,167.8125C209.0909090909091,169.275,227.27272727272725,170.475,245.4545454545454,172.95000000000002C263.6363636363636,175.42499999999998,281.8181818181818,179.17499999999998,300,181.42499999999998C318.1818181818182,183.67499999999998,336.3636363636363,184.42499999999998,354.5454545454545,184.27499999999998C372.7272727272727,184.125,390.9090909090908,183.07499999999996,409.09090909090907,181.5375C427.27272727272725,180,445.45454545454544,177.975,463.6363636363637,178.275C481.8181818181818,178.57500000000002,500,181.20000000000002,518.1818181818181,180.75C536.3636363636364,180.29999999999998,554.5454545454546,176.775,563.6363636363636,175.01250000000002L572.7272727272727,173.25" style="fill: none; stroke: #ef8a62; stroke-width: 8; stroke-linecap: round; opacity: 0.85;"></path></g></g><path class="foreground" d="" style="display: none; fill: none;"></path></g><g transform="translate(0,0)"><path class="background" d="M0,0h600v450h-600Z" style="fill: none;"></path><g><g class="mark-line role-mark concat_1_layer_0_marks"><path d="M27.272727272727252,184.27499999999998L36.363636363636346,180.6C45.45454545454544,176.92499999999998,63.63636363636362,169.57500000000002,81.8181818181818,172.01250000000002C99.99999999999999,174.45000000000002,118.18181818181817,186.67499999999998,136.36363636363635,190.19999999999996C154.54545454545453,193.725,172.72727272727272,188.54999999999998,190.90909090909088,188.5875C209.0909090909091,188.625,227.27272727272725,193.875,245.4545454545454,196.95000000000002C263.6363636363636,200.025,281.8181818181818,200.92500000000004,300,197.70000000000002C318.1818181818182,194.475,336.3636363636363,187.125,354.5454545454545,187.04999999999998C372.7272727272727,186.975,390.9090909090908,194.17499999999998,409.09090909090907,194.92499999999998C427.27272727272725,195.67499999999998,445.45454545454544,189.975,463.6363636363637,188.39763749999997C481.8181818181818,186.82027499999995,500,189.36554999999998,518.1818181818181,188.92923749999997C536.3636363636364,188.49292499999999,554.5454545454546,185.075025,563.6363636363636,183.36607500000002L572.7272727272727,181.65712500000004" style="fill: none; stroke: #fddbc7; stroke-width: 8; stroke-linecap: round; opacity: 0.85;"></path></g></g><path class="foreground" d="" style="display: none; fill: none;"></path></g><g transform="translate(0,0)"><path class="background" d="M0,0h600v450h-600Z" style="fill: none;"></path><g><g class="mark-line role-mark concat_1_layer_0_marks"><path d="M27.272727272727252,207.675L36.363636363636346,206.88750000000002C45.45454545454544,206.1,63.63636363636362,204.525,81.8181818181818,204.26249999999996C99.99999999999999,204,118.18181818181817,205.04999999999998,136.36363636363635,206.77499999999998C154.54545454545453,208.5,172.72727272727272,210.89999999999998,190.90909090909088,213.225C209.0909090909091,215.54999999999998,227.27272727272725,217.79999999999998,245.4545454545454,220.01250000000002C263.6363636363636,222.225,281.8181818181818,224.4,300,227.66250000000002C318.1818181818182,230.92500000000004,336.3636363636363,235.275,354.5454545454545,236.025C372.7272727272727,236.775,390.9090909090908,233.92500000000004,409.09090909090907,231.67500000000004C427.27272727272725,229.42499999999998,445.45454545454544,227.77499999999998,463.6363636363637,228.02219999999997C481.8181818181818,228.2694,500,230.4138,518.1818181818181,230.0461875C536.3636363636364,229.67857500000002,554.5454545454546,226.79895000000002,563.6363636363636,225.3591375L572.7272727272727,223.91932500000001" style="fill: none; stroke: #e2e0d3; stroke-width: 8; stroke-linecap: round; opacity: 0.85;"></path></g></g><path class="foreground" d="" style="display: none; fill: none;"></path></g><g transform="translate(0,0)"><path class="background" d="M0,0h600v450h-600Z" style="fill: none;"></path><g><g class="mark-line role-mark concat_1_layer_0_marks"><path d="M27.272727272727252,231.75L36.363636363636346,231.9375C45.45454545454544,232.125,63.63636363636362,232.5,81.8181818181818,233.0625C99.99999999999999,233.625,118.18181818181817,234.375,136.36363636363635,235.23749999999998C154.54545454545453,236.1,172.72727272727272,237.07500000000002,190.90909090909088,239.36249999999998C209.0909090909091,241.65,227.27272727272725,245.25,245.4545454545454,247.57499999999996C263.6363636363636,249.89999999999998,281.8181818181818,250.95000000000002,300,251.81250000000003C318.1818181818182,252.67500000000004,336.3636363636363,253.35000000000002,354.5454545454545,252.82500000000002C372.7272727272727,252.29999999999998,390.9090909090908,250.57499999999996,409.09090909090907,249.0375C427.27272727272725,247.5,445.45454545454544,246.15,463.6363636363637,246.45776249999997C481.8181818181818,246.76552500000003,500,248.73105,518.1818181818181,248.3941125C536.3636363636364,248.057175,554.5454545454546,245.417775,563.6363636363636,244.09807500000002L572.7272727272727,242.778375" style="fill: none; stroke: #d1e5f0; stroke-width: 8; stroke-linecap: round; opacity: 0.85;"></path></g></g><path class="foreground" d="" style="display: none; fill: none;"></path></g><g transform="translate(0,0)"><path class="background" d="M0,0h600v450h-600Z" style="fill: none;"></path><g><g class="mark-line role-mark concat_1_layer_0_marks"><path d="M27.272727272727252,242.10000000000002L36.363636363636346,242.0625C45.45454545454544,242.025,63.63636363636362,241.95000000000002,81.8181818181818,240C99.99999999999999,238.04999999999998,118.18181818181817,234.225,136.36363636363635,234.375C154.54545454545453,234.525,172.72727272727272,238.64999999999998,190.90909090909088,239.625C209.0909090909091,240.6,227.27272727272725,238.42499999999998,245.4545454545454,237.48750000000004C263.6363636363636,236.54999999999998,281.8181818181818,236.85,300,236.1C318.1818181818182,235.35,336.3636363636363,233.54999999999998,354.5454545454545,233.17500000000004C372.7272727272727,232.79999999999998,390.9090909090908,233.85,409.09090909090907,233.17499999999998C427.27272727272725,232.5,445.45454545454544,230.1,463.6363636363637,229.96466250000003C481.8181818181818,229.829325,500,231.95865000000003,518.1818181818181,231.59362500000006C536.3636363636364,231.22860000000003,554.5454545454546,228.36922500000003,563.6363636363636,226.9395375L572.7272727272727,225.50985000000003" style="fill: none; stroke: #67a9cf; stroke-width: 8; stroke-linecap: round; opacity: 0.85;"></path></g></g><path class="foreground" d="" style="display: none; fill: none;"></path></g><g transform="translate(0,0)"><path class="background" d="M0,0h600v450h-600Z" style="fill: none;"></path><g><g class="mark-line role-mark concat_1_layer_0_marks"><path d="M27.272727272727252,146.7L36.363636363636346,146.025C45.45454545454544,145.35,63.63636363636362,143.99999999999997,81.8181818181818,143.85C99.99999999999999,143.69999999999996,118.18181818181817,144.74999999999997,136.36363636363635,143.58749999999998C154.54545454545453,142.42499999999998,172.72727272727272,139.04999999999998,190.90909090909088,141.93749999999997C209.0909090909091,144.82500000000002,227.27272727272725,153.97500000000002,245.4545454545454,161.7375C263.6363636363636,169.50000000000003,281.8181818181818,175.875,300,184.725C318.1818181818182,193.57500000000002,336.3636363636363,204.9,354.5454545454545,203.2125C372.7272727272727,201.525,390.9090909090908,186.82499999999996,409.09090909090907,178.61249999999998C427.27272727272725,170.39999999999998,445.45454545454544,168.67499999999998,463.6363636363637,169.16808749999998C481.8181818181818,169.661175,500,172.37235,518.1818181818181,171.90753750000002C536.3636363636364,171.44272500000002,554.5454545454546,167.801925,563.6363636363636,165.98152500000003L572.7272727272727,164.16112500000003" style="fill: none; stroke: #2166ac; stroke-width: 8; stroke-linecap: round; opacity: 0.85;"></path></g></g><path class="foreground" d="" style="display: none; fill: none;"></path></g></g><g class="mark-text role-mark concat_1_layer_1_marks"><text text-anchor="middle" transform="translate(300,-1)" style="font-family: sans-serif; font-size: 11.5px; font-weight: bold; fill: black; opacity: 0.09;">______________________________________________________________________________________________</text></g><g class="mark-group role-title"><g transform="translate(-2.887245871803998,-102)"><path class="background" d="M0,0h0v0h0Z" style="pointer-events: none; fill: none;"></path><g><g class="mark-text role-title-text" style="pointer-events: none;"><text text-anchor="start" transform="translate(0,28)" style="font-family: Lato; font-size: 36px; font-weight: normal; fill: #000; opacity: 1;">Monthly Homeowner Housing Expense</text></g></g><path class="foreground" d="" style="pointer-events: none; display: none; fill: none;"></path></g></g></g><path class="foreground" d="" style="display: none; fill: none;"></path></g></g><g class="mark-group role-legend"><g transform="translate(1250,0)"><path class="background" d="M0,0h252v232h-252Z" style="pointer-events: none; fill: none;"></path><g><g class="mark-group role-legend-entry"><g transform="translate(0,31)"><path class="background" d="M0,0h0v0h0Z" style="pointer-events: none; fill: none;"></path><g><g class="mark-group role-scope"><g transform="translate(0,0)"><path class="background" d="M0,0h208.70887756347656v27h-208.70887756347656Z" style="pointer-events: none; fill: none; opacity: 1;"></path><g><g class="mark-symbol role-legend-symbol" style="pointer-events: none;"><path transform="translate(14,14)" d="M-10,0L10,0" style="fill: none; stroke: #b2182b; stroke-width: 8; opacity: 0.85;"></path></g><g class="mark-text role-legend-label" style="pointer-events: none;"><text text-anchor="start" transform="translate(32,22)" style="font-family: Lato; font-size: 26px; fill: #000; fill-opacity: 0.85; opacity: 1;">More than 50%</text></g></g><path class="foreground" d="" style="pointer-events: none; display: none; fill: none;"></path></g><g transform="translate(0,29)"><path class="background" d="M0,0h208.70887756347656v27h-208.70887756347656Z" style="pointer-events: none; fill: none; opacity: 1;"></path><g><g class="mark-symbol role-legend-symbol" style="pointer-events: none;"><path transform="translate(14,14)" d="M-10,0L10,0" style="fill: none; stroke: #ef8a62; stroke-width: 8; opacity: 0.85;"></path></g><g class="mark-text role-legend-label" style="pointer-events: none;"><text text-anchor="start" transform="translate(32,22)" style="font-family: Lato; font-size: 26px; fill: #000; fill-opacity: 0.85; opacity: 1;">40 to 50</text></g></g><path class="foreground" d="" style="pointer-events: none; display: none; fill: none;"></path></g><g transform="translate(0,58)"><path class="background" d="M0,0h208.70887756347656v27h-208.70887756347656Z" style="pointer-events: none; fill: none; opacity: 1;"></path><g><g class="mark-symbol role-legend-symbol" style="pointer-events: none;"><path transform="translate(14,14)" d="M-10,0L10,0" style="fill: none; stroke: #fddbc7; stroke-width: 8; opacity: 0.85;"></path></g><g class="mark-text role-legend-label" style="pointer-events: none;"><text text-anchor="start" transform="translate(32,22)" style="font-family: Lato; font-size: 26px; fill: #000; fill-opacity: 0.85; opacity: 1;">35 to 40</text></g></g><path class="foreground" d="" style="pointer-events: none; display: none; fill: none;"></path></g><g transform="translate(0,87)"><path class="background" d="M0,0h208.70887756347656v27h-208.70887756347656Z" style="pointer-events: none; fill: none; opacity: 1;"></path><g><g class="mark-symbol role-legend-symbol" style="pointer-events: none;"><path transform="translate(14,14)" d="M-10,0L10,0" style="fill: none; stroke: #e2e0d3; stroke-width: 8; opacity: 0.85;"></path></g><g class="mark-text role-legend-label" style="pointer-events: none;"><text text-anchor="start" transform="translate(32,22)" style="font-family: Lato; font-size: 26px; fill: #000; fill-opacity: 0.85; opacity: 1;">30 to 35</text></g></g><path class="foreground" d="" style="pointer-events: none; display: none; fill: none;"></path></g><g transform="translate(0,116)"><path class="background" d="M0,0h208.70887756347656v27h-208.70887756347656Z" style="pointer-events: none; fill: none; opacity: 1;"></path><g><g class="mark-symbol role-legend-symbol" style="pointer-events: none;"><path transform="translate(14,14)" d="M-10,0L10,0" style="fill: none; stroke: #d1e5f0; stroke-width: 8; opacity: 0.85;"></path></g><g class="mark-text role-legend-label" style="pointer-events: none;"><text text-anchor="start" transform="translate(32,22)" style="font-family: Lato; font-size: 26px; fill: #000; fill-opacity: 0.85; opacity: 1;">25 to 30</text></g></g><path class="foreground" d="" style="pointer-events: none; display: none; fill: none;"></path></g><g transform="translate(0,145)"><path class="background" d="M0,0h208.70887756347656v27h-208.70887756347656Z" style="pointer-events: none; fill: none; opacity: 1;"></path><g><g class="mark-symbol role-legend-symbol" style="pointer-events: none;"><path transform="translate(14,14)" d="M-10,0L10,0" style="fill: none; stroke: #67a9cf; stroke-width: 8; opacity: 0.85;"></path></g><g class="mark-text role-legend-label" style="pointer-events: none;"><text text-anchor="start" transform="translate(32,22)" style="font-family: Lato; font-size: 26px; fill: #000; fill-opacity: 0.85; opacity: 1;">20 to 25</text></g></g><path class="foreground" d="" style="pointer-events: none; display: none; fill: none;"></path></g><g transform="translate(0,174)"><path class="background" d="M0,0h208.70887756347656v27h-208.70887756347656Z" style="pointer-events: none; fill: none; opacity: 1;"></path><g><g class="mark-symbol role-legend-symbol" style="pointer-events: none;"><path transform="translate(14,14)" d="M-10,0L10,0" style="fill: none; stroke: #2166ac; stroke-width: 8; opacity: 0.85;"></path></g><g class="mark-text role-legend-label" style="pointer-events: none;"><text text-anchor="start" transform="translate(32,22)" style="font-family: Lato; font-size: 26px; fill: #000; fill-opacity: 0.85; opacity: 1;">Less than 20%</text></g></g><path class="foreground" d="" style="pointer-events: none; display: none; fill: none;"></path></g></g></g><path class="foreground" d="" style="pointer-events: none; display: none; fill: none;"></path></g></g><g class="mark-text role-legend-title" style="pointer-events: none;"><text text-anchor="start" transform="translate(0,21)" style="font-family: Lato; font-size: 26px; font-weight: bold; fill: #000; fill-opacity: 0.85; opacity: 1;">Housing Units Rented</text></g></g><path class="foreground" d="" style="pointer-events: none; display: none; fill: none;"></path></g></g></g><path class="foreground" d="" style="display: none; fill: none;"></path></g></g></g></svg>