<svg class="marks" width="1559" height="609" viewBox="0 0 1559 609" version="1.1" xmlns="http://www.w3.org/2000/svg" xmlns:xlink="http://www.w3.org/1999/xlink"><rect width="1559" height="609" style="fill: white;"></rect><g transform="translate(31,108)"><g class="mark-group role-frame root"><g transform="translate(0,0)"><path class="background" d="M0,0h0v450h0Z" style="fill: none;"></path><g><g class="mark-group role-scope concat_0_group"><g transform="translate(0,0)"><path class="background" d="M0.5,0.5h600v450h-600Z" style="fill: none; stroke: #ddd; stroke-opacity: 0;"></path><g><g class="mark-group role-axis"><g transform="translate(0.5,0.5)"><path class="background" d="M0,0h0v0h0Z" style="pointer-events: none; fill: none;"></path><g><g class="mark-rule role-axis-grid" style="pointer-events: none;"><line transform="translate(0,386)" x2="600" y2="0" style="fill: none; stroke: #ddd; stroke-opacity: 1; stroke-width: 1; opacity: 1;"></line><line transform="translate(0,257)" x2="600" y2="0" style="fill: none; stroke: #ddd; stroke-opacity: 1; stroke-width: 1; opacity: 1;"></line><line transform="translate(0,129)" x2="600" y2="0" style="fill: none; stroke: #ddd; stroke-opacity: 1; stroke-width: 1; opacity: 1;"></line></g></g><path class="foreground" d="" style="pointer-events: none; display: none; fill: none;"></path></g></g><g class="mark-group role-axis"><g transform="translate(0.5,450.5)"><path class="background" d="M0,0h0v0h0Z" style="pointer-events: none; fill: none;"></path><g><g class="mark-rule role-axis-tick" style="pointer-events: none;"><line transform="translate(27,0)" x2="0" y2="10" style="fill: none; stroke: #888; stroke-width: 1; opacity: 1;"></line><line transform="translate(573,0)" x2="0" y2="10" style="fill: none; stroke: #888; stroke-width: 1; opacity: 1;"></line></g><g class="mark-text role-axis-label" style="pointer-events: none;"><text text-anchor="middle" transform="translate(27.272727272727252,41)" style="font-family: Lato; font-size: 26px; fill: #000; fill-opacity: 0.8; opacity: 1;">2008</text><text text-anchor="middle" transform="translate(572.7272727272727,41)" style="font-family: Lato; font-size: 26px; fill: #000; fill-opacity: 0.8; opacity: 1;">2018</text></g><g class="mark-rule role-axis-domain" style="pointer-events: none;"><line transform="translate(0,0)" x2="600" y2="0" style="fill: none; stroke: #888; stroke-width: 1; opacity: 1;"></line></g></g><path class="foreground" d="" style="pointer-events: none; display: none; fill: none;"></path></g></g><g class="mark-group role-axis"><g transform="translate(0.5,0.5)"><path class="background" d="M0,0h0v0h0Z" style="pointer-events: none; fill: none;"></path><g><g class="mark-text role-axis-label" style="pointer-events: none;"><text text-anchor="start" transform="translate(-25,393.7142857142857)" style="font-family: Lato; font-size: 26px; fill: #000; fill-opacity: 0.8; opacity: 1;">2k</text><text text-anchor="start" transform="translate(-25,265.1428571428571)" style="font-family: Lato; font-size: 26px; fill: #000; fill-opacity: 0.8; opacity: 1;">4k</text><text text-anchor="start" transform="translate(-25,136.57142857142856)" style="font-family: Lato; font-size: 26px; fill: #000; fill-opacity: 0.8; opacity: 1;">6k</text></g><g class="mark-rule role-axis-domain" style="pointer-events: none;"><line transform="translate(0,450)" x2="0" y2="-450" style="fill: none; stroke: #888; stroke-width: 0; opacity: 1;"></line></g><g class="mark-text role-axis-title" style="pointer-events: none;"><text text-anchor="start" transform="translate(-25,-40)" style="font-family: Lato; font-size: 26px; font-weight: normal; fill: #000; fill-opacity: 0.8; opacity: 1;">Counties grouped by housing density</text></g></g><path class="foreground" d="" style="pointer-events: none; display: none; fill: none;"></path></g></g><g class="mark-group role-scope concat_0_layer_0_pathgroup"><g transform="translate(0,0)"><path class="background" d="M0,0h600v450h-600Z" style="fill: none;"></path><g><g class="mark-line role-mark concat_0_layer_0_marks"><path d="M27.272727272727252,331.65L36.363636363636346,331.4357142857143C45.45454545454544,331.2214285714286,63.63636363636362,330.79285714285714,81.8181818181818,330.35357142857146C99.99999999999999,329.91428571428577,118.18181818181817,329.4642857142857,136.36363636363635,328.73571428571427C154.54545454545453,328.0071428571428,172.72727272727272,327,190.90909090909088,325.85357142857146C209.0909090909091,324.70714285714286,227.27272727272725,323.4214285714286,245.4545454545454,322.2857142857143C263.6363636363636,321.15000000000003,281.8181818181818,320.16428571428577,300,318.52500000000003C318.1818181818182,316.8857142857143,336.3636363636363,314.5928571428571,354.5454545454545,311.28214285714284C372.7272727272727,307.97142857142853,390.9090909090908,303.6428571428571,409.09090909090907,299.6035714285714C427.27272727272725,295.5642857142857,445.45454545454544,291.8142857142857,463.6363636363637,289.34999999999997C481.8181818181818,286.8857142857143,500,285.70714285714286,518.1818181818181,282.90000000000003C536.3636363636364,280.09285714285716,554.5454545454546,275.6571428571429,563.6363636363636,273.43928571428575L572.7272727272727,271.2214285714286" style="fill: none; stroke: #b2182b; stroke-width: 8; stroke-linecap: round; opacity: 1;"></path></g></g><path class="foreground" d="" style="display: none; fill: none;"></path></g><g transform="translate(0,0)"><path class="background" d="M0,0h600v450h-600Z" style="fill: none;"></path><g><g class="mark-line role-mark concat_0_layer_0_marks"><path d="M27.272727272727252,348.5571428571429L36.363636363636346,348.27857142857147C45.45454545454544,348,63.63636363636362,347.4428571428571,81.8181818181818,347.175C99.99999999999999,346.90714285714284,118.18181818181817,346.9285714285714,136.36363636363635,346.77857142857147C154.54545454545453,346.62857142857143,172.72727272727272,346.3071428571429,190.90909090909088,345.5357142857143C209.0909090909091,344.76428571428573,227.27272727272725,343.54285714285714,245.4545454545454,342.075C263.6363636363636,340.60714285714283,281.8181818181818,338.89285714285717,300,336.9107142857143C318.1818181818182,334.9285714285714,336.3636363636363,332.6785714285714,354.5454545454545,330.0535714285714C372.7272727272727,327.4285714285714,390.9090909090908,324.4285714285714,409.09090909090907,321.1714285714286C427.27272727272725,317.91428571428577,445.45454545454544,314.40000000000003,463.6363636363637,313.15714285714284C481.8181818181818,311.91428571428577,500,312.9428571428571,518.1818181818181,310.93928571428575C536.3636363636364,308.9357142857143,554.5454545454546,303.90000000000003,563.6363636363636,301.3821428571428L572.7272727272727,298.8642857142857" style="fill: none; stroke: #ef8a62; stroke-width: 8; stroke-linecap: round; opacity: 1;"></path></g></g><path class="foreground" d="" style="display: none; fill: none;"></path></g><g transform="translate(0,0)"><path class="background" d="M0,0h600v450h-600Z" style="fill: none;"></path><g><g class="mark-line role-mark concat_0_layer_0_marks"><path d="M27.272727272727252,365.7214285714286L36.363636363636346,365.25C45.45454545454544,364.77857142857147,63.63636363636362,363.83571428571435,81.8181818181818,363.3214285714286C99.99999999999999,362.8071428571429,118.18181818181817,362.7214285714286,136.36363636363635,362.66785714285714C154.54545454545453,362.6142857142857,172.72727272727272,362.59285714285716,190.90909090909088,362.1857142857143C209.0909090909091,361.77857142857147,227.27272727272725,360.9857142857143,245.4545454545454,360.1607142857143C263.6363636363636,359.33571428571435,281.8181818181818,358.47857142857146,300,357.2250000000001C318.1818181818182,355.97142857142853,336.3636363636363,354.3214285714286,354.5454545454545,352.5107142857143C372.7272727272727,350.7,390.9090909090908,348.72857142857146,409.09090909090907,346.2428571428572C427.27272727272725,343.7571428571429,445.45454545454544,340.75714285714287,463.6363636363637,339.7034892857143C481.8181818181818,338.6498357142857,500,339.5425285714286,518.1818181818181,337.8036535714286C536.3636363636364,336.0647785714286,554.5454545454546,331.69433571428567,563.6363636363636,329.50911428571425L572.7272727272727,327.3238928571428" style="fill: none; stroke: #fddbc7; stroke-width: 8; stroke-linecap: round; opacity: 1;"></path></g></g><path class="foreground" d="" style="display: none; fill: none;"></path></g><g transform="translate(0,0)"><path class="background" d="M0,0h600v450h-600Z" style="fill: none;"></path><g><g class="mark-line role-mark concat_0_layer_0_marks"><path d="M27.272727272727252,383.7214285714286L36.363636363636346,383.11071428571427C45.45454545454544,382.5,63.63636363636362,381.2785714285714,81.8181818181818,380.56071428571425C99.99999999999999,379.84285714285716,118.18181818181817,379.6285714285714,136.36363636363635,379.14642857142854C154.54545454545453,378.66428571428577,172.72727272727272,377.91428571428577,190.90909090909088,376.7785714285714C209.0909090909091,375.64285714285717,227.27272727272725,374.1214285714286,245.4545454545454,372.70714285714286C263.6363636363636,371.29285714285714,281.8181818181818,369.9857142857143,300,368.625C318.1818181818182,367.26428571428573,336.3636363636363,365.84999999999997,354.5454545454545,363.9107142857142C372.7272727272727,361.97142857142853,390.9090909090908,359.5071428571428,409.09090909090907,357.5571428571429C427.27272727272725,355.60714285714283,445.45454545454544,354.1714285714286,463.6363636363637,353.86204285714285C481.8181818181818,353.5526571428571,500,354.3696,518.1818181818181,352.7782714285715C536.3636363636364,351.18694285714287,554.5454545454546,347.1873428571428,563.6363636363636,345.1875428571429L572.7272727272727,343.1877428571429" style="fill: none; stroke: #e2e0d3; stroke-width: 8; stroke-linecap: round; opacity: 1;"></path></g></g><path class="foreground" d="" style="display: none; fill: none;"></path></g><g transform="translate(0,0)"><path class="background" d="M0,0h600v450h-600Z" style="fill: none;"></path><g><g class="mark-line role-mark concat_0_layer_0_marks"><path d="M27.272727272727252,388.41428571428577L36.363636363636346,387.6857142857143C45.45454545454544,386.95714285714286,63.63636363636362,385.5,81.8181818181818,383.9464285714286C99.99999999999999,382.39285714285717,118.18181818181817,380.7428571428572,136.36363636363635,380.15357142857147C154.54545454545453,379.5642857142857,172.72727272727272,380.0357142857143,190.90909090909088,379.91785714285714C209.0909090909091,379.8,227.27272727272725,379.09285714285716,245.4545454545454,378.3214285714286C263.6363636363636,377.55,281.8181818181818,376.7142857142857,300,375.3107142857143C318.1818181818182,373.90714285714284,336.3636363636363,371.9357142857143,354.5454545454545,370.09285714285716C372.7272727272727,368.25,390.9090909090908,366.5357142857143,409.09090909090907,364.4892857142857C427.27272727272725,362.4428571428571,445.45454545454544,360.0642857142857,463.6363636363637,359.2709571428572C481.8181818181818,358.47762857142857,500,359.2695428571428,518.1818181818181,357.72697500000004C536.3636363636364,356.1844071428571,554.5454545454546,352.30735714285714,563.6363636363636,350.3688321428572L572.7272727272727,348.43030714285715" style="fill: none; stroke: #d1e5f0; stroke-width: 8; stroke-linecap: round; opacity: 1;"></path></g></g><path class="foreground" d="" style="display: none; fill: none;"></path></g><g transform="translate(0,0)"><path class="background" d="M0,0h600v450h-600Z" style="fill: none;"></path><g><g class="mark-line role-mark concat_0_layer_0_marks"><path d="M27.272727272727252,382.75714285714287L36.363636363636346,381.75C45.45454545454544,380.7428571428572,63.63636363636362,378.72857142857146,81.8181818181818,377.2607142857143C99.99999999999999,375.79285714285714,118.18181818181817,374.87142857142857,136.36363636363635,373.73571428571427C154.54545454545453,372.59999999999997,172.72727272727272,371.25,190.90909090909088,370.39285714285717C209.0909090909091,369.5357142857143,227.27272727272725,369.1714285714286,245.4545454545454,368.71071428571435C263.6363636363636,368.25,281.8181818181818,367.6928571428571,300,366.375C318.1818181818182,365.0571428571429,336.3636363636363,362.97857142857146,354.5454545454545,360.33214285714286C372.7272727272727,357.6857142857143,390.9090909090908,354.4714285714286,409.09090909090907,352.0714285714286C427.27272727272725,349.6714285714286,445.45454545454544,348.08571428571423,463.6363636363637,347.7170892857143C481.8181818181818,347.3484642857143,500,348.19692857142854,518.1818181818181,346.5441642857143C536.3636363636364,344.8914,554.5454545454546,340.73740714285714,563.6363636363636,338.6604107142857L572.7272727272727,336.5834142857143" style="fill: none; stroke: #67a9cf; stroke-width: 8; stroke-linecap: round; opacity: 1;"></path></g></g><path class="foreground" d="" style="display: none; fill: none;"></path></g><g transform="translate(0,0)"><path class="background" d="M0,0h600v450h-600Z" style="fill: none;"></path><g><g class="mark-line role-mark concat_0_layer_0_marks"><path d="M27.272727272727252,362.0571428571429L36.363636363636346,362.58214285714286C45.45454545454544,363.1071428571429,63.63636363636362,364.15714285714284,81.8181818181818,364.01785714285717C99.99999999999999,363.87857142857143,118.18181818181817,362.55,136.36363636363635,361.65000000000003C154.54545454545453,360.75,172.72727272727272,360.27857142857147,190.90909090909088,359.14285714285717C209.0909090909091,358.0071428571429,227.27272727272725,356.20714285714286,245.4545454545454,355.2964285714286C263.6363636363636,354.3857142857143,281.8181818181818,354.3642857142857,300,353.64642857142854C318.1818181818182,352.9285714285714,336.3636363636363,351.51428571428573,354.5454545454545,349.6178571428572C372.7272727272727,347.7214285714286,390.9090909090908,345.34285714285716,409.09090909090907,343.2964285714286C427.27272727272725,341.25,445.45454545454544,339.5357142857143,463.6363636363637,339.1247464285714C481.8181818181818,338.7137785714286,500,339.60612857142854,518.1818181818181,337.86787499999997C536.3636363636364,336.12962142857145,554.5454545454546,331.7607642857143,563.6363636363636,329.57633571428573L572.7272727272727,327.3919071428572" style="fill: none; stroke: #2166ac; stroke-width: 8; stroke-linecap: round; opacity: 1;"></path></g></g><path class="foreground" d="" style="display: none; fill: none;"></path></g></g><g class="mark-text role-mark concat_0_layer_1_marks"><text text-anchor="middle" transform="translate(59.27272727272725,8)" style="font-family: lato; font-size: 26px; fill: black; opacity: 0.8;">$8k per month</text></g><g class="mark-text role-mark concat_0_layer_2_marks"><text text-anchor="middle" transform="translate(372.27272727272725,-1)" style="font-family: sans-serif; font-size: 11.5px; font-weight: bold; fill: black; opacity: 0.09;">________________________________________________________________________</text></g><g class="mark-group role-title"><g transform="translate(-25.090721823952435,-102)"><path class="background" d="M0,0h0v0h0Z" style="pointer-events: none; fill: none;"></path><g><g class="mark-text role-title-text" style="pointer-events: none;"><text text-anchor="start" transform="translate(0,28)" style="font-family: Lato; font-size: 36px; font-weight: normal; fill: #000; opacity: 1;">Monthly Renter Income</text></g></g><path class="foreground" d="" style="pointer-events: none; display: none; fill: none;"></path></g></g></g><path class="foreground" d="" style="display: none; fill: none;"></path></g></g><g class="mark-group role-scope concat_1_group"><g transform="translate(626,0)"><path class="background" d="M0.5,0.5h600v450h-600Z" style="fill: none; stroke: #ddd; stroke-opacity: 0;"></path><g><g class="mark-group role-axis"><g transform="translate(0.5,0.5)"><path class="background" d="M0,0h0v0h0Z" style="pointer-events: none; fill: none;"></path><g><g class="mark-rule role-axis-grid" style="pointer-events: none;"><line transform="translate(0,386)" x2="600" y2="0" style="fill: none; stroke: #ddd; stroke-opacity: 1; stroke-width: 1; opacity: 1;"></line><line transform="translate(0,257)" x2="600" y2="0" style="fill: none; stroke: #ddd; stroke-opacity: 1; stroke-width: 1; opacity: 1;"></line><line transform="translate(0,129)" x2="600" y2="0" style="fill: none; stroke: #ddd; stroke-opacity: 1; stroke-width: 1; opacity: 1;"></line></g></g><path class="foreground" d="" style="pointer-events: none; display: none; fill: none;"></path></g></g><g class="mark-group role-axis"><g transform="translate(0.5,450.5)"><path class="background" d="M0,0h0v0h0Z" style="pointer-events: none; fill: none;"></path><g><g class="mark-rule role-axis-tick" style="pointer-events: none;"><line transform="translate(27,0)" x2="0" y2="10" style="fill: none; stroke: #888; stroke-width: 1; opacity: 1;"></line><line transform="translate(573,0)" x2="0" y2="10" style="fill: none; stroke: #888; stroke-width: 1; opacity: 1;"></line></g><g class="mark-text role-axis-label" style="pointer-events: none;"><text text-anchor="middle" transform="translate(27.272727272727252,41)" style="font-family: Lato; font-size: 26px; fill: #000; fill-opacity: 0.8; opacity: 1;">2008</text><text text-anchor="middle" transform="translate(572.7272727272727,41)" style="font-family: Lato; font-size: 26px; fill: #000; fill-opacity: 0.8; opacity: 1;">2018</text></g><g class="mark-rule role-axis-domain" style="pointer-events: none;"><line transform="translate(0,0)" x2="600" y2="0" style="fill: none; stroke: #888; stroke-width: 1; opacity: 1;"></line></g></g><path class="foreground" d="" style="pointer-events: none; display: none; fill: none;"></path></g></g><g class="mark-group role-axis"><g transform="translate(0.5,0.5)"><path class="background" d="M0,0h0v0h0Z" style="pointer-events: none; fill: none;"></path><g><g class="mark-text role-axis-label" style="pointer-events: none;"><text text-anchor="start" transform="translate(0,393.7142857142857)" style="font-family: Lato; font-size: 26px; fill: #000; fill-opacity: 0; opacity: 1;">2k</text><text text-anchor="start" transform="translate(0,265.1428571428571)" style="font-family: Lato; font-size: 26px; fill: #000; fill-opacity: 0; opacity: 1;">4k</text><text text-anchor="start" transform="translate(0,136.57142857142856)" style="font-family: Lato; font-size: 26px; fill: #000; fill-opacity: 0; opacity: 1;">6k</text></g><g class="mark-rule role-axis-domain" style="pointer-events: none;"><line transform="translate(0,450)" x2="0" y2="-450" style="fill: none; stroke: #888; stroke-width: 0; opacity: 1;"></line></g><g class="mark-text role-axis-title" style="pointer-events: none;"><text text-anchor="start" transform="translate(-2,-40)" style="font-family: Lato; font-size: 26px; font-weight: normal; fill: #000; fill-opacity: 0.8; opacity: 1;">Counties grouped by housing density</text></g></g><path class="foreground" d="" style="pointer-events: none; display: none; fill: none;"></path></g></g><g class="mark-group role-scope concat_1_layer_0_pathgroup"><g transform="translate(0,0)"><path class="background" d="M0,0h600v450h-600Z" style="fill: none;"></path><g><g class="mark-line role-mark concat_1_layer_0_marks"><path d="M27.272727272727252,119.7642857142857L36.363636363636346,118.53214285714284C45.45454545454544,117.3,63.63636363636362,114.83571428571427,81.8181818181818,112.79999999999997C99.99999999999999,110.76428571428569,118.18181818181817,109.15714285714284,136.36363636363635,108.42857142857143C154.54545454545453,107.7,172.72727272727272,107.85000000000001,190.90909090909088,107.26071428571429C209.0909090909091,106.67142857142856,227.27272727272725,105.34285714285711,245.4545454545454,103.30714285714284C263.6363636363636,101.27142857142856,281.8181818181818,98.52857142857142,300,95.23928571428571C318.1818181818182,91.95,336.3636363636363,88.11428571428571,354.5454545454545,83.28214285714286C372.7272727272727,78.45,390.9090909090908,72.62142857142858,409.09090909090907,66.48214285714286C427.27272727272725,60.342857142857156,445.45454545454544,53.892857142857146,463.6363636363637,51.21428571428572C481.8181818181818,48.5357142857143,500,49.62857142857144,518.1818181818181,46.69285714285716C536.3636363636364,43.757142857142874,554.5454545454546,36.79285714285715,563.6363636363636,33.31071428571429L572.7272727272727,29.828571428571426" style="fill: none; stroke: #b2182b; stroke-width: 8; stroke-linecap: round; opacity: 1;"></path></g></g><path class="foreground" d="" style="display: none; fill: none;"></path></g><g transform="translate(0,0)"><path class="background" d="M0,0h600v450h-600Z" style="fill: none;"></path><g><g class="mark-line role-mark concat_1_layer_0_marks"><path d="M27.272727272727252,162.5142857142857L36.363636363636346,161.65714285714287C45.45454545454544,160.79999999999998,63.63636363636362,159.0857142857143,81.8181818181818,157.8107142857143C99.99999999999999,156.5357142857143,118.18181818181817,155.70000000000002,136.36363636363635,154.72500000000002C154.54545454545453,153.75,172.72727272727272,152.63571428571427,190.90909090909088,152.175C209.0909090909091,151.7142857142857,227.27272727272725,151.90714285714284,245.4545454545454,151.25357142857143C263.6363636363636,150.6,281.8181818181818,149.1,300,146.61428571428573C318.1818181818182,144.1285714285714,336.3636363636363,140.65714285714284,354.5454545454545,136.69285714285715C372.7272727272727,132.72857142857143,390.9090909090908,128.27142857142857,409.09090909090907,123.73928571428571C427.27272727272725,119.20714285714286,445.45454545454544,114.60000000000001,463.6363636363637,113.00357142857143C481.8181818181818,111.40714285714286,500,112.82142857142857,518.1818181818181,110.95714285714286C536.3636363636364,109.09285714285714,554.5454545454546,103.94999999999999,563.6363636363636,101.37857142857142L572.7272727272727,98.80714285714284" style="fill: none; stroke: #ef8a62; stroke-width: 8; stroke-linecap: round; opacity: 1;"></path></g></g><path class="foreground" d="" style="display: none; fill: none;"></path></g><g transform="translate(0,0)"><path class="background" d="M0,0h600v450h-600Z" style="fill: none;"></path><g><g class="mark-line role-mark concat_1_layer_0_marks"><path d="M27.272727272727252,208.86428571428573L36.363636363636346,207.20357142857142C45.45454545454544,205.54285714285712,63.63636363636362,202.22142857142856,81.8181818181818,200.48571428571427C99.99999999999999,198.75,118.18181818181817,198.6,136.36363636363635,198.36428571428573C154.54545454545453,198.1285714285714,172.72727272727272,197.80714285714285,190.90909090909088,197.3892857142857C209.0909090909091,196.97142857142853,227.27272727272725,196.45714285714283,245.4545454545454,195.4392857142857C263.6363636363636,194.42142857142858,281.8181818181818,192.9,300,191.42142857142858C318.1818181818182,189.94285714285715,336.3636363636363,188.50714285714284,354.5454545454545,185.69999999999996C372.7272727272727,182.89285714285714,390.9090909090908,178.7142857142857,409.09090909090907,174.54642857142858C427.27272727272725,170.37857142857143,445.45454545454544,166.22142857142856,463.6363636363637,164.75891785714285C481.8181818181818,163.2964071428571,500,164.52852857142855,518.1818181818181,162.90435C536.3636363636364,161.2801714285714,554.5454545454546,156.79969285714284,563.6363636363636,154.55945357142855L572.7272727272727,152.31921428571428" style="fill: none; stroke: #fddbc7; stroke-width: 8; stroke-linecap: round; opacity: 1;"></path></g></g><path class="foreground" d="" style="display: none; fill: none;"></path></g><g transform="translate(0,0)"><path class="background" d="M0,0h600v450h-600Z" style="fill: none;"></path><g><g class="mark-line role-mark concat_1_layer_0_marks"><path d="M27.272727272727252,243.19285714285718L36.363636363636346,242.04642857142858C45.45454545454544,240.9,63.63636363636362,238.6071428571429,81.8181818181818,236.89285714285714C99.99999999999999,235.17857142857142,118.18181818181817,234.04285714285712,136.36363636363635,233.34642857142853C154.54545454545453,232.64999999999998,172.72727272727272,232.3928571428571,190.90909090909088,231.61071428571427C209.0909090909091,230.8285714285714,227.27272727272725,229.52142857142857,245.4545454545454,228.3535714285714C263.6363636363636,227.18571428571428,281.8181818181818,226.15714285714284,300,224.32499999999996C318.1818181818182,222.49285714285713,336.3636363636363,219.85714285714286,354.5454545454545,216.48214285714286C372.7272727272727,213.1071428571429,390.9090909090908,208.99285714285716,409.09090909090907,204.9642857142857C427.27272727272725,200.9357142857143,445.45454545454544,196.99285714285716,463.6363636363637,195.58329642857143C481.8181818181818,194.17373571428573,500,195.2974714285714,518.1818181818181,193.8161785714286C536.3636363636364,192.33488571428572,554.5454545454546,188.24856428571425,563.6363636363636,186.20540357142855L572.7272727272727,184.16224285714284" style="fill: none; stroke: #e2e0d3; stroke-width: 8; stroke-linecap: round; opacity: 1;"></path></g></g><path class="foreground" d="" style="display: none; fill: none;"></path></g><g transform="translate(0,0)"><path class="background" d="M0,0h600v450h-600Z" style="fill: none;"></path><g><g class="mark-line role-mark concat_1_layer_0_marks"><path d="M27.272727272727252,253.86428571428573L36.363636363636346,252.6857142857143C45.45454545454544,251.50714285714287,63.63636363636362,249.15,81.8181818181818,247.47857142857143C99.99999999999999,245.80714285714285,118.18181818181817,244.82142857142856,136.36363636363635,243.93214285714282C154.54545454545453,243.04285714285712,172.72727272727272,242.25,190.90909090909088,241.40357142857138C209.0909090909091,240.55714285714285,227.27272727272725,239.65714285714284,245.4545454545454,239.04642857142858C263.6363636363636,238.4357142857143,281.8181818181818,238.11428571428573,300,236.52857142857147C318.1818181818182,234.94285714285718,336.3636363636363,232.09285714285716,354.5454545454545,229.48928571428573C372.7272727272727,226.88571428571427,390.9090909090908,224.52857142857144,409.09090909090907,221.3785714285714C427.27272727272725,218.2285714285714,445.45454545454544,214.28571428571425,463.6363636363637,212.8459071428571C481.8181818181818,211.4061,500,212.4693428571429,518.1818181818181,211.06779642857146C536.3636363636364,209.66625000000002,554.5454545454546,205.7999142857143,563.6363636363636,203.86674642857145L572.7272727272727,201.93357857142857" style="fill: none; stroke: #d1e5f0; stroke-width: 8; stroke-linecap: round; opacity: 1;"></path></g></g><path class="foreground" d="" style="display: none; fill: none;"></path></g><g transform="translate(0,0)"><path class="background" d="M0,0h600v450h-600Z" style="fill: none;"></path><g><g class="mark-line role-mark concat_1_layer_0_marks"><path d="M27.272727272727252,261.5785714285714L36.363636363636346,259.5535714285714C45.45454545454544,257.5285714285714,63.63636363636362,253.47857142857143,81.8181818181818,251.3142857142857C99.99999999999999,249.15,118.18181818181817,248.8714285714286,136.36363636363635,247.99285714285716C154.54545454545453,247.11428571428576,172.72727272727272,245.63571428571433,190.90909090909088,244.3821428571429C209.0909090909091,243.12857142857146,227.27272727272725,242.1,245.4545454545454,240.79285714285712C263.6363636363636,239.48571428571427,281.8181818181818,237.9,300,236.74285714285713C318.1818181818182,235.5857142857143,336.3636363636363,234.85714285714286,354.5454545454545,232.51071428571427C372.7272727272727,230.1642857142857,390.9090909090908,226.20000000000002,409.09090909090907,222.51428571428573C427.27272727272725,218.82857142857142,445.45454545454544,215.42142857142858,463.6363636363637,214.24655357142856C481.8181818181818,213.07167857142858,500,214.1290714285714,518.1818181818181,212.7352285714286C536.3636363636364,211.3413857142857,554.5454545454546,207.49630714285718,563.6363636363636,205.5737678571429L572.7272727272727,203.65122857142862" style="fill: none; stroke: #67a9cf; stroke-width: 8; stroke-linecap: round; opacity: 1;"></path></g></g><path class="foreground" d="" style="display: none; fill: none;"></path></g><g transform="translate(0,0)"><path class="background" d="M0,0h600v450h-600Z" style="fill: none;"></path><g><g class="mark-line role-mark concat_1_layer_0_marks"><path d="M27.272727272727252,252.70714285714288L36.363636363636346,251.7857142857143C45.45454545454544,250.86428571428573,63.63636363636362,249.02142857142857,81.8181818181818,247.86428571428573C99.99999999999999,246.70714285714283,118.18181818181817,246.23571428571427,136.36363636363635,245.45357142857142C154.54545454545453,244.67142857142858,172.72727272727272,243.57857142857145,190.90909090909088,241.69285714285718C209.0909090909091,239.8071428571429,227.27272727272725,237.12857142857146,245.4545454545454,235.67142857142858C263.6363636363636,234.2142857142857,281.8181818181818,233.9785714285714,300,232.15714285714282C318.1818181818182,230.33571428571426,336.3636363636363,226.92857142857142,354.5454545454545,223.66071428571425C372.7272727272727,220.3928571428571,390.9090909090908,217.26428571428573,409.09090909090907,214.20000000000002C427.27272727272725,211.13571428571427,445.45454545454544,208.13571428571427,463.6363636363637,207.17644285714286C481.8181818181818,206.21717142857142,500,207.29862857142857,518.1818181818181,205.87307142857142C536.3636363636364,204.4475142857143,554.5454545454546,200.51494285714284,563.6363636363636,198.54865714285714L572.7272727272727,196.58237142857143" style="fill: none; stroke: #2166ac; stroke-width: 8; stroke-linecap: round; opacity: 1;"></path></g></g><path class="foreground" d="" style="display: none; fill: none;"></path></g></g><g class="mark-text role-mark concat_1_layer_1_marks"><text text-anchor="middle" transform="translate(302.27272727272725,-1)" style="font-family: sans-serif; font-size: 11.5px; font-weight: bold; fill: black; opacity: 0.09;">______________________________________________________________________________________________</text></g><g class="mark-group role-title"><g transform="translate(-2.887245871803998,-102)"><path class="background" d="M0,0h0v0h0Z" style="pointer-events: none; fill: none;"></path><g><g class="mark-text role-title-text" style="pointer-events: none;"><text text-anchor="start" transform="translate(0,28)" style="font-family: Lato; font-size: 36px; font-weight: normal; fill: #000; opacity: 1;">Monthly Homeowner Income</text></g></g><path class="foreground" d="" style="pointer-events: none; display: none; fill: none;"></path></g></g></g><path class="foreground" d="" style="display: none; fill: none;"></path></g></g><g class="mark-group role-legend"><g transform="translate(1247,0)"><path class="background" d="M0,0h276v232h-276Z" style="pointer-events: none; fill: none;"></path><g><g class="mark-group role-legend-entry"><g transform="translate(0,31)"><path class="background" d="M0,0h0v0h0Z" style="pointer-events: none; fill: none;"></path><g><g class="mark-group role-scope"><g transform="translate(0,0)"><path class="background" d="M0,0h202.9498748779297v27h-202.9498748779297Z" style="pointer-events: none; fill: none; opacity: 1;"></path><g><g class="mark-symbol role-legend-symbol" style="pointer-events: none;"><path transform="translate(14,14)" d="M-10,0L10,0" style="fill: none; stroke: #b2182b; stroke-width: 8; opacity: 1;"></path></g><g class="mark-text role-legend-label" style="pointer-events: none;"><text text-anchor="start" transform="translate(32,22)" style="font-family: Lato; font-size: 26px; fill: #000; fill-opacity: 0.85; opacity: 1;">More than 200</text></g></g><path class="foreground" d="" style="pointer-events: none; display: none; fill: none;"></path></g><g transform="translate(0,29)"><path class="background" d="M0,0h202.9498748779297v27h-202.9498748779297Z" style="pointer-events: none; fill: none; opacity: 1;"></path><g><g class="mark-symbol role-legend-symbol" style="pointer-events: none;"><path transform="translate(14,14)" d="M-10,0L10,0" style="fill: none; stroke: #ef8a62; stroke-width: 8; opacity: 1;"></path></g><g class="mark-text role-legend-label" style="pointer-events: none;"><text text-anchor="start" transform="translate(32,22)" style="font-family: Lato; font-size: 26px; fill: #000; fill-opacity: 0.85; opacity: 1;">75 to 200</text></g></g><path class="foreground" d="" style="pointer-events: none; display: none; fill: none;"></path></g><g transform="translate(0,58)"><path class="background" d="M0,0h202.9498748779297v27h-202.9498748779297Z" style="pointer-events: none; fill: none; opacity: 1;"></path><g><g class="mark-symbol role-legend-symbol" style="pointer-events: none;"><path transform="translate(14,14)" d="M-10,0L10,0" style="fill: none; stroke: #fddbc7; stroke-width: 8; opacity: 1;"></path></g><g class="mark-text role-legend-label" style="pointer-events: none;"><text text-anchor="start" transform="translate(32,22)" style="font-family: Lato; font-size: 26px; fill: #000; fill-opacity: 0.85; opacity: 1;">30 to 75</text></g></g><path class="foreground" d="" style="pointer-events: none; display: none; fill: none;"></path></g><g transform="translate(0,87)"><path class="background" d="M0,0h202.9498748779297v27h-202.9498748779297Z" style="pointer-events: none; fill: none; opacity: 1;"></path><g><g class="mark-symbol role-legend-symbol" style="pointer-events: none;"><path transform="translate(14,14)" d="M-10,0L10,0" style="fill: none; stroke: #e2e0d3; stroke-width: 8; opacity: 1;"></path></g><g class="mark-text role-legend-label" style="pointer-events: none;"><text text-anchor="start" transform="translate(32,22)" style="font-family: Lato; font-size: 26px; fill: #000; fill-opacity: 0.85; opacity: 1;">20 to 30</text></g></g><path class="foreground" d="" style="pointer-events: none; display: none; fill: none;"></path></g><g transform="translate(0,116)"><path class="background" d="M0,0h202.9498748779297v27h-202.9498748779297Z" style="pointer-events: none; fill: none; opacity: 1;"></path><g><g class="mark-symbol role-legend-symbol" style="pointer-events: none;"><path transform="translate(14,14)" d="M-10,0L10,0" style="fill: none; stroke: #d1e5f0; stroke-width: 8; opacity: 1;"></path></g><g class="mark-text role-legend-label" style="pointer-events: none;"><text text-anchor="start" transform="translate(32,22)" style="font-family: Lato; font-size: 26px; fill: #000; fill-opacity: 0.85; opacity: 1;">10 to 20</text></g></g><path class="foreground" d="" style="pointer-events: none; display: none; fill: none;"></path></g><g transform="translate(0,145)"><path class="background" d="M0,0h202.9498748779297v27h-202.9498748779297Z" style="pointer-events: none; fill: none; opacity: 1;"></path><g><g class="mark-symbol role-legend-symbol" style="pointer-events: none;"><path transform="translate(14,14)" d="M-10,0L10,0" style="fill: none; stroke: #67a9cf; stroke-width: 8; opacity: 1;"></path></g><g class="mark-text role-legend-label" style="pointer-events: none;"><text text-anchor="start" transform="translate(32,22)" style="font-family: Lato; font-size: 26px; fill: #000; fill-opacity: 0.85; opacity: 1;">5 to 10</text></g></g><path class="foreground" d="" style="pointer-events: none; display: none; fill: none;"></path></g><g transform="translate(0,174)"><path class="background" d="M0,0h202.9498748779297v27h-202.9498748779297Z" style="pointer-events: none; fill: none; opacity: 1;"></path><g><g class="mark-symbol role-legend-symbol" style="pointer-events: none;"><path transform="translate(14,14)" d="M-10,0L10,0" style="fill: none; stroke: #2166ac; stroke-width: 8; opacity: 1;"></path></g><g class="mark-text role-legend-label" style="pointer-events: none;"><text text-anchor="start" transform="translate(32,22)" style="font-family: Lato; font-size: 26px; fill: #000; fill-opacity: 0.85; opacity: 1;">Less than 5</text></g></g><path class="foreground" d="" style="pointer-events: none; display: none; fill: none;"></path></g></g></g><path class="foreground" d="" style="pointer-events: none; display: none; fill: none;"></path></g></g><g class="mark-text role-legend-title" style="pointer-events: none;"><text text-anchor="start" transform="translate(0,21)" style="font-family: Lato; font-size: 26px; font-weight: bold; fill: #000; fill-opacity: 0.85; opacity: 1;">Housing Units / sq. mile</text></g></g><path class="foreground" d="" style="pointer-events: none; display: none; fill: none;"></path></g></g></g><path class="foreground" d="" style="display: none; fill: none;"></path></g></g></g></svg>