<svg class="marks" width="650" height="590" viewBox="0 0 650 590" version="1.1" xmlns="http://www.w3.org/2000/svg" xmlns:xlink="http://www.w3.org/1999/xlink"><rect width="650" height="590" style="fill: white;"></rect><g transform="translate(35,82)"><g class="mark-group role-frame root"><g transform="translate(0,0)"><path class="background" d="M0.5,0.5h600v450h-600Z" style="fill: none; stroke: #ddd; stroke-opacity: 0;"></path><g><g class="mark-group role-axis"><g transform="translate(0.5,0.5)"><path class="background" d="M0,0h0v0h0Z" style="pointer-events: none; fill: none;"></path><g><g class="mark-rule role-axis-grid" style="pointer-events: none;"><line transform="translate(0,368)" x2="600" y2="0" style="fill: none; stroke: #ddd; stroke-opacity: 1; stroke-width: 1; opacity: 1;"></line><line transform="translate(0,286)" x2="600" y2="0" style="fill: none; stroke: #ddd; stroke-opacity: 1; stroke-width: 1; opacity: 1;"></line><line transform="translate(0,205)" x2="600" y2="0" style="fill: none; stroke: #ddd; stroke-opacity: 1; stroke-width: 1; opacity: 1;"></line><line transform="translate(0,123)" x2="600" y2="0" style="fill: none; stroke: #ddd; stroke-opacity: 1; stroke-width: 1; opacity: 1;"></line></g></g><path class="foreground" d="" style="pointer-events: none; display: none; fill: none;"></path></g></g><g class="mark-group role-axis"><g transform="translate(0.5,450.5)"><path class="background" d="M0,0h0v0h0Z" style="pointer-events: none; fill: none;"></path><g><g class="mark-text role-axis-label" style="pointer-events: none;"><text text-anchor="middle" transform="translate(120,23)" style="font-family: Lato; font-size: 16px; fill: #000; fill-opacity: 0.8; opacity: 1;">10</text><text text-anchor="middle" transform="translate(180,23)" style="font-family: Lato; font-size: 16px; fill: #000; fill-opacity: 0.8; opacity: 1;">15</text><text text-anchor="middle" transform="translate(240,23)" style="font-family: Lato; font-size: 16px; fill: #000; fill-opacity: 0.8; opacity: 1;">20</text><text text-anchor="middle" transform="translate(300,23)" style="font-family: Lato; font-size: 16px; fill: #000; fill-opacity: 0.8; opacity: 1;">25</text><text text-anchor="middle" transform="translate(360,23)" style="font-family: Lato; font-size: 16px; fill: #000; fill-opacity: 0.8; opacity: 1;">30</text><text text-anchor="middle" transform="translate(420,23)" style="font-family: Lato; font-size: 16px; fill: #000; fill-opacity: 0.8; opacity: 1;">35</text><text text-anchor="middle" transform="translate(480,23)" style="font-family: Lato; font-size: 16px; fill: #000; fill-opacity: 0.8; opacity: 1;">40</text><text text-anchor="middle" transform="translate(540,23)" style="font-family: Lato; font-size: 16px; fill: #000; fill-opacity: 0.8; opacity: 1;">45</text><text text-anchor="middle" transform="translate(600,23)" style="font-family: Lato; font-size: 16px; fill: #000; fill-opacity: 0.8; opacity: 1;">50</text></g><g class="mark-rule role-axis-domain" style="pointer-events: none;"><line transform="translate(0,0)" x2="600" y2="0" style="fill: none; stroke: #888; stroke-width: 1; opacity: 1;"></line></g><g class="mark-text role-axis-title" style="pointer-events: none;"><text text-anchor="middle" transform="translate(280,49)" style="font-family: Lato; font-size: 18px; font-weight: normal; fill: #000; fill-opacity: 0.8; opacity: 1;">Income Devoted to Housing</text></g></g><path class="foreground" d="" style="pointer-events: none; display: none; fill: none;"></path></g></g><g class="mark-group role-axis"><g transform="translate(0.5,0.5)"><path class="background" d="M0,0h0v0h0Z" style="pointer-events: none; fill: none;"></path><g><g class="mark-text role-axis-label" style="pointer-events: none;"><text text-anchor="start" transform="translate(-30,373.18181818181813)" style="font-family: Lato; font-size: 16px; fill: #000; fill-opacity: 0.8; opacity: 1;">100</text><text text-anchor="start" transform="translate(-30,291.3636363636364)" style="font-family: Lato; font-size: 16px; fill: #000; fill-opacity: 0.8; opacity: 1;">200</text><text text-anchor="start" transform="translate(-30,209.54545454545456)" style="font-family: Lato; font-size: 16px; fill: #000; fill-opacity: 0.8; opacity: 1;">300</text><text text-anchor="start" transform="translate(-30,127.72727272727272)" style="font-family: Lato; font-size: 16px; fill: #000; fill-opacity: 0.8; opacity: 1;">400</text></g><g class="mark-rule role-axis-domain" style="pointer-events: none;"><line transform="translate(0,450)" x2="0" y2="-450" style="fill: none; stroke: #888; stroke-width: 0; opacity: 1;"></line></g><g class="mark-text role-axis-title" style="pointer-events: none;"><text text-anchor="start" transform="translate(-30,-34)" style="font-family: Lato; font-size: 18px; font-weight: normal; fill: #000; fill-opacity: 0.7; opacity: 1;">In most counties, the median share of income devoted to housing was 10%-20%</text></g></g><path class="foreground" d="" style="pointer-events: none; display: none; fill: none;"></path></g></g><g class="mark-text role-mark layer_0_marks"><text text-anchor="middle" transform="translate(332.4,39.90909090909092)" style="font-family: sans-serif; font-size: 11.5px; font-weight: bold; fill: black; opacity: 0.09;">____________________________________________________________________________________</text></g><g class="mark-rect role-mark layer_1_marks"><path d="M186.5,65.45454545454548h11v384.5454545454545h-11Z" style="fill: #97c2f2; opacity: 0.8;"></path><path d="M198.50000000000003,234h11v216h-11Z" style="fill: #97c2f2; opacity: 0.8;"></path><path d="M150.5,171.8181818181818h11v278.1818181818182h-11Z" style="fill: #97c2f2; opacity: 0.8;"></path><path d="M126.5,334.6363636363636h11v115.36363636363637h-11Z" style="fill: #97c2f2; opacity: 0.8;"></path><path d="M162.50000000000003,34.36363636363639h11v415.6363636363636h-11Z" style="fill: #97c2f2; opacity: 0.8;"></path><path d="M138.5,220.90909090909093h11v229.09090909090907h-11Z" style="fill: #97c2f2; opacity: 0.8;"></path><path d="M114.5,372.27272727272725h11v77.72727272727275h-11Z" style="fill: #97c2f2; opacity: 0.8;"></path><path d="M174.5,139.0909090909091h11v310.9090909090909h-11Z" style="fill: #97c2f2; opacity: 0.8;"></path><path d="M246.5,403.3636363636364h11v46.636363636363626h-11Z" style="fill: #97c2f2; opacity: 0.8;"></path><path d="M222.5,349.3636363636364h11v100.63636363636363h-11Z" style="fill: #97c2f2; opacity: 0.8;"></path><path d="M102.5,415.6363636363636h11v34.363636363636374h-11Z" style="fill: #97c2f2; opacity: 0.8;"></path><path d="M90.5,434.45454545454544h11v15.545454545454561h-11Z" style="fill: #97c2f2; opacity: 0.8;"></path><path d="M234.5,372.27272727272725h11v77.72727272727275h-11Z" style="fill: #97c2f2; opacity: 0.8;"></path><path d="M210.5,263.45454545454544h11v186.54545454545456h-11Z" style="fill: #97c2f2; opacity: 0.8;"></path><path d="M258.5,422.1818181818182h11v27.818181818181813h-11Z" style="fill: #97c2f2; opacity: 0.8;"></path><path d="M270.5,440.1818181818182h11v9.818181818181813h-11Z" style="fill: #97c2f2; opacity: 0.8;"></path><path d="M294.5,445.90909090909093h11v4.090909090909065h-11Z" style="fill: #97c2f2; opacity: 0.8;"></path><path d="M282.5,437.72727272727275h11v12.272727272727252h-11Z" style="fill: #97c2f2; opacity: 0.8;"></path><path d="M78.50000000000001,446.7272727272727h11v3.272727272727309h-11Z" style="fill: #97c2f2; opacity: 0.8;"></path><path d="M306.5,448.3636363636364h11v1.636363636363626h-11Z" style="fill: #97c2f2; opacity: 0.8;"></path><path d="M66.5,449.1818181818182h11v0.818181818181813h-11Z" style="fill: #97c2f2; opacity: 0.8;"></path></g><g class="mark-text role-mark layer_2_marks"><text text-anchor="middle" transform="translate(62.400000000000006,473.40909090909093)" style="font-family: lato; font-size: 16px; fill: black; opacity: 0.8;">5%</text></g><g class="mark-text role-mark layer_3_marks"><text text-anchor="middle" transform="translate(16,45.90909090909092)" style="font-family: lato; font-size: 16px; fill: black; opacity: 0.8;">500 counties</text></g><g class="mark-text role-mark layer_4_marks"><text text-anchor="middle" transform="translate(139.2,-11.36363636363637)" style="font-family: lato; font-size: 18px; fill: black; opacity: 0.8;">for homeowners and 20%-40% for renters.</text></g><g class="mark-rect role-mark layer_5_layer_0_marks"><path d="M390.5,331.3636363636364h11v118.63636363636363h-11Z" style="fill: #cede54; opacity: 0.8;"></path><path d="M366.5,269.1818181818182h11v180.8181818181818h-11Z" style="fill: #cede54; opacity: 0.8;"></path><path d="M450.5,400.09090909090907h11v49.909090909090935h-11Z" style="fill: #cede54; opacity: 0.8;"></path><path d="M402.50000000000006,314.1818181818182h11v135.8181818181818h-11Z" style="fill: #cede54; opacity: 0.8;"></path><path d="M354.5,225.8181818181818h11v224.1818181818182h-11Z" style="fill: #cede54; opacity: 0.8;"></path><path d="M378.5,288.8181818181818h11v161.1818181818182h-11Z" style="fill: #cede54; opacity: 0.8;"></path><path d="M474.5,421.3636363636364h11v28.636363636363626h-11Z" style="fill: #cede54; opacity: 0.8;"></path><path d="M426.5,369h11v81h-11Z" style="fill: #cede54; opacity: 0.8;"></path><path d="M258.5,364.90909090909093h11v85.09090909090907h-11Z" style="fill: #cede54; opacity: 0.8;"></path><path d="M330.50000000000006,238.09090909090907h11v211.90909090909093h-11Z" style="fill: #cede54; opacity: 0.8;"></path><path d="M414.5,378.8181818181818h11v71.18181818181819h-11Z" style="fill: #cede54; opacity: 0.8;"></path><path d="M306.5,279h11v171h-11Z" style="fill: #cede54; opacity: 0.8;"></path><path d="M342.5,290.4545454545455h11v159.5454545454545h-11Z" style="fill: #cede54; opacity: 0.8;"></path><path d="M462.5,422.1818181818182h11v27.818181818181813h-11Z" style="fill: #cede54; opacity: 0.8;"></path><path d="M282.5,313.3636363636363h11v136.63636363636368h-11Z" style="fill: #cede54; opacity: 0.8;"></path><path d="M486.49999999999994,431.1818181818182h11v18.818181818181813h-11Z" style="fill: #cede54; opacity: 0.8;"></path><path d="M294.5,333h11v117h-11Z" style="fill: #cede54; opacity: 0.8;"></path><path d="M582.5,447.5454545454545h11v2.454545454545496h-11Z" style="fill: #cede54; opacity: 0.8;"></path><path d="M534.5,438.5454545454545h11v11.454545454545496h-11Z" style="fill: #cede54; opacity: 0.8;"></path><path d="M318.5,301.09090909090907h11v148.90909090909093h-11Z" style="fill: #cede54; opacity: 0.8;"></path><path d="M438.5,400.09090909090907h11v49.909090909090935h-11Z" style="fill: #cede54; opacity: 0.8;"></path><path d="M210.5,414h11v36h-11Z" style="fill: #cede54; opacity: 0.8;"></path><path d="M222.5,425.45454545454544h11v24.54545454545456h-11Z" style="fill: #cede54; opacity: 0.8;"></path><path d="M186.5,429.54545454545456h11v20.45454545454544h-11Z" style="fill: #cede54; opacity: 0.8;"></path><path d="M162.50000000000003,439.3636363636363h11v10.636363636363683h-11Z" style="fill: #cede54; opacity: 0.8;"></path><path d="M246.5,396.8181818181818h11v53.18181818181819h-11Z" style="fill: #cede54; opacity: 0.8;"></path><path d="M234.5,399.27272727272725h11v50.72727272727275h-11Z" style="fill: #cede54; opacity: 0.8;"></path><path d="M198.50000000000003,432.8181818181818h11v17.181818181818187h-11Z" style="fill: #cede54; opacity: 0.8;"></path><path d="M270.5,372.27272727272725h11v77.72727272727275h-11Z" style="fill: #cede54; opacity: 0.8;"></path><path d="M90.5,449.1818181818182h11v0.818181818181813h-11Z" style="fill: #cede54; opacity: 0.8;"></path><path d="M498.5,436.90909090909093h11v13.090909090909065h-11Z" style="fill: #cede54; opacity: 0.8;"></path><path d="M522.5,441h11v9h-11Z" style="fill: #cede54; opacity: 0.8;"></path><path d="M510.5,439.3636363636363h11v10.636363636363683h-11Z" style="fill: #cede54; opacity: 0.8;"></path><path d="M546.5,444.2727272727273h11v5.727272727272691h-11Z" style="fill: #cede54; opacity: 0.8;"></path><path d="M138.5,448.3636363636364h11v1.636363636363626h-11Z" style="fill: #cede54; opacity: 0.8;"></path><path d="M558.5,444.2727272727273h11v5.727272727272691h-11Z" style="fill: #cede54; opacity: 0.8;"></path><path d="M570.5,445.90909090909093h11v4.090909090909065h-11Z" style="fill: #cede54; opacity: 0.8;"></path><path d="M594.5,449.1818181818182h11v0.818181818181813h-11Z" style="fill: #cede54; opacity: 0.8;"></path><path d="M174.5,442.6363636363636h11v7.363636363636374h-11Z" style="fill: #cede54; opacity: 0.8;"></path><path d="M150.5,445.0909090909091h11v4.909090909090878h-11Z" style="fill: #cede54; opacity: 0.8;"></path><path d="M126.5,449.1818181818182h11v0.818181818181813h-11Z" style="fill: #cede54; opacity: 0.8;"></path><path d="M114.5,449.1818181818182h11v0.818181818181813h-11Z" style="fill: #cede54; opacity: 0.8;"></path><path d="M78.50000000000001,449.1818181818182h11v0.818181818181813h-11Z" style="fill: #cede54; opacity: 0.8;"></path></g><g class="mark-text role-mark layer_5_layer_1_marks"><text text-anchor="middle" transform="translate(122.39999999999999,-11.36363636363637)" style="font-family: lato; font-size: 18px; fill: black; opacity: 0;">between 20% and 40%.</text></g><g class="mark-group role-title"><g transform="translate(-30,-77)"><path class="background" d="M0,0h0v0h0Z" style="pointer-events: none; fill: none;"></path><g><g class="mark-text role-title-text" style="pointer-events: none;"><text text-anchor="start" transform="translate(0,19)" style="font-family: Lato; font-size: 24px; font-weight: normal; fill: #000; opacity: 1;">Income Devoted to Housing (2014-2018)</text></g></g><path class="foreground" d="" style="pointer-events: none; display: none; fill: none;"></path></g></g></g><path class="foreground" d="" style="display: none; fill: none;"></path></g></g></g></svg>