<svg class="marks" width="735" height="527" viewBox="0 0 735 527" version="1.1" xmlns="http://www.w3.org/2000/svg" xmlns:xlink="http://www.w3.org/1999/xlink"><rect width="735" height="527" style="fill: white;"></rect><g transform="translate(30,84)"><g class="mark-group role-frame root"><g transform="translate(0,0)"><path class="background" d="M0.5,0.5h600v400h-600Z" style="fill: none; stroke: #ddd; stroke-opacity: 0;"></path><g><g class="mark-group role-axis"><g transform="translate(0.5,0.5)"><path class="background" d="M0,0h0v0h0Z" style="pointer-events: none; fill: none;"></path><g><g class="mark-rule role-axis-grid" style="pointer-events: none;"><line transform="translate(0,350)" x2="600" y2="0" style="fill: none; stroke: #ddd; stroke-opacity: 1; stroke-width: 1; opacity: 1;"></line><line transform="translate(0,300)" x2="600" y2="0" style="fill: none; stroke: #ddd; stroke-opacity: 1; stroke-width: 1; opacity: 1;"></line><line transform="translate(0,250)" x2="600" y2="0" style="fill: none; stroke: #ddd; stroke-opacity: 1; stroke-width: 1; opacity: 1;"></line><line transform="translate(0,200)" x2="600" y2="0" style="fill: none; stroke: #ddd; stroke-opacity: 1; stroke-width: 1; opacity: 1;"></line><line transform="translate(0,150)" x2="600" y2="0" style="fill: none; stroke: #ddd; stroke-opacity: 1; stroke-width: 1; opacity: 1;"></line><line transform="translate(0,100)" x2="600" y2="0" style="fill: none; stroke: #ddd; stroke-opacity: 1; stroke-width: 1; opacity: 1;"></line><line transform="translate(0,50)" x2="600" y2="0" style="fill: none; stroke: #ddd; stroke-opacity: 1; stroke-width: 1; opacity: 1;"></line></g></g><path class="foreground" d="" style="pointer-events: none; display: none; fill: none;"></path></g></g><g class="mark-group role-axis"><g transform="translate(0.5,400.5)"><path class="background" d="M0,0h0v0h0Z" style="pointer-events: none; fill: none;"></path><g><g class="mark-rule role-axis-tick" style="pointer-events: none;"><line transform="translate(33,0)" x2="0" y2="10" style="fill: none; stroke: #888; stroke-width: 1; opacity: 1;"></line><line transform="translate(567,0)" x2="0" y2="10" style="fill: none; stroke: #888; stroke-width: 1; opacity: 1;"></line></g><g class="mark-text role-axis-label" style="pointer-events: none;"><text text-anchor="middle" transform="translate(33.333333333333314,34)" style="font-family: Lato, Calibri, Arial; font-size: 18px; fill: #000; fill-opacity: 0.7; opacity: 1;">2010</text><text text-anchor="middle" transform="translate(566.6666666666667,34)" style="font-family: Lato, Calibri, Arial; font-size: 18px; fill: #000; fill-opacity: 0.7; opacity: 1;">2018</text></g><g class="mark-rule role-axis-domain" style="pointer-events: none;"><line transform="translate(0,0)" x2="600" y2="0" style="fill: none; stroke: #888; stroke-width: 1; opacity: 1;"></line></g></g><path class="foreground" d="" style="pointer-events: none; display: none; fill: none;"></path></g></g><g class="mark-group role-axis"><g transform="translate(0.5,0.5)"><path class="background" d="M0,0h0v0h0Z" style="pointer-events: none; fill: none;"></path><g><g class="mark-text role-axis-label" style="pointer-events: none;"><text text-anchor="start" transform="translate(-25,355)" style="font-family: Lato, Calibri, Arial; font-size: 18px; fill: #000; fill-opacity: 0.7; opacity: 1;">-5</text><text text-anchor="start" transform="translate(-25,305)" style="font-family: Lato, Calibri, Arial; font-size: 18px; fill: #000; fill-opacity: 0.7; opacity: 1;">0</text><text text-anchor="start" transform="translate(-25,255)" style="font-family: Lato, Calibri, Arial; font-size: 18px; fill: #000; fill-opacity: 0.7; opacity: 1;">5</text><text text-anchor="start" transform="translate(-25,205)" style="font-family: Lato, Calibri, Arial; font-size: 18px; fill: #000; fill-opacity: 0.7; opacity: 1;">10</text><text text-anchor="start" transform="translate(-25,155)" style="font-family: Lato, Calibri, Arial; font-size: 18px; fill: #000; fill-opacity: 0.7; opacity: 1;">15</text><text text-anchor="start" transform="translate(-25,105)" style="font-family: Lato, Calibri, Arial; font-size: 18px; fill: #000; fill-opacity: 0.7; opacity: 1;">20</text><text text-anchor="start" transform="translate(-25,55)" style="font-family: Lato, Calibri, Arial; font-size: 18px; fill: #000; fill-opacity: 0.7; opacity: 1;">25</text></g><g class="mark-rule role-axis-domain" style="pointer-events: none;"><line transform="translate(0,400)" x2="0" y2="-400" style="fill: none; stroke: #888; stroke-width: 0; opacity: 1;"></line></g><g class="mark-text role-axis-title" style="pointer-events: none;"><text text-anchor="start" transform="translate(-25,-34)" style="font-family: Lato, Calibri, Arial; font-size: 20px; font-weight: normal; fill: #000; fill-opacity: 0.7; opacity: 1;">Income growth outpaced housing expense for both renters and homeowners</text></g></g><path class="foreground" d="" style="pointer-events: none; display: none; fill: none;"></path></g></g><g class="mark-area role-mark layer_0_marks"><path d="M33.333333333333314,300L44.44444444444443,301.5096618357488C55.55555555555554,303.0193236714976,77.77777777777776,306.03864734299515,99.99999999999999,311.814000830176C122.22222222222221,317.5893543173569,144.44444444444443,326.120737620221,166.66666666666666,335.85859937796954C188.88888888888889,345.5964611357181,211.1111111111111,356.54080134835095,233.33333333333334,359.5881411927857C255.55555555555554,362.6354810372205,277.77777777777777,357.7858205134571,300,352.81159573277364C322.22222222222223,347.83737095209017,344.4444444444445,342.7385819144866,366.6666666666667,340.18918739568477C388.8888888888889,337.639792876883,411.1111111111111,337.639792876883,433.3333333333333,334.97187071743537C455.5555555555555,332.3039485579878,477.77777777777777,326.9681042390926,500,320.59304584238834C522.2222222222223,314.217987445684,544.4444444444445,306.8037149711706,555.5555555555557,303.0965787339139L566.6666666666667,299.3894424966572L566.6666666666667,300L555.5555555555557,300C544.4444444444445,300,522.2222222222223,300,500.00000000000006,300C477.77777777777777,300,455.5555555555555,300,433.33333333333326,300C411.1111111111111,300,388.8888888888889,300,366.6666666666667,300C344.4444444444445,300,322.22222222222223,300,300,300C277.77777777777777,300,255.55555555555554,300,233.33333333333334,300C211.1111111111111,300,188.88888888888889,300,166.66666666666666,300C144.44444444444443,300,122.22222222222221,300,100,300C77.77777777777776,300,55.55555555555554,300,44.44444444444443,300L33.333333333333314,300Z" style="fill: #81addc; opacity: 1;"></path></g><g class="mark-area role-mark layer_1_marks"><path d="M33.333333333333314,300L44.44444444444443,296.88109161793375C55.55555555555554,293.7621832358675,77.77777777777776,287.52436647173494,99.99999999999999,281.9178959006139C122.22222222222221,276.311425329493,144.44444444444443,271.33630095138346,166.66666666666666,264.8894627442292C188.88888888888889,258.44262453707495,211.1111111111111,250.52407250087586,233.33333333333334,241.22409666693844C255.55555555555554,231.92412083300098,277.77777777777777,221.24272120132514,300,211.44092217064068C322.22222222222223,201.63912313995624,344.4444444444445,192.71692471026316,366.6666666666667,184.43239831432524C388.8888888888889,176.14787191838727,411.1111111111111,168.50101755620446,433.3333333333333,159.41085575058025C455.5555555555555,150.32069394495605,477.77777777777777,139.78722469589047,500,126.94473249560012C522.2222222222223,114.10224029530976,544.4444444444445,98.95072514379461,555.5555555555557,91.37496756803704L566.6666666666667,83.79920999227947L566.6666666666667,300L555.5555555555557,300C544.4444444444445,300,522.2222222222223,300,500.00000000000006,300C477.77777777777777,300,455.5555555555555,300,433.33333333333326,300C411.1111111111111,300,388.8888888888889,300,366.6666666666667,300C344.4444444444445,300,322.22222222222223,300,300,300C277.77777777777777,300,255.55555555555554,300,233.33333333333334,300C211.1111111111111,300,188.88888888888889,300,166.66666666666666,300C144.44444444444443,300,122.22222222222221,300,100,300C77.77777777777776,300,55.55555555555554,300,44.44444444444443,300L33.333333333333314,300Z" style="fill: #b7c83e; opacity: 1;"></path></g><g class="mark-line role-mark layer_2_marks"><path d="M33.333333333333314,300L44.44444444444443,296.91593539361565C55.55555555555554,293.83187078723137,77.77777777777776,287.6637415744627,99.99999999999999,280.80244028205726C122.22222222222221,273.94113898965185,144.44444444444443,266.3866656176096,166.66666666666666,259.2822006043602C188.88888888888889,252.17773559111075,211.1111111111111,245.52327893665412,233.33333333333334,237.28792826549815C255.55555555555554,229.05257759434213,277.77777777777777,219.23633290648675,300,208.92091944098226C322.22222222222223,198.60550597547777,344.4444444444445,187.7909237323241,366.6666666666667,177.45599843830828C388.8888888888889,167.1210731442924,411.1111111111111,157.26580479941438,433.3333333333333,146.07517970694474C455.5555555555555,134.88455461447506,477.77777777777777,122.35857277441376,500,111.32463979101654C522.2222222222223,100.29070680761934,544.4444444444445,90.74882268088624,555.5555555555557,85.97788061751969L566.6666666666667,81.20693855415313" style="fill: none; stroke: #81addc; stroke-width: 6; stroke-linecap: round;"></path></g><g class="mark-line role-mark layer_3_marks"><path d="M33.333333333333314,300L44.44444444444443,298.565466875326C55.55555555555554,297.13093375065205,77.77777777777776,294.2618675013041,99.99999999999999,287.7200160420038C122.22222222222221,281.17816458270346,144.44444444444443,270.96352791345083,166.66666666666666,260.9007460234362C188.88888888888889,250.83796413342165,211.1111111111111,240.9270370226451,233.33333333333334,228.0524701534167C255.55555555555554,215.17790328418823,277.77777777777777,199.33969665650793,300,184.26776710400762C322.22222222222223,169.19583755150728,344.4444444444445,154.89018507418695,366.6666666666667,141.26919780062101C388.8888888888889,127.64821052705507,411.1111111111111,114.7118884572435,433.3333333333333,100.7289662843882C455.5555555555555,86.7460441115329,477.77777777777777,71.7165218356338,500,57.37073861242491C522.2222222222223,43.02495538921602,544.4444444444445,29.362911218697302,555.5555555555557,22.531889133437947L566.6666666666667,15.70086704817859" style="fill: none; stroke: #b7c83e; stroke-width: 6; stroke-linecap: round;"></path></g><g class="mark-text role-mark layer_4_marks"><text text-anchor="middle" transform="translate(28.333333333333314,5)" style="font-family: lato; font-size: 18px; fill: black; opacity: 0.7;">30% increase</text></g><g class="mark-text role-mark layer_5_marks"><text text-anchor="middle" transform="translate(330,-1)" style="font-family: sans-serif; font-size: 11.5px; font-weight: bold; fill: black; opacity: 0.09;">____________________________________________________________________________</text></g><g class="mark-text role-mark layer_6_marks"><text text-anchor="middle" transform="translate(612.1666666666666,9.000000000000028)" style="font-family: lato; font-size: 22px; fill: #b7c83e;">Renter</text></g><g class="mark-text role-mark layer_7_marks"><text text-anchor="middle" transform="translate(615,30)" style="font-family: lato; font-size: 22px; fill: #b7c83e;">Income</text></g><g class="mark-text role-mark layer_8_marks"><text text-anchor="middle" transform="translate(639.8333333333333,76.00000000000004)" style="font-family: lato; font-size: 22px; fill: #81addc;">Homeowner</text></g><g class="mark-text role-mark layer_9_marks"><text text-anchor="middle" transform="translate(615,98)" style="font-family: lato; font-size: 22px; fill: #81addc;">Income</text></g><g class="mark-text role-mark layer_10_marks"><text text-anchor="middle" transform="translate(439.66666666666663,227.00000000000003)" style="font-family: lato; font-size: 22px; font-weight: bold; fill: white;">Renter</text></g><g class="mark-text role-mark layer_11_marks"><text text-anchor="middle" transform="translate(447.6666666666667,248)" style="font-family: lato; font-size: 22px; font-weight: bold; fill: white;">Expense</text></g><g class="mark-text role-mark layer_12_marks"><text text-anchor="middle" transform="translate(270.3333333333333,324.00000000000006)" style="font-family: lato; font-size: 22px; font-weight: bold; fill: white;">Homeowner</text></g><g class="mark-text role-mark layer_13_marks"><text text-anchor="middle" transform="translate(250.66666666666669,345)" style="font-family: lato; font-size: 22px; font-weight: bold; fill: white;">Expense</text></g><g class="mark-group role-title"><g transform="translate(-25,-79)"><path class="background" d="M0,0h0v0h0Z" style="pointer-events: none; fill: none;"></path><g><g class="mark-text role-title-text" style="pointer-events: none;"><text text-anchor="start" transform="translate(0,19)" style="font-family: Lato, Calibri, Arial; font-size: 24px; font-weight: normal; fill: #000; opacity: 1;">Change in Housing Expense and Income</text></g></g><path class="foreground" d="" style="pointer-events: none; display: none; fill: none;"></path></g></g></g><path class="foreground" d="" style="display: none; fill: none;"></path></g></g></g></svg>