<svg class="marks" width="653" height="538" viewBox="0 0 653 538" version="1.1" xmlns="http://www.w3.org/2000/svg" xmlns:xlink="http://www.w3.org/1999/xlink"><rect width="653" height="538" style="fill: white;"></rect><g transform="translate(46,91)"><g class="mark-group role-frame root"><g transform="translate(0,0)"><path class="background" d="M0.5,0.5h600v400h-600Z" style="fill: none; stroke: #ddd; stroke-opacity: 0;"></path><g><g class="mark-group role-axis"><g transform="translate(0.5,0.5)"><path class="background" d="M0,0h0v0h0Z" style="pointer-events: none; fill: none;"></path><g><g class="mark-rule role-axis-grid" style="pointer-events: none;"><line transform="translate(0,320)" x2="600" y2="0" style="fill: none; stroke: #ddd; stroke-opacity: 1; stroke-width: 1; opacity: 1;"></line><line transform="translate(0,240)" x2="600" y2="0" style="fill: none; stroke: #ddd; stroke-opacity: 1; stroke-width: 1; opacity: 1;"></line><line transform="translate(0,160)" x2="600" y2="0" style="fill: none; stroke: #ddd; stroke-opacity: 1; stroke-width: 1; opacity: 1;"></line><line transform="translate(0,80)" x2="600" y2="0" style="fill: none; stroke: #ddd; stroke-opacity: 1; stroke-width: 1; opacity: 1;"></line></g></g><path class="foreground" d="" style="pointer-events: none; display: none; fill: none;"></path></g></g><g class="mark-group role-axis"><g transform="translate(0.5,400.5)"><path class="background" d="M0,0h0v0h0Z" style="pointer-events: none; fill: none;"></path><g><g class="mark-rule role-axis-tick" style="pointer-events: none;"><line transform="translate(33,0)" x2="0" y2="13" style="fill: none; stroke: #888; stroke-width: 1; opacity: 1;"></line><line transform="translate(567,0)" x2="0" y2="13" style="fill: none; stroke: #888; stroke-width: 1; opacity: 1;"></line></g><g class="mark-text role-axis-label" style="pointer-events: none;"><text text-anchor="middle" transform="translate(33.333333333333314,39)" style="font-family: Lato, Calibri, Arial; font-size: 16px; fill: #000; fill-opacity: 0.7; opacity: 1;">2010</text><text text-anchor="middle" transform="translate(566.6666666666667,39)" style="font-family: Lato, Calibri, Arial; font-size: 16px; fill: #000; fill-opacity: 0.7; opacity: 1;">2018</text></g><g class="mark-rule role-axis-domain" style="pointer-events: none;"><line transform="translate(0,0)" x2="600" y2="0" style="fill: none; stroke: #888; stroke-width: 1; opacity: 1;"></line></g></g><path class="foreground" d="" style="pointer-events: none; display: none; fill: none;"></path></g></g><g class="mark-group role-axis"><g transform="translate(0.5,0.5)"><path class="background" d="M0,0h0v0h0Z" style="pointer-events: none; fill: none;"></path><g><g class="mark-text role-axis-label" style="pointer-events: none;"><text text-anchor="start" transform="translate(-40,325)" style="font-family: Lato, Calibri, Arial; font-size: 16px; fill: #000; fill-opacity: 0.7; opacity: 1;">600</text><text text-anchor="start" transform="translate(-40,245)" style="font-family: Lato, Calibri, Arial; font-size: 16px; fill: #000; fill-opacity: 0.7; opacity: 1;">800</text><text text-anchor="start" transform="translate(-40,165)" style="font-family: Lato, Calibri, Arial; font-size: 16px; fill: #000; fill-opacity: 0.7; opacity: 1;">1000</text><text text-anchor="start" transform="translate(-40,84.99999999999999)" style="font-family: Lato, Calibri, Arial; font-size: 16px; fill: #000; fill-opacity: 0.7; opacity: 1;">1200</text></g><g class="mark-rule role-axis-domain" style="pointer-events: none;"><line transform="translate(0,400)" x2="0" y2="-400" style="fill: none; stroke: #888; stroke-width: 0; opacity: 1;"></line></g><g class="mark-text role-axis-title" style="pointer-events: none;"><text text-anchor="start" transform="translate(-40,-44)" style="font-family: Lato, Calibri, Arial; font-size: 18px; font-weight: normal; fill: #000; fill-opacity: 0.7; opacity: 1;">Renter housing expense is now almost equal to homeowner expense</text></g></g><path class="foreground" d="" style="pointer-events: none; display: none; fill: none;"></path></g></g><g class="mark-line role-mark layer_0_marks"><path d="M33.333333333333314,118.40000000000002L44.44444444444443,119.06666666666668C55.55555555555554,119.73333333333335,77.77777777777776,121.06666666666668,99.99999999999999,123.60000000000002C122.22222222222221,126.13333333333334,144.44444444444443,129.86666666666667,166.66666666666666,134.06666666666666C188.88888888888889,138.26666666666665,211.1111111111111,142.9333333333333,233.33333333333334,144.26666666666668C255.55555555555554,145.6,277.77777777777777,143.6,300,141.53333333333333C322.22222222222223,139.46666666666667,344.4444444444445,137.33333333333334,366.6666666666667,136.26666666666665C388.8888888888889,135.2,411.1111111111111,135.2,433.3333333333333,134.06666666666666C455.5555555555555,132.9333333333333,477.77777777777777,130.66666666666666,500,127.93333333333332C522.2222222222223,125.19999999999999,544.4444444444445,122,555.5555555555557,120.40000000000002L566.6666666666667,118.80000000000001" style="fill: none; stroke: #97c2f2; stroke-width: 5; stroke-linecap: round;"></path></g><g class="mark-line role-mark layer_1_marks"><path d="M33.333333333333314,217.99999999999997L44.44444444444443,216.9333333333333C55.55555555555554,215.86666666666665,77.77777777777776,213.73333333333335,99.99999999999999,211.80000000000004C122.22222222222221,209.86666666666667,144.44444444444443,208.13333333333335,166.66666666666666,205.86666666666667C188.88888888888889,203.6,211.1111111111111,200.79999999999998,233.33333333333334,197.46666666666667C255.55555555555554,194.13333333333333,277.77777777777777,190.26666666666665,300,186.66666666666666C322.22222222222223,183.06666666666663,344.4444444444445,179.73333333333332,366.6666666666667,176.6C388.8888888888889,173.46666666666667,411.1111111111111,170.53333333333333,433.3333333333333,167.00000000000003C455.5555555555555,163.4666666666667,477.77777777777777,159.33333333333334,500,154.20000000000002C522.2222222222223,149.0666666666667,544.4444444444445,142.9333333333333,555.5555555555557,139.86666666666665L566.6666666666667,136.79999999999998" style="fill: none; stroke: #cede54; stroke-width: 5; stroke-linecap: round;"></path></g><g class="mark-text role-mark layer_2_marks"><text text-anchor="middle" transform="translate(21.333333333333314,5)" style="font-family: lato; font-size: 16px; fill: black; opacity: 0.7;">$1400 per month</text></g><g class="mark-text role-mark layer_3_marks"><text text-anchor="middle" transform="translate(342,-1)" style="font-family: sans-serif; font-size: 11.5px; font-weight: bold; fill: black; opacity: 0.09;">_________________________________________________________________________________</text></g><g class="mark-text role-mark layer_4_marks"><text text-anchor="middle" transform="translate(500,107)" style="font-family: lato; font-size: 22px; fill: #81addc;">Homeowners</text></g><g class="mark-text role-mark layer_5_marks"><text text-anchor="middle" transform="translate(493.3333333333333,195)" style="font-family: lato; font-size: 22px; fill: #b7c83e;">Renters</text></g><g class="mark-group role-title"><g transform="translate(-40.43861643473309,-85)"><path class="background" d="M0,0h0v0h0Z" style="pointer-events: none; fill: none;"></path><g><g class="mark-text role-title-text" style="pointer-events: none;"><text text-anchor="start" transform="translate(0,17)" style="font-family: Lato, Calibri, Arial; font-size: 22px; font-weight: normal; fill: #000; opacity: 1;">Monthly Housing Expenses</text></g></g><path class="foreground" d="" style="pointer-events: none; display: none; fill: none;"></path></g></g></g><path class="foreground" d="" style="display: none; fill: none;"></path></g></g></g></svg>