<svg class="marks" width="804" height="559" viewBox="0 0 804 559" version="1.1" xmlns="http://www.w3.org/2000/svg" xmlns:xlink="http://www.w3.org/1999/xlink"><rect width="804" height="559" style="fill: white;"></rect><g transform="translate(38,107)"><g class="mark-group role-frame root"><g transform="translate(0,0)"><path class="background" d="M0.5,0.5h600v400h-600Z" style="fill: none; stroke: #ddd; stroke-opacity: 0;"></path><g><g class="mark-group role-axis"><g transform="translate(0.5,0.5)"><path class="background" d="M0,0h0v0h0Z" style="pointer-events: none; fill: none;"></path><g><g class="mark-rule role-axis-grid" style="pointer-events: none;"><line transform="translate(0,333)" x2="600" y2="0" style="fill: none; stroke: #ddd; stroke-opacity: 1; stroke-width: 1; opacity: 1;"></line><line transform="translate(0,267)" x2="600" y2="0" style="fill: none; stroke: #ddd; stroke-opacity: 1; stroke-width: 1; opacity: 1;"></line><line transform="translate(0,200)" x2="600" y2="0" style="fill: none; stroke: #ddd; stroke-opacity: 1; stroke-width: 1; opacity: 1;"></line><line transform="translate(0,133)" x2="600" y2="0" style="fill: none; stroke: #ddd; stroke-opacity: 1; stroke-width: 1; opacity: 1;"></line><line transform="translate(0,67)" x2="600" y2="0" style="fill: none; stroke: #ddd; stroke-opacity: 1; stroke-width: 1; opacity: 1;"></line></g></g><path class="foreground" d="" style="pointer-events: none; display: none; fill: none;"></path></g></g><g class="mark-group role-axis"><g transform="translate(0.5,400.5)"><path class="background" d="M0,0h0v0h0Z" style="pointer-events: none; fill: none;"></path><g><g class="mark-rule role-axis-tick" style="pointer-events: none;"><line transform="translate(27,0)" x2="0" y2="13" style="fill: none; stroke: #888; stroke-width: 1; opacity: 1;"></line><line transform="translate(573,0)" x2="0" y2="13" style="fill: none; stroke: #888; stroke-width: 1; opacity: 1;"></line></g><g class="mark-text role-axis-label" style="pointer-events: none;"><text text-anchor="middle" transform="translate(27.272727272727252,43)" style="font-family: Lato; font-size: 22px; fill: #000; fill-opacity: 0.7; opacity: 1;">2008</text><text text-anchor="middle" transform="translate(572.7272727272727,43)" style="font-family: Lato; font-size: 22px; fill: #000; fill-opacity: 0.7; opacity: 1;">2018</text></g><g class="mark-rule role-axis-domain" style="pointer-events: none;"><line transform="translate(0,0)" x2="600" y2="0" style="fill: none; stroke: #888; stroke-width: 1; opacity: 1;"></line></g></g><path class="foreground" d="" style="pointer-events: none; display: none; fill: none;"></path></g></g><g class="mark-group role-axis"><g transform="translate(0.5,0.5)"><path class="background" d="M0,0h0v0h0Z" style="pointer-events: none; fill: none;"></path><g><g class="mark-text role-axis-label" style="pointer-events: none;"><text text-anchor="start" transform="translate(-30,340.33333333333337)" style="font-family: Lato; font-size: 22px; fill: #000; fill-opacity: 0.7; opacity: 1;">15</text><text text-anchor="start" transform="translate(-30,273.6666666666667)" style="font-family: Lato; font-size: 22px; fill: #000; fill-opacity: 0.7; opacity: 1;">20</text><text text-anchor="start" transform="translate(-30,207)" style="font-family: Lato; font-size: 22px; fill: #000; fill-opacity: 0.7; opacity: 1;">25</text><text text-anchor="start" transform="translate(-30,140.33333333333334)" style="font-family: Lato; font-size: 22px; fill: #000; fill-opacity: 0.7; opacity: 1;">30</text><text text-anchor="start" transform="translate(-30,73.66666666666666)" style="font-family: Lato; font-size: 22px; fill: #000; fill-opacity: 0.7; opacity: 1;">35</text></g><g class="mark-rule role-axis-domain" style="pointer-events: none;"><line transform="translate(0,400)" x2="0" y2="-400" style="fill: none; stroke: #888; stroke-width: 0; opacity: 1;"></line></g><g class="mark-text role-axis-title" style="pointer-events: none;"><text text-anchor="start" transform="translate(-33,-45)" style="font-family: Lato; font-size: 24px; font-weight: normal; fill: #000; fill-opacity: 0.7; opacity: 1;">Relative housing expenses have trended downwards since 2010</text></g></g><path class="foreground" d="" style="pointer-events: none; display: none; fill: none;"></path></g></g><g class="mark-line role-mark layer_0_marks"><path d="M27.272727272727252,257.3333333333333L36.363636363636346,257.3333333333333C45.45454545454544,257.3333333333333,63.63636363636362,257.3333333333333,81.8181818181818,256.4444444444444C99.99999999999999,255.55555555555551,118.18181818181817,253.77777777777774,136.36363636363635,254.22222222222217C154.54545454545453,254.66666666666663,172.72727272727272,257.3333333333333,190.90909090909088,260.88888888888886C209.0909090909091,264.4444444444444,227.27272727272725,268.88888888888886,245.4545454545454,273.3333333333333C263.6363636363636,277.77777777777777,281.8181818181818,282.22222222222223,300,285.11111111111114C318.1818181818182,288,336.3636363636363,289.3333333333333,354.5454545454545,290.6666666666667C372.7272727272727,292,390.9090909090908,293.3333333333333,409.09090909090907,295.11111111111114C427.27272727272725,296.8888888888889,445.45454545454544,299.11111111111114,463.6363636363637,300.8888888888889C481.8181818181818,302.6666666666667,500,304,518.1818181818181,304.88888888888886C536.3636363636364,305.77777777777777,554.5454545454546,306.2222222222222,563.6363636363636,306.4444444444444L572.7272727272727,306.66666666666663" style="fill: none; stroke: #97c2f2; stroke-width: 7; stroke-linecap: round;"></path></g><g class="mark-line role-mark layer_1_marks"><path d="M27.272727272727252,106.66666666666669L36.363636363636346,105.33333333333336C45.45454545454544,104,63.63636363636362,101.33333333333331,81.8181818181818,97.99999999999999C99.99999999999999,94.66666666666664,118.18181818181817,90.66666666666667,136.36363636363635,88C154.54545454545453,85.33333333333333,172.72727272727272,83.99999999999999,190.90909090909088,84.44444444444441C209.0909090909091,84.88888888888884,227.27272727272725,87.11111111111104,245.4545454545454,88.66666666666661C263.6363636363636,90.22222222222217,281.8181818181818,91.11111111111109,300,92.66666666666664C318.1818181818182,94.22222222222221,336.3636363636363,96.44444444444441,354.5454545454545,98.66666666666664C372.7272727272727,100.88888888888886,390.9090909090908,103.11111111111109,409.09090909090907,105.33333333333333C427.27272727272725,107.55555555555554,445.45454545454544,109.77777777777776,463.6363636363637,111.77777777777777C481.8181818181818,113.77777777777776,500,115.55555555555554,518.1818181818181,116.22222222222221C536.3636363636364,116.88888888888887,554.5454545454546,116.44444444444441,563.6363636363636,116.22222222222221L572.7272727272727,115.99999999999997" style="fill: none; stroke: #cede54; stroke-width: 7; stroke-linecap: round;"></path></g><g class="mark-text role-mark layer_2_marks"><text text-anchor="middle" transform="translate(635.2727272727273,124.33333333333326)" style="font-family: lato; font-size: 30px; fill: #b7c83e;">Renters</text></g><g class="mark-text role-mark layer_3_marks"><text text-anchor="middle" transform="translate(671.8181818181818,317.33333333333326)" style="font-family: lato; font-size: 30px; fill: #81addc;">Homeowners</text></g><g class="mark-text role-mark layer_4_marks"><text text-anchor="middle" transform="translate(39.27272727272725,7)" style="font-family: lato; font-size: 22px; fill: black; opacity: 0.7;">40% of income</text></g><g class="mark-text role-mark layer_5_marks"><text text-anchor="middle" transform="translate(358.3636363636364,-1)" style="font-family: sans-serif; font-size: 11.5px; font-weight: bold; fill: black; opacity: 0.09;">____________________________________________________________________________</text></g><g class="mark-group role-title"><g transform="translate(-33,-101)"><path class="background" d="M0,0h0v0h0Z" style="pointer-events: none; fill: none;"></path><g><g class="mark-text role-title-text" style="pointer-events: none;"><text text-anchor="start" transform="translate(0,25)" style="font-family: Lato; font-size: 32px; font-weight: normal; fill: #000; opacity: 1;">Income Devoted to Housing</text></g></g><path class="foreground" d="" style="pointer-events: none; display: none; fill: none;"></path></g></g></g><path class="foreground" d="" style="display: none; fill: none;"></path></g></g></g></svg>