<svg class="marks" width="650" height="540" viewBox="0 0 650 540" version="1.1" xmlns="http://www.w3.org/2000/svg" xmlns:xlink="http://www.w3.org/1999/xlink"><rect width="650" height="540" style="fill: white;"></rect><g transform="translate(35,82)"><g class="mark-group role-frame root"><g transform="translate(0,0)"><path class="background" d="M0.5,0.5h600v400h-600Z" style="fill: none; stroke: #ddd; stroke-opacity: 0;"></path><g><g class="mark-group role-axis"><g transform="translate(0.5,0.5)"><path class="background" d="M0,0h0v0h0Z" style="pointer-events: none; fill: none;"></path><g><g class="mark-rule role-axis-grid" style="pointer-events: none;"><line transform="translate(0,286)" x2="600" y2="0" style="fill: none; stroke: #ddd; stroke-opacity: 1; stroke-width: 1; opacity: 1;"></line><line transform="translate(0,171)" x2="600" y2="0" style="fill: none; stroke: #ddd; stroke-opacity: 1; stroke-width: 1; opacity: 1;"></line></g></g><path class="foreground" d="" style="pointer-events: none; display: none; fill: none;"></path></g></g><g class="mark-group role-axis"><g transform="translate(0.5,400.5)"><path class="background" d="M0,0h0v0h0Z" style="pointer-events: none; fill: none;"></path><g><g class="mark-text role-axis-label" style="pointer-events: none;"><text text-anchor="middle" transform="translate(0,23)" style="font-family: Lato; font-size: 16px; fill: #000; fill-opacity: 0; opacity: 1;">5</text><text text-anchor="middle" transform="translate(60,23)" style="font-family: Lato; font-size: 16px; fill: #000; fill-opacity: 0; opacity: 1;">10</text><text text-anchor="middle" transform="translate(120,23)" style="font-family: Lato; font-size: 16px; fill: #000; fill-opacity: 0; opacity: 1;">15</text><text text-anchor="middle" transform="translate(180,23)" style="font-family: Lato; font-size: 16px; fill: #000; fill-opacity: 0; opacity: 1;">20</text><text text-anchor="middle" transform="translate(240,23)" style="font-family: Lato; font-size: 16px; fill: #000; fill-opacity: 0; opacity: 1;">25</text><text text-anchor="middle" transform="translate(300,23)" style="font-family: Lato; font-size: 16px; fill: #000; fill-opacity: 0; opacity: 1;">30</text><text text-anchor="middle" transform="translate(360,23)" style="font-family: Lato; font-size: 16px; fill: #000; fill-opacity: 0; opacity: 1;">35</text><text text-anchor="middle" transform="translate(420,23)" style="font-family: Lato; font-size: 16px; fill: #000; fill-opacity: 0; opacity: 1;">40</text><text text-anchor="middle" transform="translate(480,23)" style="font-family: Lato; font-size: 16px; fill: #000; fill-opacity: 0; opacity: 1;">45</text><text text-anchor="middle" transform="translate(540,23)" style="font-family: Lato; font-size: 16px; fill: #000; fill-opacity: 0; opacity: 1;">50</text><text text-anchor="middle" transform="translate(600,23)" style="font-family: Lato; font-size: 16px; fill: #000; fill-opacity: 0; opacity: 1;">55</text></g><g class="mark-rule role-axis-domain" style="pointer-events: none;"><line transform="translate(0,0)" x2="600" y2="0" style="fill: none; stroke: #888; stroke-width: 1; opacity: 1;"></line></g><g class="mark-text role-axis-title" style="pointer-events: none;"><text text-anchor="middle" transform="translate(280,49)" style="font-family: Lato; font-size: 18px; font-weight: normal; fill: #000; fill-opacity: 0.8; opacity: 1;">Income Devoted to Housing</text></g></g><path class="foreground" d="" style="pointer-events: none; display: none; fill: none;"></path></g></g><g class="mark-group role-axis"><g transform="translate(0.5,0.5)"><path class="background" d="M0,0h0v0h0Z" style="pointer-events: none; fill: none;"></path><g><g class="mark-text role-axis-label" style="pointer-events: none;"><text text-anchor="start" transform="translate(-30,290.7142857142857)" style="font-family: Lato; font-size: 16px; fill: #000; fill-opacity: 0.8; opacity: 1;">100</text><text text-anchor="start" transform="translate(-30,176.42857142857144)" style="font-family: Lato; font-size: 16px; fill: #000; fill-opacity: 0.8; opacity: 1;">200</text></g><g class="mark-rule role-axis-domain" style="pointer-events: none;"><line transform="translate(0,400)" x2="0" y2="-400" style="fill: none; stroke: #888; stroke-width: 0; opacity: 1;"></line></g><g class="mark-text role-axis-title" style="pointer-events: none;"><text text-anchor="start" transform="translate(-30,-34)" style="font-family: Lato; font-size: 18px; font-weight: normal; fill: #000; fill-opacity: 0.8; opacity: 1;">In most counties, the median share of renter income devoted to housing was</text></g></g><path class="foreground" d="" style="pointer-events: none; display: none; fill: none;"></path></g></g><g class="mark-rect role-mark layer_0_marks"><path d="M330.50000000000006,234.28571428571425h11v165.71428571428575h-11Z" style="fill: #cede54;"></path><path d="M306.5,147.42857142857142h11v252.57142857142858h-11Z" style="fill: #cede54;"></path><path d="M390.5,330.2857142857143h11v69.71428571428572h-11Z" style="fill: #cede54;"></path><path d="M342.5,210.28571428571428h11v189.71428571428572h-11Z" style="fill: #cede54;"></path><path d="M294.5,86.85714285714288h11v313.1428571428571h-11Z" style="fill: #cede54;"></path><path d="M318.5,174.85714285714286h11v225.14285714285714h-11Z" style="fill: #cede54;"></path><path d="M414.5,360h11v40h-11Z" style="fill: #cede54;"></path><path d="M366.5,286.85714285714283h11v113.14285714285717h-11Z" style="fill: #cede54;"></path><path d="M198.50000000000003,281.1428571428571h11v118.85714285714289h-11Z" style="fill: #cede54;"></path><path d="M270.5,104h11v296h-11Z" style="fill: #cede54;"></path><path d="M354.5,300.57142857142856h11v99.42857142857144h-11Z" style="fill: #cede54;"></path><path d="M246.5,161.1428571428571h11v238.8571428571429h-11Z" style="fill: #cede54;"></path><path d="M282.5,177.14285714285714h11v222.85714285714286h-11Z" style="fill: #cede54;"></path><path d="M402.50000000000006,361.1428571428571h11v38.85714285714289h-11Z" style="fill: #cede54;"></path><path d="M222.5,209.14285714285717h11v190.85714285714283h-11Z" style="fill: #cede54;"></path><path d="M426.5,373.7142857142857h11v26.285714285714278h-11Z" style="fill: #cede54;"></path><path d="M234.5,236.57142857142856h11v163.42857142857144h-11Z" style="fill: #cede54;"></path><path d="M522.5,396.57142857142856h11v3.428571428571445h-11Z" style="fill: #cede54;"></path><path d="M474.5,384h11v16h-11Z" style="fill: #cede54;"></path><path d="M258.5,192h11v208h-11Z" style="fill: #cede54;"></path><path d="M378.5,330.2857142857143h11v69.71428571428572h-11Z" style="fill: #cede54;"></path><path d="M150.5,349.7142857142857h11v50.28571428571428h-11Z" style="fill: #cede54;"></path><path d="M162.50000000000003,365.7142857142857h11v34.28571428571428h-11Z" style="fill: #cede54;"></path><path d="M126.5,371.42857142857144h11v28.571428571428555h-11Z" style="fill: #cede54;"></path><path d="M102.5,385.14285714285717h11v14.857142857142833h-11Z" style="fill: #cede54;"></path><path d="M186.5,325.7142857142857h11v74.28571428571428h-11Z" style="fill: #cede54;"></path><path d="M174.5,329.1428571428571h11v70.85714285714289h-11Z" style="fill: #cede54;"></path><path d="M138.5,376h11v24h-11Z" style="fill: #cede54;"></path><path d="M210.5,291.42857142857144h11v108.57142857142856h-11Z" style="fill: #cede54;"></path><path d="M30.5,398.85714285714283h11v1.1428571428571672h-11Z" style="fill: #cede54;"></path><path d="M438.5,381.7142857142857h11v18.285714285714278h-11Z" style="fill: #cede54;"></path><path d="M462.5,387.4285714285714h11v12.571428571428612h-11Z" style="fill: #cede54;"></path><path d="M450.5,385.14285714285717h11v14.857142857142833h-11Z" style="fill: #cede54;"></path><path d="M486.49999999999994,392h11v8h-11Z" style="fill: #cede54;"></path><path d="M78.50000000000001,397.7142857142857h11v2.2857142857142776h-11Z" style="fill: #cede54;"></path><path d="M498.5,392h11v8h-11Z" style="fill: #cede54;"></path><path d="M510.5,394.28571428571433h11v5.714285714285666h-11Z" style="fill: #cede54;"></path><path d="M534.5,398.85714285714283h11v1.1428571428571672h-11Z" style="fill: #cede54;"></path><path d="M114.5,389.7142857142857h11v10.285714285714278h-11Z" style="fill: #cede54;"></path><path d="M90.5,393.14285714285717h11v6.857142857142833h-11Z" style="fill: #cede54;"></path><path d="M66.5,398.85714285714283h11v1.1428571428571672h-11Z" style="fill: #cede54;"></path><path d="M54.5,398.85714285714283h11v1.1428571428571672h-11Z" style="fill: #cede54;"></path><path d="M18.5,398.85714285714283h11v1.1428571428571672h-11Z" style="fill: #cede54;"></path></g><g class="mark-rule role-mark layer_1_marks"><line transform="translate(62.39999999999999,57.14285714285716)" x2="537.6" y2="0" style="fill: none; stroke: black; opacity: 0.15;"></line></g><g class="mark-text role-mark layer_2_marks"><text text-anchor="middle" transform="translate(60,422)" style="font-family: lato; font-size: 16px; fill: black; opacity: 0.8;">10%</text><text text-anchor="middle" transform="translate(180,422)" style="font-family: lato; font-size: 16px; fill: black; opacity: 0.8;">20</text><text text-anchor="middle" transform="translate(300,422)" style="font-family: lato; font-size: 16px; fill: black; opacity: 0.8;">30</text><text text-anchor="middle" transform="translate(420,422)" style="font-family: lato; font-size: 16px; fill: black; opacity: 0.8;">40</text><text text-anchor="middle" transform="translate(540,422)" style="font-family: lato; font-size: 16px; fill: black; opacity: 0.8;">50</text></g><g class="mark-text role-mark layer_3_marks"><text text-anchor="middle" transform="translate(16,62.14285714285716)" style="font-family: lato; font-size: 16px; fill: black; opacity: 0.8;">300 counties</text></g><g class="mark-text role-mark layer_4_marks"><text text-anchor="middle" transform="translate(62.39999999999999,-9.857142857142858)" style="font-family: lato; font-size: 18px; fill: black; opacity: 0.8;">between 20% and 40%</text></g><g class="mark-group role-title"><g transform="translate(-30,-77)"><path class="background" d="M0,0h0v0h0Z" style="pointer-events: none; fill: none;"></path><g><g class="mark-text role-title-text" style="pointer-events: none;"><text text-anchor="start" transform="translate(0,19)" style="font-family: Lato; font-size: 24px; font-weight: normal; fill: #000; opacity: 1;">Renter Income Devoted to Housing (2014-2018)</text></g></g><path class="foreground" d="" style="pointer-events: none; display: none; fill: none;"></path></g></g></g><path class="foreground" d="" style="display: none; fill: none;"></path></g></g></g></svg>