<svg class="marks" width="1800" height="1265" viewBox="0 0 1800 1265" version="1.1" xmlns="http://www.w3.org/2000/svg" xmlns:xlink="http://www.w3.org/1999/xlink"><rect width="1800" height="1265" style="fill: white;"></rect><g transform="translate(60,54)"><g class="mark-group role-frame root"><g transform="translate(0,0)"><path class="background" d="M0,0h0v0h0Z" style="fill: none;"></path><g><g class="mark-group role-scope concat_0_group"><g transform="translate(0,0)"><path class="background" d="M0,0h0v0h0Z" style="fill: none;"></path><g><g class="mark-group role-scope concat_0_concat_0_group"><g transform="translate(0,0)"><path class="background" d="M0.5,0.5h750v550h-750Z" style="fill: none; stroke: #ddd; stroke-opacity: 0;"></path><g><g class="mark-group role-axis"><g transform="translate(0.5,0.5)"><path class="background" d="M0,0h0v0h0Z" style="pointer-events: none; fill: none;"></path><g><g class="mark-rule role-axis-grid" style="pointer-events: none;"><line transform="translate(0,403)" x2="750" y2="0" style="fill: none; stroke: #ddd; stroke-opacity: 1; stroke-width: 1; opacity: 1;"></line><line transform="translate(0,257)" x2="750" y2="0" style="fill: none; stroke: #ddd; stroke-opacity: 1; stroke-width: 1; opacity: 1;"></line></g></g><path class="foreground" d="" style="pointer-events: none; display: none; fill: none;"></path></g></g><g class="mark-group role-axis"><g transform="translate(0.5,550.5)"><path class="background" d="M0,0h0v0h0Z" style="pointer-events: none; fill: none;"></path><g><g class="mark-text role-axis-label" style="pointer-events: none;"><text text-anchor="middle" transform="translate(225,35)" style="font-family: Lato; font-size: 32px; fill: #000; fill-opacity: 0.7; opacity: 1;">800</text><text text-anchor="middle" transform="translate(375,35)" style="font-family: Lato; font-size: 32px; fill: #000; fill-opacity: 0.7; opacity: 1;">1200</text><text text-anchor="middle" transform="translate(525,35)" style="font-family: Lato; font-size: 32px; fill: #000; fill-opacity: 0.7; opacity: 1;">1600</text><text text-anchor="middle" transform="translate(675,35)" style="font-family: Lato; font-size: 32px; fill: #000; fill-opacity: 0.7; opacity: 1;">2000</text></g><g class="mark-rule role-axis-domain" style="pointer-events: none;"><line transform="translate(0,0)" x2="750" y2="0" style="fill: none; stroke: #888; stroke-width: 1; opacity: 1;"></line></g></g><path class="foreground" d="" style="pointer-events: none; display: none; fill: none;"></path></g></g><g class="mark-group role-axis"><g transform="translate(0.5,0.5)"><path class="background" d="M0,0h0v0h0Z" style="pointer-events: none; fill: none;"></path><g><g class="mark-text role-axis-label" style="pointer-events: none;"><text text-anchor="start" transform="translate(-55,413.33333333333337)" style="font-family: Lato; font-size: 32px; fill: #000; fill-opacity: 0.8; opacity: 1;">80</text><text text-anchor="start" transform="translate(-55,266.6666666666667)" style="font-family: Lato; font-size: 32px; fill: #000; fill-opacity: 0.8; opacity: 1;">160</text></g><g class="mark-rule role-axis-domain" style="pointer-events: none;"><line transform="translate(0,550)" x2="0" y2="-550" style="fill: none; stroke: #888; stroke-width: 0; opacity: 1;"></line></g><g class="mark-text role-axis-title" style="pointer-events: none;"><text text-anchor="start" transform="translate(-55,52)" style="font-family: Lato; font-size: 36px; font-weight: normal; fill: #000; fill-opacity: 0.8; opacity: 1;">Counties where renting is more expensive than owning</text></g></g><path class="foreground" d="" style="pointer-events: none; display: none; fill: none;"></path></g></g><g class="mark-text role-mark concat_0_concat_0_layer_0_marks"><text text-anchor="middle" transform="translate(438.25000000000006,108.99999999999997)" style="font-family: sans-serif; font-size: 11.5px; font-weight: bold; fill: black; opacity: 0.09;">__________________________________________________________________________________________________</text></g><g class="mark-rect role-mark concat_0_concat_0_layer_1_marks"><path d="M278,496.8333333333333h14v53.166666666666686h-14Z" style="fill: #cede54;"></path><path d="M143,227.33333333333334h14v322.66666666666663h-14Z" style="fill: #cede54;"></path><path d="M188,265.8333333333333h14v284.1666666666667h-14Z" style="fill: #cede54;"></path><path d="M173,179.66666666666666h14v370.33333333333337h-14Z" style="fill: #cede54;"></path><path d="M113,401.5h14v148.5h-14Z" style="fill: #cede54;"></path><path d="M128,293.3333333333333h14v256.6666666666667h-14Z" style="fill: #cede54;"></path><path d="M218,405.1666666666667h14v144.83333333333331h-14Z" style="fill: #cede54;"></path><path d="M158,117.33333333333336h14v432.66666666666663h-14Z" style="fill: #cede54;"></path><path d="M203.00000000000003,375.8333333333333h14v174.16666666666669h-14Z" style="fill: #cede54;"></path><path d="M233,456.5h14v93.5h-14Z" style="fill: #cede54;"></path><path d="M293,518.8333333333334h14v31.16666666666663h-14Z" style="fill: #cede54;"></path><path d="M413.00000000000006,542.6666666666666h14v7.333333333333371h-14Z" style="fill: #cede54;"></path><path d="M398,544.5h14v5.5h-14Z" style="fill: #cede54;"></path><path d="M248.00000000000003,485.8333333333333h14v64.16666666666669h-14Z" style="fill: #cede54;"></path><path d="M323,539h14v11h-14Z" style="fill: #cede54;"></path><path d="M383,544.5h14v5.5h-14Z" style="fill: #cede54;"></path><path d="M308,533.5h14v16.5h-14Z" style="fill: #cede54;"></path><path d="M98.00000000000001,496.8333333333333h14v53.166666666666686h-14Z" style="fill: #cede54;"></path><path d="M338,537.1666666666666h14v12.833333333333371h-14Z" style="fill: #cede54;"></path><path d="M263,511.49999999999994h14v38.50000000000006h-14Z" style="fill: #cede54;"></path><path d="M83,539h14v11h-14Z" style="fill: #cede54;"></path><path d="M353,540.8333333333333h14v9.166666666666742h-14Z" style="fill: #cede54;"></path><path d="M518,548.1666666666666h14v1.8333333333333712h-14Z" style="fill: #cede54;"></path><path d="M368,544.5h14v5.5h-14Z" style="fill: #cede54;"></path><path d="M53,548.1666666666666h14v1.8333333333333712h-14Z" style="fill: #cede54;"></path><path d="M68,546.3333333333333h14v3.6666666666667425h-14Z" style="fill: #cede54;"></path></g><g class="mark-text role-mark concat_0_concat_0_layer_2_marks"><text text-anchor="middle" transform="translate(75,586.5)" style="font-family: lato; font-size: 32px; fill: black; opacity: 0.8;">$400</text></g><g class="mark-text role-mark concat_0_concat_0_layer_3_marks"><text text-anchor="middle" transform="translate(37.5,119.99999999999997)" style="font-family: lato; font-size: 32px; fill: black; opacity: 0.8;">240 counties</text></g><g class="mark-rule role-mark concat_0_concat_0_layer_4_marks"><line transform="translate(847.4999999999999,54.999999999999986)" x2="0" y2="-27.49999999999996" style="fill: none; stroke: black; stroke-width: 3; opacity: 0;"></line></g><g class="mark-group role-title"><g transform="translate(-55,-49)"><path class="background" d="M0,0h0v0h0Z" style="pointer-events: none; fill: none;"></path><g><g class="mark-text role-title-text" style="pointer-events: none;"><text text-anchor="start" transform="translate(0,35)" style="font-family: Lato; font-size: 44px; font-weight: normal; fill: #000; opacity: 1;">Monthly Renter Housing Expense</text></g></g><path class="foreground" d="" style="pointer-events: none; display: none; fill: none;"></path></g></g></g><path class="foreground" d="" style="display: none; fill: none;"></path></g></g><g class="mark-group role-scope concat_0_concat_1_group"><g transform="translate(868,0)"><path class="background" d="M0.5,0.5h750v550h-750Z" style="fill: none; stroke: #ddd; stroke-opacity: 0;"></path><g><g class="mark-group role-axis"><g transform="translate(0.5,0.5)"><path class="background" d="M0,0h0v0h0Z" style="pointer-events: none; fill: none;"></path><g><g class="mark-rule role-axis-grid" style="pointer-events: none;"><line transform="translate(0,403)" x2="750" y2="0" style="fill: none; stroke: #ddd; stroke-opacity: 1; stroke-width: 1; opacity: 1;"></line><line transform="translate(0,257)" x2="750" y2="0" style="fill: none; stroke: #ddd; stroke-opacity: 1; stroke-width: 1; opacity: 1;"></line></g></g><path class="foreground" d="" style="pointer-events: none; display: none; fill: none;"></path></g></g><g class="mark-group role-axis"><g transform="translate(0.5,550.5)"><path class="background" d="M0,0h0v0h0Z" style="pointer-events: none; fill: none;"></path><g><g class="mark-text role-axis-label" style="pointer-events: none;"><text text-anchor="middle" transform="translate(225,35)" style="font-family: Lato; font-size: 32px; fill: #000; fill-opacity: 0.7; opacity: 1;">800</text><text text-anchor="middle" transform="translate(375,35)" style="font-family: Lato; font-size: 32px; fill: #000; fill-opacity: 0.7; opacity: 1;">1200</text><text text-anchor="middle" transform="translate(525,35)" style="font-family: Lato; font-size: 32px; fill: #000; fill-opacity: 0.7; opacity: 1;">1600</text><text text-anchor="middle" transform="translate(675,35)" style="font-family: Lato; font-size: 32px; fill: #000; fill-opacity: 0.7; opacity: 1;">2000</text></g><g class="mark-rule role-axis-domain" style="pointer-events: none;"><line transform="translate(0,0)" x2="750" y2="0" style="fill: none; stroke: #888; stroke-width: 1; opacity: 1;"></line></g></g><path class="foreground" d="" style="pointer-events: none; display: none; fill: none;"></path></g></g><g class="mark-group role-axis"><g transform="translate(0.5,0.5)"><path class="background" d="M0,0h0v0h0Z" style="pointer-events: none; fill: none;"></path><g><g class="mark-text role-axis-label" style="pointer-events: none;"><text text-anchor="start" transform="translate(0,413.33333333333337)" style="font-family: Lato; font-size: 32px; fill: #000; fill-opacity: 0; opacity: 1;">80</text><text text-anchor="start" transform="translate(0,266.6666666666667)" style="font-family: Lato; font-size: 32px; fill: #000; fill-opacity: 0; opacity: 1;">160</text></g><g class="mark-rule role-axis-domain" style="pointer-events: none;"><line transform="translate(0,550)" x2="0" y2="-550" style="fill: none; stroke: #888; stroke-width: 0; opacity: 1;"></line></g><g class="mark-text role-axis-title" style="pointer-events: none;"><text text-anchor="start" transform="translate(0,52)" style="font-family: Lato; font-size: 36px; font-weight: normal; fill: #000; fill-opacity: 0.8; opacity: 1;">Counties where owning is more expensive than renting</text></g></g><path class="foreground" d="" style="pointer-events: none; display: none; fill: none;"></path></g></g><g class="mark-text role-mark concat_0_concat_1_layer_0_marks"><text text-anchor="middle" transform="translate(438.25000000000006,108.99999999999997)" style="font-family: sans-serif; font-size: 11.5px; font-weight: bold; fill: black; opacity: 0.09;">__________________________________________________________________________________________________</text></g><g class="mark-rect role-mark concat_0_concat_1_layer_1_marks"><path d="M248.00000000000003,524.3333333333334h14v25.66666666666663h-14Z" style="fill: #97c2f2;"></path><path d="M263,515.1666666666666h14v34.83333333333337h-14Z" style="fill: #97c2f2;"></path><path d="M113,241.99999999999997h14v308h-14Z" style="fill: #97c2f2;"></path><path d="M143,238.33333333333334h14v311.66666666666663h-14Z" style="fill: #97c2f2;"></path><path d="M128,205.33333333333331h14v344.6666666666667h-14Z" style="fill: #97c2f2;"></path><path d="M158,297h14v253h-14Z" style="fill: #97c2f2;"></path><path d="M98.00000000000001,209h14v341h-14Z" style="fill: #97c2f2;"></path><path d="M83,335.5h14v214.5h-14Z" style="fill: #97c2f2;"></path><path d="M68,421.66666666666663h14v128.33333333333337h-14Z" style="fill: #97c2f2;"></path><path d="M188,449.1666666666667h14v100.83333333333331h-14Z" style="fill: #97c2f2;"></path><path d="M53,482.1666666666667h14v67.83333333333331h-14Z" style="fill: #97c2f2;"></path><path d="M173,372.1666666666667h14v177.83333333333331h-14Z" style="fill: #97c2f2;"></path><path d="M233,493.1666666666667h14v56.833333333333314h-14Z" style="fill: #97c2f2;"></path><path d="M338,544.5h14v5.5h-14Z" style="fill: #97c2f2;"></path><path d="M203.00000000000003,482.1666666666667h14v67.83333333333331h-14Z" style="fill: #97c2f2;"></path><path d="M218,496.8333333333333h14v53.166666666666686h-14Z" style="fill: #97c2f2;"></path><path d="M8,548.1666666666666h14v1.8333333333333712h-14Z" style="fill: #97c2f2;"></path><path d="M323,540.8333333333333h14v9.166666666666742h-14Z" style="fill: #97c2f2;"></path><path d="M293,540.8333333333333h14v9.166666666666742h-14Z" style="fill: #97c2f2;"></path><path d="M413.00000000000006,548.1666666666666h14v1.8333333333333712h-14Z" style="fill: #97c2f2;"></path><path d="M308,546.3333333333333h14v3.6666666666667425h-14Z" style="fill: #97c2f2;"></path><path d="M368,546.3333333333333h14v3.6666666666667425h-14Z" style="fill: #97c2f2;"></path><path d="M278,537.1666666666666h14v12.833333333333371h-14Z" style="fill: #97c2f2;"></path><path d="M427.99999999999994,548.1666666666666h14v1.8333333333333712h-14Z" style="fill: #97c2f2;"></path><path d="M38,537.1666666666666h14v12.833333333333371h-14Z" style="fill: #97c2f2;"></path><path d="M23,542.6666666666666h14v7.333333333333371h-14Z" style="fill: #97c2f2;"></path><path d="M353,546.3333333333333h14v3.6666666666667425h-14Z" style="fill: #97c2f2;"></path></g><g class="mark-text role-mark concat_0_concat_1_layer_2_marks"><text text-anchor="middle" transform="translate(75,586.5)" style="font-family: lato; font-size: 32px; fill: black; opacity: 0.8;">$400</text></g><g class="mark-text role-mark concat_0_concat_1_layer_3_marks"><text text-anchor="middle" transform="translate(537.5,119.99999999999997)" style="font-family: lato; font-size: 32px; fill: black; opacity: 0;">240 counties</text></g><g class="mark-rule role-mark concat_0_concat_1_layer_4_marks"><line transform="translate(847.4999999999999,54.999999999999986)" x2="0" y2="-27.49999999999996" style="fill: none; stroke: black; stroke-width: 3; opacity: 0;"></line></g><g class="mark-group role-title"><g transform="translate(0,-49)"><path class="background" d="M0,0h0v0h0Z" style="pointer-events: none; fill: none;"></path><g><g class="mark-text role-title-text" style="pointer-events: none;"><text text-anchor="start" transform="translate(0,35)" style="font-family: Lato; font-size: 44px; font-weight: normal; fill: #000; opacity: 1;">Monthly Homeowner Housing Expense</text></g></g><path class="foreground" d="" style="pointer-events: none; display: none; fill: none;"></path></g></g></g><path class="foreground" d="" style="display: none; fill: none;"></path></g></g></g><path class="foreground" d="" style="display: none; fill: none;"></path></g></g><g class="mark-group role-scope concat_1_group"><g transform="translate(0,613)"><path class="background" d="M0,0h0v0h0Z" style="fill: none;"></path><g><g class="mark-group role-scope concat_1_concat_0_group"><g transform="translate(0,0)"><path class="background" d="M0.5,0.5h750v550h-750Z" style="fill: none; stroke: #ddd; stroke-opacity: 0;"></path><g><g class="mark-group role-axis"><g transform="translate(0.5,0.5)"><path class="background" d="M0,0h0v0h0Z" style="pointer-events: none; fill: none;"></path><g><g class="mark-rule role-axis-grid" style="pointer-events: none;"><line transform="translate(0,403)" x2="750" y2="0" style="fill: none; stroke: #ddd; stroke-opacity: 1; stroke-width: 1; opacity: 1;"></line><line transform="translate(0,257)" x2="750" y2="0" style="fill: none; stroke: #ddd; stroke-opacity: 1; stroke-width: 1; opacity: 1;"></line></g></g><path class="foreground" d="" style="pointer-events: none; display: none; fill: none;"></path></g></g><g class="mark-group role-axis"><g transform="translate(0.5,550.5)"><path class="background" d="M0,0h0v0h0Z" style="pointer-events: none; fill: none;"></path><g><g class="mark-text role-axis-label" style="pointer-events: none;"><text text-anchor="middle" transform="translate(225,35)" style="font-family: Lato; font-size: 32px; fill: #000; fill-opacity: 0.7; opacity: 1;">800</text><text text-anchor="middle" transform="translate(375,35)" style="font-family: Lato; font-size: 32px; fill: #000; fill-opacity: 0.7; opacity: 1;">1200</text><text text-anchor="middle" transform="translate(525,35)" style="font-family: Lato; font-size: 32px; fill: #000; fill-opacity: 0.7; opacity: 1;">1600</text><text text-anchor="middle" transform="translate(675,35)" style="font-family: Lato; font-size: 32px; fill: #000; fill-opacity: 0.7; opacity: 1;">2000</text></g><g class="mark-rule role-axis-domain" style="pointer-events: none;"><line transform="translate(0,0)" x2="750" y2="0" style="fill: none; stroke: #888; stroke-width: 1; opacity: 1;"></line></g></g><path class="foreground" d="" style="pointer-events: none; display: none; fill: none;"></path></g></g><g class="mark-group role-axis"><g transform="translate(0.5,0.5)"><path class="background" d="M0,0h0v0h0Z" style="pointer-events: none; fill: none;"></path><g><g class="mark-text role-axis-label" style="pointer-events: none;"><text text-anchor="start" transform="translate(-55,413.33333333333337)" style="font-family: Lato; font-size: 32px; fill: #000; fill-opacity: 0.8; opacity: 1;">80</text><text text-anchor="start" transform="translate(-55,266.6666666666667)" style="font-family: Lato; font-size: 32px; fill: #000; fill-opacity: 0.8; opacity: 1;">160</text></g><g class="mark-rule role-axis-domain" style="pointer-events: none;"><line transform="translate(0,550)" x2="0" y2="-550" style="fill: none; stroke: #888; stroke-width: 0; opacity: 1;"></line></g><g class="mark-text role-axis-title" style="pointer-events: none;"><text text-anchor="start" transform="translate(-55,52)" style="font-family: Lato; font-size: 36px; font-weight: normal; fill: #000; fill-opacity: 0.8; opacity: 1;">Counties where renting is more expensive than owning</text></g></g><path class="foreground" d="" style="pointer-events: none; display: none; fill: none;"></path></g></g><g class="mark-text role-mark concat_1_concat_0_layer_0_marks"><text text-anchor="middle" transform="translate(438.25000000000006,108.99999999999997)" style="font-family: sans-serif; font-size: 11.5px; font-weight: bold; fill: black; opacity: 0.09;">__________________________________________________________________________________________________</text></g><g class="mark-rect role-mark concat_1_concat_0_layer_1_marks"><path d="M128,386.83333333333337h14v163.16666666666663h-14Z" style="fill: #cede54;"></path><path d="M248.00000000000003,399.6666666666667h14v150.33333333333331h-14Z" style="fill: #cede54;"></path><path d="M113,467.5h14v82.5h-14Z" style="fill: #cede54;"></path><path d="M68,533.5h14v16.5h-14Z" style="fill: #cede54;"></path><path d="M158,265.8333333333333h14v284.1666666666667h-14Z" style="fill: #cede54;"></path><path d="M233,401.5h14v148.5h-14Z" style="fill: #cede54;"></path><path d="M83,518.8333333333334h14v31.16666666666663h-14Z" style="fill: #cede54;"></path><path d="M203.00000000000003,264h14v286h-14Z" style="fill: #cede54;"></path><path d="M308,465.6666666666667h14v84.33333333333331h-14Z" style="fill: #cede54;"></path><path d="M413.00000000000006,533.5h14v16.5h-14Z" style="fill: #cede54;"></path><path d="M398,513.3333333333334h14v36.66666666666663h-14Z" style="fill: #cede54;"></path><path d="M263,440h14v110h-14Z" style="fill: #cede54;"></path><path d="M383,515.1666666666666h14v34.83333333333337h-14Z" style="fill: #cede54;"></path><path d="M293,463.8333333333333h14v86.16666666666669h-14Z" style="fill: #cede54;"></path><path d="M353,504.16666666666663h14v45.83333333333337h-14Z" style="fill: #cede54;"></path><path d="M427.99999999999994,537.1666666666666h14v12.833333333333371h-14Z" style="fill: #cede54;"></path><path d="M338,485.8333333333333h14v64.16666666666669h-14Z" style="fill: #cede54;"></path><path d="M323,495h14v55h-14Z" style="fill: #cede54;"></path><path d="M173,174.16666666666666h14v375.83333333333337h-14Z" style="fill: #cede54;"></path><path d="M218,344.6666666666667h14v205.33333333333331h-14Z" style="fill: #cede54;"></path><path d="M53,542.6666666666666h14v7.333333333333371h-14Z" style="fill: #cede54;"></path><path d="M98.00000000000001,506h14v44h-14Z" style="fill: #cede54;"></path><path d="M143,333.6666666666667h14v216.33333333333331h-14Z" style="fill: #cede54;"></path><path d="M548,537.1666666666666h14v12.833333333333371h-14Z" style="fill: #cede54;"></path><path d="M563,540.8333333333333h14v9.166666666666742h-14Z" style="fill: #cede54;"></path><path d="M368,506h14v44h-14Z" style="fill: #cede54;"></path><path d="M278,434.5h14v115.5h-14Z" style="fill: #cede54;"></path><path d="M443,529.8333333333334h14v20.16666666666663h-14Z" style="fill: #cede54;"></path><path d="M653,548.1666666666666h14v1.8333333333333712h-14Z" style="fill: #cede54;"></path><path d="M533,544.5h14v5.5h-14Z" style="fill: #cede54;"></path><path d="M578,544.5h14v5.5h-14Z" style="fill: #cede54;"></path><path d="M473,531.6666666666666h14v18.33333333333337h-14Z" style="fill: #cede54;"></path><path d="M503.00000000000006,537.1666666666666h14v12.833333333333371h-14Z" style="fill: #cede54;"></path><path d="M593,546.3333333333333h14v3.6666666666667425h-14Z" style="fill: #cede54;"></path><path d="M728,548.1666666666666h14v1.8333333333333712h-14Z" style="fill: #cede54;"></path><path d="M713,548.1666666666666h14v1.8333333333333712h-14Z" style="fill: #cede54;"></path><path d="M518,544.5h14v5.5h-14Z" style="fill: #cede54;"></path><path d="M488,542.6666666666666h14v7.333333333333371h-14Z" style="fill: #cede54;"></path><path d="M188,251.16666666666666h14v298.83333333333337h-14Z" style="fill: #cede54;"></path><path d="M38,546.3333333333333h14v3.6666666666667425h-14Z" style="fill: #cede54;"></path><path d="M458,537.1666666666666h14v12.833333333333371h-14Z" style="fill: #cede54;"></path><path d="M638,548.1666666666666h14v1.8333333333333712h-14Z" style="fill: #cede54;"></path><path d="M608,546.3333333333333h14v3.6666666666667425h-14Z" style="fill: #cede54;"></path><path d="M623,548.1666666666666h14v1.8333333333333712h-14Z" style="fill: #cede54;"></path></g><g class="mark-text role-mark concat_1_concat_0_layer_2_marks"><text text-anchor="middle" transform="translate(75,586.5)" style="font-family: lato; font-size: 32px; fill: black; opacity: 0.8;">$400</text></g><g class="mark-text role-mark concat_1_concat_0_layer_3_marks"><text text-anchor="middle" transform="translate(37.5,119.99999999999997)" style="font-family: lato; font-size: 32px; fill: black; opacity: 0.8;">240 counties</text></g><g class="mark-rule role-mark concat_1_concat_0_layer_4_marks"><line transform="translate(847.4999999999999,54.999999999999986)" x2="0" y2="-27.49999999999996" style="fill: none; stroke: black; stroke-width: 3; opacity: 0;"></line></g></g><path class="foreground" d="" style="display: none; fill: none;"></path></g></g><g class="mark-group role-scope concat_1_concat_1_group"><g transform="translate(868,0)"><path class="background" d="M0.5,0.5h750v550h-750Z" style="fill: none; stroke: #ddd; stroke-opacity: 0;"></path><g><g class="mark-group role-axis"><g transform="translate(0.5,0.5)"><path class="background" d="M0,0h0v0h0Z" style="pointer-events: none; fill: none;"></path><g><g class="mark-rule role-axis-grid" style="pointer-events: none;"><line transform="translate(0,403)" x2="750" y2="0" style="fill: none; stroke: #ddd; stroke-opacity: 1; stroke-width: 1; opacity: 1;"></line><line transform="translate(0,257)" x2="750" y2="0" style="fill: none; stroke: #ddd; stroke-opacity: 1; stroke-width: 1; opacity: 1;"></line></g></g><path class="foreground" d="" style="pointer-events: none; display: none; fill: none;"></path></g></g><g class="mark-group role-axis"><g transform="translate(0.5,550.5)"><path class="background" d="M0,0h0v0h0Z" style="pointer-events: none; fill: none;"></path><g><g class="mark-text role-axis-label" style="pointer-events: none;"><text text-anchor="middle" transform="translate(225,35)" style="font-family: Lato; font-size: 32px; fill: #000; fill-opacity: 0.7; opacity: 1;">800</text><text text-anchor="middle" transform="translate(375,35)" style="font-family: Lato; font-size: 32px; fill: #000; fill-opacity: 0.7; opacity: 1;">1200</text><text text-anchor="middle" transform="translate(525,35)" style="font-family: Lato; font-size: 32px; fill: #000; fill-opacity: 0.7; opacity: 1;">1600</text><text text-anchor="middle" transform="translate(675,35)" style="font-family: Lato; font-size: 32px; fill: #000; fill-opacity: 0.7; opacity: 1;">2000</text></g><g class="mark-rule role-axis-domain" style="pointer-events: none;"><line transform="translate(0,0)" x2="750" y2="0" style="fill: none; stroke: #888; stroke-width: 1; opacity: 1;"></line></g></g><path class="foreground" d="" style="pointer-events: none; display: none; fill: none;"></path></g></g><g class="mark-group role-axis"><g transform="translate(0.5,0.5)"><path class="background" d="M0,0h0v0h0Z" style="pointer-events: none; fill: none;"></path><g><g class="mark-text role-axis-label" style="pointer-events: none;"><text text-anchor="start" transform="translate(0,413.33333333333337)" style="font-family: Lato; font-size: 32px; fill: #000; fill-opacity: 0; opacity: 1;">80</text><text text-anchor="start" transform="translate(0,266.6666666666667)" style="font-family: Lato; font-size: 32px; fill: #000; fill-opacity: 0; opacity: 1;">160</text></g><g class="mark-rule role-axis-domain" style="pointer-events: none;"><line transform="translate(0,550)" x2="0" y2="-550" style="fill: none; stroke: #888; stroke-width: 0; opacity: 1;"></line></g><g class="mark-text role-axis-title" style="pointer-events: none;"><text text-anchor="start" transform="translate(0,52)" style="font-family: Lato; font-size: 36px; font-weight: normal; fill: #000; fill-opacity: 0.8; opacity: 1;">Counties where owning is more expensive than renting</text></g></g><path class="foreground" d="" style="pointer-events: none; display: none; fill: none;"></path></g></g><g class="mark-text role-mark concat_1_concat_1_layer_0_marks"><text text-anchor="middle" transform="translate(438.25000000000006,108.99999999999997)" style="font-family: sans-serif; font-size: 11.5px; font-weight: bold; fill: black; opacity: 0.09;">__________________________________________________________________________________________________</text></g><g class="mark-rect role-mark concat_1_concat_1_layer_1_marks"><path d="M128,485.8333333333333h14v64.16666666666669h-14Z" style="fill: #97c2f2;"></path><path d="M263,379.49999999999994h14v170.50000000000006h-14Z" style="fill: #97c2f2;"></path><path d="M113,515.1666666666666h14v34.83333333333337h-14Z" style="fill: #97c2f2;"></path><path d="M278,407h14v143h-14Z" style="fill: #97c2f2;"></path><path d="M68,542.6666666666666h14v7.333333333333371h-14Z" style="fill: #97c2f2;"></path><path d="M173,309.83333333333337h14v240.16666666666663h-14Z" style="fill: #97c2f2;"></path><path d="M248.00000000000003,359.3333333333333h14v190.66666666666669h-14Z" style="fill: #97c2f2;"></path><path d="M218,366.6666666666667h14v183.33333333333331h-14Z" style="fill: #97c2f2;"></path><path d="M293,418h14v132h-14Z" style="fill: #97c2f2;"></path><path d="M158,370.3333333333333h14v179.66666666666669h-14Z" style="fill: #97c2f2;"></path><path d="M353,473h14v77h-14Z" style="fill: #97c2f2;"></path><path d="M563,531.6666666666666h14v18.33333333333337h-14Z" style="fill: #97c2f2;"></path><path d="M488,522.5h14v27.5h-14Z" style="fill: #97c2f2;"></path><path d="M308,465.6666666666667h14v84.33333333333331h-14Z" style="fill: #97c2f2;"></path><path d="M578,529.8333333333334h14v20.16666666666663h-14Z" style="fill: #97c2f2;"></path><path d="M427.99999999999994,507.8333333333333h14v42.166666666666686h-14Z" style="fill: #97c2f2;"></path><path d="M503.00000000000006,529.8333333333334h14v20.16666666666663h-14Z" style="fill: #97c2f2;"></path><path d="M458,528h14v22h-14Z" style="fill: #97c2f2;"></path><path d="M338,460.1666666666667h14v89.83333333333331h-14Z" style="fill: #97c2f2;"></path><path d="M398,489.5h14v60.5h-14Z" style="fill: #97c2f2;"></path><path d="M368,473h14v77h-14Z" style="fill: #97c2f2;"></path><path d="M233,342.8333333333333h14v207.16666666666669h-14Z" style="fill: #97c2f2;"></path><path d="M188,315.3333333333333h14v234.66666666666669h-14Z" style="fill: #97c2f2;"></path><path d="M98.00000000000001,524.3333333333334h14v25.66666666666663h-14Z" style="fill: #97c2f2;"></path><path d="M713,546.3333333333333h14v3.6666666666667425h-14Z" style="fill: #97c2f2;"></path><path d="M383,500.5h14v49.5h-14Z" style="fill: #97c2f2;"></path><path d="M323,452.83333333333337h14v97.16666666666663h-14Z" style="fill: #97c2f2;"></path><path d="M653,539h14v11h-14Z" style="fill: #97c2f2;"></path><path d="M443,517h14v33h-14Z" style="fill: #97c2f2;"></path><path d="M533,533.5h14v16.5h-14Z" style="fill: #97c2f2;"></path><path d="M623,542.6666666666666h14v7.333333333333371h-14Z" style="fill: #97c2f2;"></path><path d="M728,544.5h14v5.5h-14Z" style="fill: #97c2f2;"></path><path d="M608,533.5h14v16.5h-14Z" style="fill: #97c2f2;"></path><path d="M698,542.6666666666666h14v7.333333333333371h-14Z" style="fill: #97c2f2;"></path><path d="M668,546.3333333333333h14v3.6666666666667425h-14Z" style="fill: #97c2f2;"></path><path d="M473,524.3333333333334h14v25.66666666666663h-14Z" style="fill: #97c2f2;"></path><path d="M593,537.1666666666666h14v12.833333333333371h-14Z" style="fill: #97c2f2;"></path><path d="M413.00000000000006,496.8333333333333h14v53.166666666666686h-14Z" style="fill: #97c2f2;"></path><path d="M683,542.6666666666666h14v7.333333333333371h-14Z" style="fill: #97c2f2;"></path><path d="M548,533.5h14v16.5h-14Z" style="fill: #97c2f2;"></path><path d="M203.00000000000003,313.50000000000006h14v236.49999999999994h-14Z" style="fill: #97c2f2;"></path><path d="M518,524.3333333333334h14v25.66666666666663h-14Z" style="fill: #97c2f2;"></path><path d="M83,539h14v11h-14Z" style="fill: #97c2f2;"></path><path d="M143,447.33333333333337h14v102.66666666666663h-14Z" style="fill: #97c2f2;"></path><path d="M638,544.5h14v5.5h-14Z" style="fill: #97c2f2;"></path></g><g class="mark-text role-mark concat_1_concat_1_layer_2_marks"><text text-anchor="middle" transform="translate(75,586.5)" style="font-family: lato; font-size: 32px; fill: black; opacity: 0.8;">$400</text></g><g class="mark-text role-mark concat_1_concat_1_layer_3_marks"><text text-anchor="middle" transform="translate(537.5,119.99999999999997)" style="font-family: lato; font-size: 32px; fill: black; opacity: 0;">240 counties</text></g><g class="mark-rule role-mark concat_1_concat_1_layer_4_marks"><line transform="translate(847.4999999999999,54.999999999999986)" x2="0" y2="-27.49999999999996" style="fill: none; stroke: black; stroke-width: 3; opacity: 0;"></line></g></g><path class="foreground" d="" style="display: none; fill: none;"></path></g></g></g><path class="foreground" d="" style="display: none; fill: none;"></path></g></g></g><path class="foreground" d="" style="display: none; fill: none;"></path></g></g></g></svg>