<svg class="marks" width="1720" height="629" viewBox="0 0 1720 629" version="1.1" xmlns="http://www.w3.org/2000/svg" xmlns:xlink="http://www.w3.org/1999/xlink"><rect width="1720" height="629" style="fill: white;"></rect><g transform="translate(60,35)"><g class="mark-group role-frame root"><g transform="translate(0,0)"><path class="background" d="M0,0h0v550h0Z" style="fill: none;"></path><g><g class="mark-group role-scope concat_0_group"><g transform="translate(0,0)"><path class="background" d="M0.5,0.5h700v550h-700Z" style="fill: none; stroke: #ddd; stroke-opacity: 0;"></path><g><g class="mark-group role-axis"><g transform="translate(0.5,0.5)"><path class="background" d="M0,0h0v0h0Z" style="pointer-events: none; fill: none;"></path><g><g class="mark-rule role-axis-grid" style="pointer-events: none;"><line transform="translate(0,393)" x2="700" y2="0" style="fill: none; stroke: #ddd; stroke-opacity: 1; stroke-width: 1; opacity: 1;"></line><line transform="translate(0,236)" x2="700" y2="0" style="fill: none; stroke: #ddd; stroke-opacity: 1; stroke-width: 1; opacity: 1;"></line></g></g><path class="foreground" d="" style="pointer-events: none; display: none; fill: none;"></path></g></g><g class="mark-group role-axis"><g transform="translate(0.5,550.5)"><path class="background" d="M0,0h0v0h0Z" style="pointer-events: none; fill: none;"></path><g><g class="mark-text role-axis-label" style="pointer-events: none;"><text text-anchor="middle" transform="translate(210,32)" style="font-family: Lato, Calibri, Arial; font-size: 28px; fill: #000; fill-opacity: 0.8; opacity: 1;">20</text><text text-anchor="middle" transform="translate(350,32)" style="font-family: Lato, Calibri, Arial; font-size: 28px; fill: #000; fill-opacity: 0.8; opacity: 1;">30</text><text text-anchor="middle" transform="translate(489.99999999999994,32)" style="font-family: Lato, Calibri, Arial; font-size: 28px; fill: #000; fill-opacity: 0.8; opacity: 1;">40</text><text text-anchor="middle" transform="translate(630,32)" style="font-family: Lato, Calibri, Arial; font-size: 28px; fill: #000; fill-opacity: 0.8; opacity: 1;">50</text></g><g class="mark-rule role-axis-domain" style="pointer-events: none;"><line transform="translate(0,0)" x2="700" y2="0" style="fill: none; stroke: #888; stroke-width: 1; opacity: 1;"></line></g><g class="mark-text role-axis-title" style="pointer-events: none;"><text text-anchor="middle" transform="translate(255,-548)" style="font-family: Lato, Calibri, Arial; font-size: 40px; font-weight: normal; fill: #000; fill-opacity: 0.8; opacity: 1;">Renter Income Devoted to Housing</text></g></g><path class="foreground" d="" style="pointer-events: none; display: none; fill: none;"></path></g></g><g class="mark-group role-axis"><g transform="translate(0.5,0.5)"><path class="background" d="M0,0h0v0h0Z" style="pointer-events: none; fill: none;"></path><g><g class="mark-text role-axis-label" style="pointer-events: none;"><text text-anchor="start" transform="translate(-50,400.8571428571429)" style="font-family: Lato, Calibri, Arial; font-size: 28px; fill: #000; fill-opacity: 0.8; opacity: 1;">100</text><text text-anchor="start" transform="translate(-50,243.71428571428572)" style="font-family: Lato, Calibri, Arial; font-size: 28px; fill: #000; fill-opacity: 0.8; opacity: 1;">200</text></g><g class="mark-rule role-axis-domain" style="pointer-events: none;"><line transform="translate(0,550)" x2="0" y2="-550" style="fill: none; stroke: #888; stroke-width: 0; opacity: 1;"></line></g></g><path class="foreground" d="" style="pointer-events: none; display: none; fill: none;"></path></g></g><g class="mark-text role-mark concat_0_layer_0_marks"><text text-anchor="middle" transform="translate(399,77.5714285714286)" style="font-family: sans-serif; font-size: 11.5px; font-weight: bold; fill: black; opacity: 0.09;">______________________________________________________________________________________________</text></g><g class="mark-rect role-mark concat_0_layer_1_marks"><path d="M385.50000000000006,422.7142857142857h13v127.28571428571428h-13Z" style="fill: #cede54;"></path><path d="M357.5,397.57142857142856h13v152.42857142857144h-13Z" style="fill: #cede54;"></path><path d="M455.5,491.85714285714283h13v58.14285714285717h-13Z" style="fill: #cede54;"></path><path d="M399.5,425.85714285714283h13v124.14285714285717h-13Z" style="fill: #cede54;"></path><path d="M343.5,383.4285714285714h13v166.5714285714286h-13Z" style="fill: #cede54;"></path><path d="M371.5,403.85714285714283h13v146.14285714285717h-13Z" style="fill: #cede54;"></path><path d="M483.49999999999994,512.2857142857142h13v37.71428571428578h-13Z" style="fill: #cede54;"></path><path d="M427.5,471.42857142857144h13v78.57142857142856h-13Z" style="fill: #cede54;"></path><path d="M231.50000000000003,479.2857142857143h13v70.71428571428572h-13Z" style="fill: #cede54;"></path><path d="M315.5,396h13v154h-13Z" style="fill: #cede54;"></path><path d="M413.5,473h13v77h-13Z" style="fill: #cede54;"></path><path d="M329.5,433.7142857142857h13v116.28571428571428h-13Z" style="fill: #cede54;"></path><path d="M469.50000000000006,513.8571428571429h13v36.14285714285711h-13Z" style="fill: #cede54;"></path><path d="M259.5,460.42857142857144h13v89.57142857142856h-13Z" style="fill: #cede54;"></path><path d="M273.5,468.2857142857143h13v81.71428571428572h-13Z" style="fill: #cede54;"></path><path d="M609.5,545.2857142857143h13v4.714285714285666h-13Z" style="fill: #cede54;"></path><path d="M441.5,490.2857142857143h13v59.71428571428572h-13Z" style="fill: #cede54;"></path><path d="M175.5,502.85714285714283h13v47.14285714285717h-13Z" style="fill: #cede54;"></path><path d="M189.50000000000003,526.4285714285714h13v23.571428571428555h-13Z" style="fill: #cede54;"></path><path d="M147.5,523.2857142857142h13v26.71428571428578h-13Z" style="fill: #cede54;"></path><path d="M119.5,542.1428571428572h13v7.857142857142776h-13Z" style="fill: #cede54;"></path><path d="M301.5,441.57142857142856h13v108.42857142857144h-13Z" style="fill: #cede54;"></path><path d="M203.5,504.42857142857144h13v45.571428571428555h-13Z" style="fill: #cede54;"></path><path d="M161.5,532.7142857142857h13v17.285714285714334h-13Z" style="fill: #cede54;"></path><path d="M245.5,491.85714285714283h13v58.14285714285717h-13Z" style="fill: #cede54;"></path><path d="M35.5,548.4285714285714h13v1.5714285714285552h-13Z" style="fill: #cede54;"></path><path d="M511.5,534.2857142857143h13v15.714285714285666h-13Z" style="fill: #cede54;"></path><path d="M539.5,535.8571428571429h13v14.14285714285711h-13Z" style="fill: #cede54;"></path><path d="M287.5,433.7142857142857h13v116.28571428571428h-13Z" style="fill: #cede54;"></path><path d="M497.5,523.2857142857142h13v26.71428571428578h-13Z" style="fill: #cede54;"></path><path d="M567.5,543.7142857142857h13v6.285714285714334h-13Z" style="fill: #cede54;"></path><path d="M553.5,532.7142857142857h13v17.285714285714334h-13Z" style="fill: #cede54;"></path><path d="M217.5,510.7142857142857h13v39.28571428571428h-13Z" style="fill: #cede54;"></path><path d="M525.5,539h13v11h-13Z" style="fill: #cede54;"></path><path d="M581.5,539h13v11h-13Z" style="fill: #cede54;"></path><path d="M595.5,543.7142857142857h13v6.285714285714334h-13Z" style="fill: #cede54;"></path><path d="M623.5,548.4285714285714h13v1.5714285714285552h-13Z" style="fill: #cede54;"></path><path d="M133.5,545.2857142857143h13v4.714285714285666h-13Z" style="fill: #cede54;"></path><path d="M77.5,548.4285714285714h13v1.5714285714285552h-13Z" style="fill: #cede54;"></path><path d="M105.5,545.2857142857143h13v4.714285714285666h-13Z" style="fill: #cede54;"></path></g><g class="mark-text role-mark concat_0_layer_2_marks"><text text-anchor="middle" transform="translate(79,583)" style="font-family: lato; font-size: 28px; fill: black; opacity: 0.8;">10%</text></g><g class="mark-text role-mark concat_0_layer_3_marks"><text text-anchor="middle" transform="translate(30,86.5714285714286)" style="font-family: lato; font-size: 28px; fill: black; opacity: 0.8;">300 counties</text></g><g class="mark-text role-mark concat_0_layer_4_marks"><text text-anchor="middle" transform="translate(-42,291.0714285714286)" style="font-family: lato; font-size: 30px; fill: black; opacity: 0.8;"></text></g><g class="mark-text role-mark concat_0_layer_5_marks"><text text-anchor="middle" transform="translate(-42,330.3571428571429)" style="font-family: lato; font-size: 30px; fill: black; opacity: 0.8;"></text></g><g class="mark-text role-mark concat_0_layer_6_marks"><text text-anchor="middle" transform="translate(630,502)" style="font-family: lato; font-size: 24px; fill: black; opacity: 0.8;">Median: 30%</text></g></g><path class="foreground" d="" style="display: none; fill: none;"></path></g></g><g class="mark-group role-scope concat_1_group"><g transform="translate(771,0)"><path class="background" d="M0.5,0.5h700v550h-700Z" style="fill: none; stroke: #ddd; stroke-opacity: 0;"></path><g><g class="mark-group role-axis"><g transform="translate(0.5,0.5)"><path class="background" d="M0,0h0v0h0Z" style="pointer-events: none; fill: none;"></path><g><g class="mark-rule role-axis-grid" style="pointer-events: none;"><line transform="translate(0,393)" x2="700" y2="0" style="fill: none; stroke: #ddd; stroke-opacity: 1; stroke-width: 1; opacity: 1;"></line><line transform="translate(0,236)" x2="700" y2="0" style="fill: none; stroke: #ddd; stroke-opacity: 1; stroke-width: 1; opacity: 1;"></line></g></g><path class="foreground" d="" style="pointer-events: none; display: none; fill: none;"></path></g></g><g class="mark-group role-axis"><g transform="translate(0.5,550.5)"><path class="background" d="M0,0h0v0h0Z" style="pointer-events: none; fill: none;"></path><g><g class="mark-text role-axis-label" style="pointer-events: none;"><text text-anchor="middle" transform="translate(70,32)" style="font-family: Lato, Calibri, Arial; font-size: 28px; fill: #000; fill-opacity: 0.8; opacity: 1;">10</text><text text-anchor="middle" transform="translate(140,32)" style="font-family: Lato, Calibri, Arial; font-size: 28px; fill: #000; fill-opacity: 0.8; opacity: 1;">15</text><text text-anchor="middle" transform="translate(210,32)" style="font-family: Lato, Calibri, Arial; font-size: 28px; fill: #000; fill-opacity: 0.8; opacity: 1;">20</text><text text-anchor="middle" transform="translate(280,32)" style="font-family: Lato, Calibri, Arial; font-size: 28px; fill: #000; fill-opacity: 0.8; opacity: 1;">25</text></g><g class="mark-rule role-axis-domain" style="pointer-events: none;"><line transform="translate(0,0)" x2="700" y2="0" style="fill: none; stroke: #888; stroke-width: 1; opacity: 1;"></line></g><g class="mark-text role-axis-title" style="pointer-events: none;"><text text-anchor="middle" transform="translate(350,-548)" style="font-family: Lato, Calibri, Arial; font-size: 40px; font-weight: normal; fill: #000; fill-opacity: 0.8; opacity: 1;">Homeowner Income Devoted to Housing</text></g></g><path class="foreground" d="" style="pointer-events: none; display: none; fill: none;"></path></g></g><g class="mark-group role-axis"><g transform="translate(0.5,0.5)"><path class="background" d="M0,0h0v0h0Z" style="pointer-events: none; fill: none;"></path><g><g class="mark-text role-axis-label" style="pointer-events: none;"><text text-anchor="start" transform="translate(0,400.8571428571429)" style="font-family: Lato, Calibri, Arial; font-size: 28px; fill: #000; fill-opacity: 0; opacity: 1;">100</text><text text-anchor="start" transform="translate(0,243.71428571428572)" style="font-family: Lato, Calibri, Arial; font-size: 28px; fill: #000; fill-opacity: 0; opacity: 1;">200</text></g><g class="mark-rule role-axis-domain" style="pointer-events: none;"><line transform="translate(0,550)" x2="0" y2="-550" style="fill: none; stroke: #888; stroke-width: 0; opacity: 1;"></line></g></g><path class="foreground" d="" style="pointer-events: none; display: none; fill: none;"></path></g></g><g class="mark-text role-mark concat_1_layer_0_marks"><text text-anchor="middle" transform="translate(351,77.5714285714286)" style="font-family: sans-serif; font-size: 11.5px; font-weight: bold; fill: black; opacity: 0.09;">______________________________________________________________________________________________________________</text></g><g class="mark-rect role-mark concat_1_layer_1_marks"><path d="M147.5,356.7142857142857h13v193.28571428571428h-13Z" style="fill: #97c2f2;"></path><path d="M161.5,452.57142857142856h13v97.42857142857144h-13Z" style="fill: #97c2f2;"></path><path d="M105.5,191.7142857142857h13v358.28571428571433h-13Z" style="fill: #97c2f2;"></path><path d="M77.5,372.42857142857144h13v177.57142857142856h-13Z" style="fill: #97c2f2;"></path><path d="M119.5,108.42857142857144h13v441.57142857142856h-13Z" style="fill: #97c2f2;"></path><path d="M91.50000000000001,199.57142857142858h13v350.42857142857144h-13Z" style="fill: #97c2f2;"></path><path d="M63.5,416.4285714285714h13v133.5714285714286h-13Z" style="fill: #97c2f2;"></path><path d="M133.5,311.14285714285717h13v238.85714285714283h-13Z" style="fill: #97c2f2;"></path><path d="M217.5,543.7142857142857h13v6.285714285714334h-13Z" style="fill: #97c2f2;"></path><path d="M49.5,490.2857142857143h13v59.71428571428572h-13Z" style="fill: #97c2f2;"></path><path d="M35.5,520.1428571428571h13v29.85714285714289h-13Z" style="fill: #97c2f2;"></path><path d="M175.5,484h13v66h-13Z" style="fill: #97c2f2;"></path><path d="M203.5,532.7142857142857h13v17.285714285714334h-13Z" style="fill: #97c2f2;"></path><path d="M189.50000000000003,535.8571428571429h13v14.14285714285711h-13Z" style="fill: #97c2f2;"></path><path d="M231.50000000000003,546.8571428571429h13v3.1428571428571104h-13Z" style="fill: #97c2f2;"></path><path d="M21.5,545.2857142857143h13v4.714285714285666h-13Z" style="fill: #97c2f2;"></path><path d="M7.5,548.4285714285714h13v1.5714285714285552h-13Z" style="fill: #97c2f2;"></path></g><g class="mark-text role-mark concat_1_layer_2_marks"><text text-anchor="middle" transform="translate(9,583)" style="font-family: lato; font-size: 28px; fill: black; opacity: 0.8;">5%</text></g><g class="mark-text role-mark concat_1_layer_3_marks"><text text-anchor="middle" transform="translate(30,86.5714285714286)" style="font-family: lato; font-size: 28px; fill: black; opacity: 0;">300 counties</text></g><g class="mark-text role-mark concat_1_layer_4_marks"><text text-anchor="middle" transform="translate(793.8000000000001,291.0714285714286)" style="font-family: lato; font-size: 30px; fill: black; opacity: 0.8;">Renting More</text></g><g class="mark-text role-mark concat_1_layer_5_marks"><text text-anchor="middle" transform="translate(770.0000000000001,330.3571428571429)" style="font-family: lato; font-size: 30px; fill: black; opacity: 0.8;">Expensive</text></g><g class="mark-text role-mark concat_1_layer_6_marks"><text text-anchor="middle" transform="translate(420,502)" style="font-family: lato; font-size: 24px; fill: black; opacity: 0.8;">Median: 13%</text></g></g><path class="foreground" d="" style="display: none; fill: none;"></path></g></g></g><path class="foreground" d="" style="display: none; fill: none;"></path></g></g></g></svg>