<svg class="marks" width="1677" height="598" viewBox="0 0 1677 598" version="1.1" xmlns="http://www.w3.org/2000/svg" xmlns:xlink="http://www.w3.org/1999/xlink"><rect width="1677" height="598" style="fill: white;"></rect><g transform="translate(55,5)"><g class="mark-group role-frame root"><g transform="translate(0,0)"><path class="background" d="M0,0h0v550h0Z" style="fill: none;"></path><g><g class="mark-group role-scope concat_0_group"><g transform="translate(0,0)"><path class="background" d="M0.5,0.5h700v550h-700Z" style="fill: none; stroke: #ddd; stroke-opacity: 0;"></path><g><g class="mark-group role-axis"><g transform="translate(0.5,0.5)"><path class="background" d="M0,0h0v0h0Z" style="pointer-events: none; fill: none;"></path><g><g class="mark-rule role-axis-grid" style="pointer-events: none;"><line transform="translate(0,403)" x2="700" y2="0" style="fill: none; stroke: #ddd; stroke-opacity: 1; stroke-width: 1; opacity: 1;"></line><line transform="translate(0,257)" x2="700" y2="0" style="fill: none; stroke: #ddd; stroke-opacity: 1; stroke-width: 1; opacity: 1;"></line></g></g><path class="foreground" d="" style="pointer-events: none; display: none; fill: none;"></path></g></g><g class="mark-group role-axis"><g transform="translate(0.5,550.5)"><path class="background" d="M0,0h0v0h0Z" style="pointer-events: none; fill: none;"></path><g><g class="mark-text role-axis-label" style="pointer-events: none;"><text text-anchor="middle" transform="translate(210,32)" style="font-family: Lato, Calibri, Arial; font-size: 28px; fill: #000; fill-opacity: 0.8; opacity: 1;">800</text><text text-anchor="middle" transform="translate(350,32)" style="font-family: Lato, Calibri, Arial; font-size: 28px; fill: #000; fill-opacity: 0.8; opacity: 1;">1200</text><text text-anchor="middle" transform="translate(489.99999999999994,32)" style="font-family: Lato, Calibri, Arial; font-size: 28px; fill: #000; fill-opacity: 0.8; opacity: 1;">1600</text><text text-anchor="middle" transform="translate(630,32)" style="font-family: Lato, Calibri, Arial; font-size: 28px; fill: #000; fill-opacity: 0.8; opacity: 1;">2000</text></g><g class="mark-rule role-axis-domain" style="pointer-events: none;"><line transform="translate(0,0)" x2="700" y2="0" style="fill: none; stroke: #888; stroke-width: 1; opacity: 1;"></line></g></g><path class="foreground" d="" style="pointer-events: none; display: none; fill: none;"></path></g></g><g class="mark-group role-axis"><g transform="translate(0.5,0.5)"><path class="background" d="M0,0h0v0h0Z" style="pointer-events: none; fill: none;"></path><g><g class="mark-text role-axis-label" style="pointer-events: none;"><text text-anchor="start" transform="translate(-50,411.33333333333337)" style="font-family: Lato, Calibri, Arial; font-size: 28px; fill: #000; fill-opacity: 0.8; opacity: 1;">80</text><text text-anchor="start" transform="translate(-50,264.6666666666667)" style="font-family: Lato, Calibri, Arial; font-size: 28px; fill: #000; fill-opacity: 0.8; opacity: 1;">160</text></g><g class="mark-rule role-axis-domain" style="pointer-events: none;"><line transform="translate(0,550)" x2="0" y2="-550" style="fill: none; stroke: #888; stroke-width: 0; opacity: 1;"></line></g></g><path class="foreground" d="" style="pointer-events: none; display: none; fill: none;"></path></g></g><g class="mark-text role-mark concat_0_layer_0_marks"><text text-anchor="middle" transform="translate(405.00000000000006,108.99999999999997)" style="font-family: sans-serif; font-size: 11.5px; font-weight: bold; fill: black; opacity: 0.09;">____________________________________________________________________________________________</text></g><g class="mark-rect role-mark concat_0_layer_1_marks"><path d="M119.5,386.83333333333337h13v163.16666666666663h-13Z" style="fill: #cede54;"></path><path d="M231.50000000000003,399.6666666666667h13v150.33333333333331h-13Z" style="fill: #cede54;"></path><path d="M105.5,467.5h13v82.5h-13Z" style="fill: #cede54;"></path><path d="M63.5,533.5h13v16.5h-13Z" style="fill: #cede54;"></path><path d="M147.5,265.8333333333333h13v284.1666666666667h-13Z" style="fill: #cede54;"></path><path d="M217.5,401.5h13v148.5h-13Z" style="fill: #cede54;"></path><path d="M77.5,518.8333333333334h13v31.16666666666663h-13Z" style="fill: #cede54;"></path><path d="M189.50000000000003,264h13v286h-13Z" style="fill: #cede54;"></path><path d="M287.5,465.6666666666667h13v84.33333333333331h-13Z" style="fill: #cede54;"></path><path d="M385.50000000000006,533.5h13v16.5h-13Z" style="fill: #cede54;"></path><path d="M371.5,513.3333333333334h13v36.66666666666663h-13Z" style="fill: #cede54;"></path><path d="M245.5,440h13v110h-13Z" style="fill: #cede54;"></path><path d="M357.5,515.1666666666666h13v34.83333333333337h-13Z" style="fill: #cede54;"></path><path d="M273.5,463.8333333333333h13v86.16666666666669h-13Z" style="fill: #cede54;"></path><path d="M329.5,504.16666666666663h13v45.83333333333337h-13Z" style="fill: #cede54;"></path><path d="M399.5,537.1666666666666h13v12.833333333333371h-13Z" style="fill: #cede54;"></path><path d="M315.5,485.8333333333333h13v64.16666666666669h-13Z" style="fill: #cede54;"></path><path d="M301.5,495h13v55h-13Z" style="fill: #cede54;"></path><path d="M161.5,174.16666666666666h13v375.83333333333337h-13Z" style="fill: #cede54;"></path><path d="M203.5,344.6666666666667h13v205.33333333333331h-13Z" style="fill: #cede54;"></path><path d="M49.5,542.6666666666666h13v7.333333333333371h-13Z" style="fill: #cede54;"></path><path d="M91.50000000000001,506h13v44h-13Z" style="fill: #cede54;"></path><path d="M133.5,333.6666666666667h13v216.33333333333331h-13Z" style="fill: #cede54;"></path><path d="M511.5,537.1666666666666h13v12.833333333333371h-13Z" style="fill: #cede54;"></path><path d="M525.5,540.8333333333333h13v9.166666666666742h-13Z" style="fill: #cede54;"></path><path d="M343.5,506h13v44h-13Z" style="fill: #cede54;"></path><path d="M259.5,434.5h13v115.5h-13Z" style="fill: #cede54;"></path><path d="M413.5,529.8333333333334h13v20.16666666666663h-13Z" style="fill: #cede54;"></path><path d="M609.5,548.1666666666666h13v1.8333333333333712h-13Z" style="fill: #cede54;"></path><path d="M497.5,544.5h13v5.5h-13Z" style="fill: #cede54;"></path><path d="M539.5,544.5h13v5.5h-13Z" style="fill: #cede54;"></path><path d="M441.5,531.6666666666666h13v18.33333333333337h-13Z" style="fill: #cede54;"></path><path d="M469.50000000000006,537.1666666666666h13v12.833333333333371h-13Z" style="fill: #cede54;"></path><path d="M553.5,546.3333333333333h13v3.6666666666667425h-13Z" style="fill: #cede54;"></path><path d="M679.5,548.1666666666666h13v1.8333333333333712h-13Z" style="fill: #cede54;"></path><path d="M665.5,548.1666666666666h13v1.8333333333333712h-13Z" style="fill: #cede54;"></path><path d="M483.49999999999994,544.5h13v5.5h-13Z" style="fill: #cede54;"></path><path d="M455.5,542.6666666666666h13v7.333333333333371h-13Z" style="fill: #cede54;"></path><path d="M175.5,251.16666666666666h13v298.83333333333337h-13Z" style="fill: #cede54;"></path><path d="M35.5,546.3333333333333h13v3.6666666666667425h-13Z" style="fill: #cede54;"></path><path d="M427.5,537.1666666666666h13v12.833333333333371h-13Z" style="fill: #cede54;"></path><path d="M595.5,548.1666666666666h13v1.8333333333333712h-13Z" style="fill: #cede54;"></path><path d="M567.5,546.3333333333333h13v3.6666666666667425h-13Z" style="fill: #cede54;"></path><path d="M581.5,548.1666666666666h13v1.8333333333333712h-13Z" style="fill: #cede54;"></path></g><g class="mark-text role-mark concat_0_layer_2_marks"><text text-anchor="middle" transform="translate(63,582)" style="font-family: lato; font-size: 28px; fill: black; opacity: 0.8;">$400</text></g><g class="mark-text role-mark concat_0_layer_3_marks"><text text-anchor="middle" transform="translate(30.549999999999997,117.99999999999997)" style="font-family: lato; font-size: 28px; fill: black; opacity: 0.8;">240 counties</text></g><g class="mark-text role-mark concat_0_layer_4_marks"><text text-anchor="middle" transform="translate(0,320.6666666666667)" style="font-family: lato; font-size: 30px; fill: black; opacity: 0.8;"></text></g><g class="mark-text role-mark concat_0_layer_5_marks"><text text-anchor="middle" transform="translate(0,357.3333333333333)" style="font-family: lato; font-size: 30px; fill: black; opacity: 0.8;"></text></g><g class="mark-text role-mark concat_0_layer_6_marks"><text text-anchor="middle" transform="translate(595,502)" style="font-family: lato; font-size: 24px; fill: black; opacity: 0.8;">Median: $760</text></g></g><path class="foreground" d="" style="display: none; fill: none;"></path></g></g><g class="mark-group role-scope concat_1_group"><g transform="translate(720,0)"><path class="background" d="M0.5,0.5h700v550h-700Z" style="fill: none; stroke: #ddd; stroke-opacity: 0;"></path><g><g class="mark-group role-axis"><g transform="translate(0.5,0.5)"><path class="background" d="M0,0h0v0h0Z" style="pointer-events: none; fill: none;"></path><g><g class="mark-rule role-axis-grid" style="pointer-events: none;"><line transform="translate(0,403)" x2="700" y2="0" style="fill: none; stroke: #ddd; stroke-opacity: 1; stroke-width: 1; opacity: 1;"></line><line transform="translate(0,257)" x2="700" y2="0" style="fill: none; stroke: #ddd; stroke-opacity: 1; stroke-width: 1; opacity: 1;"></line></g></g><path class="foreground" d="" style="pointer-events: none; display: none; fill: none;"></path></g></g><g class="mark-group role-axis"><g transform="translate(0.5,550.5)"><path class="background" d="M0,0h0v0h0Z" style="pointer-events: none; fill: none;"></path><g><g class="mark-text role-axis-label" style="pointer-events: none;"><text text-anchor="middle" transform="translate(210,32)" style="font-family: Lato, Calibri, Arial; font-size: 28px; fill: #000; fill-opacity: 0.8; opacity: 1;">800</text><text text-anchor="middle" transform="translate(350,32)" style="font-family: Lato, Calibri, Arial; font-size: 28px; fill: #000; fill-opacity: 0.8; opacity: 1;">1200</text><text text-anchor="middle" transform="translate(489.99999999999994,32)" style="font-family: Lato, Calibri, Arial; font-size: 28px; fill: #000; fill-opacity: 0.8; opacity: 1;">1600</text><text text-anchor="middle" transform="translate(630,32)" style="font-family: Lato, Calibri, Arial; font-size: 28px; fill: #000; fill-opacity: 0.8; opacity: 1;">2000</text></g><g class="mark-rule role-axis-domain" style="pointer-events: none;"><line transform="translate(0,0)" x2="700" y2="0" style="fill: none; stroke: #888; stroke-width: 1; opacity: 1;"></line></g></g><path class="foreground" d="" style="pointer-events: none; display: none; fill: none;"></path></g></g><g class="mark-group role-axis"><g transform="translate(0.5,0.5)"><path class="background" d="M0,0h0v0h0Z" style="pointer-events: none; fill: none;"></path><g><g class="mark-text role-axis-label" style="pointer-events: none;"><text text-anchor="start" transform="translate(0,411.33333333333337)" style="font-family: Lato, Calibri, Arial; font-size: 28px; fill: #000; fill-opacity: 0; opacity: 1;">80</text><text text-anchor="start" transform="translate(0,264.6666666666667)" style="font-family: Lato, Calibri, Arial; font-size: 28px; fill: #000; fill-opacity: 0; opacity: 1;">160</text></g><g class="mark-rule role-axis-domain" style="pointer-events: none;"><line transform="translate(0,550)" x2="0" y2="-550" style="fill: none; stroke: #888; stroke-width: 0; opacity: 1;"></line></g></g><path class="foreground" d="" style="pointer-events: none; display: none; fill: none;"></path></g></g><g class="mark-text role-mark concat_1_layer_0_marks"><text text-anchor="middle" transform="translate(355.00000000000006,108.99999999999997)" style="font-family: sans-serif; font-size: 11.5px; font-weight: bold; fill: black; opacity: 0.09;">______________________________________________________________________________________________________________</text></g><g class="mark-rect role-mark concat_1_layer_1_marks"><path d="M119.5,485.8333333333333h13v64.16666666666669h-13Z" style="fill: #97c2f2;"></path><path d="M245.5,379.49999999999994h13v170.50000000000006h-13Z" style="fill: #97c2f2;"></path><path d="M105.5,515.1666666666666h13v34.83333333333337h-13Z" style="fill: #97c2f2;"></path><path d="M259.5,407h13v143h-13Z" style="fill: #97c2f2;"></path><path d="M63.5,542.6666666666666h13v7.333333333333371h-13Z" style="fill: #97c2f2;"></path><path d="M161.5,309.83333333333337h13v240.16666666666663h-13Z" style="fill: #97c2f2;"></path><path d="M231.50000000000003,359.3333333333333h13v190.66666666666669h-13Z" style="fill: #97c2f2;"></path><path d="M203.5,366.6666666666667h13v183.33333333333331h-13Z" style="fill: #97c2f2;"></path><path d="M273.5,418h13v132h-13Z" style="fill: #97c2f2;"></path><path d="M147.5,370.3333333333333h13v179.66666666666669h-13Z" style="fill: #97c2f2;"></path><path d="M329.5,473h13v77h-13Z" style="fill: #97c2f2;"></path><path d="M525.5,531.6666666666666h13v18.33333333333337h-13Z" style="fill: #97c2f2;"></path><path d="M455.5,522.5h13v27.5h-13Z" style="fill: #97c2f2;"></path><path d="M287.5,465.6666666666667h13v84.33333333333331h-13Z" style="fill: #97c2f2;"></path><path d="M539.5,529.8333333333334h13v20.16666666666663h-13Z" style="fill: #97c2f2;"></path><path d="M399.5,507.8333333333333h13v42.166666666666686h-13Z" style="fill: #97c2f2;"></path><path d="M469.50000000000006,529.8333333333334h13v20.16666666666663h-13Z" style="fill: #97c2f2;"></path><path d="M427.5,528h13v22h-13Z" style="fill: #97c2f2;"></path><path d="M315.5,460.1666666666667h13v89.83333333333331h-13Z" style="fill: #97c2f2;"></path><path d="M371.5,489.5h13v60.5h-13Z" style="fill: #97c2f2;"></path><path d="M343.5,473h13v77h-13Z" style="fill: #97c2f2;"></path><path d="M217.5,342.8333333333333h13v207.16666666666669h-13Z" style="fill: #97c2f2;"></path><path d="M175.5,315.3333333333333h13v234.66666666666669h-13Z" style="fill: #97c2f2;"></path><path d="M91.50000000000001,524.3333333333334h13v25.66666666666663h-13Z" style="fill: #97c2f2;"></path><path d="M665.5,546.3333333333333h13v3.6666666666667425h-13Z" style="fill: #97c2f2;"></path><path d="M357.5,500.5h13v49.5h-13Z" style="fill: #97c2f2;"></path><path d="M301.5,452.83333333333337h13v97.16666666666663h-13Z" style="fill: #97c2f2;"></path><path d="M609.5,539h13v11h-13Z" style="fill: #97c2f2;"></path><path d="M413.5,517h13v33h-13Z" style="fill: #97c2f2;"></path><path d="M497.5,533.5h13v16.5h-13Z" style="fill: #97c2f2;"></path><path d="M581.5,542.6666666666666h13v7.333333333333371h-13Z" style="fill: #97c2f2;"></path><path d="M679.5,544.5h13v5.5h-13Z" style="fill: #97c2f2;"></path><path d="M567.5,533.5h13v16.5h-13Z" style="fill: #97c2f2;"></path><path d="M651.5,542.6666666666666h13v7.333333333333371h-13Z" style="fill: #97c2f2;"></path><path d="M623.5,546.3333333333333h13v3.6666666666667425h-13Z" style="fill: #97c2f2;"></path><path d="M441.5,524.3333333333334h13v25.66666666666663h-13Z" style="fill: #97c2f2;"></path><path d="M553.5,537.1666666666666h13v12.833333333333371h-13Z" style="fill: #97c2f2;"></path><path d="M385.50000000000006,496.8333333333333h13v53.166666666666686h-13Z" style="fill: #97c2f2;"></path><path d="M637.5,542.6666666666666h13v7.333333333333371h-13Z" style="fill: #97c2f2;"></path><path d="M511.5,533.5h13v16.5h-13Z" style="fill: #97c2f2;"></path><path d="M189.50000000000003,313.50000000000006h13v236.49999999999994h-13Z" style="fill: #97c2f2;"></path><path d="M483.49999999999994,524.3333333333334h13v25.66666666666663h-13Z" style="fill: #97c2f2;"></path><path d="M77.5,539h13v11h-13Z" style="fill: #97c2f2;"></path><path d="M133.5,447.33333333333337h13v102.66666666666663h-13Z" style="fill: #97c2f2;"></path><path d="M595.5,544.5h13v5.5h-13Z" style="fill: #97c2f2;"></path></g><g class="mark-text role-mark concat_1_layer_2_marks"><text text-anchor="middle" transform="translate(63,582)" style="font-family: lato; font-size: 28px; fill: black; opacity: 0.8;">$400</text></g><g class="mark-text role-mark concat_1_layer_3_marks"><text text-anchor="middle" transform="translate(532.55,117.99999999999997)" style="font-family: lato; font-size: 28px; fill: black; opacity: 0;">240 counties</text></g><g class="mark-text role-mark concat_1_layer_4_marks"><text text-anchor="middle" transform="translate(804.9999999999999,320.6666666666667)" style="font-family: lato; font-size: 30px; fill: black; opacity: 0.8;">Owning More</text></g><g class="mark-text role-mark concat_1_layer_5_marks"><text text-anchor="middle" transform="translate(781.5500000000001,357.3333333333333)" style="font-family: lato; font-size: 30px; fill: black; opacity: 0.8;">Expensive</text></g><g class="mark-text role-mark concat_1_layer_6_marks"><text text-anchor="middle" transform="translate(595,502)" style="font-family: lato; font-size: 24px; fill: black; opacity: 0.8;">Median: $880</text></g></g><path class="foreground" d="" style="display: none; fill: none;"></path></g></g></g><path class="foreground" d="" style="display: none; fill: none;"></path></g></g></g></svg>