<svg class="marks" width="1680" height="599" viewBox="0 0 1680 599" version="1.1" xmlns="http://www.w3.org/2000/svg" xmlns:xlink="http://www.w3.org/1999/xlink"><rect width="1680" height="599" style="fill: white;"></rect><g transform="translate(249,5)"><g class="mark-group role-frame root"><g transform="translate(0,0)"><path class="background" d="M0,0h0v550h0Z" style="fill: none;"></path><g><g class="mark-group role-scope concat_0_group"><g transform="translate(0,0)"><path class="background" d="M0.5,0.5h700v550h-700Z" style="fill: none; stroke: #ddd; stroke-opacity: 0;"></path><g><g class="mark-group role-axis"><g transform="translate(0.5,0.5)"><path class="background" d="M0,0h0v0h0Z" style="pointer-events: none; fill: none;"></path><g><g class="mark-rule role-axis-grid" style="pointer-events: none;"><line transform="translate(0,393)" x2="700" y2="0" style="fill: none; stroke: #ddd; stroke-opacity: 1; stroke-width: 1; opacity: 1;"></line><line transform="translate(0,236)" x2="700" y2="0" style="fill: none; stroke: #ddd; stroke-opacity: 1; stroke-width: 1; opacity: 1;"></line></g></g><path class="foreground" d="" style="pointer-events: none; display: none; fill: none;"></path></g></g><g class="mark-group role-axis"><g transform="translate(0.5,550.5)"><path class="background" d="M0,0h0v0h0Z" style="pointer-events: none; fill: none;"></path><g><g class="mark-text role-axis-label" style="pointer-events: none;"><text text-anchor="middle" transform="translate(254.54545454545456,32)" style="font-family: Lato; font-size: 28px; fill: #000; fill-opacity: 0.8; opacity: 1;">4k</text><text text-anchor="middle" transform="translate(381.8181818181818,32)" style="font-family: Lato; font-size: 28px; fill: #000; fill-opacity: 0.8; opacity: 1;">6k</text><text text-anchor="middle" transform="translate(509.0909090909091,32)" style="font-family: Lato; font-size: 28px; fill: #000; fill-opacity: 0.8; opacity: 1;">8k</text><text text-anchor="middle" transform="translate(636.3636363636364,32)" style="font-family: Lato; font-size: 28px; fill: #000; fill-opacity: 0.8; opacity: 1;">10k</text></g><g class="mark-rule role-axis-domain" style="pointer-events: none;"><line transform="translate(0,0)" x2="700" y2="0" style="fill: none; stroke: #888; stroke-width: 1; opacity: 1;"></line></g></g><path class="foreground" d="" style="pointer-events: none; display: none; fill: none;"></path></g></g><g class="mark-group role-axis"><g transform="translate(0.5,0.5)"><path class="background" d="M0,0h0v0h0Z" style="pointer-events: none; fill: none;"></path><g><g class="mark-text role-axis-label" style="pointer-events: none;"><text text-anchor="start" transform="translate(-50,400.8571428571429)" style="font-family: Lato; font-size: 28px; fill: #000; fill-opacity: 0.8; opacity: 1;">100</text><text text-anchor="start" transform="translate(-50,243.71428571428572)" style="font-family: Lato; font-size: 28px; fill: #000; fill-opacity: 0.8; opacity: 1;">200</text></g><g class="mark-rule role-axis-domain" style="pointer-events: none;"><line transform="translate(0,550)" x2="0" y2="-550" style="fill: none; stroke: #888; stroke-width: 0; opacity: 1;"></line></g></g><path class="foreground" d="" style="pointer-events: none; display: none; fill: none;"></path></g></g><g class="mark-text role-mark concat_0_layer_0_marks"><text text-anchor="middle" transform="translate(400.90909090909093,77.5714285714286)" style="font-family: sans-serif; font-size: 11.5px; font-weight: bold; fill: black; opacity: 0.09;">______________________________________________________________________________________________</text></g><g class="mark-rect role-mark concat_0_layer_1_marks"><path d="M134.1,275h11.8v275h-11.8Z" style="fill: #cede54;"></path><path d="M172.28181818181815,205.8571428571429h11.8v344.1428571428571h-11.8Z" style="fill: #cede54;"></path><path d="M70.46363636363635,535.8571428571429h11.8v14.14285714285711h-11.8Z" style="fill: #cede54;"></path><path d="M159.55454545454543,88.00000000000001h11.8v462h-11.8Z" style="fill: #cede54;"></path><path d="M146.8272727272727,275h11.8v275h-11.8Z" style="fill: #cede54;"></path><path d="M83.19090909090907,534.2857142857143h11.8v15.714285714285666h-11.8Z" style="fill: #cede54;"></path><path d="M121.37272727272727,422.7142857142857h11.8v127.28571428571428h-11.8Z" style="fill: #cede54;"></path><path d="M95.91818181818181,510.7142857142857h11.8v39.28571428571428h-11.8Z" style="fill: #cede54;"></path><path d="M185.0090909090909,279.7142857142857h11.8v270.2857142857143h-11.8Z" style="fill: #cede54;"></path><path d="M235.9181818181818,480.8571428571429h11.8v69.14285714285711h-11.8Z" style="fill: #cede54;"></path><path d="M299.55454545454546,529.5714285714286h11.8v20.428571428571445h-11.8Z" style="fill: #cede54;"></path><path d="M274.1,501.28571428571433h11.8v48.714285714285666h-11.8Z" style="fill: #cede54;"></path><path d="M312.2818181818182,532.7142857142857h11.8v17.285714285714334h-11.8Z" style="fill: #cede54;"></path><path d="M223.1909090909091,451.00000000000006h11.8v98.99999999999994h-11.8Z" style="fill: #cede54;"></path><path d="M286.8272727272727,523.2857142857142h11.8v26.71428571428578h-11.8Z" style="fill: #cede54;"></path><path d="M210.46363636363634,358.28571428571433h11.8v191.71428571428567h-11.8Z" style="fill: #cede54;"></path><path d="M325.0090909090909,542.1428571428572h11.8v7.857142857142776h-11.8Z" style="fill: #cede54;"></path><path d="M197.73636363636362,372.42857142857144h11.8v177.57142857142856h-11.8Z" style="fill: #cede54;"></path><path d="M363.1909090909091,548.4285714285714h11.8v1.5714285714285552h-11.8Z" style="fill: #cede54;"></path><path d="M261.37272727272733,502.85714285714283h11.8v47.14285714285717h-11.8Z" style="fill: #cede54;"></path><path d="M439.55454545454546,545.2857142857143h11.8v4.714285714285666h-11.8Z" style="fill: #cede54;"></path><path d="M248.64545454545456,493.42857142857144h11.8v56.571428571428555h-11.8Z" style="fill: #cede54;"></path><path d="M388.6454545454545,545.2857142857143h11.8v4.714285714285666h-11.8Z" style="fill: #cede54;"></path><path d="M108.64545454545454,476.1428571428571h11.8v73.85714285714289h-11.8Z" style="fill: #cede54;"></path><path d="M57.73636363636364,546.8571428571429h11.8v3.1428571428571104h-11.8Z" style="fill: #cede54;"></path><path d="M337.73636363636365,539h11.8v11h-11.8Z" style="fill: #cede54;"></path><path d="M375.91818181818184,545.2857142857143h11.8v4.714285714285666h-11.8Z" style="fill: #cede54;"></path><path d="M401.3727272727273,548.4285714285714h11.8v1.5714285714285552h-11.8Z" style="fill: #cede54;"></path><path d="M350.46363636363634,548.4285714285714h11.8v1.5714285714285552h-11.8Z" style="fill: #cede54;"></path><path d="M477.73636363636365,548.4285714285714h11.8v1.5714285714285552h-11.8Z" style="fill: #cede54;"></path><path d="M414.1,548.4285714285714h11.8v1.5714285714285552h-11.8Z" style="fill: #cede54;"></path><path d="M452.2818181818182,548.4285714285714h11.8v1.5714285714285552h-11.8Z" style="fill: #cede54;"></path></g><g class="mark-text role-mark concat_0_layer_2_marks"><text text-anchor="middle" transform="translate(119.0909090909091,582.5)" style="font-family: lato; font-size: 28px; fill: black; opacity: 0.8;">$2k</text></g><g class="mark-text role-mark concat_0_layer_3_marks"><text text-anchor="middle" transform="translate(29.81818181818182,86.5714285714286)" style="font-family: lato; font-size: 28px; fill: black; opacity: 0.8;">300 counties</text></g><g class="mark-text role-mark concat_0_layer_4_marks"><text text-anchor="middle" transform="translate(-152.72727272727272,291.0714285714286)" style="font-family: lato; font-size: 30px; fill: black; opacity: 0.8;">Owning More</text></g><g class="mark-text role-mark concat_0_layer_5_marks"><text text-anchor="middle" transform="translate(-176.90909090909093,330.3571428571429)" style="font-family: lato; font-size: 30px; fill: black; opacity: 0.8;">Expensive</text></g><g class="mark-text role-mark concat_0_layer_6_marks"><text text-anchor="middle" transform="translate(610.9090909090909,502)" style="font-family: lato; font-size: 24px; fill: black; opacity: 0.8;">Median: $2800</text></g></g><path class="foreground" d="" style="display: none; fill: none;"></path></g></g><g class="mark-group role-scope concat_1_group"><g transform="translate(723,0)"><path class="background" d="M0.5,0.5h700v550h-700Z" style="fill: none; stroke: #ddd; stroke-opacity: 0;"></path><g><g class="mark-group role-axis"><g transform="translate(0.5,0.5)"><path class="background" d="M0,0h0v0h0Z" style="pointer-events: none; fill: none;"></path><g><g class="mark-rule role-axis-grid" style="pointer-events: none;"><line transform="translate(0,393)" x2="700" y2="0" style="fill: none; stroke: #ddd; stroke-opacity: 1; stroke-width: 1; opacity: 1;"></line><line transform="translate(0,236)" x2="700" y2="0" style="fill: none; stroke: #ddd; stroke-opacity: 1; stroke-width: 1; opacity: 1;"></line></g></g><path class="foreground" d="" style="pointer-events: none; display: none; fill: none;"></path></g></g><g class="mark-group role-axis"><g transform="translate(0.5,550.5)"><path class="background" d="M0,0h0v0h0Z" style="pointer-events: none; fill: none;"></path><g><g class="mark-text role-axis-label" style="pointer-events: none;"><text text-anchor="middle" transform="translate(254.54545454545456,32)" style="font-family: Lato; font-size: 28px; fill: #000; fill-opacity: 0.8; opacity: 1;">4k</text><text text-anchor="middle" transform="translate(381.8181818181818,32)" style="font-family: Lato; font-size: 28px; fill: #000; fill-opacity: 0.8; opacity: 1;">6k</text><text text-anchor="middle" transform="translate(509.0909090909091,32)" style="font-family: Lato; font-size: 28px; fill: #000; fill-opacity: 0.8; opacity: 1;">8k</text><text text-anchor="middle" transform="translate(636.3636363636364,32)" style="font-family: Lato; font-size: 28px; fill: #000; fill-opacity: 0.8; opacity: 1;">10k</text></g><g class="mark-rule role-axis-domain" style="pointer-events: none;"><line transform="translate(0,0)" x2="700" y2="0" style="fill: none; stroke: #888; stroke-width: 1; opacity: 1;"></line></g></g><path class="foreground" d="" style="pointer-events: none; display: none; fill: none;"></path></g></g><g class="mark-group role-axis"><g transform="translate(0.5,0.5)"><path class="background" d="M0,0h0v0h0Z" style="pointer-events: none; fill: none;"></path><g><g class="mark-text role-axis-label" style="pointer-events: none;"><text text-anchor="start" transform="translate(0,400.8571428571429)" style="font-family: Lato; font-size: 28px; fill: #000; fill-opacity: 0; opacity: 1;">100</text><text text-anchor="start" transform="translate(0,243.71428571428572)" style="font-family: Lato; font-size: 28px; fill: #000; fill-opacity: 0; opacity: 1;">200</text></g><g class="mark-rule role-axis-domain" style="pointer-events: none;"><line transform="translate(0,550)" x2="0" y2="-550" style="fill: none; stroke: #888; stroke-width: 0; opacity: 1;"></line></g></g><path class="foreground" d="" style="pointer-events: none; display: none; fill: none;"></path></g></g><g class="mark-text role-mark concat_1_layer_0_marks"><text text-anchor="middle" transform="translate(350.90909090909093,77.5714285714286)" style="font-family: sans-serif; font-size: 11.5px; font-weight: bold; fill: black; opacity: 0.09;">______________________________________________________________________________________________________________</text></g><g class="mark-rect role-mark concat_1_layer_1_marks"><path d="M210.46363636363634,535.8571428571429h11.8v14.14285714285711h-11.8Z" style="fill: #97c2f2;"></path><path d="M363.1909090909091,366.1428571428571h11.8v183.8571428571429h-11.8Z" style="fill: #97c2f2;"></path><path d="M223.1909090909091,535.8571428571429h11.8v14.14285714285711h-11.8Z" style="fill: #97c2f2;"></path><path d="M350.46363636363634,358.28571428571433h11.8v191.71428571428567h-11.8Z" style="fill: #97c2f2;"></path><path d="M235.9181818181818,515.4285714285714h11.8v34.571428571428555h-11.8Z" style="fill: #97c2f2;"></path><path d="M312.2818181818182,330h11.8v220h-11.8Z" style="fill: #97c2f2;"></path><path d="M261.37272727272733,462h11.8v88h-11.8Z" style="fill: #97c2f2;"></path><path d="M439.55454545454546,491.85714285714283h11.8v58.14285714285717h-11.8Z" style="fill: #97c2f2;"></path><path d="M274.1,462h11.8v88h-11.8Z" style="fill: #97c2f2;"></path><path d="M337.73636363636365,328.42857142857144h11.8v221.57142857142856h-11.8Z" style="fill: #97c2f2;"></path><path d="M248.64545454545456,507.57142857142856h11.8v42.428571428571445h-11.8Z" style="fill: #97c2f2;"></path><path d="M325.0090909090909,317.42857142857144h11.8v232.57142857142856h-11.8Z" style="fill: #97c2f2;"></path><path d="M452.2818181818182,498.1428571428571h11.8v51.85714285714289h-11.8Z" style="fill: #97c2f2;"></path><path d="M566.8272727272728,535.8571428571429h11.8v14.14285714285711h-11.8Z" style="fill: #97c2f2;"></path><path d="M503.19090909090914,526.4285714285714h11.8v23.571428571428555h-11.8Z" style="fill: #97c2f2;"></path><path d="M388.6454545454545,414.85714285714283h11.8v135.14285714285717h-11.8Z" style="fill: #97c2f2;"></path><path d="M579.5545454545454,531.1428571428571h11.8v18.85714285714289h-11.8Z" style="fill: #97c2f2;"></path><path d="M401.3727272727273,441.57142857142856h11.8v108.42857142857144h-11.8Z" style="fill: #97c2f2;"></path><path d="M515.9181818181819,512.2857142857142h11.8v37.71428571428578h-11.8Z" style="fill: #97c2f2;"></path><path d="M465.00909090909096,513.8571428571429h11.8v36.14285714285711h-11.8Z" style="fill: #97c2f2;"></path><path d="M477.73636363636365,504.42857142857144h11.8v45.571428571428555h-11.8Z" style="fill: #97c2f2;"></path><path d="M414.1,482.4285714285714h11.8v67.57142857142861h-11.8Z" style="fill: #97c2f2;"></path><path d="M286.8272727272727,373.99999999999994h11.8v176.00000000000006h-11.8Z" style="fill: #97c2f2;"></path><path d="M299.55454545454546,361.42857142857144h11.8v188.57142857142856h-11.8Z" style="fill: #97c2f2;"></path><path d="M375.91818181818184,394.4285714285714h11.8v155.5714285714286h-11.8Z" style="fill: #97c2f2;"></path><path d="M668.6454545454545,543.7142857142857h11.8v6.285714285714334h-11.8Z" style="fill: #97c2f2;"></path><path d="M605.0090909090909,545.2857142857143h11.8v4.714285714285666h-11.8Z" style="fill: #97c2f2;"></path><path d="M490.4636363636364,520.1428571428571h11.8v29.85714285714289h-11.8Z" style="fill: #97c2f2;"></path><path d="M554.1,524.8571428571429h11.8v25.14285714285711h-11.8Z" style="fill: #97c2f2;"></path><path d="M592.2818181818182,542.1428571428572h11.8v7.857142857142776h-11.8Z" style="fill: #97c2f2;"></path><path d="M528.6454545454546,518.5714285714286h11.8v31.428571428571445h-11.8Z" style="fill: #97c2f2;"></path><path d="M426.8272727272727,488.7142857142857h11.8v61.28571428571428h-11.8Z" style="fill: #97c2f2;"></path><path d="M541.3727272727273,532.7142857142857h11.8v17.285714285714334h-11.8Z" style="fill: #97c2f2;"></path><path d="M630.4636363636364,542.1428571428572h11.8v7.857142857142776h-11.8Z" style="fill: #97c2f2;"></path><path d="M159.55454545454543,548.4285714285714h11.8v1.5714285714285552h-11.8Z" style="fill: #97c2f2;"></path><path d="M172.28181818181815,545.2857142857143h11.8v4.714285714285666h-11.8Z" style="fill: #97c2f2;"></path><path d="M185.0090909090909,548.4285714285714h11.8v1.5714285714285552h-11.8Z" style="fill: #97c2f2;"></path><path d="M197.73636363636362,543.7142857142857h11.8v6.285714285714334h-11.8Z" style="fill: #97c2f2;"></path><path d="M617.7363636363636,545.2857142857143h11.8v4.714285714285666h-11.8Z" style="fill: #97c2f2;"></path><path d="M655.9181818181818,545.2857142857143h11.8v4.714285714285666h-11.8Z" style="fill: #97c2f2;"></path><path d="M643.1909090909091,545.2857142857143h11.8v4.714285714285666h-11.8Z" style="fill: #97c2f2;"></path><path d="M681.3727272727273,548.4285714285714h11.8v1.5714285714285552h-11.8Z" style="fill: #97c2f2;"></path></g><g class="mark-text role-mark concat_1_layer_2_marks"><text text-anchor="middle" transform="translate(119.0909090909091,582.5)" style="font-family: lato; font-size: 28px; fill: black; opacity: 0.8;">$2k</text></g><g class="mark-text role-mark concat_1_layer_3_marks"><text text-anchor="middle" transform="translate(531.8181818181819,86.5714285714286)" style="font-family: lato; font-size: 28px; fill: black; opacity: 0;">300 counties</text></g><g class="mark-text role-mark concat_1_layer_4_marks"><text text-anchor="middle" transform="translate(6.363636363636363,291.0714285714286)" style="font-family: lato; font-size: 30px; fill: black; opacity: 0.8;"></text></g><g class="mark-text role-mark concat_1_layer_5_marks"><text text-anchor="middle" transform="translate(6.363636363636363,330.3571428571429)" style="font-family: lato; font-size: 30px; fill: black; opacity: 0.8;"></text></g><g class="mark-text role-mark concat_1_layer_6_marks"><text text-anchor="middle" transform="translate(610.9090909090909,502)" style="font-family: lato; font-size: 24px; fill: black; opacity: 0.8;">Median: $5600</text></g></g><path class="foreground" d="" style="display: none; fill: none;"></path></g></g></g><path class="foreground" d="" style="display: none; fill: none;"></path></g></g></g></svg>