<svg class="marks" width="1674" height="629" viewBox="0 0 1674 629" version="1.1" xmlns="http://www.w3.org/2000/svg" xmlns:xlink="http://www.w3.org/1999/xlink"><rect width="1674" height="629" style="fill: white;"></rect><g transform="translate(56,35)"><g class="mark-group role-frame root"><g transform="translate(0,0)"><path class="background" d="M0,0h0v550h0Z" style="fill: none;"></path><g><g class="mark-group role-scope concat_0_group"><g transform="translate(0,0)"><path class="background" d="M0.5,0.5h700v550h-700Z" style="fill: none; stroke: #ddd; stroke-opacity: 0;"></path><g><g class="mark-group role-axis"><g transform="translate(0.5,0.5)"><path class="background" d="M0,0h0v0h0Z" style="pointer-events: none; fill: none;"></path><g><g class="mark-rule role-axis-grid" style="pointer-events: none;"><line transform="translate(0,393)" x2="700" y2="0" style="fill: none; stroke: #ddd; stroke-opacity: 1; stroke-width: 1; opacity: 1;"></line><line transform="translate(0,236)" x2="700" y2="0" style="fill: none; stroke: #ddd; stroke-opacity: 1; stroke-width: 1; opacity: 1;"></line></g></g><path class="foreground" d="" style="pointer-events: none; display: none; fill: none;"></path></g></g><g class="mark-group role-axis"><g transform="translate(0.5,550.5)"><path class="background" d="M0,0h0v0h0Z" style="pointer-events: none; fill: none;"></path><g><g class="mark-text role-axis-label" style="pointer-events: none;"><text text-anchor="middle" transform="translate(254.54545454545456,32)" style="font-family: Lato, Calibri, Arial; font-size: 28px; fill: #000; fill-opacity: 0.8; opacity: 1;">4k</text><text text-anchor="middle" transform="translate(381.8181818181818,32)" style="font-family: Lato, Calibri, Arial; font-size: 28px; fill: #000; fill-opacity: 0.8; opacity: 1;">6k</text><text text-anchor="middle" transform="translate(509.0909090909091,32)" style="font-family: Lato, Calibri, Arial; font-size: 28px; fill: #000; fill-opacity: 0.8; opacity: 1;">8k</text><text text-anchor="middle" transform="translate(636.3636363636364,32)" style="font-family: Lato, Calibri, Arial; font-size: 28px; fill: #000; fill-opacity: 0.8; opacity: 1;">10k</text></g><g class="mark-rule role-axis-domain" style="pointer-events: none;"><line transform="translate(0,0)" x2="700" y2="0" style="fill: none; stroke: #888; stroke-width: 1; opacity: 1;"></line></g><g class="mark-text role-axis-title" style="pointer-events: none;"><text text-anchor="middle" transform="translate(165,-548)" style="font-family: Lato, Calibri, Arial; font-size: 40px; font-weight: normal; fill: #000; fill-opacity: 0.8; opacity: 1;">Monthly Renter Incomes</text></g></g><path class="foreground" d="" style="pointer-events: none; display: none; fill: none;"></path></g></g><g class="mark-group role-axis"><g transform="translate(0.5,0.5)"><path class="background" d="M0,0h0v0h0Z" style="pointer-events: none; fill: none;"></path><g><g class="mark-text role-axis-label" style="pointer-events: none;"><text text-anchor="start" transform="translate(-50,400.8571428571429)" style="font-family: Lato, Calibri, Arial; font-size: 28px; fill: #000; fill-opacity: 0.8; opacity: 1;">100</text><text text-anchor="start" transform="translate(-50,243.71428571428572)" style="font-family: Lato, Calibri, Arial; font-size: 28px; fill: #000; fill-opacity: 0.8; opacity: 1;">200</text></g><g class="mark-rule role-axis-domain" style="pointer-events: none;"><line transform="translate(0,550)" x2="0" y2="-550" style="fill: none; stroke: #888; stroke-width: 0; opacity: 1;"></line></g></g><path class="foreground" d="" style="pointer-events: none; display: none; fill: none;"></path></g></g><g class="mark-text role-mark concat_0_layer_0_marks"><text text-anchor="middle" transform="translate(400.90909090909093,77.5714285714286)" style="font-family: sans-serif; font-size: 11.5px; font-weight: bold; fill: black; opacity: 0.09;">______________________________________________________________________________________________</text></g><g class="mark-rect role-mark concat_0_layer_1_marks"><path d="M185.0090909090909,433.7142857142857h11.8v116.28571428571428h-11.8Z" style="fill: #cede54;"></path><path d="M197.73636363636362,447.85714285714283h11.8v102.14285714285717h-11.8Z" style="fill: #cede54;"></path><path d="M95.91818181818181,381.85714285714283h11.8v168.14285714285717h-11.8Z" style="fill: #cede54;"></path><path d="M134.1,252.99999999999997h11.8v297h-11.8Z" style="fill: #cede54;"></path><path d="M121.37272727272727,279.7142857142857h11.8v270.2857142857143h-11.8Z" style="fill: #cede54;"></path><path d="M146.8272727272727,278.14285714285717h11.8v271.85714285714283h-11.8Z" style="fill: #cede54;"></path><path d="M108.64545454545454,314.2857142857143h11.8v235.71428571428572h-11.8Z" style="fill: #cede54;"></path><path d="M83.19090909090907,455.71428571428567h11.8v94.28571428571433h-11.8Z" style="fill: #cede54;"></path><path d="M159.55454545454543,325.2857142857143h11.8v224.71428571428572h-11.8Z" style="fill: #cede54;"></path><path d="M172.28181818181815,403.85714285714283h11.8v146.14285714285717h-11.8Z" style="fill: #cede54;"></path><path d="M337.73636363636365,540.5714285714286h11.8v9.428571428571445h-11.8Z" style="fill: #cede54;"></path><path d="M439.55454545454546,548.4285714285714h11.8v1.5714285714285552h-11.8Z" style="fill: #cede54;"></path><path d="M274.1,534.2857142857143h11.8v15.714285714285666h-11.8Z" style="fill: #cede54;"></path><path d="M388.6454545454545,546.8571428571429h11.8v3.1428571428571104h-11.8Z" style="fill: #cede54;"></path><path d="M363.1909090909091,546.8571428571429h11.8v3.1428571428571104h-11.8Z" style="fill: #cede54;"></path><path d="M235.9181818181818,518.5714285714286h11.8v31.428571428571445h-11.8Z" style="fill: #cede54;"></path><path d="M286.8272727272727,543.7142857142857h11.8v6.285714285714334h-11.8Z" style="fill: #cede54;"></path><path d="M299.55454545454546,542.1428571428572h11.8v7.857142857142776h-11.8Z" style="fill: #cede54;"></path><path d="M210.46363636363634,466.71428571428567h11.8v83.28571428571433h-11.8Z" style="fill: #cede54;"></path><path d="M248.64545454545456,534.2857142857143h11.8v15.714285714285666h-11.8Z" style="fill: #cede54;"></path><path d="M350.46363636363634,548.4285714285714h11.8v1.5714285714285552h-11.8Z" style="fill: #cede54;"></path><path d="M70.46363636363635,531.1428571428571h11.8v18.85714285714289h-11.8Z" style="fill: #cede54;"></path><path d="M223.1909090909091,504.42857142857144h11.8v45.571428571428555h-11.8Z" style="fill: #cede54;"></path><path d="M261.37272727272733,534.2857142857143h11.8v15.714285714285666h-11.8Z" style="fill: #cede54;"></path><path d="M57.73636363636364,546.8571428571429h11.8v3.1428571428571104h-11.8Z" style="fill: #cede54;"></path><path d="M325.0090909090909,548.4285714285714h11.8v1.5714285714285552h-11.8Z" style="fill: #cede54;"></path><path d="M312.2818181818182,546.8571428571429h11.8v3.1428571428571104h-11.8Z" style="fill: #cede54;"></path></g><g class="mark-text role-mark concat_0_layer_2_marks"><text text-anchor="middle" transform="translate(119.0909090909091,582.5)" style="font-family: lato; font-size: 28px; fill: black; opacity: 0.8;">$2k</text></g><g class="mark-text role-mark concat_0_layer_3_marks"><text text-anchor="middle" transform="translate(29.81818181818182,86.5714285714286)" style="font-family: lato; font-size: 28px; fill: black; opacity: 0.8;">300 counties</text></g><g class="mark-text role-mark concat_0_layer_4_marks"><text text-anchor="middle" transform="translate(6.363636363636363,291.0714285714286)" style="font-family: lato; font-size: 30px; fill: black; opacity: 0.8;"></text></g><g class="mark-text role-mark concat_0_layer_5_marks"><text text-anchor="middle" transform="translate(6.363636363636363,330.3571428571429)" style="font-family: lato; font-size: 30px; fill: black; opacity: 0.8;"></text></g><g class="mark-text role-mark concat_0_layer_6_marks"><text text-anchor="middle" transform="translate(610.9090909090909,502)" style="font-family: lato; font-size: 24px; fill: black; opacity: 0.8;">Median: $2400</text></g></g><path class="foreground" d="" style="display: none; fill: none;"></path></g></g><g class="mark-group role-scope concat_1_group"><g transform="translate(729,0)"><path class="background" d="M0.5,0.5h700v550h-700Z" style="fill: none; stroke: #ddd; stroke-opacity: 0;"></path><g><g class="mark-group role-axis"><g transform="translate(0.5,0.5)"><path class="background" d="M0,0h0v0h0Z" style="pointer-events: none; fill: none;"></path><g><g class="mark-rule role-axis-grid" style="pointer-events: none;"><line transform="translate(0,393)" x2="700" y2="0" style="fill: none; stroke: #ddd; stroke-opacity: 1; stroke-width: 1; opacity: 1;"></line><line transform="translate(0,236)" x2="700" y2="0" style="fill: none; stroke: #ddd; stroke-opacity: 1; stroke-width: 1; opacity: 1;"></line></g></g><path class="foreground" d="" style="pointer-events: none; display: none; fill: none;"></path></g></g><g class="mark-group role-axis"><g transform="translate(0.5,550.5)"><path class="background" d="M0,0h0v0h0Z" style="pointer-events: none; fill: none;"></path><g><g class="mark-text role-axis-label" style="pointer-events: none;"><text text-anchor="middle" transform="translate(254.54545454545456,32)" style="font-family: Lato, Calibri, Arial; font-size: 28px; fill: #000; fill-opacity: 0.8; opacity: 1;">4k</text><text text-anchor="middle" transform="translate(381.8181818181818,32)" style="font-family: Lato, Calibri, Arial; font-size: 28px; fill: #000; fill-opacity: 0.8; opacity: 1;">6k</text><text text-anchor="middle" transform="translate(509.0909090909091,32)" style="font-family: Lato, Calibri, Arial; font-size: 28px; fill: #000; fill-opacity: 0.8; opacity: 1;">8k</text><text text-anchor="middle" transform="translate(636.3636363636364,32)" style="font-family: Lato, Calibri, Arial; font-size: 28px; fill: #000; fill-opacity: 0.8; opacity: 1;">10k</text></g><g class="mark-rule role-axis-domain" style="pointer-events: none;"><line transform="translate(0,0)" x2="700" y2="0" style="fill: none; stroke: #888; stroke-width: 1; opacity: 1;"></line></g><g class="mark-text role-axis-title" style="pointer-events: none;"><text text-anchor="middle" transform="translate(260,-548)" style="font-family: Lato, Calibri, Arial; font-size: 40px; font-weight: normal; fill: #000; fill-opacity: 0.8; opacity: 1;">Monthly Homeowner Incomes</text></g></g><path class="foreground" d="" style="pointer-events: none; display: none; fill: none;"></path></g></g><g class="mark-group role-axis"><g transform="translate(0.5,0.5)"><path class="background" d="M0,0h0v0h0Z" style="pointer-events: none; fill: none;"></path><g><g class="mark-text role-axis-label" style="pointer-events: none;"><text text-anchor="start" transform="translate(0,400.8571428571429)" style="font-family: Lato, Calibri, Arial; font-size: 28px; fill: #000; fill-opacity: 0; opacity: 1;">100</text><text text-anchor="start" transform="translate(0,243.71428571428572)" style="font-family: Lato, Calibri, Arial; font-size: 28px; fill: #000; fill-opacity: 0; opacity: 1;">200</text></g><g class="mark-rule role-axis-domain" style="pointer-events: none;"><line transform="translate(0,550)" x2="0" y2="-550" style="fill: none; stroke: #888; stroke-width: 0; opacity: 1;"></line></g></g><path class="foreground" d="" style="pointer-events: none; display: none; fill: none;"></path></g></g><g class="mark-text role-mark concat_1_layer_0_marks"><text text-anchor="middle" transform="translate(350.90909090909093,77.5714285714286)" style="font-family: sans-serif; font-size: 11.5px; font-weight: bold; fill: black; opacity: 0.09;">______________________________________________________________________________________________________________</text></g><g class="mark-rect role-mark concat_1_layer_1_marks"><path d="M337.73636363636365,484h11.8v66h-11.8Z" style="fill: #97c2f2;"></path><path d="M248.64545454545456,312.71428571428567h11.8v237.28571428571433h-11.8Z" style="fill: #97c2f2;"></path><path d="M274.1,322.1428571428571h11.8v227.8571428571429h-11.8Z" style="fill: #97c2f2;"></path><path d="M286.8272727272727,364.57142857142856h11.8v185.42857142857144h-11.8Z" style="fill: #97c2f2;"></path><path d="M235.9181818181818,375.57142857142856h11.8v174.42857142857144h-11.8Z" style="fill: #97c2f2;"></path><path d="M210.46363636363634,421.1428571428571h11.8v128.8571428571429h-11.8Z" style="fill: #97c2f2;"></path><path d="M350.46363636363634,504.42857142857144h11.8v45.571428571428555h-11.8Z" style="fill: #97c2f2;"></path><path d="M299.55454545454546,367.7142857142857h11.8v182.28571428571428h-11.8Z" style="fill: #97c2f2;"></path><path d="M197.73636363636362,474.57142857142856h11.8v75.42857142857144h-11.8Z" style="fill: #97c2f2;"></path><path d="M261.37272727272733,325.2857142857143h11.8v224.71428571428572h-11.8Z" style="fill: #97c2f2;"></path><path d="M223.1909090909091,364.57142857142856h11.8v185.42857142857144h-11.8Z" style="fill: #97c2f2;"></path><path d="M312.2818181818182,425.85714285714283h11.8v124.14285714285717h-11.8Z" style="fill: #97c2f2;"></path><path d="M134.1,548.4285714285714h11.8v1.5714285714285552h-11.8Z" style="fill: #97c2f2;"></path><path d="M401.3727272727273,543.7142857142857h11.8v6.285714285714334h-11.8Z" style="fill: #97c2f2;"></path><path d="M515.9181818181819,548.4285714285714h11.8v1.5714285714285552h-11.8Z" style="fill: #97c2f2;"></path><path d="M541.3727272727273,548.4285714285714h11.8v1.5714285714285552h-11.8Z" style="fill: #97c2f2;"></path><path d="M452.2818181818182,545.2857142857143h11.8v4.714285714285666h-11.8Z" style="fill: #97c2f2;"></path><path d="M363.1909090909091,510.7142857142857h11.8v39.28571428571428h-11.8Z" style="fill: #97c2f2;"></path><path d="M388.6454545454545,521.7142857142858h11.8v28.28571428571422h-11.8Z" style="fill: #97c2f2;"></path><path d="M325.0090909090909,443.14285714285717h11.8v106.85714285714283h-11.8Z" style="fill: #97c2f2;"></path><path d="M414.1,542.1428571428572h11.8v7.857142857142776h-11.8Z" style="fill: #97c2f2;"></path><path d="M439.55454545454546,540.5714285714286h11.8v9.428571428571445h-11.8Z" style="fill: #97c2f2;"></path><path d="M159.55454545454543,542.1428571428572h11.8v7.857142857142776h-11.8Z" style="fill: #97c2f2;"></path><path d="M185.0090909090909,501.28571428571433h11.8v48.714285714285666h-11.8Z" style="fill: #97c2f2;"></path><path d="M375.91818181818184,531.1428571428571h11.8v18.85714285714289h-11.8Z" style="fill: #97c2f2;"></path><path d="M172.28181818181815,520.1428571428571h11.8v29.85714285714289h-11.8Z" style="fill: #97c2f2;"></path><path d="M146.8272727272727,545.2857142857143h11.8v4.714285714285666h-11.8Z" style="fill: #97c2f2;"></path><path d="M426.8272727272727,542.1428571428572h11.8v7.857142857142776h-11.8Z" style="fill: #97c2f2;"></path><path d="M554.1,546.8571428571429h11.8v3.1428571428571104h-11.8Z" style="fill: #97c2f2;"></path><path d="M465.00909090909096,546.8571428571429h11.8v3.1428571428571104h-11.8Z" style="fill: #97c2f2;"></path><path d="M503.19090909090914,548.4285714285714h11.8v1.5714285714285552h-11.8Z" style="fill: #97c2f2;"></path><path d="M579.5545454545454,548.4285714285714h11.8v1.5714285714285552h-11.8Z" style="fill: #97c2f2;"></path><path d="M490.4636363636364,548.4285714285714h11.8v1.5714285714285552h-11.8Z" style="fill: #97c2f2;"></path></g><g class="mark-text role-mark concat_1_layer_2_marks"><text text-anchor="middle" transform="translate(119.0909090909091,582.5)" style="font-family: lato; font-size: 28px; fill: black; opacity: 0.8;">$2k</text></g><g class="mark-text role-mark concat_1_layer_3_marks"><text text-anchor="middle" transform="translate(531.8181818181819,86.5714285714286)" style="font-family: lato; font-size: 28px; fill: black; opacity: 0;">300 counties</text></g><g class="mark-text role-mark concat_1_layer_4_marks"><text text-anchor="middle" transform="translate(793.5454545454545,291.0714285714286)" style="font-family: lato; font-size: 30px; fill: black; opacity: 0.8;">Renting More</text></g><g class="mark-text role-mark concat_1_layer_5_marks"><text text-anchor="middle" transform="translate(770.0000000000001,330.3571428571429)" style="font-family: lato; font-size: 30px; fill: black; opacity: 0.8;">Expensive</text></g><g class="mark-text role-mark concat_1_layer_6_marks"><text text-anchor="middle" transform="translate(610.9090909090909,502)" style="font-family: lato; font-size: 24px; fill: black; opacity: 0.8;">Median: $4200</text></g></g><path class="foreground" d="" style="display: none; fill: none;"></path></g></g></g><path class="foreground" d="" style="display: none; fill: none;"></path></g></g></g></svg>