<svg class="marks" width="682" height="611" viewBox="0 0 682 611" version="1.1" xmlns="http://www.w3.org/2000/svg" xmlns:xlink="http://www.w3.org/1999/xlink"><rect width="682" height="611" fill="white"></rect><g fill="none" stroke-miterlimit="10" transform="translate(65,40)"><g class="mark-group role-frame root" role="graphics-object" aria-roledescription="group mark container"><g transform="translate(0,0)"><path class="background" aria-hidden="true" d="M0.5,0.5h600v500h-600Z" stroke="#ddd" stroke-opacity="0"></path><g><g class="mark-group role-axis" role="graphics-symbol" aria-roledescription="axis" aria-label="Y-axis for a linear scale with values from 0 to 130,000"><g transform="translate(0.5,0.5)"><path class="background" aria-hidden="true" d="M0,0h0v0h0Z" pointer-events="none"></path><g><g class="mark-rule role-axis-grid" pointer-events="none"><line transform="translate(0,404)" x2="600" y2="0" stroke="#ddd" stroke-opacity="1" stroke-width="1" opacity="1"></line><line transform="translate(0,308)" x2="600" y2="0" stroke="#ddd" stroke-opacity="1" stroke-width="1" opacity="1"></line><line transform="translate(0,212)" x2="600" y2="0" stroke="#ddd" stroke-opacity="1" stroke-width="1" opacity="1"></line><line transform="translate(0,115)" x2="600" y2="0" stroke="#ddd" stroke-opacity="1" stroke-width="1" opacity="1"></line></g></g><path class="foreground" aria-hidden="true" d="" pointer-events="none" display="none"></path></g></g><g class="mark-group role-axis" role="graphics-symbol" aria-roledescription="axis" aria-label="X-axis titled 'Top 50 Rank' for a linear scale with values from 0 to 50"><g transform="translate(0.5,500.5)"><path class="background" aria-hidden="true" d="M0,0h0v0h0Z" pointer-events="none"></path><g><g class="mark-text role-axis-label" pointer-events="none"><text text-anchor="middle" transform="translate(12,27)" font-family="Calibri" font-size="22px" fill="#000" fill-opacity="0.8" opacity="1">1</text><text text-anchor="middle" transform="translate(120,27)" font-family="Calibri" font-size="22px" fill="#000" fill-opacity="0.8" opacity="1">10</text><text text-anchor="middle" transform="translate(240,27)" font-family="Calibri" font-size="22px" fill="#000" fill-opacity="0.8" opacity="1">20</text><text text-anchor="middle" transform="translate(360,27)" font-family="Calibri" font-size="22px" fill="#000" fill-opacity="0.8" opacity="1">30</text><text text-anchor="middle" transform="translate(480,27)" font-family="Calibri" font-size="22px" fill="#000" fill-opacity="0.8" opacity="1">40</text><text text-anchor="middle" transform="translate(600,27)" font-family="Calibri" font-size="22px" fill="#000" fill-opacity="0.8" opacity="1">50</text></g><g class="mark-rule role-axis-domain" pointer-events="none"><line transform="translate(0,0)" x2="600" y2="0" stroke="#888" stroke-width="1" opacity="1"></line></g><g class="mark-text role-axis-title" pointer-events="none"><text text-anchor="middle" transform="translate(300,62)" font-family="Calibri" font-size="22px" font-weight="normal" fill="#000" fill-opacity="0.8" opacity="1">Top 50 Rank</text></g></g><path class="foreground" aria-hidden="true" d="" pointer-events="none" display="none"></path></g></g><g class="mark-group role-axis" role="graphics-symbol" aria-roledescription="axis" aria-label="Y-axis titled 'Median incomes are lower in the top 50 net' for a linear scale with values from $0k to $130k"><g transform="translate(0.5,0.5)"><path class="background" aria-hidden="true" d="M0,0h0v0h0Z" pointer-events="none"></path><g><g class="mark-text role-axis-label" pointer-events="none"><text text-anchor="start" transform="translate(-60,410.84615384615387)" font-family="Calibri" font-size="22px" fill="#000" fill-opacity="0.8" opacity="1">$25k</text><text text-anchor="start" transform="translate(-60,314.69230769230774)" font-family="Calibri" font-size="22px" fill="#000" fill-opacity="0.8" opacity="1">$50k</text><text text-anchor="start" transform="translate(-60,218.53846153846158)" font-family="Calibri" font-size="22px" fill="#000" fill-opacity="0.8" opacity="1">$75k</text><text text-anchor="start" transform="translate(-60,122.38461538461536)" font-family="Calibri" font-size="22px" fill="#000" fill-opacity="0.8" opacity="1">$100k</text></g><g class="mark-rule role-axis-domain" pointer-events="none"><line transform="translate(0,500)" x2="0" y2="-500" stroke="#888" stroke-width="0" opacity="1"></line></g><g class="mark-text role-axis-title" pointer-events="none"><text text-anchor="start" transform="translate(-60,20)" font-family="Calibri" font-size="22px" font-weight="normal" fill="#000" fill-opacity="0.8" opacity="1">Median incomes are lower in the top 50 net</text></g></g><path class="foreground" aria-hidden="true" d="" pointer-events="none" display="none"></path></g></g><g class="mark-rect role-mark layer_0_marks" role="graphics-symbol" aria-roledescription="rect mark container"><path d="M0,211.53846153846158h600v192.3076923076923h-600Z" fill="lightgray" opacity="0.2"></path></g><g class="mark-rule role-mark layer_1_marks" role="graphics-symbol" aria-roledescription="rule mark container"><line transform="translate(0,211.53846153846158)" x2="600" y2="0" stroke="gray" opacity="0.3"></line></g><g class="mark-symbol role-mark layer_2_marks" role="graphics-symbol" aria-roledescription="symbol mark container"><path transform="translate(12,288.9153846153846)" d="M15,0A15,15,0,1,1,-15,0A15,15,0,1,1,15,0" fill="#8ac3ff" stroke-width="2" opacity="0.7"></path><path transform="translate(24,274.6923076923077)" d="M13.618406195712005,0A13.618406195712005,13.618406195712005,0,1,1,-13.618406195712005,0A13.618406195712005,13.618406195712005,0,1,1,13.618406195712005,0" fill="#8ac3ff" stroke-width="2" opacity="0.7"></path><path transform="translate(36,267.8115384615385)" d="M7.437225454051431,0A7.437225454051431,7.437225454051431,0,1,1,-7.437225454051431,0A7.437225454051431,7.437225454051431,0,1,1,7.437225454051431,0" fill="#8ac3ff" stroke-width="2" opacity="0.7"></path><path transform="translate(48,293.7461538461539)" d="M7.301904856399518,0A7.301904856399518,7.301904856399518,0,1,1,-7.301904856399518,0A7.301904856399518,7.301904856399518,0,1,1,7.301904856399518,0" fill="#8ac3ff" stroke-width="2" opacity="0.7"></path><path transform="translate(60,268.65)" d="M7.2816792083056585,0A7.2816792083056585,7.2816792083056585,0,1,1,-7.2816792083056585,0A7.2816792083056585,7.2816792083056585,0,1,1,7.2816792083056585,0" fill="#8ac3ff" stroke-width="2" opacity="0.7"></path><path transform="translate(72,274.6346153846154)" d="M7.178718135296244,0A7.178718135296244,7.178718135296244,0,1,1,-7.178718135296244,0A7.178718135296244,7.178718135296244,0,1,1,7.178718135296244,0" fill="#8ac3ff" stroke-width="2" opacity="0.7"></path><path transform="translate(84.00000000000001,316.5)" d="M6.849300391373706,0A6.849300391373706,6.849300391373706,0,1,1,-6.849300391373706,0A6.849300391373706,6.849300391373706,0,1,1,6.849300391373706,0" fill="#8ac3ff" stroke-width="2" opacity="0.7"></path><path transform="translate(96,259.4923076923077)" d="M6.483749894049962,0A6.483749894049962,6.483749894049962,0,1,1,-6.483749894049962,0A6.483749894049962,6.483749894049962,0,1,1,6.483749894049962,0" fill="#8ac3ff" stroke-width="2" opacity="0.7"></path><path transform="translate(108,292.3115384615385)" d="M6.061661044030245,0A6.061661044030245,6.061661044030245,0,1,1,-6.061661044030245,0A6.061661044030245,6.061661044030245,0,1,1,6.061661044030245,0" fill="#8ac3ff" stroke-width="2" opacity="0.7"></path><path transform="translate(120,178.57307692307694)" d="M5.650311033190536,0A5.650311033190536,5.650311033190536,0,1,1,-5.650311033190536,0A5.650311033190536,5.650311033190536,0,1,1,5.650311033190536,0" fill="#8ac3ff" stroke-width="2" opacity="0.7"></path><path transform="translate(132,312.7846153846154)" d="M5.576496281343229,0A5.576496281343229,5.576496281343229,0,1,1,-5.576496281343229,0A5.576496281343229,5.576496281343229,0,1,1,5.576496281343229,0" fill="#8ac3ff" stroke-width="2" opacity="0.7"></path><path transform="translate(144,195.68076923076922)" d="M5.533511772904702,0A5.533511772904702,5.533511772904702,0,1,1,-5.533511772904702,0A5.533511772904702,5.533511772904702,0,1,1,5.533511772904702,0" fill="#8ac3ff" stroke-width="2" opacity="0.7"></path><path transform="translate(156,294.1423076923077)" d="M5.482510312190488,0A5.482510312190488,5.482510312190488,0,1,1,-5.482510312190488,0A5.482510312190488,5.482510312190488,0,1,1,5.482510312190488,0" fill="#8ac3ff" stroke-width="2" opacity="0.7"></path><path transform="translate(168.00000000000003,340.12692307692305)" d="M5.419379450796481,0A5.419379450796481,5.419379450796481,0,1,1,-5.419379450796481,0A5.419379450796481,5.419379450796481,0,1,1,5.419379450796481,0" fill="#8ac3ff" stroke-width="2" opacity="0.7"></path><path transform="translate(180,153.36923076923077)" d="M5.407703871122678,0A5.407703871122678,5.407703871122678,0,1,1,-5.407703871122678,0A5.407703871122678,5.407703871122678,0,1,1,5.407703871122678,0" fill="#8ac3ff" stroke-width="2" opacity="0.7"></path><path transform="translate(192,277.726923076923)" d="M5.386884802064662,0A5.386884802064662,5.386884802064662,0,1,1,-5.386884802064662,0A5.386884802064662,5.386884802064662,0,1,1,5.386884802064662,0" fill="#8ac3ff" stroke-width="2" opacity="0.7"></path><path transform="translate(204.00000000000003,191.1923076923077)" d="M5.202514530451173,0A5.202514530451173,5.202514530451173,0,1,1,-5.202514530451173,0A5.202514530451173,5.202514530451173,0,1,1,5.202514530451173,0" fill="#8ac3ff" stroke-width="2" opacity="0.7"></path><path transform="translate(216,215.2576923076923)" d="M5.163218798075059,0A5.163218798075059,5.163218798075059,0,1,1,-5.163218798075059,0A5.163218798075059,5.163218798075059,0,1,1,5.163218798075059,0" fill="#8ac3ff" stroke-width="2" opacity="0.7"></path><path transform="translate(228,238.76153846153846)" d="M5.035133178563989,0A5.035133178563989,5.035133178563989,0,1,1,-5.035133178563989,0A5.035133178563989,5.035133178563989,0,1,1,5.035133178563989,0" fill="#8ac3ff" stroke-width="2" opacity="0.7"></path><path transform="translate(240,237.1153846153846)" d="M4.927989753686191,0A4.927989753686191,4.927989753686191,0,1,1,-4.927989753686191,0A4.927989753686191,4.927989753686191,0,1,1,4.927989753686191,0" fill="#8ac3ff" stroke-width="2" opacity="0.7"></path><path transform="translate(252,239.1076923076923)" d="M4.916575675092991,0A4.916575675092991,4.916575675092991,0,1,1,-4.916575675092991,0A4.916575675092991,4.916575675092991,0,1,1,4.916575675092991,0" fill="#8ac3ff" stroke-width="2" opacity="0.7"></path><path transform="translate(264,254.30384615384617)" d="M4.895102543595603,0A4.895102543595603,4.895102543595603,0,1,1,-4.895102543595603,0A4.895102543595603,4.895102543595603,0,1,1,4.895102543595603,0" fill="#8ac3ff" stroke-width="2" opacity="0.7"></path><path transform="translate(276,299.38846153846157)" d="M4.792157650899678,0A4.792157650899678,4.792157650899678,0,1,1,-4.792157650899678,0A4.792157650899678,4.792157650899678,0,1,1,4.792157650899678,0" fill="#8ac3ff" stroke-width="2" opacity="0.7"></path><path transform="translate(288,208.9653846153846)" d="M4.736141192400878,0A4.736141192400878,4.736141192400878,0,1,1,-4.736141192400878,0A4.736141192400878,4.736141192400878,0,1,1,4.736141192400878,0" fill="#8ac3ff" stroke-width="2" opacity="0.7"></path><path transform="translate(300,299.68461538461537)" d="M4.629662993471188,0A4.629662993471188,4.629662993471188,0,1,1,-4.629662993471188,0A4.629662993471188,4.629662993471188,0,1,1,4.629662993471188,0" fill="#8ac3ff" stroke-width="2" opacity="0.7"></path><path transform="translate(312,221.50769230769228)" d="M4.5004366095032164,0A4.5004366095032164,4.5004366095032164,0,1,1,-4.5004366095032164,0A4.5004366095032164,4.5004366095032164,0,1,1,4.5004366095032164,0" fill="#8ac3ff" stroke-width="2" opacity="0.7"></path><path transform="translate(324,272.4923076923077)" d="M4.470688861662915,0A4.470688861662915,4.470688861662915,0,1,1,-4.470688861662915,0A4.470688861662915,4.470688861662915,0,1,1,4.470688861662915,0" fill="#8ac3ff" stroke-width="2" opacity="0.7"></path><path transform="translate(336.00000000000006,343.4423076923077)" d="M4.464400920172478,0A4.464400920172478,4.464400920172478,0,1,1,-4.464400920172478,0A4.464400920172478,4.464400920172478,0,1,1,4.464400920172478,0" fill="#8ac3ff" stroke-width="2" opacity="0.7"></path><path transform="translate(348,318.70384615384614)" d="M4.447063237823012,0A4.447063237823012,4.447063237823012,0,1,1,-4.447063237823012,0A4.447063237823012,4.447063237823012,0,1,1,4.447063237823012,0" fill="#8ac3ff" stroke-width="2" opacity="0.7"></path><path transform="translate(360,295.42692307692306)" d="M4.349663870272857,0A4.349663870272857,4.349663870272857,0,1,1,-4.349663870272857,0A4.349663870272857,4.349663870272857,0,1,1,4.349663870272857,0" fill="#8ac3ff" stroke-width="2" opacity="0.7"></path><path transform="translate(372,312.73846153846154)" d="M4.33348791159697,0A4.33348791159697,4.33348791159697,0,1,1,-4.33348791159697,0A4.33348791159697,4.33348791159697,0,1,1,4.33348791159697,0" fill="#8ac3ff" stroke-width="2" opacity="0.7"></path><path transform="translate(384,330.6807692307692)" d="M4.310739594755998,0A4.310739594755998,4.310739594755998,0,1,1,-4.310739594755998,0A4.310739594755998,4.310739594755998,0,1,1,4.310739594755998,0" fill="#8ac3ff" stroke-width="2" opacity="0.7"></path><path transform="translate(396,253.51153846153846)" d="M4.30095348395645,0A4.30095348395645,4.30095348395645,0,1,1,-4.30095348395645,0A4.30095348395645,4.30095348395645,0,1,1,4.30095348395645,0" fill="#8ac3ff" stroke-width="2" opacity="0.7"></path><path transform="translate(408.00000000000006,242.14615384615385)" d="M4.2201842589627825,0A4.2201842589627825,4.2201842589627825,0,1,1,-4.2201842589627825,0A4.2201842589627825,4.2201842589627825,0,1,1,4.2201842589627825,0" fill="#8ac3ff" stroke-width="2" opacity="0.7"></path><path transform="translate(420,314.38846153846157)" d="M4.163219540768579,0A4.163219540768579,4.163219540768579,0,1,1,-4.163219540768579,0A4.163219540768579,4.163219540768579,0,1,1,4.163219540768579,0" fill="#8ac3ff" stroke-width="2" opacity="0.7"></path><path transform="translate(432,333.64230769230767)" d="M4.062473747444712,0A4.062473747444712,4.062473747444712,0,1,1,-4.062473747444712,0A4.062473747444712,4.062473747444712,0,1,1,4.062473747444712,0" fill="#8ac3ff" stroke-width="2" opacity="0.7"></path><path transform="translate(444,287.78846153846155)" d="M4.013777484659252,0A4.013777484659252,4.013777484659252,0,1,1,-4.013777484659252,0A4.013777484659252,4.013777484659252,0,1,1,4.013777484659252,0" fill="#8ac3ff" stroke-width="2" opacity="0.7"></path><path transform="translate(456,214.1423076923077)" d="M3.9768639978150633,0A3.9768639978150633,3.9768639978150633,0,1,1,-3.9768639978150633,0A3.9768639978150633,3.9768639978150633,0,1,1,3.9768639978150633,0" fill="#8ac3ff" stroke-width="2" opacity="0.7"></path><path transform="translate(468,268.8538461538462)" d="M3.9485078156282847,0A3.9485078156282847,3.9485078156282847,0,1,1,-3.9485078156282847,0A3.9485078156282847,3.9485078156282847,0,1,1,3.9485078156282847,0" fill="#8ac3ff" stroke-width="2" opacity="0.7"></path><path transform="translate(480,237.16923076923075)" d="M3.9449489615453395,0A3.9449489615453395,3.9449489615453395,0,1,1,-3.9449489615453395,0A3.9449489615453395,3.9449489615453395,0,1,1,3.9449489615453395,0" fill="#8ac3ff" stroke-width="2" opacity="0.7"></path><path transform="translate(491.99999999999994,308.9923076923077)" d="M3.919946515328709,0A3.919946515328709,3.919946515328709,0,1,1,-3.919946515328709,0A3.919946515328709,3.919946515328709,0,1,1,3.919946515328709,0" fill="#8ac3ff" stroke-width="2" opacity="0.7"></path><path transform="translate(504,321.4384615384616)" d="M3.919946515328709,0A3.919946515328709,3.919946515328709,0,1,1,-3.919946515328709,0A3.919946515328709,3.919946515328709,0,1,1,3.919946515328709,0" fill="#8ac3ff" stroke-width="2" opacity="0.7"></path><path transform="translate(516,207.8423076923077)" d="M3.876710042352632,0A3.876710042352632,3.876710042352632,0,1,1,-3.876710042352632,0A3.876710042352632,3.876710042352632,0,1,1,3.876710042352632,0" fill="#8ac3ff" stroke-width="2" opacity="0.7"></path><path transform="translate(528,262.7115384615385)" d="M3.8274852489066262,0A3.8274852489066262,3.8274852489066262,0,1,1,-3.8274852489066262,0A3.8274852489066262,3.8274852489066262,0,1,1,3.8274852489066262,0" fill="#8ac3ff" stroke-width="2" opacity="0.7"></path><path transform="translate(540,250.0769230769231)" d="M3.8072482445669134,0A3.8072482445669134,3.8072482445669134,0,1,1,-3.8072482445669134,0A3.8072482445669134,3.8072482445669134,0,1,1,3.8072482445669134,0" fill="#8ac3ff" stroke-width="2" opacity="0.7"></path><path transform="translate(552,223.06153846153848)" d="M3.792462597341978,0A3.792462597341978,3.792462597341978,0,1,1,-3.792462597341978,0A3.792462597341978,3.792462597341978,0,1,1,3.792462597341978,0" fill="#8ac3ff" stroke-width="2" opacity="0.7"></path><path transform="translate(564,210.8846153846154)" d="M3.7794777071915484,0A3.7794777071915484,3.7794777071915484,0,1,1,-3.7794777071915484,0A3.7794777071915484,3.7794777071915484,0,1,1,3.7794777071915484,0" fill="#8ac3ff" stroke-width="2" opacity="0.7"></path><path transform="translate(576,299.9346153846154)" d="M3.7664480516898013,0A3.7664480516898013,3.7664480516898013,0,1,1,-3.7664480516898013,0A3.7664480516898013,3.7664480516898013,0,1,1,3.7664480516898013,0" fill="#8ac3ff" stroke-width="2" opacity="0.7"></path><path transform="translate(588,217.01153846153846)" d="M3.7195409884927955,0A3.7195409884927955,3.7195409884927955,0,1,1,-3.7195409884927955,0A3.7195409884927955,3.7195409884927955,0,1,1,3.7195409884927955,0" fill="#8ac3ff" stroke-width="2" opacity="0.7"></path><path transform="translate(600,297.5846153846154)" d="M3.7138723286830917,0A3.7138723286830917,3.7138723286830917,0,1,1,-3.7138723286830917,0A3.7138723286830917,3.7138723286830917,0,1,1,3.7138723286830917,0" fill="#8ac3ff" stroke-width="2" opacity="0.7"></path></g><g class="mark-symbol role-mark layer_3_marks" role="graphics-symbol" aria-roledescription="symbol mark container"><path transform="translate(12,271.4384615384615)" d="M9.261626675630207,0A9.261626675630207,9.261626675630207,0,1,1,-9.261626675630207,0A9.261626675630207,9.261626675630207,0,1,1,9.261626675630207,0" fill="#ffd113" stroke-width="2" opacity="0.7"></path><path transform="translate(24,296.9923076923077)" d="M7.448548343111594,0A7.448548343111594,7.448548343111594,0,1,1,-7.448548343111594,0A7.448548343111594,7.448548343111594,0,1,1,7.448548343111594,0" fill="#ffd113" stroke-width="2" opacity="0.7"></path><path transform="translate(36,193.14999999999998)" d="M5.516988013867257,0A5.516988013867257,5.516988013867257,0,1,1,-5.516988013867257,0A5.516988013867257,5.516988013867257,0,1,1,5.516988013867257,0" fill="#ffd113" stroke-width="2" opacity="0.7"></path><path transform="translate(48,192.0076923076923)" d="M5.428443095842044,0A5.428443095842044,5.428443095842044,0,1,1,-5.428443095842044,0A5.428443095842044,5.428443095842044,0,1,1,5.428443095842044,0" fill="#ffd113" stroke-width="2" opacity="0.7"></path><path transform="translate(60,343.6576923076923)" d="M4.926564440053138,0A4.926564440053138,4.926564440053138,0,1,1,-4.926564440053138,0A4.926564440053138,4.926564440053138,0,1,1,4.926564440053138,0" fill="#ffd113" stroke-width="2" opacity="0.7"></path><path transform="translate(72,153.96923076923073)" d="M4.850423504053664,0A4.850423504053664,4.850423504053664,0,1,1,-4.850423504053664,0A4.850423504053664,4.850423504053664,0,1,1,4.850423504053664,0" fill="#ffd113" stroke-width="2" opacity="0.7"></path><path transform="translate(84.00000000000001,266.9115384615385)" d="M4.691445244395004,0A4.691445244395004,4.691445244395004,0,1,1,-4.691445244395004,0A4.691445244395004,4.691445244395004,0,1,1,4.691445244395004,0" fill="#ffd113" stroke-width="2" opacity="0.7"></path><path transform="translate(96,264.45384615384614)" d="M4.670440755966885,0A4.670440755966885,4.670440755966885,0,1,1,-4.670440755966885,0A4.670440755966885,4.670440755966885,0,1,1,4.670440755966885,0" fill="#ffd113" stroke-width="2" opacity="0.7"></path><path transform="translate(108,261.5076923076923)" d="M4.600750879449641,0A4.600750879449641,4.600750879449641,0,1,1,-4.600750879449641,0A4.600750879449641,4.600750879449641,0,1,1,4.600750879449641,0" fill="#ffd113" stroke-width="2" opacity="0.7"></path><path transform="translate(120,283.33461538461535)" d="M4.588522857220683,0A4.588522857220683,4.588522857220683,0,1,1,-4.588522857220683,0A4.588522857220683,4.588522857220683,0,1,1,4.588522857220683,0" fill="#ffd113" stroke-width="2" opacity="0.7"></path><path transform="translate(132,154.71923076923076)" d="M4.577796543988896,0A4.577796543988896,4.577796543988896,0,1,1,-4.577796543988896,0A4.577796543988896,4.577796543988896,0,1,1,4.577796543988896,0" fill="#ffd113" stroke-width="2" opacity="0.7"></path><path transform="translate(144,183.57307692307694)" d="M4.5284384310793895,0A4.5284384310793895,4.5284384310793895,0,1,1,-4.5284384310793895,0A4.5284384310793895,4.5284384310793895,0,1,1,4.5284384310793895,0" fill="#ffd113" stroke-width="2" opacity="0.7"></path><path transform="translate(156,258.91923076923075)" d="M4.4058120533855005,0A4.4058120533855005,4.4058120533855005,0,1,1,-4.4058120533855005,0A4.4058120533855005,4.4058120533855005,0,1,1,4.4058120533855005,0" fill="#ffd113" stroke-width="2" opacity="0.7"></path><path transform="translate(168.00000000000003,283.3884615384615)" d="M4.4058120533855005,0A4.4058120533855005,4.4058120533855005,0,1,1,-4.4058120533855005,0A4.4058120533855005,4.4058120533855005,0,1,1,4.4058120533855005,0" fill="#ffd113" stroke-width="2" opacity="0.7"></path><path transform="translate(180,323.8384615384615)" d="M4.386642210675153,0A4.386642210675153,4.386642210675153,0,1,1,-4.386642210675153,0A4.386642210675153,4.386642210675153,0,1,1,4.386642210675153,0" fill="#ffd113" stroke-width="2" opacity="0.7"></path><path transform="translate(192,201.34999999999997)" d="M4.3042179930897,0A4.3042179930897,4.3042179930897,0,1,1,-4.3042179930897,0A4.3042179930897,4.3042179930897,0,1,1,4.3042179930897,0" fill="#ffd113" stroke-width="2" opacity="0.7"></path><path transform="translate(204.00000000000003,264.09230769230766)" d="M4.233476328399301,0A4.233476328399301,4.233476328399301,0,1,1,-4.233476328399301,0A4.233476328399301,4.233476328399301,0,1,1,4.233476328399301,0" fill="#ffd113" stroke-width="2" opacity="0.7"></path><path transform="translate(216,217.81153846153845)" d="M4.200167284087299,0A4.200167284087299,4.200167284087299,0,1,1,-4.200167284087299,0A4.200167284087299,4.200167284087299,0,1,1,4.200167284087299,0" fill="#ffd113" stroke-width="2" opacity="0.7"></path><path transform="translate(228,180.25769230769228)" d="M3.9556159181393786,0A3.9556159181393786,3.9556159181393786,0,1,1,-3.9556159181393786,0A3.9556159181393786,3.9556159181393786,0,1,1,3.9556159181393786,0" fill="#ffd113" stroke-width="2" opacity="0.7"></path><path transform="translate(240,306.2076923076923)" d="M3.9037889554992224,0A3.9037889554992224,3.9037889554992224,0,1,1,-3.9037889554992224,0A3.9037889554992224,3.9037889554992224,0,1,1,3.9037889554992224,0" fill="#ffd113" stroke-width="2" opacity="0.7"></path><path transform="translate(252,147.79999999999998)" d="M3.81461957703751,0A3.81461957703751,3.81461957703751,0,1,1,-3.81461957703751,0A3.81461957703751,3.81461957703751,0,1,1,3.81461957703751,0" fill="#ffd113" stroke-width="2" opacity="0.7"></path><path transform="translate(264,226.33076923076922)" d="M3.602525434780179,0A3.602525434780179,3.602525434780179,0,1,1,-3.602525434780179,0A3.602525434780179,3.602525434780179,0,1,1,3.602525434780179,0" fill="#ffd113" stroke-width="2" opacity="0.7"></path><path transform="translate(276,142.77692307692308)" d="M3.5356231803287805,0A3.5356231803287805,3.5356231803287805,0,1,1,-3.5356231803287805,0A3.5356231803287805,3.5356231803287805,0,1,1,3.5356231803287805,0" fill="#ffd113" stroke-width="2" opacity="0.7"></path><path transform="translate(288,103.16153846153847)" d="M3.5117063242814357,0A3.5117063242814357,3.5117063242814357,0,1,1,-3.5117063242814357,0A3.5117063242814357,3.5117063242814357,0,1,1,3.5117063242814357,0" fill="#ffd113" stroke-width="2" opacity="0.7"></path><path transform="translate(300,279.36538461538464)" d="M3.4266830068622247,0A3.4266830068622247,3.4266830068622247,0,1,1,-3.4266830068622247,0A3.4266830068622247,3.4266830068622247,0,1,1,3.4266830068622247,0" fill="#ffd113" stroke-width="2" opacity="0.7"></path><path transform="translate(312,247.62307692307695)" d="M3.391662912501533,0A3.391662912501533,3.391662912501533,0,1,1,-3.391662912501533,0A3.391662912501533,3.391662912501533,0,1,1,3.391662912501533,0" fill="#ffd113" stroke-width="2" opacity="0.7"></path><path transform="translate(324,288.8653846153846)" d="M3.370892909547618,0A3.370892909547618,3.370892909547618,0,1,1,-3.370892909547618,0A3.370892909547618,3.370892909547618,0,1,1,3.370892909547618,0" fill="#ffd113" stroke-width="2" opacity="0.7"></path><path transform="translate(336.00000000000006,268.07307692307694)" d="M3.3310731347838125,0A3.3310731347838125,3.3310731347838125,0,1,1,-3.3310731347838125,0A3.3310731347838125,3.3310731347838125,0,1,1,3.3310731347838125,0" fill="#ffd113" stroke-width="2" opacity="0.7"></path><path transform="translate(348,312.11538461538464)" d="M3.3226292160754958,0A3.3226292160754958,3.3226292160754958,0,1,1,-3.3226292160754958,0A3.3226292160754958,3.3226292160754958,0,1,1,3.3226292160754958,0" fill="#ffd113" stroke-width="2" opacity="0.7"></path><path transform="translate(360,317.8423076923077)" d="M3.2992970118918503,0A3.2992970118918503,3.2992970118918503,0,1,1,-3.2992970118918503,0A3.2992970118918503,3.2992970118918503,0,1,1,3.2992970118918503,0" fill="#ffd113" stroke-width="2" opacity="0.7"></path><path transform="translate(372,142.93076923076924)" d="M3.290771558604228,0A3.290771558604228,3.290771558604228,0,1,1,-3.290771558604228,0A3.290771558604228,3.290771558604228,0,1,1,3.290771558604228,0" fill="#ffd113" stroke-width="2" opacity="0.7"></path><path transform="translate(384,301.5923076923077)" d="M3.284362945777843,0A3.284362945777843,3.284362945777843,0,1,1,-3.284362945777843,0A3.284362945777843,3.284362945777843,0,1,1,3.284362945777843,0" fill="#ffd113" stroke-width="2" opacity="0.7"></path><path transform="translate(396,181.38846153846154)" d="M3.2672118566261554,0A3.2672118566261554,3.2672118566261554,0,1,1,-3.2672118566261554,0A3.2672118566261554,3.2672118566261554,0,1,1,3.2672118566261554,0" fill="#ffd113" stroke-width="2" opacity="0.7"></path><path transform="translate(408.00000000000006,283.84615384615387)" d="M3.2672118566261554,0A3.2672118566261554,3.2672118566261554,0,1,1,-3.2672118566261554,0A3.2672118566261554,3.2672118566261554,0,1,1,3.2672118566261554,0" fill="#ffd113" stroke-width="2" opacity="0.7"></path><path transform="translate(420,299.0884615384615)" d="M3.258602460306955,0A3.258602460306955,3.258602460306955,0,1,1,-3.258602460306955,0A3.258602460306955,3.258602460306955,0,1,1,3.258602460306955,0" fill="#ffd113" stroke-width="2" opacity="0.7"></path><path transform="translate(432,184.49615384615387)" d="M3.252130456023951,0A3.252130456023951,3.252130456023951,0,1,1,-3.252130456023951,0A3.252130456023951,3.252130456023951,0,1,1,3.252130456023951,0" fill="#ffd113" stroke-width="2" opacity="0.7"></path><path transform="translate(444,239.88076923076923)" d="M3.199883212312382,0A3.199883212312382,3.199883212312382,0,1,1,-3.199883212312382,0A3.199883212312382,3.199883212312382,0,1,1,3.199883212312382,0" fill="#ffd113" stroke-width="2" opacity="0.7"></path><path transform="translate(456,217.78461538461542)" d="M3.1800691971211306,0A3.1800691971211306,3.1800691971211306,0,1,1,-3.1800691971211306,0A3.1800691971211306,3.1800691971211306,0,1,1,3.1800691971211306,0" fill="#ffd113" stroke-width="2" opacity="0.7"></path><path transform="translate(468,88.3307692307692)" d="M3.153456854500892,0A3.153456854500892,3.153456854500892,0,1,1,-3.153456854500892,0A3.153456854500892,3.153456854500892,0,1,1,3.153456854500892,0" fill="#ffd113" stroke-width="2" opacity="0.7"></path><path transform="translate(480,321.7769230769231)" d="M3.0607860240726996,0A3.0607860240726996,3.0607860240726996,0,1,1,-3.0607860240726996,0A3.0607860240726996,3.0607860240726996,0,1,1,3.0607860240726996,0" fill="#ffd113" stroke-width="2" opacity="0.7"></path><path transform="translate(491.99999999999994,305.82307692307694)" d="M3.0515942986247,0A3.0515942986247,3.0515942986247,0,1,1,-3.0515942986247,0A3.0515942986247,3.0515942986247,0,1,1,3.0515942986247,0" fill="#ffd113" stroke-width="2" opacity="0.7"></path><path transform="translate(504,325.0846153846154)" d="M3.0423748029522573,0A3.0423748029522573,3.0423748029522573,0,1,1,-3.0423748029522573,0A3.0423748029522573,3.0423748029522573,0,1,1,3.0423748029522573,0" fill="#ffd113" stroke-width="2" opacity="0.7"></path><path transform="translate(516,335.45000000000005)" d="M3.0284929352730545,0A3.0284929352730545,3.0284929352730545,0,1,1,-3.0284929352730545,0A3.0284929352730545,3.0284929352730545,0,1,1,3.0284929352730545,0" fill="#ffd113" stroke-width="2" opacity="0.7"></path><path transform="translate(528,309.2846153846154)" d="M3.021528084873415,0A3.021528084873415,3.021528084873415,0,1,1,-3.021528084873415,0A3.021528084873415,3.021528084873415,0,1,1,3.021528084873415,0" fill="#ffd113" stroke-width="2" opacity="0.7"></path><path transform="translate(540,320.61153846153843)" d="M3.019202897660045,0A3.019202897660045,3.019202897660045,0,1,1,-3.019202897660045,0A3.019202897660045,3.019202897660045,0,1,1,3.019202897660045,0" fill="#ffd113" stroke-width="2" opacity="0.7"></path><path transform="translate(552,351.07307692307694)" d="M2.950975610620814,0A2.950975610620814,2.950975610620814,0,1,1,-2.950975610620814,0A2.950975610620814,2.950975610620814,0,1,1,2.950975610620814,0" fill="#ffd113" stroke-width="2" opacity="0.7"></path><path transform="translate(564,292.2846153846154)" d="M2.9366617224050335,0A2.9366617224050335,2.9366617224050335,0,1,1,-2.9366617224050335,0A2.9366617224050335,2.9366617224050335,0,1,1,2.9366617224050335,0" fill="#ffd113" stroke-width="2" opacity="0.7"></path><path transform="translate(576,206.73076923076923)" d="M2.907822571368296,0A2.907822571368296,2.907822571368296,0,1,1,-2.907822571368296,0A2.907822571368296,2.907822571368296,0,1,1,2.907822571368296,0" fill="#ffd113" stroke-width="2" opacity="0.7"></path><path transform="translate(588,48.01923076923076)" d="M2.8195358147608305,0A2.8195358147608305,2.8195358147608305,0,1,1,-2.8195358147608305,0A2.8195358147608305,2.8195358147608305,0,1,1,2.8195358147608305,0" fill="#ffd113" stroke-width="2" opacity="0.7"></path><path transform="translate(600,241.07307692307694)" d="M2.766734496022174,0A2.766734496022174,2.766734496022174,0,1,1,-2.766734496022174,0A2.766734496022174,2.766734496022174,0,1,1,2.766734496022174,0" fill="#ffd113" stroke-width="2" opacity="0.7"></path></g><g class="mark-text role-mark layer_4_layer_0_marks" role="graphics-object" aria-roledescription="text mark container"><text text-anchor="middle" transform="translate(400,20.884615384615387)" font-family="calibri" font-size="22px" font-weight="bold" fill="#8ac3ff">out-migration</text></g><g class="mark-text role-mark layer_4_layer_1_marks" role="graphics-object" aria-roledescription="text mark container"><text text-anchor="middle" transform="translate(43,45.46153846153844)" font-family="calibri" font-size="22px" fill="black" opacity="0.9">many of the top 50 net</text></g><g class="mark-text role-mark layer_4_layer_2_marks" role="graphics-object" aria-roledescription="text mark container"><text text-anchor="middle" transform="translate(207.00000000000003,45.46153846153844)" font-family="calibri" font-size="22px" font-weight="bold" fill="#ffd113">in-migration</text></g><g class="mark-text role-mark layer_4_layer_3_marks" role="graphics-object" aria-roledescription="text mark container"><text text-anchor="middle" transform="translate(529,20.884615384615387)" font-family="calibri" font-size="22px" fill="black" opacity="0.9">counties than</text></g><g class="mark-text role-mark layer_4_layer_4_marks" role="graphics-object" aria-roledescription="text mark container"><text text-anchor="middle" transform="translate(306,45.46153846153844)" font-family="calibri" font-size="22px" fill="black" opacity="0.9">counties</text></g><g class="mark-group role-title"><g transform="translate(-60,-35)"><path class="background" aria-hidden="true" d="M0,0h0v0h0Z" pointer-events="none"></path><g><g class="mark-text role-title-text" role="graphics-symbol" aria-roledescription="title" aria-label="Title text 'Median Household Income'" pointer-events="none"><text text-anchor="start" transform="translate(0,24)" font-family="Calibri" font-size="30px" font-weight="normal" fill="#000" opacity="1">Median Household Income</text></g></g><path class="foreground" aria-hidden="true" d="" pointer-events="none" display="none"></path></g></g></g><path class="foreground" aria-hidden="true" d="" display="none"></path></g></g></g></svg>