<svg class="marks" width="642" height="594" viewBox="0 0 642 594" version="1.1" xmlns="http://www.w3.org/2000/svg" xmlns:xlink="http://www.w3.org/1999/xlink"><rect width="642" height="594" fill="white"></rect><g fill="none" stroke-miterlimit="10" transform="translate(25,43)"><g class="mark-group role-frame root" role="graphics-object" aria-roledescription="group mark container"><g transform="translate(0,0)"><path class="background" aria-hidden="true" d="M0.5,0.5h600v480h-600Z" stroke="#ddd" stroke-opacity="0"></path><g><g class="mark-group role-axis" role="graphics-symbol" aria-roledescription="axis" aria-label="Y-axis for a linear scale with values from 0 to 14"><g transform="translate(0.5,0.5)"><path class="background" aria-hidden="true" d="M0,0h0v0h0Z" pointer-events="none"></path><g><g class="mark-rule role-axis-grid" pointer-events="none"><line transform="translate(0,343)" x2="600" y2="0" stroke="#ddd" stroke-opacity="1" stroke-width="1" opacity="1"></line><line transform="translate(0,206)" x2="600" y2="0" stroke="#ddd" stroke-opacity="1" stroke-width="1" opacity="1"></line><line transform="translate(0,69)" x2="600" y2="0" stroke="#ddd" stroke-opacity="1" stroke-width="1" opacity="1"></line></g></g><path class="foreground" aria-hidden="true" d="" pointer-events="none" display="none"></path></g></g><g class="mark-group role-axis" role="graphics-symbol" aria-roledescription="axis" aria-label="X-axis titled 'Top 50 Rank' for a linear scale with values from 0 to 50"><g transform="translate(0.5,480.5)"><path class="background" aria-hidden="true" d="M0,0h0v0h0Z" pointer-events="none"></path><g><g class="mark-text role-axis-label" pointer-events="none"><text text-anchor="middle" transform="translate(12,27)" font-family="Calibri" font-size="22px" fill="#000" fill-opacity="0.8" opacity="1">1</text><text text-anchor="middle" transform="translate(120,27)" font-family="Calibri" font-size="22px" fill="#000" fill-opacity="0.8" opacity="1">10</text><text text-anchor="middle" transform="translate(240,27)" font-family="Calibri" font-size="22px" fill="#000" fill-opacity="0.8" opacity="1">20</text><text text-anchor="middle" transform="translate(360,27)" font-family="Calibri" font-size="22px" fill="#000" fill-opacity="0.8" opacity="1">30</text><text text-anchor="middle" transform="translate(480,27)" font-family="Calibri" font-size="22px" fill="#000" fill-opacity="0.8" opacity="1">40</text><text text-anchor="middle" transform="translate(600,27)" font-family="Calibri" font-size="22px" fill="#000" fill-opacity="0.8" opacity="1">50</text></g><g class="mark-rule role-axis-domain" pointer-events="none"><line transform="translate(0,0)" x2="600" y2="0" stroke="#888" stroke-width="1" opacity="1"></line></g><g class="mark-text role-axis-title" pointer-events="none"><text text-anchor="middle" transform="translate(300,62)" font-family="Calibri" font-size="22px" font-weight="normal" fill="#000" fill-opacity="0.8" opacity="1">Top 50 Rank</text></g></g><path class="foreground" aria-hidden="true" d="" pointer-events="none" display="none"></path></g></g><g class="mark-group role-axis" role="graphics-symbol" aria-roledescription="axis" aria-label="Y-axis titled 'The seven counties with high home value-to-annual income ratios are' for a linear scale with values from 0 to 14"><g transform="translate(0.5,0.5)"><path class="background" aria-hidden="true" d="M0,0h0v0h0Z" pointer-events="none"></path><g><g class="mark-text role-axis-label" pointer-events="none"><text text-anchor="start" transform="translate(-20,349.8571428571429)" font-family="Calibri" font-size="22px" fill="#000" fill-opacity="0.8" opacity="1">4</text><text text-anchor="start" transform="translate(-20,212.71428571428572)" font-family="Calibri" font-size="22px" fill="#000" fill-opacity="0.8" opacity="1">8</text><text text-anchor="start" transform="translate(-20,75.5714285714286)" font-family="Calibri" font-size="22px" fill="#000" fill-opacity="0.8" opacity="1">12</text></g><g class="mark-rule role-axis-domain" pointer-events="none"><line transform="translate(0,480)" x2="0" y2="-480" stroke="#888" stroke-width="0" opacity="1"></line></g><g class="mark-text role-axis-title" pointer-events="none"><text text-anchor="start" transform="translate(-20,15)" font-family="Calibri" font-size="22px" font-weight="normal" fill="#000" fill-opacity="0.8" opacity="1">The seven counties with high home value-to-annual income ratios are</text></g></g><path class="foreground" aria-hidden="true" d="" pointer-events="none" display="none"></path></g></g><g class="mark-rule role-mark layer_0_marks" role="graphics-symbol" aria-roledescription="rule mark container"><line transform="translate(0,274.2857142857143)" x2="600" y2="0" stroke="gray" opacity="0.3"></line></g><g class="mark-rect role-mark layer_1_marks" role="graphics-symbol" aria-roledescription="rect mark container"><path d="M0,274.2857142857143h600v137.14285714285717h-600Z" fill="lightgray" opacity="0.2"></path></g><g class="mark-symbol role-mark layer_2_marks" role="graphics-symbol" aria-roledescription="symbol mark container"><path transform="translate(12,347.3725967920786)" d="M15,0A15,15,0,1,1,-15,0A15,15,0,1,1,15,0" fill="#8ac3ff" stroke-width="2" opacity="0.7"></path><path transform="translate(24,348.3119543481442)" d="M13.618406195712005,0A13.618406195712005,13.618406195712005,0,1,1,-13.618406195712005,0A13.618406195712005,13.618406195712005,0,1,1,13.618406195712005,0" fill="#8ac3ff" stroke-width="2" opacity="0.7"></path><path transform="translate(36,292.07005487679345)" d="M7.437225454051431,0A7.437225454051431,7.437225454051431,0,1,1,-7.437225454051431,0A7.437225454051431,7.437225454051431,0,1,1,7.437225454051431,0" fill="#8ac3ff" stroke-width="2" opacity="0.7"></path><path transform="translate(48,385.1845853024386)" d="M7.301904856399518,0A7.301904856399518,7.301904856399518,0,1,1,-7.301904856399518,0A7.301904856399518,7.301904856399518,0,1,1,7.301904856399518,0" fill="#8ac3ff" stroke-width="2" opacity="0.7"></path><path transform="translate(60,354.6583004201332)" d="M7.2816792083056585,0A7.2816792083056585,7.2816792083056585,0,1,1,-7.2816792083056585,0A7.2816792083056585,7.2816792083056585,0,1,1,7.2816792083056585,0" fill="#8ac3ff" stroke-width="2" opacity="0.7"></path><path transform="translate(72,323.1265466336718)" d="M7.178718135296244,0A7.178718135296244,7.178718135296244,0,1,1,-7.178718135296244,0A7.178718135296244,7.178718135296244,0,1,1,7.178718135296244,0" fill="#8ac3ff" stroke-width="2" opacity="0.7"></path><path transform="translate(84.00000000000001,312.70353624577064)" d="M6.849300391373706,0A6.849300391373706,6.849300391373706,0,1,1,-6.849300391373706,0A6.849300391373706,6.849300391373706,0,1,1,6.849300391373706,0" fill="#8ac3ff" stroke-width="2" opacity="0.7"></path><path transform="translate(96,393.2604106697371)" d="M6.483749894049962,0A6.483749894049962,6.483749894049962,0,1,1,-6.483749894049962,0A6.483749894049962,6.483749894049962,0,1,1,6.483749894049962,0" fill="#8ac3ff" stroke-width="2" opacity="0.7"></path><path transform="translate(108,389.64912048635824)" d="M6.061661044030245,0A6.061661044030245,6.061661044030245,0,1,1,-6.061661044030245,0A6.061661044030245,6.061661044030245,0,1,1,6.061661044030245,0" fill="#8ac3ff" stroke-width="2" opacity="0.7"></path><path transform="translate(120,296.7785475822953)" d="M5.650311033190536,0A5.650311033190536,5.650311033190536,0,1,1,-5.650311033190536,0A5.650311033190536,5.650311033190536,0,1,1,5.650311033190536,0" fill="#8ac3ff" stroke-width="2" opacity="0.7"></path><path transform="translate(132,362.86395172745733)" d="M5.576496281343229,0A5.576496281343229,5.576496281343229,0,1,1,-5.576496281343229,0A5.576496281343229,5.576496281343229,0,1,1,5.576496281343229,0" fill="#8ac3ff" stroke-width="2" opacity="0.7"></path><path transform="translate(144,381.59263786401283)" d="M5.533511772904702,0A5.533511772904702,5.533511772904702,0,1,1,-5.533511772904702,0A5.533511772904702,5.533511772904702,0,1,1,5.533511772904702,0" fill="#8ac3ff" stroke-width="2" opacity="0.7"></path><path transform="translate(156,325.3642092451576)" d="M5.482510312190488,0A5.482510312190488,5.482510312190488,0,1,1,-5.482510312190488,0A5.482510312190488,5.482510312190488,0,1,1,5.482510312190488,0" fill="#8ac3ff" stroke-width="2" opacity="0.7"></path><path transform="translate(168.00000000000003,365.59606006138114)" d="M5.419379450796481,0A5.419379450796481,5.419379450796481,0,1,1,-5.419379450796481,0A5.419379450796481,5.419379450796481,0,1,1,5.419379450796481,0" fill="#8ac3ff" stroke-width="2" opacity="0.7"></path><path transform="translate(180,379.07238915272285)" d="M5.407703871122678,0A5.407703871122678,5.407703871122678,0,1,1,-5.407703871122678,0A5.407703871122678,5.407703871122678,0,1,1,5.407703871122678,0" fill="#8ac3ff" stroke-width="2" opacity="0.7"></path><path transform="translate(192,388.5769657658014)" d="M5.386884802064662,0A5.386884802064662,5.386884802064662,0,1,1,-5.386884802064662,0A5.386884802064662,5.386884802064662,0,1,1,5.386884802064662,0" fill="#8ac3ff" stroke-width="2" opacity="0.7"></path><path transform="translate(204.00000000000003,380.9305553084355)" d="M5.202514530451173,0A5.202514530451173,5.202514530451173,0,1,1,-5.202514530451173,0A5.202514530451173,5.202514530451173,0,1,1,5.202514530451173,0" fill="#8ac3ff" stroke-width="2" opacity="0.7"></path><path transform="translate(216,326.3851062557045)" d="M5.163218798075059,0A5.163218798075059,5.163218798075059,0,1,1,-5.163218798075059,0A5.163218798075059,5.163218798075059,0,1,1,5.163218798075059,0" fill="#8ac3ff" stroke-width="2" opacity="0.7"></path><path transform="translate(228,348.4036731208487)" d="M5.035133178563989,0A5.035133178563989,5.035133178563989,0,1,1,-5.035133178563989,0A5.035133178563989,5.035133178563989,0,1,1,5.035133178563989,0" fill="#8ac3ff" stroke-width="2" opacity="0.7"></path><path transform="translate(240,341.6532553035845)" d="M4.927989753686191,0A4.927989753686191,4.927989753686191,0,1,1,-4.927989753686191,0A4.927989753686191,4.927989753686191,0,1,1,4.927989753686191,0" fill="#8ac3ff" stroke-width="2" opacity="0.7"></path><path transform="translate(252,342.31529998483654)" d="M4.916575675092991,0A4.916575675092991,4.916575675092991,0,1,1,-4.916575675092991,0A4.916575675092991,4.916575675092991,0,1,1,4.916575675092991,0" fill="#8ac3ff" stroke-width="2" opacity="0.7"></path><path transform="translate(264,342.7090102802756)" d="M4.895102543595603,0A4.895102543595603,4.895102543595603,0,1,1,-4.895102543595603,0A4.895102543595603,4.895102543595603,0,1,1,4.895102543595603,0" fill="#8ac3ff" stroke-width="2" opacity="0.7"></path><path transform="translate(276,351.4918395126988)" d="M4.792157650899678,0A4.792157650899678,4.792157650899678,0,1,1,-4.792157650899678,0A4.792157650899678,4.792157650899678,0,1,1,4.792157650899678,0" fill="#8ac3ff" stroke-width="2" opacity="0.7"></path><path transform="translate(288,288.11164413432186)" d="M4.736141192400878,0A4.736141192400878,4.736141192400878,0,1,1,-4.736141192400878,0A4.736141192400878,4.736141192400878,0,1,1,4.736141192400878,0" fill="#8ac3ff" stroke-width="2" opacity="0.7"></path><path transform="translate(300,378.5555744512774)" d="M4.629662993471188,0A4.629662993471188,4.629662993471188,0,1,1,-4.629662993471188,0A4.629662993471188,4.629662993471188,0,1,1,4.629662993471188,0" fill="#8ac3ff" stroke-width="2" opacity="0.7"></path><path transform="translate(312,318.2499171362281)" d="M4.5004366095032164,0A4.5004366095032164,4.5004366095032164,0,1,1,-4.5004366095032164,0A4.5004366095032164,4.5004366095032164,0,1,1,4.5004366095032164,0" fill="#8ac3ff" stroke-width="2" opacity="0.7"></path><path transform="translate(324,307.1571544495537)" d="M4.470688861662915,0A4.470688861662915,4.470688861662915,0,1,1,-4.470688861662915,0A4.470688861662915,4.470688861662915,0,1,1,4.470688861662915,0" fill="#8ac3ff" stroke-width="2" opacity="0.7"></path><path transform="translate(336.00000000000006,281.5547405548634)" d="M4.464400920172478,0A4.464400920172478,4.464400920172478,0,1,1,-4.464400920172478,0A4.464400920172478,4.464400920172478,0,1,1,4.464400920172478,0" fill="#8ac3ff" stroke-width="2" opacity="0.7"></path><path transform="translate(348,338.3096687770299)" d="M4.447063237823012,0A4.447063237823012,4.447063237823012,0,1,1,-4.447063237823012,0A4.447063237823012,4.447063237823012,0,1,1,4.447063237823012,0" fill="#8ac3ff" stroke-width="2" opacity="0.7"></path><path transform="translate(360,342.7643202273295)" d="M4.349663870272857,0A4.349663870272857,4.349663870272857,0,1,1,-4.349663870272857,0A4.349663870272857,4.349663870272857,0,1,1,4.349663870272857,0" fill="#8ac3ff" stroke-width="2" opacity="0.7"></path><path transform="translate(372,310.36007699169056)" d="M4.33348791159697,0A4.33348791159697,4.33348791159697,0,1,1,-4.33348791159697,0A4.33348791159697,4.33348791159697,0,1,1,4.33348791159697,0" fill="#8ac3ff" stroke-width="2" opacity="0.7"></path><path transform="translate(384,344.33065832470686)" d="M4.310739594755998,0A4.310739594755998,4.310739594755998,0,1,1,-4.310739594755998,0A4.310739594755998,4.310739594755998,0,1,1,4.310739594755998,0" fill="#8ac3ff" stroke-width="2" opacity="0.7"></path><path transform="translate(396,350.58663557797547)" d="M4.30095348395645,0A4.30095348395645,4.30095348395645,0,1,1,-4.30095348395645,0A4.30095348395645,4.30095348395645,0,1,1,4.30095348395645,0" fill="#8ac3ff" stroke-width="2" opacity="0.7"></path><path transform="translate(408.00000000000006,348.61967125085766)" d="M4.2201842589627825,0A4.2201842589627825,4.2201842589627825,0,1,1,-4.2201842589627825,0A4.2201842589627825,4.2201842589627825,0,1,1,4.2201842589627825,0" fill="#8ac3ff" stroke-width="2" opacity="0.7"></path><path transform="translate(420,327.2527700236521)" d="M4.163219540768579,0A4.163219540768579,4.163219540768579,0,1,1,-4.163219540768579,0A4.163219540768579,4.163219540768579,0,1,1,4.163219540768579,0" fill="#8ac3ff" stroke-width="2" opacity="0.7"></path><path transform="translate(432,387.25663950642564)" d="M4.062473747444712,0A4.062473747444712,4.062473747444712,0,1,1,-4.062473747444712,0A4.062473747444712,4.062473747444712,0,1,1,4.062473747444712,0" fill="#8ac3ff" stroke-width="2" opacity="0.7"></path><path transform="translate(444,330.67771376788136)" d="M4.013777484659252,0A4.013777484659252,4.013777484659252,0,1,1,-4.013777484659252,0A4.013777484659252,4.013777484659252,0,1,1,4.013777484659252,0" fill="#8ac3ff" stroke-width="2" opacity="0.7"></path><path transform="translate(456,384.786251516066)" d="M3.9768639978150633,0A3.9768639978150633,3.9768639978150633,0,1,1,-3.9768639978150633,0A3.9768639978150633,3.9768639978150633,0,1,1,3.9768639978150633,0" fill="#8ac3ff" stroke-width="2" opacity="0.7"></path><path transform="translate(468,295.7865961786226)" d="M3.9485078156282847,0A3.9485078156282847,3.9485078156282847,0,1,1,-3.9485078156282847,0A3.9485078156282847,3.9485078156282847,0,1,1,3.9485078156282847,0" fill="#8ac3ff" stroke-width="2" opacity="0.7"></path><path transform="translate(480,340.77198381108474)" d="M3.9449489615453395,0A3.9449489615453395,3.9449489615453395,0,1,1,-3.9449489615453395,0A3.9449489615453395,3.9449489615453395,0,1,1,3.9449489615453395,0" fill="#8ac3ff" stroke-width="2" opacity="0.7"></path><path transform="translate(491.99999999999994,395.359257149761)" d="M3.919946515328709,0A3.919946515328709,3.919946515328709,0,1,1,-3.919946515328709,0A3.919946515328709,3.919946515328709,0,1,1,3.919946515328709,0" fill="#8ac3ff" stroke-width="2" opacity="0.7"></path><path transform="translate(504,373.655648620539)" d="M3.919946515328709,0A3.919946515328709,3.919946515328709,0,1,1,-3.919946515328709,0A3.919946515328709,3.919946515328709,0,1,1,3.919946515328709,0" fill="#8ac3ff" stroke-width="2" opacity="0.7"></path><path transform="translate(516,368.73989848173966)" d="M3.876710042352632,0A3.876710042352632,3.876710042352632,0,1,1,-3.876710042352632,0A3.876710042352632,3.876710042352632,0,1,1,3.876710042352632,0" fill="#8ac3ff" stroke-width="2" opacity="0.7"></path><path transform="translate(528,366.6868118509256)" d="M3.8274852489066262,0A3.8274852489066262,3.8274852489066262,0,1,1,-3.8274852489066262,0A3.8274852489066262,3.8274852489066262,0,1,1,3.8274852489066262,0" fill="#8ac3ff" stroke-width="2" opacity="0.7"></path><path transform="translate(540,318.2271468144044)" d="M3.8072482445669134,0A3.8072482445669134,3.8072482445669134,0,1,1,-3.8072482445669134,0A3.8072482445669134,3.8072482445669134,0,1,1,3.8072482445669134,0" fill="#8ac3ff" stroke-width="2" opacity="0.7"></path><path transform="translate(552,375.3867642273842)" d="M3.792462597341978,0A3.792462597341978,3.792462597341978,0,1,1,-3.792462597341978,0A3.792462597341978,3.792462597341978,0,1,1,3.792462597341978,0" fill="#8ac3ff" stroke-width="2" opacity="0.7"></path><path transform="translate(564,327.6139797411581)" d="M3.7794777071915484,0A3.7794777071915484,3.7794777071915484,0,1,1,-3.7794777071915484,0A3.7794777071915484,3.7794777071915484,0,1,1,3.7794777071915484,0" fill="#8ac3ff" stroke-width="2" opacity="0.7"></path><path transform="translate(576,383.8995493231608)" d="M3.7664480516898013,0A3.7664480516898013,3.7664480516898013,0,1,1,-3.7664480516898013,0A3.7664480516898013,3.7664480516898013,0,1,1,3.7664480516898013,0" fill="#8ac3ff" stroke-width="2" opacity="0.7"></path><path transform="translate(588,363.17777877015135)" d="M3.7195409884927955,0A3.7195409884927955,3.7195409884927955,0,1,1,-3.7195409884927955,0A3.7195409884927955,3.7195409884927955,0,1,1,3.7195409884927955,0" fill="#8ac3ff" stroke-width="2" opacity="0.7"></path><path transform="translate(600,377.5884645870205)" d="M3.7138723286830917,0A3.7138723286830917,3.7138723286830917,0,1,1,-3.7138723286830917,0A3.7138723286830917,3.7138723286830917,0,1,1,3.7138723286830917,0" fill="#8ac3ff" stroke-width="2" opacity="0.7"></path></g><g class="mark-symbol role-mark layer_3_marks" role="graphics-symbol" aria-roledescription="symbol mark container"><path transform="translate(12,348.8020154718233)" d="M9.261626675630207,0A9.261626675630207,9.261626675630207,0,1,1,-9.261626675630207,0A9.261626675630207,9.261626675630207,0,1,1,9.261626675630207,0" fill="#ffd113" stroke-width="2" opacity="0.7"></path><path transform="translate(24,74.73197031455528)" d="M7.448548343111594,0A7.448548343111594,7.448548343111594,0,1,1,-7.448548343111594,0A7.448548343111594,7.448548343111594,0,1,1,7.448548343111594,0" fill="#ffd113" stroke-width="2" opacity="0.7"></path><path transform="translate(36,86.65178067817793)" d="M5.516988013867257,0A5.516988013867257,5.516988013867257,0,1,1,-5.516988013867257,0A5.516988013867257,5.516988013867257,0,1,1,5.516988013867257,0" fill="#ffd113" stroke-width="2" opacity="0.7"></path><path transform="translate(48,211.8043479036511)" d="M5.428443095842044,0A5.428443095842044,5.428443095842044,0,1,1,-5.428443095842044,0A5.428443095842044,5.428443095842044,0,1,1,5.428443095842044,0" fill="#ffd113" stroke-width="2" opacity="0.7"></path><path transform="translate(60,352.21615010736514)" d="M4.926564440053138,0A4.926564440053138,4.926564440053138,0,1,1,-4.926564440053138,0A4.926564440053138,4.926564440053138,0,1,1,4.926564440053138,0" fill="#ffd113" stroke-width="2" opacity="0.7"></path><path transform="translate(72,284.38759177866416)" d="M4.850423504053664,0A4.850423504053664,4.850423504053664,0,1,1,-4.850423504053664,0A4.850423504053664,4.850423504053664,0,1,1,4.850423504053664,0" fill="#ffd113" stroke-width="2" opacity="0.7"></path><path transform="translate(84.00000000000001,319.44217754425165)" d="M4.691445244395004,0A4.691445244395004,4.691445244395004,0,1,1,-4.691445244395004,0A4.691445244395004,4.691445244395004,0,1,1,4.691445244395004,0" fill="#ffd113" stroke-width="2" opacity="0.7"></path><path transform="translate(96,238.76499321194137)" d="M4.670440755966885,0A4.670440755966885,4.670440755966885,0,1,1,-4.670440755966885,0A4.670440755966885,4.670440755966885,0,1,1,4.670440755966885,0" fill="#ffd113" stroke-width="2" opacity="0.7"></path><path transform="translate(108,213.87765633927418)" d="M4.600750879449641,0A4.600750879449641,4.600750879449641,0,1,1,-4.600750879449641,0A4.600750879449641,4.600750879449641,0,1,1,4.600750879449641,0" fill="#ffd113" stroke-width="2" opacity="0.7"></path><path transform="translate(120,394.42721977222186)" d="M4.588522857220683,0A4.588522857220683,4.588522857220683,0,1,1,-4.588522857220683,0A4.588522857220683,4.588522857220683,0,1,1,4.588522857220683,0" fill="#ffd113" stroke-width="2" opacity="0.7"></path><path transform="translate(132,320.43563845954327)" d="M4.577796543988896,0A4.577796543988896,4.577796543988896,0,1,1,-4.577796543988896,0A4.577796543988896,4.577796543988896,0,1,1,4.577796543988896,0" fill="#ffd113" stroke-width="2" opacity="0.7"></path><path transform="translate(144,353.10230822525557)" d="M4.5284384310793895,0A4.5284384310793895,4.5284384310793895,0,1,1,-4.5284384310793895,0A4.5284384310793895,4.5284384310793895,0,1,1,4.5284384310793895,0" fill="#ffd113" stroke-width="2" opacity="0.7"></path><path transform="translate(156,288.82792005779834)" d="M4.4058120533855005,0A4.4058120533855005,4.4058120533855005,0,1,1,-4.4058120533855005,0A4.4058120533855005,4.4058120533855005,0,1,1,4.4058120533855005,0" fill="#ffd113" stroke-width="2" opacity="0.7"></path><path transform="translate(168.00000000000003,383.5697163859951)" d="M4.4058120533855005,0A4.4058120533855005,4.4058120533855005,0,1,1,-4.4058120533855005,0A4.4058120533855005,4.4058120533855005,0,1,1,4.4058120533855005,0" fill="#ffd113" stroke-width="2" opacity="0.7"></path><path transform="translate(180,386.8038201700487)" d="M4.386642210675153,0A4.386642210675153,4.386642210675153,0,1,1,-4.386642210675153,0A4.386642210675153,4.386642210675153,0,1,1,4.386642210675153,0" fill="#ffd113" stroke-width="2" opacity="0.7"></path><path transform="translate(192,242.71242569585112)" d="M4.3042179930897,0A4.3042179930897,4.3042179930897,0,1,1,-4.3042179930897,0A4.3042179930897,4.3042179930897,0,1,1,4.3042179930897,0" fill="#ffd113" stroke-width="2" opacity="0.7"></path><path transform="translate(204.00000000000003,329.6897650412715)" d="M4.233476328399301,0A4.233476328399301,4.233476328399301,0,1,1,-4.233476328399301,0A4.233476328399301,4.233476328399301,0,1,1,4.233476328399301,0" fill="#ffd113" stroke-width="2" opacity="0.7"></path><path transform="translate(216,381.9593717081757)" d="M4.200167284087299,0A4.200167284087299,4.200167284087299,0,1,1,-4.200167284087299,0A4.200167284087299,4.200167284087299,0,1,1,4.200167284087299,0" fill="#ffd113" stroke-width="2" opacity="0.7"></path><path transform="translate(228,344.3138104002021)" d="M3.9556159181393786,0A3.9556159181393786,3.9556159181393786,0,1,1,-3.9556159181393786,0A3.9556159181393786,3.9556159181393786,0,1,1,3.9556159181393786,0" fill="#ffd113" stroke-width="2" opacity="0.7"></path><path transform="translate(240,350.9165244313897)" d="M3.9037889554992224,0A3.9037889554992224,3.9037889554992224,0,1,1,-3.9037889554992224,0A3.9037889554992224,3.9037889554992224,0,1,1,3.9037889554992224,0" fill="#ffd113" stroke-width="2" opacity="0.7"></path><path transform="translate(252,311.06501675496565)" d="M3.81461957703751,0A3.81461957703751,3.81461957703751,0,1,1,-3.81461957703751,0A3.81461957703751,3.81461957703751,0,1,1,3.81461957703751,0" fill="#ffd113" stroke-width="2" opacity="0.7"></path><path transform="translate(264,361.7534603013986)" d="M3.602525434780179,0A3.602525434780179,3.602525434780179,0,1,1,-3.602525434780179,0A3.602525434780179,3.602525434780179,0,1,1,3.602525434780179,0" fill="#ffd113" stroke-width="2" opacity="0.7"></path><path transform="translate(276,312.6652782605753)" d="M3.5356231803287805,0A3.5356231803287805,3.5356231803287805,0,1,1,-3.5356231803287805,0A3.5356231803287805,3.5356231803287805,0,1,1,3.5356231803287805,0" fill="#ffd113" stroke-width="2" opacity="0.7"></path><path transform="translate(288,324.65126840439405)" d="M3.5117063242814357,0A3.5117063242814357,3.5117063242814357,0,1,1,-3.5117063242814357,0A3.5117063242814357,3.5117063242814357,0,1,1,3.5117063242814357,0" fill="#ffd113" stroke-width="2" opacity="0.7"></path><path transform="translate(300,263.4617922825018)" d="M3.4266830068622247,0A3.4266830068622247,3.4266830068622247,0,1,1,-3.4266830068622247,0A3.4266830068622247,3.4266830068622247,0,1,1,3.4266830068622247,0" fill="#ffd113" stroke-width="2" opacity="0.7"></path><path transform="translate(312,359.0401588414329)" d="M3.391662912501533,0A3.391662912501533,3.391662912501533,0,1,1,-3.391662912501533,0A3.391662912501533,3.391662912501533,0,1,1,3.391662912501533,0" fill="#ffd113" stroke-width="2" opacity="0.7"></path><path transform="translate(324,340.4712893445929)" d="M3.370892909547618,0A3.370892909547618,3.370892909547618,0,1,1,-3.370892909547618,0A3.370892909547618,3.370892909547618,0,1,1,3.370892909547618,0" fill="#ffd113" stroke-width="2" opacity="0.7"></path><path transform="translate(336.00000000000006,361.3381441198559)" d="M3.3310731347838125,0A3.3310731347838125,3.3310731347838125,0,1,1,-3.3310731347838125,0A3.3310731347838125,3.3310731347838125,0,1,1,3.3310731347838125,0" fill="#ffd113" stroke-width="2" opacity="0.7"></path><path transform="translate(348,375.9146073987425)" d="M3.3226292160754958,0A3.3226292160754958,3.3226292160754958,0,1,1,-3.3226292160754958,0A3.3226292160754958,3.3226292160754958,0,1,1,3.3226292160754958,0" fill="#ffd113" stroke-width="2" opacity="0.7"></path><path transform="translate(360,388.27896370431364)" d="M3.2992970118918503,0A3.2992970118918503,3.2992970118918503,0,1,1,-3.2992970118918503,0A3.2992970118918503,3.2992970118918503,0,1,1,3.2992970118918503,0" fill="#ffd113" stroke-width="2" opacity="0.7"></path><path transform="translate(372,339.8849608996316)" d="M3.290771558604228,0A3.290771558604228,3.290771558604228,0,1,1,-3.290771558604228,0A3.290771558604228,3.290771558604228,0,1,1,3.290771558604228,0" fill="#ffd113" stroke-width="2" opacity="0.7"></path><path transform="translate(384,352.1247736096726)" d="M3.284362945777843,0A3.284362945777843,3.284362945777843,0,1,1,-3.284362945777843,0A3.284362945777843,3.284362945777843,0,1,1,3.284362945777843,0" fill="#ffd113" stroke-width="2" opacity="0.7"></path><path transform="translate(396,378.47432110134463)" d="M3.2672118566261554,0A3.2672118566261554,3.2672118566261554,0,1,1,-3.2672118566261554,0A3.2672118566261554,3.2672118566261554,0,1,1,3.2672118566261554,0" fill="#ffd113" stroke-width="2" opacity="0.7"></path><path transform="translate(408.00000000000006,364.0264361972547)" d="M3.2672118566261554,0A3.2672118566261554,3.2672118566261554,0,1,1,-3.2672118566261554,0A3.2672118566261554,3.2672118566261554,0,1,1,3.2672118566261554,0" fill="#ffd113" stroke-width="2" opacity="0.7"></path><path transform="translate(420,375.6404737747464)" d="M3.258602460306955,0A3.258602460306955,3.258602460306955,0,1,1,-3.258602460306955,0A3.258602460306955,3.258602460306955,0,1,1,3.258602460306955,0" fill="#ffd113" stroke-width="2" opacity="0.7"></path><path transform="translate(432,348.04988358059757)" d="M3.252130456023951,0A3.252130456023951,3.252130456023951,0,1,1,-3.252130456023951,0A3.252130456023951,3.252130456023951,0,1,1,3.252130456023951,0" fill="#ffd113" stroke-width="2" opacity="0.7"></path><path transform="translate(444,356.96259323175974)" d="M3.199883212312382,0A3.199883212312382,3.199883212312382,0,1,1,-3.199883212312382,0A3.199883212312382,3.199883212312382,0,1,1,3.199883212312382,0" fill="#ffd113" stroke-width="2" opacity="0.7"></path><path transform="translate(456,315.6177185222105)" d="M3.1800691971211306,0A3.1800691971211306,3.1800691971211306,0,1,1,-3.1800691971211306,0A3.1800691971211306,3.1800691971211306,0,1,1,3.1800691971211306,0" fill="#ffd113" stroke-width="2" opacity="0.7"></path><path transform="translate(468,339.6654200667878)" d="M3.153456854500892,0A3.153456854500892,3.153456854500892,0,1,1,-3.153456854500892,0A3.153456854500892,3.153456854500892,0,1,1,3.153456854500892,0" fill="#ffd113" stroke-width="2" opacity="0.7"></path><path transform="translate(480,300.35108488559223)" d="M3.0607860240726996,0A3.0607860240726996,3.0607860240726996,0,1,1,-3.0607860240726996,0A3.0607860240726996,3.0607860240726996,0,1,1,3.0607860240726996,0" fill="#ffd113" stroke-width="2" opacity="0.7"></path><path transform="translate(491.99999999999994,382.0039501757206)" d="M3.0515942986247,0A3.0515942986247,3.0515942986247,0,1,1,-3.0515942986247,0A3.0515942986247,3.0515942986247,0,1,1,3.0515942986247,0" fill="#ffd113" stroke-width="2" opacity="0.7"></path><path transform="translate(504,354.0992505010272)" d="M3.0423748029522573,0A3.0423748029522573,3.0423748029522573,0,1,1,-3.0423748029522573,0A3.0423748029522573,3.0423748029522573,0,1,1,3.0423748029522573,0" fill="#ffd113" stroke-width="2" opacity="0.7"></path><path transform="translate(516,405.63134222204417)" d="M3.0284929352730545,0A3.0284929352730545,3.0284929352730545,0,1,1,-3.0284929352730545,0A3.0284929352730545,3.0284929352730545,0,1,1,3.0284929352730545,0" fill="#ffd113" stroke-width="2" opacity="0.7"></path><path transform="translate(528,372.96518026401463)" d="M3.021528084873415,0A3.021528084873415,3.021528084873415,0,1,1,-3.021528084873415,0A3.021528084873415,3.021528084873415,0,1,1,3.021528084873415,0" fill="#ffd113" stroke-width="2" opacity="0.7"></path><path transform="translate(540,367.38295858640623)" d="M3.019202897660045,0A3.019202897660045,3.019202897660045,0,1,1,-3.019202897660045,0A3.019202897660045,3.019202897660045,0,1,1,3.019202897660045,0" fill="#ffd113" stroke-width="2" opacity="0.7"></path><path transform="translate(552,298.4816655414006)" d="M2.950975610620814,0A2.950975610620814,2.950975610620814,0,1,1,-2.950975610620814,0A2.950975610620814,2.950975610620814,0,1,1,2.950975610620814,0" fill="#ffd113" stroke-width="2" opacity="0.7"></path><path transform="translate(564,391.1844715666513)" d="M2.9366617224050335,0A2.9366617224050335,2.9366617224050335,0,1,1,-2.9366617224050335,0A2.9366617224050335,2.9366617224050335,0,1,1,2.9366617224050335,0" fill="#ffd113" stroke-width="2" opacity="0.7"></path><path transform="translate(576,376.3110070257611)" d="M2.907822571368296,0A2.907822571368296,2.907822571368296,0,1,1,-2.907822571368296,0A2.907822571368296,2.907822571368296,0,1,1,2.907822571368296,0" fill="#ffd113" stroke-width="2" opacity="0.7"></path><path transform="translate(588,323.96885503978217)" d="M2.8195358147608305,0A2.8195358147608305,2.8195358147608305,0,1,1,-2.8195358147608305,0A2.8195358147608305,2.8195358147608305,0,1,1,2.8195358147608305,0" fill="#ffd113" stroke-width="2" opacity="0.7"></path><path transform="translate(600,344.68242768654227)" d="M2.766734496022174,0A2.766734496022174,2.766734496022174,0,1,1,-2.766734496022174,0A2.766734496022174,2.766734496022174,0,1,1,2.766734496022174,0" fill="#ffd113" stroke-width="2" opacity="0.7"></path></g><g class="mark-text role-mark layer_4_marks" role="graphics-object" aria-roledescription="text mark container"><text text-anchor="middle" transform="translate(10,41.28571428571427)" font-family="calibri" font-size="22px" fill="black" opacity="0.8">all net</text></g><g class="mark-text role-mark layer_5_marks" role="graphics-object" aria-roledescription="text mark container"><text text-anchor="middle" transform="translate(99,41.28571428571427)" font-family="calibri" font-size="22px" font-weight="bold" fill="#ffd113">in-migration</text></g><g class="mark-text role-mark layer_6_marks" role="graphics-object" aria-roledescription="text mark container"><text text-anchor="middle" transform="translate(199.00000000000003,41.28571428571427)" font-family="calibri" font-size="22px" fill="black" opacity="0.8">counties</text></g><g class="mark-group role-title"><g transform="translate(-20,-38)"><path class="background" aria-hidden="true" d="M0,0h0v0h0Z" pointer-events="none"></path><g><g class="mark-text role-title-text" role="graphics-symbol" aria-roledescription="title" aria-label="Title text 'Ratio of Home Value to Annual Income'" pointer-events="none"><text text-anchor="start" transform="translate(0,24)" font-family="Calibri" font-size="30px" font-weight="normal" fill="#000" opacity="1">Ratio of Home Value to Annual Income</text></g></g><path class="foreground" aria-hidden="true" d="" pointer-events="none" display="none"></path></g></g></g><path class="foreground" aria-hidden="true" d="" display="none"></path></g></g></g></svg>