<svg class="marks" width="682" height="615" viewBox="0 0 682 615" version="1.1" xmlns="http://www.w3.org/2000/svg" xmlns:xlink="http://www.w3.org/1999/xlink"><rect width="682" height="615" fill="white"></rect><g fill="none" stroke-miterlimit="10" transform="translate(65,44)"><g class="mark-group role-frame root" role="graphics-object" aria-roledescription="group mark container"><g transform="translate(0,0)"><path class="background" aria-hidden="true" d="M0.5,0.5h600v500h-600Z" stroke="#ddd" stroke-opacity="0"></path><g><g class="mark-group role-axis" role="graphics-symbol" aria-roledescription="axis" aria-label="Y-axis for a linear scale with values from 400 to 2,000"><g transform="translate(0.5,0.5)"><path class="background" aria-hidden="true" d="M0,0h0v0h0Z" pointer-events="none"></path><g><g class="mark-rule role-axis-grid" pointer-events="none"><line transform="translate(0,375)" x2="600" y2="0" stroke="#ddd" stroke-opacity="1" stroke-width="1" opacity="1"></line><line transform="translate(0,250)" x2="600" y2="0" stroke="#ddd" stroke-opacity="1" stroke-width="1" opacity="1"></line><line transform="translate(0,125)" x2="600" y2="0" stroke="#ddd" stroke-opacity="1" stroke-width="1" opacity="1"></line></g></g><path class="foreground" aria-hidden="true" d="" pointer-events="none" display="none"></path></g></g><g class="mark-group role-axis" role="graphics-symbol" aria-roledescription="axis" aria-label="X-axis titled 'Top 50 Rank' for a linear scale with values from 0 to 50"><g transform="translate(0.5,500.5)"><path class="background" aria-hidden="true" d="M0,0h0v0h0Z" pointer-events="none"></path><g><g class="mark-text role-axis-label" pointer-events="none"><text text-anchor="middle" transform="translate(12,27)" font-family="Calibri" font-size="22px" fill="#000" fill-opacity="0.8" opacity="1">1</text><text text-anchor="middle" transform="translate(120,27)" font-family="Calibri" font-size="22px" fill="#000" fill-opacity="0.8" opacity="1">10</text><text text-anchor="middle" transform="translate(240,27)" font-family="Calibri" font-size="22px" fill="#000" fill-opacity="0.8" opacity="1">20</text><text text-anchor="middle" transform="translate(360,27)" font-family="Calibri" font-size="22px" fill="#000" fill-opacity="0.8" opacity="1">30</text><text text-anchor="middle" transform="translate(480,27)" font-family="Calibri" font-size="22px" fill="#000" fill-opacity="0.8" opacity="1">40</text><text text-anchor="middle" transform="translate(600,27)" font-family="Calibri" font-size="22px" fill="#000" fill-opacity="0.8" opacity="1">50</text></g><g class="mark-rule role-axis-domain" pointer-events="none"><line transform="translate(0,0)" x2="600" y2="0" stroke="#888" stroke-width="1" opacity="1"></line></g><g class="mark-text role-axis-title" pointer-events="none"><text text-anchor="middle" transform="translate(300,62)" font-family="Calibri" font-size="22px" font-weight="normal" fill="#000" fill-opacity="0.8" opacity="1">Top 50 Rank</text></g></g><path class="foreground" aria-hidden="true" d="" pointer-events="none" display="none"></path></g></g><g class="mark-group role-axis" role="graphics-symbol" aria-roledescription="axis" aria-label="Y-axis titled 'Median rents are lower in the top 50 net' for a linear scale with values from $400 to $2000"><g transform="translate(0.5,0.5)"><path class="background" aria-hidden="true" d="M0,0h0v0h0Z" pointer-events="none"></path><g><g class="mark-text role-axis-label" pointer-events="none"><text text-anchor="start" transform="translate(-60,382)" font-family="Calibri" font-size="22px" fill="#000" fill-opacity="0.8" opacity="1">$800</text><text text-anchor="start" transform="translate(-60,257)" font-family="Calibri" font-size="22px" fill="#000" fill-opacity="0.8" opacity="1">$1200</text><text text-anchor="start" transform="translate(-60,132)" font-family="Calibri" font-size="22px" fill="#000" fill-opacity="0.8" opacity="1">$1600</text></g><g class="mark-rule role-axis-domain" pointer-events="none"><line transform="translate(0,500)" x2="0" y2="-500" stroke="#888" stroke-width="0" opacity="1"></line></g><g class="mark-text role-axis-title" pointer-events="none"><text text-anchor="start" transform="translate(-60,15)" font-family="Calibri" font-size="22px" font-weight="normal" fill="#000" fill-opacity="0.8" opacity="1">Median rents are lower in the top 50 net</text></g></g><path class="foreground" aria-hidden="true" d="" pointer-events="none" display="none"></path></g></g><g class="mark-text role-mark layer_0_marks" role="graphics-object" aria-roledescription="text mark container"><text text-anchor="middle" transform="translate(43,38.25)" font-family="calibri" font-size="22px" fill="black" opacity="0.9">many of the top 50 net</text></g><g class="mark-rule role-mark layer_1_marks" role="graphics-symbol" aria-roledescription="rule mark container"><line transform="translate(0,250)" x2="600" y2="0" stroke="gray" opacity="0.4"></line></g><g class="mark-rect role-mark layer_2_marks" role="graphics-symbol" aria-roledescription="rect mark container"><path d="M0,250h600v125h-600Z" fill="lightgray" opacity="0.2"></path></g><g class="mark-symbol role-mark layer_3_marks" role="graphics-symbol" aria-roledescription="symbol mark container"><path transform="translate(12,297.5)" d="M15,0A15,15,0,1,1,-15,0A15,15,0,1,1,15,0" fill="#8ac3ff" stroke-width="2" opacity="0.7"></path><path transform="translate(24,302.1875)" d="M13.618406195712005,0A13.618406195712005,13.618406195712005,0,1,1,-13.618406195712005,0A13.618406195712005,13.618406195712005,0,1,1,13.618406195712005,0" fill="#8ac3ff" stroke-width="2" opacity="0.7"></path><path transform="translate(36,283.12499999999994)" d="M7.437225454051431,0A7.437225454051431,7.437225454051431,0,1,1,-7.437225454051431,0A7.437225454051431,7.437225454051431,0,1,1,7.437225454051431,0" fill="#8ac3ff" stroke-width="2" opacity="0.7"></path><path transform="translate(48,317.5)" d="M7.301904856399518,0A7.301904856399518,7.301904856399518,0,1,1,-7.301904856399518,0A7.301904856399518,7.301904856399518,0,1,1,7.301904856399518,0" fill="#8ac3ff" stroke-width="2" opacity="0.7"></path><path transform="translate(60,340.625)" d="M7.2816792083056585,0A7.2816792083056585,7.2816792083056585,0,1,1,-7.2816792083056585,0A7.2816792083056585,7.2816792083056585,0,1,1,7.2816792083056585,0" fill="#8ac3ff" stroke-width="2" opacity="0.7"></path><path transform="translate(72,329.06250000000006)" d="M7.178718135296244,0A7.178718135296244,7.178718135296244,0,1,1,-7.178718135296244,0A7.178718135296244,7.178718135296244,0,1,1,7.178718135296244,0" fill="#8ac3ff" stroke-width="2" opacity="0.7"></path><path transform="translate(84.00000000000001,337.1875)" d="M6.849300391373706,0A6.849300391373706,6.849300391373706,0,1,1,-6.849300391373706,0A6.849300391373706,6.849300391373706,0,1,1,6.849300391373706,0" fill="#8ac3ff" stroke-width="2" opacity="0.7"></path><path transform="translate(96,316.56249999999994)" d="M6.483749894049962,0A6.483749894049962,6.483749894049962,0,1,1,-6.483749894049962,0A6.483749894049962,6.483749894049962,0,1,1,6.483749894049962,0" fill="#8ac3ff" stroke-width="2" opacity="0.7"></path><path transform="translate(108,330.625)" d="M6.061661044030245,0A6.061661044030245,6.061661044030245,0,1,1,-6.061661044030245,0A6.061661044030245,6.061661044030245,0,1,1,6.061661044030245,0" fill="#8ac3ff" stroke-width="2" opacity="0.7"></path><path transform="translate(120,194.06250000000003)" d="M5.650311033190536,0A5.650311033190536,5.650311033190536,0,1,1,-5.650311033190536,0A5.650311033190536,5.650311033190536,0,1,1,5.650311033190536,0" fill="#8ac3ff" stroke-width="2" opacity="0.7"></path><path transform="translate(132,355.9375)" d="M5.576496281343229,0A5.576496281343229,5.576496281343229,0,1,1,-5.576496281343229,0A5.576496281343229,5.576496281343229,0,1,1,5.576496281343229,0" fill="#8ac3ff" stroke-width="2" opacity="0.7"></path><path transform="translate(144,258.75000000000006)" d="M5.533511772904702,0A5.533511772904702,5.533511772904702,0,1,1,-5.533511772904702,0A5.533511772904702,5.533511772904702,0,1,1,5.533511772904702,0" fill="#8ac3ff" stroke-width="2" opacity="0.7"></path><path transform="translate(156,287.8125)" d="M5.482510312190488,0A5.482510312190488,5.482510312190488,0,1,1,-5.482510312190488,0A5.482510312190488,5.482510312190488,0,1,1,5.482510312190488,0" fill="#8ac3ff" stroke-width="2" opacity="0.7"></path><path transform="translate(168.00000000000003,379.375)" d="M5.419379450796481,0A5.419379450796481,5.419379450796481,0,1,1,-5.419379450796481,0A5.419379450796481,5.419379450796481,0,1,1,5.419379450796481,0" fill="#8ac3ff" stroke-width="2" opacity="0.7"></path><path transform="translate(180,242.1875)" d="M5.407703871122678,0A5.407703871122678,5.407703871122678,0,1,1,-5.407703871122678,0A5.407703871122678,5.407703871122678,0,1,1,5.407703871122678,0" fill="#8ac3ff" stroke-width="2" opacity="0.7"></path><path transform="translate(192,320)" d="M5.386884802064662,0A5.386884802064662,5.386884802064662,0,1,1,-5.386884802064662,0A5.386884802064662,5.386884802064662,0,1,1,5.386884802064662,0" fill="#8ac3ff" stroke-width="2" opacity="0.7"></path><path transform="translate(204.00000000000003,278.4375)" d="M5.202514530451173,0A5.202514530451173,5.202514530451173,0,1,1,-5.202514530451173,0A5.202514530451173,5.202514530451173,0,1,1,5.202514530451173,0" fill="#8ac3ff" stroke-width="2" opacity="0.7"></path><path transform="translate(216,255.3125)" d="M5.163218798075059,0A5.163218798075059,5.163218798075059,0,1,1,-5.163218798075059,0A5.163218798075059,5.163218798075059,0,1,1,5.163218798075059,0" fill="#8ac3ff" stroke-width="2" opacity="0.7"></path><path transform="translate(228,307.8125)" d="M5.035133178563989,0A5.035133178563989,5.035133178563989,0,1,1,-5.035133178563989,0A5.035133178563989,5.035133178563989,0,1,1,5.035133178563989,0" fill="#8ac3ff" stroke-width="2" opacity="0.7"></path><path transform="translate(240,258.75000000000006)" d="M4.927989753686191,0A4.927989753686191,4.927989753686191,0,1,1,-4.927989753686191,0A4.927989753686191,4.927989753686191,0,1,1,4.927989753686191,0" fill="#8ac3ff" stroke-width="2" opacity="0.7"></path><path transform="translate(252,283.12499999999994)" d="M4.916575675092991,0A4.916575675092991,4.916575675092991,0,1,1,-4.916575675092991,0A4.916575675092991,4.916575675092991,0,1,1,4.916575675092991,0" fill="#8ac3ff" stroke-width="2" opacity="0.7"></path><path transform="translate(264,276.25)" d="M4.895102543595603,0A4.895102543595603,4.895102543595603,0,1,1,-4.895102543595603,0A4.895102543595603,4.895102543595603,0,1,1,4.895102543595603,0" fill="#8ac3ff" stroke-width="2" opacity="0.7"></path><path transform="translate(276,361.875)" d="M4.792157650899678,0A4.792157650899678,4.792157650899678,0,1,1,-4.792157650899678,0A4.792157650899678,4.792157650899678,0,1,1,4.792157650899678,0" fill="#8ac3ff" stroke-width="2" opacity="0.7"></path><path transform="translate(288,208.125)" d="M4.736141192400878,0A4.736141192400878,4.736141192400878,0,1,1,-4.736141192400878,0A4.736141192400878,4.736141192400878,0,1,1,4.736141192400878,0" fill="#8ac3ff" stroke-width="2" opacity="0.7"></path><path transform="translate(300,336.87500000000006)" d="M4.629662993471188,0A4.629662993471188,4.629662993471188,0,1,1,-4.629662993471188,0A4.629662993471188,4.629662993471188,0,1,1,4.629662993471188,0" fill="#8ac3ff" stroke-width="2" opacity="0.7"></path><path transform="translate(312,267.1875)" d="M4.5004366095032164,0A4.5004366095032164,4.5004366095032164,0,1,1,-4.5004366095032164,0A4.5004366095032164,4.5004366095032164,0,1,1,4.5004366095032164,0" fill="#8ac3ff" stroke-width="2" opacity="0.7"></path><path transform="translate(324,293.4375)" d="M4.470688861662915,0A4.470688861662915,4.470688861662915,0,1,1,-4.470688861662915,0A4.470688861662915,4.470688861662915,0,1,1,4.470688861662915,0" fill="#8ac3ff" stroke-width="2" opacity="0.7"></path><path transform="translate(336.00000000000006,360.31250000000006)" d="M4.464400920172478,0A4.464400920172478,4.464400920172478,0,1,1,-4.464400920172478,0A4.464400920172478,4.464400920172478,0,1,1,4.464400920172478,0" fill="#8ac3ff" stroke-width="2" opacity="0.7"></path><path transform="translate(348,311.56249999999994)" d="M4.447063237823012,0A4.447063237823012,4.447063237823012,0,1,1,-4.447063237823012,0A4.447063237823012,4.447063237823012,0,1,1,4.447063237823012,0" fill="#8ac3ff" stroke-width="2" opacity="0.7"></path><path transform="translate(360,343.125)" d="M4.349663870272857,0A4.349663870272857,4.349663870272857,0,1,1,-4.349663870272857,0A4.349663870272857,4.349663870272857,0,1,1,4.349663870272857,0" fill="#8ac3ff" stroke-width="2" opacity="0.7"></path><path transform="translate(372,334.06250000000006)" d="M4.33348791159697,0A4.33348791159697,4.33348791159697,0,1,1,-4.33348791159697,0A4.33348791159697,4.33348791159697,0,1,1,4.33348791159697,0" fill="#8ac3ff" stroke-width="2" opacity="0.7"></path><path transform="translate(384,383.75)" d="M4.310739594755998,0A4.310739594755998,4.310739594755998,0,1,1,-4.310739594755998,0A4.310739594755998,4.310739594755998,0,1,1,4.310739594755998,0" fill="#8ac3ff" stroke-width="2" opacity="0.7"></path><path transform="translate(396,258.75000000000006)" d="M4.30095348395645,0A4.30095348395645,4.30095348395645,0,1,1,-4.30095348395645,0A4.30095348395645,4.30095348395645,0,1,1,4.30095348395645,0" fill="#8ac3ff" stroke-width="2" opacity="0.7"></path><path transform="translate(408.00000000000006,326.875)" d="M4.2201842589627825,0A4.2201842589627825,4.2201842589627825,0,1,1,-4.2201842589627825,0A4.2201842589627825,4.2201842589627825,0,1,1,4.2201842589627825,0" fill="#8ac3ff" stroke-width="2" opacity="0.7"></path><path transform="translate(420,337.81249999999994)" d="M4.163219540768579,0A4.163219540768579,4.163219540768579,0,1,1,-4.163219540768579,0A4.163219540768579,4.163219540768579,0,1,1,4.163219540768579,0" fill="#8ac3ff" stroke-width="2" opacity="0.7"></path><path transform="translate(432,365.625)" d="M4.062473747444712,0A4.062473747444712,4.062473747444712,0,1,1,-4.062473747444712,0A4.062473747444712,4.062473747444712,0,1,1,4.062473747444712,0" fill="#8ac3ff" stroke-width="2" opacity="0.7"></path><path transform="translate(444,317.8125)" d="M4.013777484659252,0A4.013777484659252,4.013777484659252,0,1,1,-4.013777484659252,0A4.013777484659252,4.013777484659252,0,1,1,4.013777484659252,0" fill="#8ac3ff" stroke-width="2" opacity="0.7"></path><path transform="translate(456,272.8125)" d="M3.9768639978150633,0A3.9768639978150633,3.9768639978150633,0,1,1,-3.9768639978150633,0A3.9768639978150633,3.9768639978150633,0,1,1,3.9768639978150633,0" fill="#8ac3ff" stroke-width="2" opacity="0.7"></path><path transform="translate(468,271.56250000000006)" d="M3.9485078156282847,0A3.9485078156282847,3.9485078156282847,0,1,1,-3.9485078156282847,0A3.9485078156282847,3.9485078156282847,0,1,1,3.9485078156282847,0" fill="#8ac3ff" stroke-width="2" opacity="0.7"></path><path transform="translate(480,276.25)" d="M3.9449489615453395,0A3.9449489615453395,3.9449489615453395,0,1,1,-3.9449489615453395,0A3.9449489615453395,3.9449489615453395,0,1,1,3.9449489615453395,0" fill="#8ac3ff" stroke-width="2" opacity="0.7"></path><path transform="translate(491.99999999999994,365)" d="M3.919946515328709,0A3.919946515328709,3.919946515328709,0,1,1,-3.919946515328709,0A3.919946515328709,3.919946515328709,0,1,1,3.919946515328709,0" fill="#8ac3ff" stroke-width="2" opacity="0.7"></path><path transform="translate(504,371.24999999999994)" d="M3.919946515328709,0A3.919946515328709,3.919946515328709,0,1,1,-3.919946515328709,0A3.919946515328709,3.919946515328709,0,1,1,3.919946515328709,0" fill="#8ac3ff" stroke-width="2" opacity="0.7"></path><path transform="translate(516,316.875)" d="M3.876710042352632,0A3.876710042352632,3.876710042352632,0,1,1,-3.876710042352632,0A3.876710042352632,3.876710042352632,0,1,1,3.876710042352632,0" fill="#8ac3ff" stroke-width="2" opacity="0.7"></path><path transform="translate(528,302.5)" d="M3.8274852489066262,0A3.8274852489066262,3.8274852489066262,0,1,1,-3.8274852489066262,0A3.8274852489066262,3.8274852489066262,0,1,1,3.8274852489066262,0" fill="#8ac3ff" stroke-width="2" opacity="0.7"></path><path transform="translate(540,268.75)" d="M3.8072482445669134,0A3.8072482445669134,3.8072482445669134,0,1,1,-3.8072482445669134,0A3.8072482445669134,3.8072482445669134,0,1,1,3.8072482445669134,0" fill="#8ac3ff" stroke-width="2" opacity="0.7"></path><path transform="translate(552,280.625)" d="M3.792462597341978,0A3.792462597341978,3.792462597341978,0,1,1,-3.792462597341978,0A3.792462597341978,3.792462597341978,0,1,1,3.792462597341978,0" fill="#8ac3ff" stroke-width="2" opacity="0.7"></path><path transform="translate(564,248.43749999999997)" d="M3.7794777071915484,0A3.7794777071915484,3.7794777071915484,0,1,1,-3.7794777071915484,0A3.7794777071915484,3.7794777071915484,0,1,1,3.7794777071915484,0" fill="#8ac3ff" stroke-width="2" opacity="0.7"></path><path transform="translate(576,369.375)" d="M3.7664480516898013,0A3.7664480516898013,3.7664480516898013,0,1,1,-3.7664480516898013,0A3.7664480516898013,3.7664480516898013,0,1,1,3.7664480516898013,0" fill="#8ac3ff" stroke-width="2" opacity="0.7"></path><path transform="translate(588,299.0625)" d="M3.7195409884927955,0A3.7195409884927955,3.7195409884927955,0,1,1,-3.7195409884927955,0A3.7195409884927955,3.7195409884927955,0,1,1,3.7195409884927955,0" fill="#8ac3ff" stroke-width="2" opacity="0.7"></path><path transform="translate(600,308.125)" d="M3.7138723286830917,0A3.7138723286830917,3.7138723286830917,0,1,1,-3.7138723286830917,0A3.7138723286830917,3.7138723286830917,0,1,1,3.7138723286830917,0" fill="#8ac3ff" stroke-width="2" opacity="0.7"></path></g><g class="mark-symbol role-mark layer_4_marks" role="graphics-symbol" aria-roledescription="symbol mark container"><path transform="translate(12,298.74999999999994)" d="M9.261626675630207,0A9.261626675630207,9.261626675630207,0,1,1,-9.261626675630207,0A9.261626675630207,9.261626675630207,0,1,1,9.261626675630207,0" fill="#ffd113" stroke-width="2" opacity="0.7"></path><path transform="translate(24,214.37499999999997)" d="M7.448548343111594,0A7.448548343111594,7.448548343111594,0,1,1,-7.448548343111594,0A7.448548343111594,7.448548343111594,0,1,1,7.448548343111594,0" fill="#ffd113" stroke-width="2" opacity="0.7"></path><path transform="translate(36,120.31249999999999)" d="M5.516988013867257,0A5.516988013867257,5.516988013867257,0,1,1,-5.516988013867257,0A5.516988013867257,5.516988013867257,0,1,1,5.516988013867257,0" fill="#ffd113" stroke-width="2" opacity="0.7"></path><path transform="translate(48,108.43750000000001)" d="M5.428443095842044,0A5.428443095842044,5.428443095842044,0,1,1,-5.428443095842044,0A5.428443095842044,5.428443095842044,0,1,1,5.428443095842044,0" fill="#ffd113" stroke-width="2" opacity="0.7"></path><path transform="translate(60,321.875)" d="M4.926564440053138,0A4.926564440053138,4.926564440053138,0,1,1,-4.926564440053138,0A4.926564440053138,4.926564440053138,0,1,1,4.926564440053138,0" fill="#ffd113" stroke-width="2" opacity="0.7"></path><path transform="translate(72,173.75000000000003)" d="M4.850423504053664,0A4.850423504053664,4.850423504053664,0,1,1,-4.850423504053664,0A4.850423504053664,4.850423504053664,0,1,1,4.850423504053664,0" fill="#ffd113" stroke-width="2" opacity="0.7"></path><path transform="translate(84.00000000000001,279.6875)" d="M4.691445244395004,0A4.691445244395004,4.691445244395004,0,1,1,-4.691445244395004,0A4.691445244395004,4.691445244395004,0,1,1,4.691445244395004,0" fill="#ffd113" stroke-width="2" opacity="0.7"></path><path transform="translate(96,181.56250000000003)" d="M4.670440755966885,0A4.670440755966885,4.670440755966885,0,1,1,-4.670440755966885,0A4.670440755966885,4.670440755966885,0,1,1,4.670440755966885,0" fill="#ffd113" stroke-width="2" opacity="0.7"></path><path transform="translate(108,169.99999999999997)" d="M4.600750879449641,0A4.600750879449641,4.600750879449641,0,1,1,-4.600750879449641,0A4.600750879449641,4.600750879449641,0,1,1,4.600750879449641,0" fill="#ffd113" stroke-width="2" opacity="0.7"></path><path transform="translate(120,364.0625)" d="M4.588522857220683,0A4.588522857220683,4.588522857220683,0,1,1,-4.588522857220683,0A4.588522857220683,4.588522857220683,0,1,1,4.588522857220683,0" fill="#ffd113" stroke-width="2" opacity="0.7"></path><path transform="translate(132,175.31249999999997)" d="M4.577796543988896,0A4.577796543988896,4.577796543988896,0,1,1,-4.577796543988896,0A4.577796543988896,4.577796543988896,0,1,1,4.577796543988896,0" fill="#ffd113" stroke-width="2" opacity="0.7"></path><path transform="translate(144,230.93750000000003)" d="M4.5284384310793895,0A4.5284384310793895,4.5284384310793895,0,1,1,-4.5284384310793895,0A4.5284384310793895,4.5284384310793895,0,1,1,4.5284384310793895,0" fill="#ffd113" stroke-width="2" opacity="0.7"></path><path transform="translate(156,223.12500000000003)" d="M4.4058120533855005,0A4.4058120533855005,4.4058120533855005,0,1,1,-4.4058120533855005,0A4.4058120533855005,4.4058120533855005,0,1,1,4.4058120533855005,0" fill="#ffd113" stroke-width="2" opacity="0.7"></path><path transform="translate(168.00000000000003,342.81249999999994)" d="M4.4058120533855005,0A4.4058120533855005,4.4058120533855005,0,1,1,-4.4058120533855005,0A4.4058120533855005,4.4058120533855005,0,1,1,4.4058120533855005,0" fill="#ffd113" stroke-width="2" opacity="0.7"></path><path transform="translate(180,366.24999999999994)" d="M4.386642210675153,0A4.386642210675153,4.386642210675153,0,1,1,-4.386642210675153,0A4.386642210675153,4.386642210675153,0,1,1,4.386642210675153,0" fill="#ffd113" stroke-width="2" opacity="0.7"></path><path transform="translate(192,180)" d="M4.3042179930897,0A4.3042179930897,4.3042179930897,0,1,1,-4.3042179930897,0A4.3042179930897,4.3042179930897,0,1,1,4.3042179930897,0" fill="#ffd113" stroke-width="2" opacity="0.7"></path><path transform="translate(204.00000000000003,284.6875)" d="M4.233476328399301,0A4.233476328399301,4.233476328399301,0,1,1,-4.233476328399301,0A4.233476328399301,4.233476328399301,0,1,1,4.233476328399301,0" fill="#ffd113" stroke-width="2" opacity="0.7"></path><path transform="translate(216,311.56249999999994)" d="M4.200167284087299,0A4.200167284087299,4.200167284087299,0,1,1,-4.200167284087299,0A4.200167284087299,4.200167284087299,0,1,1,4.200167284087299,0" fill="#ffd113" stroke-width="2" opacity="0.7"></path><path transform="translate(228,192.5)" d="M3.9556159181393786,0A3.9556159181393786,3.9556159181393786,0,1,1,-3.9556159181393786,0A3.9556159181393786,3.9556159181393786,0,1,1,3.9556159181393786,0" fill="#ffd113" stroke-width="2" opacity="0.7"></path><path transform="translate(240,364.375)" d="M3.9037889554992224,0A3.9037889554992224,3.9037889554992224,0,1,1,-3.9037889554992224,0A3.9037889554992224,3.9037889554992224,0,1,1,3.9037889554992224,0" fill="#ffd113" stroke-width="2" opacity="0.7"></path><path transform="translate(252,181.56250000000003)" d="M3.81461957703751,0A3.81461957703751,3.81461957703751,0,1,1,-3.81461957703751,0A3.81461957703751,3.81461957703751,0,1,1,3.81461957703751,0" fill="#ffd113" stroke-width="2" opacity="0.7"></path><path transform="translate(264,302.81250000000006)" d="M3.602525434780179,0A3.602525434780179,3.602525434780179,0,1,1,-3.602525434780179,0A3.602525434780179,3.602525434780179,0,1,1,3.602525434780179,0" fill="#ffd113" stroke-width="2" opacity="0.7"></path><path transform="translate(276,170.31249999999997)" d="M3.5356231803287805,0A3.5356231803287805,3.5356231803287805,0,1,1,-3.5356231803287805,0A3.5356231803287805,3.5356231803287805,0,1,1,3.5356231803287805,0" fill="#ffd113" stroke-width="2" opacity="0.7"></path><path transform="translate(288,95.93750000000001)" d="M3.5117063242814357,0A3.5117063242814357,3.5117063242814357,0,1,1,-3.5117063242814357,0A3.5117063242814357,3.5117063242814357,0,1,1,3.5117063242814357,0" fill="#ffd113" stroke-width="2" opacity="0.7"></path><path transform="translate(300,279.0625)" d="M3.4266830068622247,0A3.4266830068622247,3.4266830068622247,0,1,1,-3.4266830068622247,0A3.4266830068622247,3.4266830068622247,0,1,1,3.4266830068622247,0" fill="#ffd113" stroke-width="2" opacity="0.7"></path><path transform="translate(312,304.6875)" d="M3.391662912501533,0A3.391662912501533,3.391662912501533,0,1,1,-3.391662912501533,0A3.391662912501533,3.391662912501533,0,1,1,3.391662912501533,0" fill="#ffd113" stroke-width="2" opacity="0.7"></path><path transform="translate(324,227.81249999999997)" d="M3.370892909547618,0A3.370892909547618,3.370892909547618,0,1,1,-3.370892909547618,0A3.370892909547618,3.370892909547618,0,1,1,3.370892909547618,0" fill="#ffd113" stroke-width="2" opacity="0.7"></path><path transform="translate(336.00000000000006,333.125)" d="M3.3310731347838125,0A3.3310731347838125,3.3310731347838125,0,1,1,-3.3310731347838125,0A3.3310731347838125,3.3310731347838125,0,1,1,3.3310731347838125,0" fill="#ffd113" stroke-width="2" opacity="0.7"></path><path transform="translate(348,367.1875)" d="M3.3226292160754958,0A3.3226292160754958,3.3226292160754958,0,1,1,-3.3226292160754958,0A3.3226292160754958,3.3226292160754958,0,1,1,3.3226292160754958,0" fill="#ffd113" stroke-width="2" opacity="0.7"></path><path transform="translate(360,334.99999999999994)" d="M3.2992970118918503,0A3.2992970118918503,3.2992970118918503,0,1,1,-3.2992970118918503,0A3.2992970118918503,3.2992970118918503,0,1,1,3.2992970118918503,0" fill="#ffd113" stroke-width="2" opacity="0.7"></path><path transform="translate(372,110.62499999999997)" d="M3.290771558604228,0A3.290771558604228,3.290771558604228,0,1,1,-3.290771558604228,0A3.290771558604228,3.290771558604228,0,1,1,3.290771558604228,0" fill="#ffd113" stroke-width="2" opacity="0.7"></path><path transform="translate(384,278.4375)" d="M3.284362945777843,0A3.284362945777843,3.284362945777843,0,1,1,-3.284362945777843,0A3.284362945777843,3.284362945777843,0,1,1,3.284362945777843,0" fill="#ffd113" stroke-width="2" opacity="0.7"></path><path transform="translate(396,230.31249999999997)" d="M3.2672118566261554,0A3.2672118566261554,3.2672118566261554,0,1,1,-3.2672118566261554,0A3.2672118566261554,3.2672118566261554,0,1,1,3.2672118566261554,0" fill="#ffd113" stroke-width="2" opacity="0.7"></path><path transform="translate(408.00000000000006,295.3125)" d="M3.2672118566261554,0A3.2672118566261554,3.2672118566261554,0,1,1,-3.2672118566261554,0A3.2672118566261554,3.2672118566261554,0,1,1,3.2672118566261554,0" fill="#ffd113" stroke-width="2" opacity="0.7"></path><path transform="translate(420,375)" d="M3.258602460306955,0A3.258602460306955,3.258602460306955,0,1,1,-3.258602460306955,0A3.258602460306955,3.258602460306955,0,1,1,3.258602460306955,0" fill="#ffd113" stroke-width="2" opacity="0.7"></path><path transform="translate(432,259.0625)" d="M3.252130456023951,0A3.252130456023951,3.252130456023951,0,1,1,-3.252130456023951,0A3.252130456023951,3.252130456023951,0,1,1,3.252130456023951,0" fill="#ffd113" stroke-width="2" opacity="0.7"></path><path transform="translate(444,317.8125)" d="M3.199883212312382,0A3.199883212312382,3.199883212312382,0,1,1,-3.199883212312382,0A3.199883212312382,3.199883212312382,0,1,1,3.199883212312382,0" fill="#ffd113" stroke-width="2" opacity="0.7"></path><path transform="translate(456,244.06250000000003)" d="M3.1800691971211306,0A3.1800691971211306,3.1800691971211306,0,1,1,-3.1800691971211306,0A3.1800691971211306,3.1800691971211306,0,1,1,3.1800691971211306,0" fill="#ffd113" stroke-width="2" opacity="0.7"></path><path transform="translate(468,181.25000000000003)" d="M3.153456854500892,0A3.153456854500892,3.153456854500892,0,1,1,-3.153456854500892,0A3.153456854500892,3.153456854500892,0,1,1,3.153456854500892,0" fill="#ffd113" stroke-width="2" opacity="0.7"></path><path transform="translate(480,251.56250000000003)" d="M3.0607860240726996,0A3.0607860240726996,3.0607860240726996,0,1,1,-3.0607860240726996,0A3.0607860240726996,3.0607860240726996,0,1,1,3.0607860240726996,0" fill="#ffd113" stroke-width="2" opacity="0.7"></path><path transform="translate(491.99999999999994,367.8125)" d="M3.0515942986247,0A3.0515942986247,3.0515942986247,0,1,1,-3.0515942986247,0A3.0515942986247,3.0515942986247,0,1,1,3.0515942986247,0" fill="#ffd113" stroke-width="2" opacity="0.7"></path><path transform="translate(504,338.75)" d="M3.0423748029522573,0A3.0423748029522573,3.0423748029522573,0,1,1,-3.0423748029522573,0A3.0423748029522573,3.0423748029522573,0,1,1,3.0423748029522573,0" fill="#ffd113" stroke-width="2" opacity="0.7"></path><path transform="translate(516,369.6875)" d="M3.0284929352730545,0A3.0284929352730545,3.0284929352730545,0,1,1,-3.0284929352730545,0A3.0284929352730545,3.0284929352730545,0,1,1,3.0284929352730545,0" fill="#ffd113" stroke-width="2" opacity="0.7"></path><path transform="translate(528,359.375)" d="M3.021528084873415,0A3.021528084873415,3.021528084873415,0,1,1,-3.021528084873415,0A3.021528084873415,3.021528084873415,0,1,1,3.021528084873415,0" fill="#ffd113" stroke-width="2" opacity="0.7"></path><path transform="translate(540,309.6875)" d="M3.019202897660045,0A3.019202897660045,3.019202897660045,0,1,1,-3.019202897660045,0A3.019202897660045,3.019202897660045,0,1,1,3.019202897660045,0" fill="#ffd113" stroke-width="2" opacity="0.7"></path><path transform="translate(552,326.875)" d="M2.950975610620814,0A2.950975610620814,2.950975610620814,0,1,1,-2.950975610620814,0A2.950975610620814,2.950975610620814,0,1,1,2.950975610620814,0" fill="#ffd113" stroke-width="2" opacity="0.7"></path><path transform="translate(564,381.875)" d="M2.9366617224050335,0A2.9366617224050335,2.9366617224050335,0,1,1,-2.9366617224050335,0A2.9366617224050335,2.9366617224050335,0,1,1,2.9366617224050335,0" fill="#ffd113" stroke-width="2" opacity="0.7"></path><path transform="translate(576,227.49999999999997)" d="M2.907822571368296,0A2.907822571368296,2.907822571368296,0,1,1,-2.907822571368296,0A2.907822571368296,2.907822571368296,0,1,1,2.907822571368296,0" fill="#ffd113" stroke-width="2" opacity="0.7"></path><path transform="translate(588,55.312499999999986)" d="M2.8195358147608305,0A2.8195358147608305,2.8195358147608305,0,1,1,-2.8195358147608305,0A2.8195358147608305,2.8195358147608305,0,1,1,2.8195358147608305,0" fill="#ffd113" stroke-width="2" opacity="0.7"></path><path transform="translate(600,269.0625)" d="M2.766734496022174,0A2.766734496022174,2.766734496022174,0,1,1,-2.766734496022174,0A2.766734496022174,2.766734496022174,0,1,1,2.766734496022174,0" fill="#ffd113" stroke-width="2" opacity="0.7"></path></g><g class="mark-text role-mark layer_5_marks" role="graphics-object" aria-roledescription="text mark container"><text text-anchor="middle" transform="translate(371,14.93749999999999)" font-family="calibri" font-size="22px" font-weight="bold" fill="#8ac3ff">out-migration</text></g><g class="mark-text role-mark layer_6_marks" role="graphics-object" aria-roledescription="text mark container"><text text-anchor="middle" transform="translate(207.00000000000003,38.25)" font-family="calibri" font-size="22px" font-weight="bold" fill="#ffd113">in-migration</text></g><g class="mark-text role-mark layer_7_marks" role="graphics-object" aria-roledescription="text mark container"><text text-anchor="middle" transform="translate(498.99999999999994,14.93749999999999)" font-family="calibri" font-size="22px" fill="black" opacity="0.9">counties than</text></g><g class="mark-text role-mark layer_8_marks" role="graphics-object" aria-roledescription="text mark container"><text text-anchor="middle" transform="translate(306,38.25)" font-family="calibri" font-size="22px" fill="black" opacity="0.9">counties</text></g><g class="mark-group role-title"><g transform="translate(-60,-38.062500000000014)"><path class="background" aria-hidden="true" d="M0,0h0v0h0Z" pointer-events="none"></path><g><g class="mark-text role-title-text" role="graphics-symbol" aria-roledescription="title" aria-label="Title text 'Median Monthly Rent'" pointer-events="none"><text text-anchor="start" transform="translate(0,24)" font-family="Calibri" font-size="30px" font-weight="normal" fill="#000" opacity="1">Median Monthly Rent</text></g></g><path class="foreground" aria-hidden="true" d="" pointer-events="none" display="none"></path></g></g></g><path class="foreground" aria-hidden="true" d="" display="none"></path></g></g></g></svg>